<svg xmlns="http://www.w3.org/2000/svg" xmlns:xlink="http://www.w3.org/1999/xlink" preserveAspectRatio="xMidYMid" width="35" height="35" viewBox="0 0 35 35">
  <path d="M17.500,35.000 C7.835,35.000 -0.000,27.165 -0.000,17.500 C-0.000,7.835 7.835,-0.000 17.500,-0.000 C27.165,-0.000 35.000,7.835 35.000,17.500 C35.000,27.165 27.165,35.000 17.500,35.000 ZM11.992,16.893 C11.992,17.076 12.174,17.289 12.386,17.289 C12.930,17.289 14.382,14.640 15.502,14.640 C15.744,14.640 16.017,14.914 15.805,15.461 C15.805,15.461 13.687,20.821 13.687,20.821 C13.475,21.340 12.446,23.837 12.446,25.298 C12.446,26.455 13.202,26.973 14.292,26.973 C17.348,26.973 20.888,23.196 20.888,22.313 C20.888,22.039 20.676,21.857 20.525,21.857 C20.101,21.857 18.437,24.445 17.529,24.445 C17.287,24.445 17.167,24.232 17.167,24.019 C17.167,23.532 17.499,22.770 17.681,22.313 C17.681,22.313 19.859,16.376 19.859,16.376 C20.949,13.421 19.557,12.630 18.255,12.630 C16.501,12.630 14.927,13.513 13.717,14.670 C13.324,15.066 11.992,16.345 11.992,16.893 ZM19.919,7.027 C18.588,7.027 17.438,8.123 17.438,9.463 C17.438,10.712 18.255,11.534 19.496,11.534 C20.858,11.534 22.007,10.499 22.007,9.098 C22.007,7.849 21.130,7.027 19.919,7.027 Z" fill-rule="evenodd"/>
</svg>
