<svg xmlns="http://www.w3.org/2000/svg" xmlns:xlink="http://www.w3.org/1999/xlink" preserveAspectRatio="xMidYMid" width="25" height="22" viewBox="0 0 25 22">
  <path d="M12.513,21.998 C10.337,21.998 -0.002,13.106 -0.001,8.081 C-0.001,0.407 9.264,-3.468 12.500,4.016 C15.587,-3.169 25.001,0.334 25.001,8.029 C25.002,13.020 14.690,21.998 12.513,21.998 ZM17.000,11.000 C17.000,11.000 13.000,11.000 13.000,11.000 C13.000,11.000 13.000,7.000 13.000,7.000 C13.000,7.000 12.000,7.000 12.000,7.000 C12.000,7.000 12.000,11.000 12.000,11.000 C12.000,11.000 8.000,11.000 8.000,11.000 C8.000,11.000 8.000,12.000 8.000,12.000 C8.000,12.000 12.000,12.000 12.000,12.000 C12.000,12.000 12.000,16.000 12.000,16.000 C12.000,16.000 13.000,16.000 13.000,16.000 C13.000,16.000 13.000,12.000 13.000,12.000 C13.000,12.000 17.000,12.000 17.000,12.000 C17.000,12.000 17.000,11.000 17.000,11.000 Z" fill-rule="evenodd"/>
</svg>
