<svg xmlns="http://www.w3.org/2000/svg" xmlns:xlink="http://www.w3.org/1999/xlink" preserveAspectRatio="xMidYMid" width="49" height="59" viewBox="0 0 49 59">
  <path d="M-0.000,59.000 C-0.000,59.000 -0.000,8.000 -0.000,8.000 C-0.000,8.000 6.000,8.000 6.000,8.000 C6.000,8.000 6.000,11.000 6.000,11.000 C6.000,11.000 14.000,11.000 14.000,11.000 C14.000,11.000 14.000,8.000 14.000,8.000 C14.000,8.000 35.000,8.000 35.000,8.000 C35.000,8.000 35.000,11.000 35.000,11.000 C35.000,11.000 43.000,11.000 43.000,11.000 C43.000,11.000 43.000,8.000 43.000,8.000 C43.000,8.000 49.000,8.000 49.000,8.000 C49.000,8.000 49.000,59.000 49.000,59.000 C49.000,59.000 -0.000,59.000 -0.000,59.000 ZM46.000,21.000 C46.000,21.000 3.000,21.000 3.000,21.000 C3.000,21.000 3.000,56.000 3.000,56.000 C3.000,56.000 46.000,56.000 46.000,56.000 C46.000,56.000 46.000,21.000 46.000,21.000 ZM13.000,43.000 C13.000,43.000 6.000,43.000 6.000,43.000 C6.000,43.000 6.000,36.000 6.000,36.000 C6.000,36.000 13.000,36.000 13.000,36.000 C13.000,36.000 13.000,43.000 13.000,43.000 ZM13.000,53.000 C13.000,53.000 6.000,53.000 6.000,53.000 C6.000,53.000 6.000,46.000 6.000,46.000 C6.000,46.000 13.000,46.000 13.000,46.000 C13.000,46.000 13.000,53.000 13.000,53.000 ZM23.000,33.000 C23.000,33.000 16.000,33.000 16.000,33.000 C16.000,33.000 16.000,26.000 16.000,26.000 C16.000,26.000 23.000,26.000 23.000,26.000 C23.000,26.000 23.000,33.000 23.000,33.000 ZM23.000,43.000 C23.000,43.000 16.000,43.000 16.000,43.000 C16.000,43.000 16.000,36.000 16.000,36.000 C16.000,36.000 23.000,36.000 23.000,36.000 C23.000,36.000 23.000,43.000 23.000,43.000 ZM23.000,53.000 C23.000,53.000 16.000,53.000 16.000,53.000 C16.000,53.000 16.000,46.000 16.000,46.000 C16.000,46.000 23.000,46.000 23.000,46.000 C23.000,46.000 23.000,53.000 23.000,53.000 ZM33.000,33.000 C33.000,33.000 26.000,33.000 26.000,33.000 C26.000,33.000 26.000,26.000 26.000,26.000 C26.000,26.000 33.000,26.000 33.000,26.000 C33.000,26.000 33.000,33.000 33.000,33.000 ZM33.000,43.000 C33.000,43.000 26.000,43.000 26.000,43.000 C26.000,43.000 26.000,36.000 26.000,36.000 C26.000,36.000 33.000,36.000 33.000,36.000 C33.000,36.000 33.000,43.000 33.000,43.000 ZM33.000,53.000 C33.000,53.000 26.000,53.000 26.000,53.000 C26.000,53.000 26.000,46.000 26.000,46.000 C26.000,46.000 33.000,46.000 33.000,46.000 C33.000,46.000 33.000,53.000 33.000,53.000 ZM43.000,33.000 C43.000,33.000 36.000,33.000 36.000,33.000 C36.000,33.000 36.000,26.000 36.000,26.000 C36.000,26.000 43.000,26.000 43.000,26.000 C43.000,26.000 43.000,33.000 43.000,33.000 ZM43.000,43.000 C43.000,43.000 36.000,43.000 36.000,43.000 C36.000,43.000 36.000,36.000 36.000,36.000 C36.000,36.000 43.000,36.000 43.000,36.000 C43.000,36.000 43.000,43.000 43.000,43.000 ZM38.000,-0.000 C38.000,-0.000 40.000,-0.000 40.000,-0.000 C40.000,-0.000 42.000,10.000 42.000,10.000 C42.000,10.000 36.000,10.000 36.000,10.000 C36.000,10.000 38.000,-0.000 38.000,-0.000 ZM9.000,-0.000 C9.000,-0.000 11.000,-0.000 11.000,-0.000 C11.000,-0.000 13.000,10.000 13.000,10.000 C13.000,10.000 7.000,10.000 7.000,10.000 C7.000,10.000 9.000,-0.000 9.000,-0.000 Z" fill-rule="evenodd"/>
</svg>
