<svg xmlns="http://www.w3.org/2000/svg" xmlns:xlink="http://www.w3.org/1999/xlink" preserveAspectRatio="xMidYMid" width="20" height="27" viewBox="0 0 20 27">
  <path d="M6.000,27.000 C6.000,27.000 6.000,9.000 6.000,9.000 C6.000,9.000 20.000,9.000 20.000,9.000 C20.000,9.000 20.000,27.000 20.000,27.000 C20.000,27.000 6.000,27.000 6.000,27.000 ZM18.000,11.000 C18.000,11.000 8.000,11.000 8.000,11.000 C8.000,11.000 8.000,25.000 8.000,25.000 C8.000,25.000 18.000,25.000 18.000,25.000 C18.000,25.000 18.000,11.000 18.000,11.000 ZM12.000,2.000 C12.000,2.000 2.000,2.000 2.000,2.000 C2.000,2.000 2.000,18.000 2.000,18.000 C2.000,18.000 5.000,18.000 5.000,18.000 C5.000,18.000 5.000,20.000 5.000,20.000 C5.000,20.000 -0.000,20.000 -0.000,20.000 C-0.000,20.000 -0.000,-0.000 -0.000,-0.000 C-0.000,-0.000 14.000,-0.000 14.000,-0.000 C14.000,-0.000 14.000,8.000 14.000,8.000 C14.000,8.000 12.000,8.000 12.000,8.000 C12.000,8.000 12.000,2.000 12.000,2.000 Z" id="path-1" fill-rule="evenodd"/>
</svg>
