<svg xmlns="http://www.w3.org/2000/svg" xmlns:xlink="http://www.w3.org/1999/xlink" preserveAspectRatio="xMidYMid" width="16" height="16" viewBox="0 0 16 16">
  <path d="M15.993,13.869 C15.993,13.869 13.861,16.002 13.861,16.002 C13.861,16.002 7.996,10.136 7.996,10.136 C7.996,10.136 2.130,16.002 2.130,16.002 C2.130,16.002 -0.002,13.869 -0.002,13.869 C-0.002,13.869 5.863,8.004 5.863,8.004 C5.863,8.004 -0.002,2.138 -0.002,2.138 C-0.002,2.138 2.130,0.006 2.130,0.006 C2.130,0.006 7.995,5.871 7.995,5.871 C7.995,5.871 13.327,0.539 13.327,0.539 C13.327,0.539 15.460,2.672 15.460,2.672 C15.460,2.672 10.128,8.004 10.128,8.004 C10.128,8.004 15.993,13.869 15.993,13.869 Z" fill-rule="evenodd"/>
</svg>
