<svg xmlns="http://www.w3.org/2000/svg" xmlns:xlink="http://www.w3.org/1999/xlink" preserveAspectRatio="xMidYMid" width="16" height="16" viewBox="0 0 16 16">
  <path d="M13.000,10.000 C13.000,10.000 13.000,1.000 13.000,1.000 C13.000,1.000 16.000,1.000 16.000,1.000 C16.000,1.000 16.000,10.000 16.000,10.000 C16.000,10.000 13.000,10.000 13.000,10.000 ZM6.000,16.000 C6.000,16.000 7.000,11.000 7.000,11.000 C7.000,11.000 2.000,11.000 2.000,11.000 C1.448,11.000 -0.000,9.552 -0.000,9.000 C-0.000,9.000 3.000,1.000 3.000,1.000 C3.000,0.447 3.448,-0.000 4.000,-0.000 C4.000,-0.000 11.000,1.000 11.000,1.000 C11.552,1.000 12.000,1.448 12.000,2.000 C12.000,2.000 12.000,8.166 12.000,8.166 C12.000,8.166 8.000,15.000 8.000,15.000 C8.000,15.552 6.552,16.000 6.000,16.000 Z" fill-rule="evenodd"/>
</svg>
