<svg xmlns="http://www.w3.org/2000/svg" xmlns:xlink="http://www.w3.org/1999/xlink" preserveAspectRatio="xMidYMid" width="35" height="26" viewBox="0 0 35 26">
  <path d="M30.718,21.783 C30.272,22.542 29.191,24.655 30.158,26.000 C26.678,26.000 24.968,24.143 24.947,24.120 C23.760,24.357 22.513,24.493 21.219,24.493 C17.280,24.493 13.736,23.313 11.225,21.430 C11.696,21.457 12.170,21.480 12.652,21.480 C21.909,21.480 29.413,16.252 29.413,9.803 C29.413,8.651 29.164,7.541 28.718,6.490 C32.496,8.236 35.000,11.258 35.000,14.700 C35.000,17.489 33.351,19.999 30.718,21.783 ZM13.770,19.596 C12.476,19.596 11.229,19.461 10.042,19.224 C10.026,19.246 8.680,21.103 4.831,21.103 C6.320,19.822 4.086,16.960 4.086,16.960 C4.086,16.960 4.808,17.234 4.808,17.234 C1.862,15.437 -0.011,12.778 -0.011,9.803 C-0.011,4.394 6.159,0.009 13.770,0.009 C21.381,0.009 27.551,4.394 27.551,9.803 C27.551,15.212 21.381,19.596 13.770,19.596 Z" fill-rule="evenodd"/>
</svg>
