<svg xmlns="http://www.w3.org/2000/svg" xmlns:xlink="http://www.w3.org/1999/xlink" preserveAspectRatio="xMidYMid" width="16" height="16" viewBox="0 0 16 16">
  <path d="M13.000,15.000 C13.000,15.552 12.552,16.000 12.000,16.000 C12.000,16.000 5.000,15.000 5.000,15.000 C4.448,15.000 4.000,14.552 4.000,14.000 C4.000,14.000 4.000,7.833 4.000,7.833 C4.000,7.833 8.000,1.000 8.000,1.000 C8.000,0.448 9.448,-0.000 10.000,-0.000 C10.000,-0.000 9.000,5.000 9.000,5.000 C9.000,5.000 14.000,5.000 14.000,5.000 C14.552,5.000 16.000,6.448 16.000,7.000 C16.000,7.000 13.000,15.000 13.000,15.000 ZM-0.000,6.000 C-0.000,6.000 3.000,6.000 3.000,6.000 C3.000,6.000 3.000,15.000 3.000,15.000 C3.000,15.000 -0.000,15.000 -0.000,15.000 C-0.000,15.000 -0.000,6.000 -0.000,6.000 Z" fill-rule="evenodd"/>
</svg>
