<svg xmlns="http://www.w3.org/2000/svg" xmlns:xlink="http://www.w3.org/1999/xlink" preserveAspectRatio="xMidYMid" width="12" height="12" viewBox="0 0 12 12">
  <path d="M6.000,12.000 C2.686,12.000 -0.000,9.314 -0.000,6.000 C-0.000,2.686 2.686,-0.000 6.000,-0.000 C9.314,-0.000 12.000,2.686 12.000,6.000 C12.000,9.314 9.314,12.000 6.000,12.000 ZM6.000,3.000 C6.000,3.000 6.000,5.000 6.000,5.000 C6.000,5.000 3.000,5.000 3.000,5.000 C3.000,5.000 3.000,7.000 3.000,7.000 C3.000,7.000 6.000,7.000 6.000,7.000 C6.000,7.000 6.000,9.000 6.000,9.000 C6.000,9.000 10.000,6.000 10.000,6.000 C10.000,6.000 6.000,3.000 6.000,3.000 Z" fill-rule="evenodd"/>
</svg>
