<svg xmlns="http://www.w3.org/2000/svg" xmlns:xlink="http://www.w3.org/1999/xlink" preserveAspectRatio="xMidYMid" width="39" height="36" viewBox="0 0 39 36">
  <path d="M36.200,13.933 C35.604,14.536 34.924,14.987 34.214,15.362 C33.932,12.949 32.804,10.499 30.848,8.522 C28.603,6.252 25.744,5.081 23.031,5.048 C23.425,4.081 24.006,3.174 24.783,2.389 C27.935,-0.799 33.047,-0.799 36.200,2.389 C39.353,5.576 39.353,10.745 36.200,13.933 ZM34.562,20.000 C34.562,24.414 32.644,28.371 29.609,31.116 C29.609,31.116 31.562,36.000 31.562,36.000 C31.562,36.000 24.759,34.056 24.759,34.056 C23.138,34.656 21.392,35.000 19.562,35.000 C17.733,35.000 15.987,34.656 14.366,34.056 C14.366,34.056 7.562,36.000 7.562,36.000 C7.562,36.000 9.516,31.116 9.516,31.116 C6.481,28.371 4.562,24.414 4.562,20.000 C4.562,11.716 11.278,5.000 19.562,5.000 C27.847,5.000 34.562,11.716 34.562,20.000 ZM19.562,8.000 C16.380,8.000 13.494,9.248 11.347,11.270 C11.347,11.270 12.059,11.868 12.059,11.868 C14.034,10.045 16.664,8.923 19.562,8.923 C25.680,8.923 30.639,13.882 30.639,20.000 C30.639,26.118 25.680,31.077 19.562,31.077 C13.445,31.077 8.486,26.118 8.486,20.000 C8.486,16.868 9.791,14.045 11.880,12.031 C11.880,12.031 11.327,11.288 11.327,11.288 C9.014,13.475 7.562,16.565 7.562,20.000 C7.562,26.627 12.935,32.000 19.562,32.000 C26.190,32.000 31.562,26.627 31.562,20.000 C31.562,13.373 26.190,8.000 19.562,8.000 ZM19.709,18.284 C19.709,18.284 26.562,14.000 26.562,14.000 C26.562,14.000 21.165,20.297 21.165,20.297 C21.165,20.297 21.866,21.803 21.866,21.803 C21.866,21.803 18.562,21.000 18.562,21.000 C18.562,21.000 12.434,12.773 12.434,12.773 C10.568,14.615 9.409,17.171 9.409,20.000 C9.409,25.608 13.955,30.154 19.562,30.154 C25.170,30.154 29.716,25.608 29.716,20.000 C29.716,14.392 25.170,9.846 19.562,9.846 C16.948,9.846 14.572,10.843 12.772,12.466 C12.772,12.466 19.709,18.284 19.709,18.284 ZM18.562,20.000 C18.562,20.552 19.010,21.000 19.562,21.000 C20.115,21.000 20.562,20.552 20.562,20.000 C20.562,19.448 20.115,19.000 19.562,19.000 C19.010,19.000 18.562,19.448 18.562,20.000 ZM4.309,15.492 C3.606,15.125 2.931,14.683 2.341,14.092 C-0.784,10.968 -0.784,5.902 2.341,2.778 C5.465,-0.346 10.530,-0.346 13.654,2.778 C14.424,3.548 15.000,4.437 15.390,5.384 C12.701,5.417 9.868,6.564 7.644,8.789 C5.706,10.727 4.589,13.128 4.309,15.492 Z" fill-rule="evenodd"/>
</svg>
