<svg xmlns="http://www.w3.org/2000/svg" preserveAspectRatio="xMidYMid" width="21" height="25" viewBox="0 0 21 25"><defs><style>.cls-2 { fill: #9b9b9b; }</style></defs><path d="M20.165 21.08c.276.478.112 1.09-.366 1.366l-2.6 1.5c-.48.276-1.09.112-1.37-.367l-4-5.66c-.07-.11-.1-.23-.12-.34-.86.27-1.78.42-2.72.42-4.97 0-9-4.03-9-9s4.03-9 9-9 9 4.03 9 9c0 2.31-.89 4.42-2.32 6.01.19.08.37.21.48.4l4 5.66zM9 3C5.686 3 3 5.685 3 9c0 3.313 2.686 6 6 6s6-2.687 6-6c0-3.314-2.686-6-6-6z" id="path-1" class="cls-2" fill-rule="evenodd"/></svg>