<svg xmlns="http://www.w3.org/2000/svg" xmlns:xlink="http://www.w3.org/1999/xlink" preserveAspectRatio="xMidYMid" width="240" height="240" viewBox="0 0 240 240">
  <path d="M236.450,229.490 C236.450,229.490 228.136,237.803 228.136,237.803 C225.403,240.537 218.970,240.537 216.237,237.803 C216.237,237.803 160.375,174.871 160.375,174.871 C159.204,173.699 159.204,171.800 160.375,170.628 C160.375,170.628 170.275,160.729 170.275,160.729 C171.446,159.557 173.346,159.557 174.517,160.729 C174.517,160.729 237.450,216.590 237.450,216.590 C240.184,219.324 239.184,226.756 236.450,229.490 ZM158.077,143.228 C158.077,143.228 154.718,146.587 154.718,146.587 C154.718,146.587 159.668,151.536 159.668,151.536 C159.668,151.536 161.082,150.122 161.082,150.122 C161.863,149.341 163.130,149.341 163.911,150.122 C163.911,150.122 170.275,156.486 170.275,156.486 C171.056,157.267 171.056,158.533 170.275,159.315 C170.275,159.315 168.860,160.729 168.860,160.729 C168.860,160.729 168.861,160.729 168.861,160.729 C168.861,160.729 161.315,168.274 161.315,168.274 C161.315,168.274 158.961,170.628 158.961,170.628 C158.180,171.409 156.914,171.409 156.133,170.628 C156.133,170.628 149.769,164.264 149.769,164.264 C148.988,163.483 148.988,162.217 149.769,161.436 C149.769,161.436 151.183,160.022 151.183,160.022 C151.183,160.022 146.233,155.072 146.233,155.072 C146.233,155.072 143.228,158.077 143.228,158.077 C141.508,159.797 138.751,159.822 136.986,158.177 C103.038,182.076 55.833,178.870 25.473,148.509 C-8.503,114.534 -8.503,59.448 25.473,25.473 C59.448,-8.503 114.534,-8.503 148.509,25.473 C178.870,55.833 182.076,103.038 158.177,136.986 C159.822,138.750 159.797,141.508 158.077,143.228 ZM143.581,31.151 C112.535,0.105 62.198,0.105 31.151,31.151 C0.105,62.198 0.105,112.535 31.151,143.581 C62.198,174.628 112.535,174.628 143.581,143.581 C174.628,112.535 174.628,62.198 143.581,31.151 ZM33.980,140.753 C4.495,111.268 4.495,63.464 33.980,33.980 C63.464,4.495 111.268,4.495 140.753,33.980 C170.238,63.464 170.238,111.268 140.753,140.753 C111.268,170.238 63.464,170.238 33.980,140.753 ZM139.339,35.394 C110.635,6.691 64.098,6.691 35.394,35.394 C6.691,64.098 6.691,110.635 35.394,139.339 C64.098,168.042 110.635,168.042 139.339,139.339 C168.042,110.635 168.042,64.098 139.339,35.394 Z" fill-rule="evenodd"/>
</svg>
