<svg xmlns="http://www.w3.org/2000/svg" xmlns:xlink="http://www.w3.org/1999/xlink" preserveAspectRatio="xMidYMid" width="40" height="37" viewBox="0 0 40 37">
  <path d="M38.656,37.000 C38.656,37.000 15.656,37.000 15.656,37.000 C14.828,37.000 14.156,36.328 14.156,35.500 C14.156,35.500 14.156,35.000 14.156,35.000 C14.156,35.000 22.728,29.285 22.728,29.285 C22.728,29.285 26.156,31.000 26.156,31.000 C26.156,31.000 28.156,31.000 28.156,31.000 C28.156,31.000 31.585,29.286 31.585,29.286 C31.585,29.286 40.156,35.000 40.156,35.000 C40.156,35.000 40.156,35.500 40.156,35.500 C40.156,36.328 39.485,37.000 38.656,37.000 ZM40.156,25.000 C40.156,25.000 40.156,34.000 40.156,34.000 C40.156,34.000 32.956,28.600 32.956,28.600 C32.956,28.600 40.156,25.000 40.156,25.000 ZM25.156,29.000 C25.156,29.000 14.156,23.000 14.156,23.000 C14.156,23.000 14.156,22.500 14.156,22.500 C14.156,21.672 14.828,21.000 15.656,21.000 C15.656,21.000 38.656,21.000 38.656,21.000 C39.485,21.000 40.156,21.672 40.156,22.500 C40.156,22.500 40.156,23.000 40.156,23.000 C40.156,23.000 29.156,29.000 29.156,29.000 C29.156,29.000 25.156,29.000 25.156,29.000 ZM30.170,19.000 C30.475,17.831 30.645,16.490 30.645,14.939 C30.645,11.663 29.602,8.979 27.517,6.887 C25.431,4.794 22.520,3.748 18.782,3.748 C14.779,3.748 11.451,5.144 8.799,7.936 C6.146,10.729 4.820,14.134 4.820,18.151 C4.820,22.042 5.992,25.108 8.337,27.347 C9.417,28.380 10.696,29.163 12.156,29.719 C12.156,29.719 12.156,33.840 12.156,33.840 C9.337,33.152 6.900,31.876 4.851,30.003 C1.611,27.043 -0.009,23.064 -0.009,18.067 C-0.009,12.972 1.719,8.689 5.177,5.217 C8.634,1.746 13.085,0.010 18.530,0.010 C23.569,0.010 27.646,1.358 30.760,4.052 C33.875,6.747 35.432,10.298 35.432,14.708 C35.432,16.275 35.243,17.701 34.887,19.000 C34.887,19.000 30.170,19.000 30.170,19.000 ZM12.156,25.904 C11.581,25.571 11.045,25.164 10.583,24.618 C9.400,23.218 8.809,21.279 8.809,18.802 C8.809,15.597 9.628,12.990 11.266,10.981 C12.903,8.972 14.877,7.968 17.187,7.968 C19.272,7.968 20.581,8.787 21.113,10.424 C21.113,10.424 21.197,10.424 21.197,10.424 C21.197,10.424 21.407,8.346 21.407,8.346 C21.407,8.346 26.131,8.346 26.131,8.346 C25.600,13.368 25.296,16.907 25.212,19.000 C25.212,19.000 20.361,19.000 20.361,19.000 C20.641,17.913 20.798,16.672 20.798,15.233 C20.798,14.113 20.535,13.231 20.010,12.587 C19.486,11.943 18.789,11.621 17.921,11.621 C16.662,11.621 15.636,12.339 14.845,13.773 C14.054,15.208 13.659,16.870 13.659,18.760 C13.659,18.984 13.678,19.188 13.693,19.396 C12.780,19.911 12.156,20.877 12.156,22.000 C12.156,22.000 12.156,25.904 12.156,25.904 ZM14.156,34.000 C14.156,34.000 14.156,25.000 14.156,25.000 C14.156,25.000 21.356,28.600 21.356,28.600 C21.356,28.600 14.156,34.000 14.156,34.000 Z" fill-rule="evenodd"/>
</svg>
