<svg xmlns="http://www.w3.org/2000/svg" xmlns:xlink="http://www.w3.org/1999/xlink" preserveAspectRatio="xMidYMid" width="40" height="29" viewBox="0 0 40 29">
  <path d="M33.626,22.497 C33.626,22.497 32.000,29.000 32.000,29.000 C32.000,29.000 24.485,25.660 24.485,25.660 C23.041,25.875 21.544,26.000 20.000,26.000 C8.954,26.000 -0.000,20.180 -0.000,13.000 C-0.000,5.820 8.954,-0.000 20.000,-0.000 C31.046,-0.000 40.000,5.820 40.000,13.000 C40.000,16.753 37.539,20.124 33.626,22.497 ZM17.374,11.136 C17.059,11.453 15.994,12.476 15.994,12.914 C15.994,13.060 16.139,13.231 16.309,13.231 C16.744,13.231 17.906,11.112 18.802,11.112 C18.996,11.112 19.213,11.331 19.044,11.769 C19.044,11.769 17.350,16.057 17.350,16.057 C17.180,16.472 16.357,18.469 16.357,19.639 C16.357,20.564 16.962,20.978 17.834,20.978 C20.279,20.978 23.110,17.957 23.110,17.251 C23.110,17.031 22.941,16.885 22.820,16.885 C22.481,16.885 21.149,18.956 20.423,18.956 C20.230,18.956 20.133,18.785 20.133,18.615 C20.133,18.226 20.399,17.616 20.545,17.251 C20.545,17.251 22.287,12.501 22.287,12.501 C23.159,10.137 22.045,9.504 21.004,9.504 C19.601,9.504 18.342,10.210 17.374,11.136 ZM22.335,5.022 C21.270,5.022 20.351,5.898 20.351,6.970 C20.351,7.969 21.004,8.627 21.997,8.627 C23.086,8.627 24.006,7.799 24.006,6.678 C24.006,5.679 23.304,5.022 22.335,5.022 Z" fill-rule="evenodd"/>
</svg>
