<svg xmlns="http://www.w3.org/2000/svg" xmlns:xlink="http://www.w3.org/1999/xlink" preserveAspectRatio="xMidYMid" width="32" height="32" viewBox="0 0 32 32">
  <path d="M16.000,32.000 C7.163,32.000 -0.000,24.837 -0.000,16.000 C-0.000,7.163 7.163,-0.000 16.000,-0.000 C24.836,-0.000 32.000,7.163 32.000,16.000 C32.000,24.837 24.836,32.000 16.000,32.000 ZM16.000,2.000 C8.268,2.000 2.000,8.268 2.000,16.000 C2.000,23.732 8.268,30.000 16.000,30.000 C23.732,30.000 30.000,23.732 30.000,16.000 C30.000,8.268 23.732,2.000 16.000,2.000 ZM20.470,14.008 C20.268,14.337 20.017,14.654 19.717,14.957 C19.418,15.260 19.074,15.573 18.684,15.894 C18.422,16.112 18.192,16.314 17.994,16.501 C17.795,16.688 17.630,16.873 17.499,17.057 C17.368,17.240 17.269,17.435 17.202,17.641 C17.134,17.847 17.101,18.081 17.101,18.343 C17.101,18.522 17.125,18.706 17.174,18.893 C17.222,19.080 17.288,19.237 17.370,19.365 C17.370,19.365 14.417,19.365 14.417,19.365 C14.342,19.170 14.284,18.951 14.243,18.708 C14.201,18.465 14.181,18.234 14.181,18.017 C14.181,17.673 14.215,17.358 14.282,17.074 C14.349,16.789 14.450,16.522 14.585,16.271 C14.720,16.020 14.888,15.780 15.091,15.552 C15.293,15.324 15.529,15.097 15.798,14.872 C16.083,14.633 16.332,14.410 16.545,14.204 C16.758,13.998 16.940,13.793 17.090,13.587 C17.239,13.381 17.352,13.167 17.427,12.947 C17.501,12.726 17.539,12.480 17.539,12.211 C17.539,11.979 17.498,11.764 17.415,11.565 C17.333,11.367 17.215,11.196 17.062,11.054 C16.908,10.912 16.721,10.800 16.500,10.717 C16.279,10.635 16.034,10.594 15.764,10.594 C15.180,10.594 14.574,10.716 13.945,10.959 C13.316,11.202 12.721,11.571 12.159,12.065 C12.159,12.065 12.159,8.685 12.159,8.685 C12.736,8.340 13.365,8.082 14.046,7.910 C14.727,7.738 15.431,7.651 16.157,7.651 C16.854,7.651 17.501,7.728 18.100,7.882 C18.699,8.035 19.221,8.277 19.667,8.606 C20.112,8.935 20.460,9.357 20.711,9.869 C20.962,10.382 21.088,10.998 21.088,11.717 C21.088,12.174 21.035,12.587 20.930,12.958 C20.825,13.328 20.672,13.678 20.470,14.008 ZM16.056,20.578 C16.648,20.578 17.138,20.754 17.528,21.105 C17.917,21.450 18.112,21.888 18.112,22.419 C18.112,22.958 17.921,23.404 17.539,23.756 C17.149,24.108 16.655,24.284 16.056,24.284 C15.457,24.284 14.959,24.104 14.563,23.745 C14.166,23.370 13.968,22.929 13.968,22.419 C13.968,21.895 14.166,21.457 14.563,21.105 C14.959,20.754 15.457,20.578 16.056,20.578 Z" id="path-1" fill-rule="evenodd"/>
</svg>
