<svg xmlns="http://www.w3.org/2000/svg" xmlns:xlink="http://www.w3.org/1999/xlink" preserveAspectRatio="xMidYMid" width="24" height="18" viewBox="0 0 24 18">
  <path d="M23.000,10.000 C23.000,10.000 8.000,10.000 8.000,10.000 C7.448,10.000 7.000,9.552 7.000,9.000 C7.000,8.448 7.448,8.000 8.000,8.000 C8.000,8.000 23.000,8.000 23.000,8.000 C23.552,8.000 24.000,8.448 24.000,9.000 C24.000,9.552 23.552,10.000 23.000,10.000 ZM23.000,3.000 C23.000,3.000 8.000,3.000 8.000,3.000 C7.448,3.000 7.000,2.552 7.000,2.000 C7.000,1.448 7.448,1.000 8.000,1.000 C8.000,1.000 23.000,1.000 23.000,1.000 C23.552,1.000 24.000,1.448 24.000,2.000 C24.000,2.552 23.552,3.000 23.000,3.000 ZM2.000,18.000 C0.895,18.000 -0.000,17.104 -0.000,16.000 C-0.000,14.895 0.895,14.000 2.000,14.000 C3.105,14.000 4.000,14.895 4.000,16.000 C4.000,17.104 3.105,18.000 2.000,18.000 ZM2.000,11.000 C0.895,11.000 -0.000,10.104 -0.000,9.000 C-0.000,7.895 0.895,7.000 2.000,7.000 C3.105,7.000 4.000,7.895 4.000,9.000 C4.000,10.104 3.105,11.000 2.000,11.000 ZM2.000,4.000 C0.895,4.000 -0.000,3.104 -0.000,2.000 C-0.000,0.895 0.895,-0.000 2.000,-0.000 C3.105,-0.000 4.000,0.895 4.000,2.000 C4.000,3.104 3.105,4.000 2.000,4.000 ZM8.000,15.000 C8.000,15.000 23.000,15.000 23.000,15.000 C23.552,15.000 24.000,15.448 24.000,16.000 C24.000,16.552 23.552,17.000 23.000,17.000 C23.000,17.000 8.000,17.000 8.000,17.000 C7.448,17.000 7.000,16.552 7.000,16.000 C7.000,15.448 7.448,15.000 8.000,15.000 Z" id="path-1" fill-rule="evenodd"/>
</svg>
