<svg xmlns="http://www.w3.org/2000/svg" xmlns:xlink="http://www.w3.org/1999/xlink" preserveAspectRatio="xMidYMid" width="25" height="23" viewBox="0 0 25 23">
  <path d="M25.000,10.999 C25.000,10.999 24.000,20.999 24.000,20.999 C24.000,22.104 13.105,21.999 12.000,21.999 C12.000,21.999 10.000,21.999 10.000,21.999 C8.895,21.999 8.000,21.104 8.000,19.999 C8.000,19.999 8.000,9.999 8.000,9.999 C8.000,8.895 8.895,7.999 10.000,7.999 C10.000,7.999 14.000,0.999 14.000,0.999 C14.000,0.999 17.000,-0.001 17.000,-0.001 C17.000,-0.001 16.048,8.564 16.048,8.564 C19.883,9.211 25.000,10.274 25.000,10.999 ZM-0.000,8.000 C-0.000,8.000 7.000,8.000 7.000,8.000 C7.000,8.000 7.000,23.000 7.000,23.000 C7.000,23.000 -0.000,23.000 -0.000,23.000 C-0.000,23.000 -0.000,8.000 -0.000,8.000 ZM2.421,21.546 C3.012,22.132 3.969,22.132 4.559,21.546 C5.150,20.960 5.150,20.010 4.559,19.424 C3.969,18.839 3.012,18.839 2.421,19.424 C1.831,20.010 1.831,20.960 2.421,21.546 Z" id="path-1" fill-rule="evenodd"/>
</svg>
