<svg xmlns="http://www.w3.org/2000/svg" xmlns:xlink="http://www.w3.org/1999/xlink" preserveAspectRatio="xMidYMid" width="30" height="22" viewBox="0 0 30 22">
  <path d="M28.000,17.080 C28.000,17.080 28.000,21.998 28.000,21.998 C28.000,21.998 23.837,19.335 23.837,19.335 C22.655,19.676 21.360,19.866 20.000,19.866 C16.039,19.866 12.627,18.265 11.007,15.950 C17.162,15.565 22.000,11.706 22.000,6.993 C22.000,6.703 21.978,6.416 21.942,6.132 C26.535,6.759 30.000,9.564 30.000,12.932 C30.000,14.490 29.250,15.922 28.000,17.080 ZM10.000,13.866 C8.640,13.866 7.345,13.676 6.163,13.335 C6.163,13.335 2.000,15.999 2.000,15.999 C2.000,15.999 2.000,11.080 2.000,11.080 C0.750,9.922 -0.000,8.490 -0.000,6.932 C-0.000,3.103 4.477,-0.001 10.000,-0.001 C15.523,-0.001 20.000,3.103 20.000,6.932 C20.000,10.761 15.523,13.866 10.000,13.866 Z" fill-rule="evenodd"/>
</svg>
