<svg xmlns="http://www.w3.org/2000/svg" xmlns:xlink="http://www.w3.org/1999/xlink" preserveAspectRatio="xMidYMid" width="27" height="27" viewBox="0 0 27 27">
  <path d="M24.000,27.000 C24.000,27.000 3.000,27.000 3.000,27.000 C1.343,27.000 -0.000,25.657 -0.000,24.000 C-0.000,24.000 -0.000,6.000 -0.000,6.000 C-0.000,4.343 1.343,3.000 3.000,3.000 C3.000,3.000 4.000,3.000 4.000,3.000 C4.000,3.000 4.000,5.000 4.000,5.000 C2.895,5.000 2.000,5.895 2.000,7.000 C2.000,7.000 2.000,23.000 2.000,23.000 C2.000,24.104 2.895,25.000 4.000,25.000 C4.000,25.000 23.000,25.000 23.000,25.000 C24.105,25.000 25.000,24.104 25.000,23.000 C25.000,23.000 25.000,7.000 25.000,7.000 C25.000,5.895 24.105,5.000 23.000,5.000 C23.000,5.000 23.000,3.000 23.000,3.000 C23.000,3.000 24.000,3.000 24.000,3.000 C25.657,3.000 27.000,4.343 27.000,6.000 C27.000,6.000 27.000,24.000 27.000,24.000 C27.000,25.657 25.657,27.000 24.000,27.000 ZM21.000,16.000 C20.448,16.000 20.000,15.552 20.000,15.000 C20.000,14.448 20.448,14.000 21.000,14.000 C21.552,14.000 22.000,14.448 22.000,15.000 C22.000,15.552 21.552,16.000 21.000,16.000 ZM21.000,12.000 C20.448,12.000 20.000,11.552 20.000,11.000 C20.000,10.448 20.448,10.000 21.000,10.000 C21.552,10.000 22.000,10.448 22.000,11.000 C22.000,11.552 21.552,12.000 21.000,12.000 ZM21.000,6.000 C21.000,6.000 20.000,6.000 20.000,6.000 C19.448,6.000 19.000,5.552 19.000,5.000 C19.000,5.000 19.000,1.000 19.000,1.000 C19.000,0.448 19.448,-0.000 20.000,-0.000 C20.000,-0.000 21.000,-0.000 21.000,-0.000 C21.552,-0.000 22.000,0.448 22.000,1.000 C22.000,1.000 22.000,5.000 22.000,5.000 C22.000,5.552 21.552,6.000 21.000,6.000 ZM16.000,14.000 C16.552,14.000 17.000,14.448 17.000,15.000 C17.000,15.552 16.552,16.000 16.000,16.000 C15.448,16.000 15.000,15.552 15.000,15.000 C15.000,14.448 15.448,14.000 16.000,14.000 ZM16.000,10.000 C16.552,10.000 17.000,10.448 17.000,11.000 C17.000,11.552 16.552,12.000 16.000,12.000 C15.448,12.000 15.000,11.552 15.000,11.000 C15.000,10.448 15.448,10.000 16.000,10.000 ZM11.000,10.000 C11.552,10.000 12.000,10.448 12.000,11.000 C12.000,11.552 11.552,12.000 11.000,12.000 C10.448,12.000 10.000,11.552 10.000,11.000 C10.000,10.448 10.448,10.000 11.000,10.000 ZM11.000,18.000 C11.552,18.000 12.000,18.448 12.000,19.000 C12.000,19.552 11.552,20.000 11.000,20.000 C10.448,20.000 10.000,19.552 10.000,19.000 C10.000,18.448 10.448,18.000 11.000,18.000 ZM11.000,14.000 C11.552,14.000 12.000,14.448 12.000,15.000 C12.000,15.552 11.552,16.000 11.000,16.000 C10.448,16.000 10.000,15.552 10.000,15.000 C10.000,14.448 10.448,14.000 11.000,14.000 ZM9.000,3.000 C9.000,3.000 18.000,3.000 18.000,3.000 C18.000,3.000 18.000,5.000 18.000,5.000 C18.000,5.000 9.000,5.000 9.000,5.000 C9.000,5.000 9.000,3.000 9.000,3.000 ZM6.000,10.000 C6.552,10.000 7.000,10.448 7.000,11.000 C7.000,11.552 6.552,12.000 6.000,12.000 C5.448,12.000 5.000,11.552 5.000,11.000 C5.000,10.448 5.448,10.000 6.000,10.000 ZM6.000,18.000 C6.552,18.000 7.000,18.448 7.000,19.000 C7.000,19.552 6.552,20.000 6.000,20.000 C5.448,20.000 5.000,19.552 5.000,19.000 C5.000,18.448 5.448,18.000 6.000,18.000 ZM6.000,14.000 C6.552,14.000 7.000,14.448 7.000,15.000 C7.000,15.552 6.552,16.000 6.000,16.000 C5.448,16.000 5.000,15.552 5.000,15.000 C5.000,14.448 5.448,14.000 6.000,14.000 ZM7.000,6.000 C7.000,6.000 6.000,6.000 6.000,6.000 C5.448,6.000 5.000,5.552 5.000,5.000 C5.000,5.000 5.000,1.000 5.000,1.000 C5.000,0.448 5.448,-0.000 6.000,-0.000 C6.000,-0.000 7.000,-0.000 7.000,-0.000 C7.552,-0.000 8.000,0.448 8.000,1.000 C8.000,1.000 8.000,5.000 8.000,5.000 C8.000,5.552 7.552,6.000 7.000,6.000 Z" fill-rule="evenodd"/>
</svg>
