<svg xmlns="http://www.w3.org/2000/svg" xmlns:xlink="http://www.w3.org/1999/xlink" preserveAspectRatio="xMidYMid" width="23" height="30" viewBox="0 0 23 30">
  <path d="M21.324,10.533 L23.000,11.500 L21.324,12.467 L22.779,13.744 L20.947,14.366 L22.125,15.901 L20.206,16.153 L21.062,17.890 L19.131,17.762 L19.632,19.632 L17.763,19.131 L17.889,21.062 L16.154,20.206 L15.901,22.125 L14.366,20.947 L13.743,22.779 L12.468,21.325 L11.500,23.000 L10.532,21.325 L9.256,22.779 L8.634,20.947 L7.099,22.125 L6.846,20.206 L5.111,21.062 L5.237,19.131 L3.368,19.632 L3.869,17.762 L1.938,17.889 L2.794,16.153 L0.875,15.901 L2.053,14.366 L0.221,13.744 L1.676,12.467 L-0.000,11.500 L1.676,10.533 L0.221,9.256 L2.053,8.634 L0.875,7.099 L2.794,6.847 L1.938,5.111 L3.869,5.237 L3.368,3.368 L5.238,3.869 L5.111,1.938 L6.847,2.794 L7.099,0.875 L8.634,2.053 L9.256,0.221 L10.533,1.676 L11.500,-0.000 L12.468,1.676 L13.744,0.221 L14.366,2.053 L15.901,0.875 L16.154,2.794 L17.890,1.938 L17.763,3.869 L19.632,3.369 L19.131,5.237 L21.062,5.111 L20.206,6.847 L22.125,7.099 L20.947,8.634 L22.779,9.257 L21.324,10.533 ZM12.983,9.828 L11.500,7.000 L10.017,9.828 L7.001,10.438 L9.100,12.795 L8.719,16.000 L11.500,14.628 L14.281,16.000 L13.900,12.795 L15.999,10.438 L12.983,9.828 ZM5.111,23.062 L6.846,22.206 L7.099,24.125 L8.634,22.947 L9.256,24.779 L10.532,23.325 L11.500,25.000 L12.468,23.325 L13.743,24.780 L14.366,22.947 L15.901,24.125 L16.154,22.206 L17.889,23.062 L17.763,21.131 L19.000,21.463 L19.000,30.000 L11.500,27.000 L4.000,30.000 L4.000,21.463 L5.237,21.131 L5.111,23.062 Z"/>
</svg>
