<svg xmlns="http://www.w3.org/2000/svg" xmlns:xlink="http://www.w3.org/1999/xlink" preserveAspectRatio="xMidYMid" width="28" height="22" viewBox="0 0 28 22">
  <path d="M27.150,8.757 C27.150,8.757 14.422,21.484 14.422,21.484 C14.285,21.622 13.412,21.710 12.327,21.751 C12.327,21.751 25.322,8.757 25.322,8.757 C25.712,8.366 25.712,7.733 25.322,7.343 C25.322,7.343 18.458,0.478 18.458,0.478 C18.458,0.478 18.665,0.271 18.665,0.271 C19.055,-0.119 19.688,-0.119 20.079,0.271 C20.079,0.271 27.150,7.342 27.150,7.342 C27.540,7.733 27.540,8.366 27.150,8.757 ZM21.493,8.757 C21.493,8.757 8.765,21.484 8.765,21.484 C8.375,21.875 2.085,21.875 1.694,21.484 C1.694,21.484 0.280,20.070 0.280,20.070 C-0.111,19.680 -0.111,13.390 0.280,12.999 C0.280,12.999 13.008,0.271 13.008,0.271 C13.398,-0.119 14.032,-0.119 14.422,0.271 C14.422,0.271 21.493,7.342 21.493,7.342 C21.884,7.733 21.884,8.366 21.493,8.757 ZM5.230,16.535 C4.449,15.754 3.182,15.754 2.401,16.535 C1.620,17.316 1.620,18.582 2.401,19.363 C3.182,20.144 4.449,20.144 5.230,19.363 C6.011,18.582 6.011,17.316 5.230,16.535 Z" fill-rule="evenodd"/>
</svg>
