<svg xmlns="http://www.w3.org/2000/svg" xmlns:xlink="http://www.w3.org/1999/xlink" preserveAspectRatio="xMidYMid" width="30" height="22" viewBox="0 0 30 22">
  <path d="M30.000,12.000 C30.000,12.000 29.000,12.000 29.000,12.000 C29.000,12.000 29.000,22.000 29.000,22.000 C29.000,22.000 9.000,22.000 9.000,22.000 C9.000,22.000 9.000,18.000 9.000,18.000 C9.000,18.000 11.000,18.000 11.000,18.000 C11.000,18.000 11.000,20.000 11.000,20.000 C11.000,20.000 18.000,20.000 18.000,20.000 C18.000,20.000 18.000,12.000 18.000,12.000 C18.000,12.000 11.000,12.000 11.000,12.000 C11.000,12.000 11.000,14.000 11.000,14.000 C11.000,14.000 9.000,14.000 9.000,14.000 C9.000,14.000 9.000,12.000 9.000,12.000 C9.000,12.000 8.000,12.000 8.000,12.000 C8.000,12.000 8.000,6.000 8.000,6.000 C8.000,6.000 17.284,6.000 17.284,6.000 C18.672,6.154 19.788,6.181 19.788,6.181 C19.788,6.181 20.923,6.154 22.309,6.000 C22.309,6.000 30.000,6.000 30.000,6.000 C30.000,6.000 30.000,12.000 30.000,12.000 ZM18.000,8.000 C18.000,8.000 10.000,8.000 10.000,8.000 C10.000,8.000 10.000,11.000 10.000,11.000 C10.000,11.000 18.000,11.000 18.000,11.000 C18.000,11.000 18.000,8.000 18.000,8.000 ZM20.000,20.000 C20.000,20.000 27.000,20.000 27.000,20.000 C27.000,20.000 27.000,12.000 27.000,12.000 C27.000,12.000 20.000,12.000 20.000,12.000 C20.000,12.000 20.000,20.000 20.000,20.000 ZM28.000,8.000 C28.000,8.000 20.000,8.000 20.000,8.000 C20.000,8.000 20.000,11.000 20.000,11.000 C20.000,11.000 28.000,11.000 28.000,11.000 C28.000,11.000 28.000,8.000 28.000,8.000 ZM17.284,6.000 C15.919,5.848 14.292,5.573 13.204,5.076 C11.009,4.074 13.512,-1.971 16.496,0.655 C19.479,3.279 19.788,6.181 19.788,6.181 C19.788,6.181 18.000,6.000 18.000,6.000 C18.000,6.000 17.284,6.000 17.284,6.000 ZM17.227,3.100 C15.902,2.161 14.789,4.322 15.764,4.681 C16.740,5.038 18.691,5.076 18.691,5.076 C18.691,5.076 18.554,4.038 17.227,3.100 ZM19.788,6.181 C19.788,6.181 20.086,3.476 22.963,1.029 C25.840,-1.418 28.254,4.217 26.137,5.151 C25.116,5.601 23.603,5.856 22.309,6.000 C22.309,6.000 21.000,6.000 21.000,6.000 C21.000,6.000 19.788,6.181 19.788,6.181 ZM23.668,4.782 C24.609,4.448 23.536,2.433 22.257,3.308 C20.979,4.183 20.846,5.151 20.846,5.151 C20.846,5.151 22.728,5.116 23.668,4.782 ZM12.000,15.000 C12.000,15.000 12.000,17.000 12.000,17.000 C12.000,17.000 7.000,17.000 7.000,17.000 C7.000,17.000 7.000,22.000 7.000,22.000 C7.000,22.000 5.000,22.000 5.000,22.000 C5.000,22.000 5.000,17.000 5.000,17.000 C5.000,17.000 -0.000,17.000 -0.000,17.000 C-0.000,17.000 -0.000,15.000 -0.000,15.000 C-0.000,15.000 5.000,15.000 5.000,15.000 C5.000,15.000 5.000,10.000 5.000,10.000 C5.000,10.000 7.000,10.000 7.000,10.000 C7.000,10.000 7.000,15.000 7.000,15.000 C7.000,15.000 12.000,15.000 12.000,15.000 Z" id="path-1" fill-rule="evenodd"/>
</svg>
