<svg xmlns="http://www.w3.org/2000/svg" xmlns:xlink="http://www.w3.org/1999/xlink" preserveAspectRatio="xMidYMid" width="14" height="14" viewBox="0 0 14 14">
  <path d="M13.018,5.951 C13.018,5.951 7.803,11.166 6.654,12.315 C5.505,13.464 0.909,13.641 0.290,13.022 C-0.328,12.403 0.114,7.542 0.998,6.658 C1.881,5.774 7.361,0.294 7.361,0.294 C7.752,-0.096 8.385,-0.096 8.776,0.294 C8.776,0.294 13.018,4.537 13.018,4.537 C13.409,4.927 13.409,5.560 13.018,5.951 ZM3.119,10.194 C2.728,9.803 2.095,9.803 1.705,10.194 C1.314,10.584 1.314,11.217 1.705,11.608 C2.095,11.998 2.728,11.998 3.119,11.608 C3.509,11.217 3.509,10.584 3.119,10.194 Z" fill-rule="evenodd"/>
</svg>
