<svg xmlns="http://www.w3.org/2000/svg" xmlns:xlink="http://www.w3.org/1999/xlink" preserveAspectRatio="xMidYMid" width="12" height="10" viewBox="0 0 12 10">
  <path d="M11.800,3.187 C11.800,3.187 11.000,7.187 11.000,7.187 C11.000,7.187 10.000,7.187 10.000,7.187 C10.000,7.187 10.800,3.187 10.800,3.187 C10.800,3.187 4.000,3.187 4.000,3.187 C4.000,3.187 3.702,2.889 3.702,2.889 C3.702,2.889 5.115,6.187 5.115,6.187 C5.115,6.187 10.000,6.187 10.000,6.187 C10.000,6.187 10.000,7.187 10.000,7.187 C10.000,7.187 5.000,7.187 5.000,7.187 C5.000,7.187 1.949,1.187 1.949,1.187 C1.949,1.187 -0.000,1.187 -0.000,1.187 C-0.000,1.187 -0.000,0.187 -0.000,0.187 C-0.000,0.187 2.000,0.187 2.000,0.187 C2.000,0.187 2.460,-0.009 2.460,-0.009 C2.460,-0.009 2.544,0.187 2.544,0.187 C2.544,0.187 3.000,0.187 3.000,0.187 C3.000,0.187 3.000,1.187 3.000,1.187 C3.000,1.187 2.973,1.187 2.973,1.187 C2.973,1.187 3.401,2.187 3.401,2.187 C3.401,2.187 11.000,2.187 11.000,2.187 C11.000,2.187 12.000,2.187 12.000,2.187 C12.000,2.187 12.000,3.187 12.000,3.187 C12.000,3.187 11.800,3.187 11.800,3.187 ZM6.000,8.187 C6.552,8.187 7.000,8.635 7.000,9.187 C7.000,9.740 6.552,10.187 6.000,10.187 C5.448,10.187 5.000,9.740 5.000,9.187 C5.000,8.635 5.448,8.187 6.000,8.187 ZM9.000,8.187 C9.552,8.187 10.000,8.635 10.000,9.187 C10.000,9.740 9.552,10.187 9.000,10.187 C8.448,10.187 8.000,9.740 8.000,9.187 C8.000,8.635 8.448,8.187 9.000,8.187 Z" fill-rule="evenodd"/>
</svg>
