<svg xmlns="http://www.w3.org/2000/svg" xmlns:xlink="http://www.w3.org/1999/xlink" preserveAspectRatio="xMidYMid" width="5" height="9" viewBox="0 0 5 9">
  <path d="M2.707,6.100 C2.664,6.033 2.630,5.951 2.604,5.854 C2.579,5.756 2.566,5.660 2.566,5.566 C2.566,5.430 2.584,5.308 2.619,5.200 C2.654,5.093 2.706,4.991 2.774,4.895 C2.843,4.800 2.929,4.703 3.032,4.605 C3.136,4.508 3.256,4.402 3.393,4.289 C3.596,4.121 3.775,3.958 3.932,3.800 C4.088,3.642 4.219,3.477 4.324,3.305 C4.430,3.133 4.510,2.950 4.564,2.757 C4.619,2.563 4.646,2.348 4.646,2.109 C4.646,1.734 4.581,1.413 4.450,1.145 C4.319,0.878 4.138,0.658 3.905,0.486 C3.673,0.314 3.400,0.188 3.088,0.108 C2.775,0.028 2.437,-0.012 2.074,-0.012 C1.695,-0.012 1.328,0.033 0.973,0.123 C0.617,0.213 0.289,0.348 -0.012,0.527 C-0.012,0.527 -0.012,2.291 -0.012,2.291 C0.281,2.033 0.592,1.841 0.920,1.714 C1.248,1.587 1.564,1.523 1.869,1.523 C2.010,1.523 2.138,1.545 2.253,1.588 C2.368,1.631 2.466,1.689 2.546,1.764 C2.626,1.838 2.687,1.927 2.730,2.030 C2.773,2.134 2.795,2.246 2.795,2.367 C2.795,2.508 2.775,2.636 2.736,2.751 C2.697,2.866 2.639,2.977 2.561,3.085 C2.482,3.192 2.388,3.300 2.276,3.407 C2.165,3.515 2.035,3.631 1.887,3.756 C1.746,3.873 1.623,3.991 1.518,4.110 C1.412,4.230 1.324,4.354 1.254,4.485 C1.184,4.616 1.131,4.756 1.096,4.904 C1.060,5.053 1.043,5.217 1.043,5.396 C1.043,5.510 1.054,5.630 1.075,5.757 C1.097,5.884 1.127,5.998 1.166,6.100 C1.166,6.100 2.707,6.100 2.707,6.100 ZM2.795,8.391 C2.994,8.207 3.094,7.975 3.094,7.693 C3.094,7.416 2.992,7.187 2.789,7.008 C2.586,6.824 2.330,6.732 2.021,6.732 C1.709,6.732 1.449,6.824 1.242,7.008 C1.035,7.191 0.932,7.420 0.932,7.693 C0.932,7.959 1.035,8.189 1.242,8.385 C1.449,8.572 1.709,8.666 2.021,8.666 C2.334,8.666 2.592,8.574 2.795,8.391 C2.795,8.391 2.795,8.391 2.795,8.391 Z" fill-rule="evenodd"/>
</svg>
