<svg xmlns="http://www.w3.org/2000/svg" xmlns:xlink="http://www.w3.org/1999/xlink" preserveAspectRatio="xMidYMid" width="24" height="15" viewBox="0 0 24 15">
  <path d="M20.502,10.144 C20.502,10.144 20.141,0.496 20.141,0.496 C20.141,0.496 23.383,0.496 23.383,0.496 C23.383,0.496 23.002,10.144 23.002,10.144 C23.002,10.144 20.502,10.144 20.502,10.144 ZM21.781,11.502 C22.302,11.502 22.728,11.653 23.060,11.956 C23.393,12.259 23.559,12.641 23.559,13.103 C23.559,13.572 23.394,13.960 23.065,14.266 C22.737,14.571 22.309,14.725 21.781,14.725 C21.260,14.725 20.831,14.567 20.492,14.251 C20.154,13.935 19.984,13.553 19.984,13.103 C19.984,12.635 20.155,12.251 20.497,11.951 C20.839,11.652 21.267,11.502 21.781,11.502 ZM13.000,11.000 C13.000,11.000 13.667,9.000 13.667,9.000 C13.667,9.000 9.000,9.000 9.000,9.000 C9.000,9.000 9.000,8.000 9.000,8.000 C9.000,8.000 14.000,8.000 14.000,8.000 C14.000,8.000 13.000,6.000 13.000,6.000 C13.000,6.000 13.000,5.000 13.000,5.000 C13.000,5.000 17.000,8.000 17.000,8.000 C17.000,8.000 17.000,9.000 17.000,9.000 C17.000,9.000 13.000,12.000 13.000,12.000 C13.000,12.000 13.000,11.000 13.000,11.000 ZM7.454,5.733 C7.273,6.030 7.048,6.314 6.780,6.588 C6.511,6.861 6.203,7.143 5.854,7.432 C5.619,7.628 5.412,7.810 5.235,7.979 C5.057,8.148 4.909,8.314 4.792,8.480 C4.674,8.645 4.585,8.820 4.525,9.006 C4.465,9.192 4.434,9.402 4.434,9.638 C4.434,9.800 4.456,9.966 4.500,10.134 C4.543,10.303 4.602,10.444 4.676,10.559 C4.676,10.559 2.028,10.559 2.028,10.559 C1.961,10.384 1.909,10.186 1.872,9.967 C1.835,9.748 1.817,9.541 1.817,9.345 C1.817,9.035 1.847,8.751 1.908,8.495 C1.968,8.239 2.059,7.998 2.179,7.771 C2.300,7.546 2.451,7.330 2.632,7.124 C2.814,6.918 3.025,6.714 3.267,6.512 C3.522,6.296 3.745,6.095 3.936,5.910 C4.127,5.724 4.290,5.539 4.424,5.353 C4.558,5.168 4.659,4.975 4.726,4.776 C4.793,4.578 4.827,4.357 4.827,4.114 C4.827,3.905 4.790,3.711 4.716,3.532 C4.642,3.353 4.537,3.200 4.399,3.072 C4.262,2.943 4.094,2.842 3.896,2.768 C3.698,2.694 3.478,2.657 3.236,2.657 C2.713,2.657 2.169,2.766 1.605,2.986 C1.042,3.205 0.508,3.537 0.005,3.982 C0.005,3.982 0.005,0.937 0.005,0.937 C0.522,0.626 1.085,0.394 1.696,0.238 C2.307,0.083 2.938,0.006 3.589,0.006 C4.213,0.006 4.793,0.075 5.330,0.213 C5.867,0.351 6.335,0.569 6.735,0.866 C7.134,1.163 7.446,1.542 7.671,2.004 C7.896,2.466 8.008,3.021 8.008,3.668 C8.008,4.080 7.961,4.453 7.867,4.787 C7.773,5.120 7.636,5.436 7.454,5.733 ZM3.498,11.652 C4.028,11.652 4.468,11.810 4.817,12.127 C5.166,12.438 5.340,12.832 5.340,13.311 C5.340,13.797 5.169,14.198 4.827,14.515 C4.478,14.832 4.035,14.991 3.498,14.991 C2.961,14.991 2.515,14.829 2.159,14.505 C1.803,14.168 1.626,13.770 1.626,13.311 C1.626,12.839 1.803,12.445 2.159,12.127 C2.515,11.810 2.961,11.652 3.498,11.652 Z" fill-rule="evenodd"/>
</svg>
