<svg xmlns="http://www.w3.org/2000/svg" viewBox="13 443 972 117" enable-background="new 13 443 972 117"><linearGradient id="a" gradientUnits="userSpaceOnUse" x1="106.75" y1="950.183" x2="106.75" y2="985.576" gradientTransform="matrix(2.525 0 0 -2.525 0 2950.884)"><stop offset="0" stop-color="#B1B3B6"/><stop offset="1" stop-color="#6D6E71"/></linearGradient><path fill="url(#a)" d="M310.9 479.2L299.5 490c-7.8-8.1-16.4-12.1-26-12.1-8.1 0-14.9 2.8-20.5 8.3-5.6 5.6-8.3 12.4-8.3 20.5 0 5.6 1.3 10.6 3.8 15.2 2.5 4.3 6.1 7.8 10.4 10.4 4.5 2.5 9.6 3.8 15.2 3.8 4.8 0 9.1-.8 12.9-2.5 3.8-1.8 8.1-5.1 12.9-9.6l10.9 11.4c-6.3 6.1-12.1 10.4-17.9 12.9-5.6 2.3-11.9 3.5-19.2 3.5-13.1 0-24-4.3-32.6-12.6-8.3-8.3-12.6-19.2-12.6-32.3 0-8.6 2-15.9 5.8-22.7 3.8-6.6 9.3-11.9 16.4-15.9 7.1-4 14.9-6.1 23.2-6.1 7.1 0 13.9 1.5 20.2 4.5 6.4 2.9 12 6.9 16.8 12.5z"/><linearGradient id="b" gradientUnits="userSpaceOnUse" x1="144" y1="950.2" x2="144" y2="985.6" gradientTransform="matrix(2.525 0 0 -2.525 0 2950.884)"><stop offset="0" stop-color="#B1B3B6"/><stop offset="1" stop-color="#6D6E71"/></linearGradient><path fill="url(#b)" d="M363.9 462c12.1 0 22.5 4.3 31.1 13.1 8.6 8.8 12.9 19.4 12.9 31.8 0 12.4-4.3 23-12.9 31.6-8.6 8.6-18.9 12.9-31.1 12.9-12.9 0-23.5-4.3-31.8-13.1s-12.6-19.4-12.6-31.6c0-8.1 2-15.7 5.8-22.5 4-6.8 9.3-12.1 16.2-16.2 7-4 14.3-6 22.4-6zm-.3 15.9c-7.8 0-14.4 2.8-19.9 8.3-5.3 5.6-8.1 12.4-8.1 21 0 9.3 3.3 16.9 10.1 22.2 5.3 4.3 11.4 6.3 18.2 6.3 7.6 0 14.1-2.8 19.7-8.3 5.3-5.6 8.1-12.4 8.1-20.5s-2.8-14.9-8.1-20.5c-5.6-5.7-12.1-8.5-20-8.5z"/><linearGradient id="c" gradientUnits="userSpaceOnUse" x1="178.55" y1="950.183" x2="178.55" y2="984.728" gradientTransform="matrix(2.525 0 0 -2.525 0 2950.884)"><stop offset="0" stop-color="#B1B3B6"/><stop offset="1" stop-color="#6D6E71"/></linearGradient><path fill="url(#c)" d="M422.5 464.3h16.2v55.1c0 4.8.5 8.1 1.3 10.1s2.3 3.5 4 4.8c2 1.3 4.3 1.8 6.8 1.8 2.8 0 5.3-.8 7.3-2 2-1.3 3.5-3 4.3-5.1.8-2 1.3-5.8 1.3-11.6v-53h16.2V515c0 8.6-.5 14.4-1.5 17.9-1 3.3-2.8 6.6-5.6 9.6s-5.8 5.3-9.3 6.8c-3.5 1.5-7.6 2.3-12.4 2.3-6.1 0-11.6-1.5-16.2-4.3s-7.8-6.3-9.8-10.6-3-11.4-3-21.7v-50.8h.4z"/><linearGradient id="d" gradientUnits="userSpaceOnUse" x1="207.6" y1="951" x2="207.6" y2="984.7" gradientTransform="matrix(2.525 0 0 -2.525 0 2950.884)"><stop offset="0" stop-color="#B1B3B6"/><stop offset="1" stop-color="#6D6E71"/></linearGradient><path fill="url(#d)" d="M499 464.3h17.2c9.3 0 15.9.8 20.2 2.5 4 1.8 7.3 4.5 9.6 8.3 2.3 3.8 3.5 8.3 3.5 13.9 0 6.1-1.5 10.9-4.5 14.9s-7.3 6.6-12.6 8.3c-3 1-8.8 1.3-17.2 1.3v35.9H499v-85.1zm16.2 33h5.1c4 0 6.8-.3 8.3-.8 1.5-.5 2.8-1.5 3.8-2.8s1.3-3 1.3-4.8c0-3.3-1.3-5.8-3.8-7.1-1.8-1-5.3-1.8-10.4-1.8h-4.3v17.3z"/><linearGradient id="e" gradientUnits="userSpaceOnUse" x1="239.1" y1="950.2" x2="239.1" y2="985.6" gradientTransform="matrix(2.525 0 0 -2.525 0 2950.884)"><stop offset="0" stop-color="#B1B3B6"/><stop offset="1" stop-color="#6D6E71"/></linearGradient><path fill="url(#e)" d="M604 462c12.1 0 22.5 4.3 31.1 13.1 8.6 8.8 12.9 19.4 12.9 31.8 0 12.4-4.3 23-12.9 31.6-8.6 8.6-18.9 12.9-31.1 12.9-12.9 0-23.5-4.3-31.8-13.1s-12.6-19.4-12.6-31.6c0-8.1 2-15.7 5.8-22.5 3.8-6.8 9.3-12.1 16.2-16.2 7.3-4 14.6-6 22.4-6zm0 15.9c-7.8 0-14.4 2.8-19.9 8.3-5.3 5.6-8.1 12.4-8.1 21 0 9.3 3.3 16.9 10.1 22.2 5.3 4.3 11.4 6.3 18.2 6.3 7.6 0 14.1-2.8 19.7-8.3 5.3-5.6 8.1-12.4 8.1-20.5s-2.8-14.9-8.1-20.5c-5.6-5.7-12.1-8.5-20-8.5z"/><linearGradient id="f" gradientUnits="userSpaceOnUse" x1="275.2" y1="951" x2="275.2" y2="984.7" gradientTransform="matrix(2.525 0 0 -2.525 0 2950.884)"><stop offset="0" stop-color="#B1B3B6"/><stop offset="1" stop-color="#6D6E71"/></linearGradient><path fill="url(#f)" d="M660.9 464.3h15.7l36.4 56.1v-56.1h16v85.1h-15.7L677 493.6v55.8h-16.2v-85.1z"/><path fill="#fff" d="M756.1 549.4l12.1-85.1h1.3L804 534l34.3-69.7h1.3l12.1 85.1h-8.3l-8.3-60.9-29.8 60.9H803L772.7 488l-8.3 61.4h-8.3zm110.1-85.1h8.6v85.1h-8.6v-85.1zm65.9-2.3c12.9 0 23.7 4.3 32.3 12.9 8.6 8.6 13.1 19.2 13.1 31.8 0 12.4-4.3 23-12.9 31.8-8.6 8.6-19.2 13.1-31.6 13.1-12.6 0-23.2-4.3-32.1-12.9-8.6-8.6-13.1-19.2-13.1-31.3 0-8.1 2-15.7 5.8-22.7 4-7.1 9.3-12.4 16.2-16.4 6.9-4.3 14.2-6.3 22.3-6.3zm.2 8.3c-6.3 0-12.4 1.8-17.9 4.8-5.6 3.3-10.1 7.6-13.1 13.4-3.3 5.6-4.8 11.9-4.8 18.7 0 10.1 3.5 18.7 10.6 25.5 7.1 7.1 15.4 10.4 25.3 10.4 6.6 0 12.6-1.5 18.4-4.8 5.6-3.3 10.1-7.6 13.1-13.1 3-5.6 4.8-11.6 4.8-18.4 0-6.8-1.5-12.9-4.8-18.4-3-5.6-7.6-9.8-13.4-13.1-5.6-3.2-11.6-5-18.2-5zM23 450.4h46.7l36.1 57.6h46l13.6-22h-63.1l-14.7-23h123.3l-42.2 67.7H88.4l-34.1-54.8H38.6zm64.1 78.5c4.3 6.8 10.6 21 24 21 12.4 0 16.9-9.3 16.9-9.3s5.1 9.3 17.2 9.3 18.7-11.1 24.5-21H87.1z"/></svg>