<svg xmlns="http://www.w3.org/2000/svg" viewBox="0 0 395 90" enable-background="new 0 0 395 90"><linearGradient id="a" gradientUnits="userSpaceOnUse" x1="106.777" y1="47.897" x2="106.777" y2="12.504"><stop offset="0" stop-color="#F78D1E"/><stop offset="1" stop-color="#F47521"/></linearGradient><path fill="url(#a)" d="M123.1 19.3l-4.5 4.3c-3.1-3.2-6.5-4.8-10.3-4.8-3.2 0-5.9 1.1-8.1 3.3-2.2 2.2-3.3 4.9-3.3 8.1 0 2.2.5 4.2 1.5 6 1 1.7 2.4 3.1 4.1 4.1 1.8 1 3.8 1.5 6 1.5 1.9 0 3.6-.3 5.1-1 1.5-.7 3.2-2 5.1-3.8l4.3 4.5c-2.5 2.4-4.8 4.1-7.1 5.1-2.2.9-4.7 1.4-7.6 1.4-5.2 0-9.5-1.7-12.9-5-3.3-3.3-5-7.6-5-12.8 0-3.4.8-6.3 2.3-9 1.5-2.6 3.7-4.7 6.5-6.3 2.8-1.6 5.9-2.4 9.2-2.4 2.8 0 5.5.6 8 1.8 2.6 1.1 4.8 2.8 6.7 5z"/><linearGradient id="b" gradientUnits="userSpaceOnUse" x1="144.007" y1="47.897" x2="144.007" y2="12.504"><stop offset="0" stop-color="#F78D1E"/><stop offset="1" stop-color="#F47521"/></linearGradient><path fill="url(#b)" d="M144.1 12.5c4.8 0 8.9 1.7 12.3 5.2 3.4 3.5 5.1 7.7 5.1 12.6 0 4.9-1.7 9.1-5.1 12.5-3.4 3.4-7.5 5.1-12.3 5.1-5.1 0-9.3-1.7-12.6-5.2-3.3-3.5-5-7.7-5-12.5 0-3.2.8-6.2 2.3-8.9 1.6-2.7 3.7-4.8 6.4-6.4 2.8-1.6 5.7-2.4 8.9-2.4zm-.1 6.3c-3.1 0-5.7 1.1-7.9 3.3-2.1 2.2-3.2 4.9-3.2 8.3 0 3.7 1.3 6.7 4 8.8 2.1 1.7 4.5 2.5 7.2 2.5 3 0 5.6-1.1 7.8-3.3 2.1-2.2 3.2-4.9 3.2-8.1 0-3.2-1.1-5.9-3.2-8.1-2.2-2.3-4.8-3.4-7.9-3.4z"/><linearGradient id="c" gradientUnits="userSpaceOnUse" x1="178.747" y1="47.897" x2="178.747" y2="13.352"><stop offset="0" stop-color="#F78D1E"/><stop offset="1" stop-color="#F47521"/></linearGradient><path fill="url(#c)" d="M167.3 13.4h6.4v21.8c0 1.9.2 3.2.5 4 .3.8.9 1.4 1.6 1.9.8.5 1.7.7 2.7.7 1.1 0 2.1-.3 2.9-.8.8-.5 1.4-1.2 1.7-2 .3-.8.5-2.3.5-4.6v-21h6.4v20.1c0 3.4-.2 5.7-.6 7.1-.4 1.3-1.1 2.6-2.2 3.8-1.1 1.2-2.3 2.1-3.7 2.7-1.4.6-3 .9-4.9.9-2.4 0-4.6-.6-6.4-1.7-1.8-1.1-3.1-2.5-3.9-4.2s-1.2-4.5-1.2-8.6V13.4z"/><linearGradient id="d" gradientUnits="userSpaceOnUse" x1="207.588" y1="47.049" x2="207.588" y2="13.352"><stop offset="0" stop-color="#F78D1E"/><stop offset="1" stop-color="#F47521"/></linearGradient><path fill="url(#d)" d="M197.6 13.4h6.8c3.7 0 6.3.3 8 1 1.6.7 2.9 1.8 3.8 3.3.9 1.5 1.4 3.3 1.4 5.5 0 2.4-.6 4.3-1.8 5.9-1.2 1.6-2.9 2.6-5 3.3-1.2.4-3.5.5-6.8.5V47h-6.4V13.4zm6.4 13.1h2c1.6 0 2.7-.1 3.3-.3.6-.2 1.1-.6 1.5-1.1.4-.5.5-1.2.5-1.9 0-1.3-.5-2.3-1.5-2.8-.7-.4-2.1-.7-4.1-.7H204v6.8z"/><linearGradient id="e" gradientUnits="userSpaceOnUse" x1="239.17" y1="47.897" x2="239.17" y2="12.504"><stop offset="0" stop-color="#F78D1E"/><stop offset="1" stop-color="#F47521"/></linearGradient><path fill="url(#e)" d="M239.2 12.5c4.8 0 8.9 1.7 12.3 5.2 3.4 3.5 5.1 7.7 5.1 12.6 0 4.9-1.7 9.1-5.1 12.5-3.4 3.4-7.5 5.1-12.3 5.1-5.1 0-9.3-1.7-12.6-5.2-3.3-3.5-5-7.7-5-12.5 0-3.2.8-6.2 2.3-8.9s3.7-4.8 6.4-6.4c2.9-1.6 5.8-2.4 8.9-2.4zm0 6.3c-3.1 0-5.7 1.1-7.9 3.3-2.1 2.2-3.2 4.9-3.2 8.3 0 3.7 1.3 6.7 4 8.8 2.1 1.7 4.5 2.5 7.2 2.5 3 0 5.6-1.1 7.8-3.3 2.1-2.2 3.2-4.9 3.2-8.1 0-3.2-1.1-5.9-3.2-8.1-2.2-2.3-4.8-3.4-7.9-3.4z"/><linearGradient id="f" gradientUnits="userSpaceOnUse" x1="275.156" y1="47.049" x2="275.156" y2="13.352"><stop offset="0" stop-color="#F78D1E"/><stop offset="1" stop-color="#F47521"/></linearGradient><path fill="url(#f)" d="M261.7 13.4h6.2l14.4 22.2V13.4h6.4V47h-6.2l-14.4-22.1V47h-6.4V13.4z"/><path fill="#fff" d="M299.4 47l4.8-33.7h.5L318.5 41l13.6-27.6h.5l4.8 33.7h-3.3L330.8 23l-11.9 24h-.9l-12-24.2-3.3 24.2h-3.3zM343 13.4h3.4V47H343V13.4zm26.1-.9c5.1 0 9.4 1.7 12.8 5.1s5.2 7.6 5.2 12.6c0 4.9-1.7 9.1-5.1 12.6-3.4 3.4-7.6 5.2-12.5 5.2-5 0-9.2-1.7-12.7-5.1-3.4-3.4-5.2-7.6-5.2-12.4 0-3.2.8-6.2 2.3-9 1.6-2.8 3.7-4.9 6.4-6.5 2.7-1.7 5.6-2.5 8.8-2.5zm.1 3.3c-2.5 0-4.9.7-7.1 1.9-2.2 1.3-4 3-5.2 5.3-1.3 2.2-1.9 4.7-1.9 7.4 0 4 1.4 7.4 4.2 10.1 2.8 2.8 6.1 4.1 10 4.1 2.6 0 5-.6 7.3-1.9 2.2-1.3 4-3 5.2-5.2 1.2-2.2 1.9-4.6 1.9-7.3s-.6-5.1-1.9-7.3c-1.2-2.2-3-3.9-5.3-5.2-2.2-1.3-4.6-1.9-7.2-1.9zM9.1 7.8h18.5l14.3 22.9h18.2l5.4-8.8h-25l-5.8-9h48.8L66.8 39.7H35L21.5 18h-6.2zm25.4 31.1c1.7 2.7 4.2 8.3 9.5 8.3 4.9 0 6.7-3.7 6.7-3.7s2 3.7 6.8 3.7 7.4-4.4 9.7-8.3H34.5z"/><path d="M108.2 67.6l-1.4 1c-.8-1-1.7-1.7-2.7-2.2s-2.2-.8-3.5-.8c-1.4 0-2.6.3-3.8 1s-2.1 1.5-2.7 2.7-1 2.4-1 3.8c0 2.1.7 3.9 2.2 5.3s3.3 2.1 5.5 2.1c2.4 0 4.4-.9 6.1-2.8l1.4 1c-.9 1.1-1.9 1.9-3.2 2.5s-2.7.9-4.3.9c-3 0-5.4-1-7.1-3-1.5-1.7-2.2-3.7-2.2-6.1 0-2.5.9-4.6 2.7-6.4s4-2.6 6.7-2.6c1.6 0 3.1.3 4.4 1s2 1.5 2.9 2.6zm3.2 12.7l4.9-11.4h.9l4.9 11.4h1.5v3H122v-1.6h-10.5v1.7h-1.6v-3.1h1.5zm5.4-8.9l-3.7 8.8h7.3l-3.6-8.8zm19.8 6l1.4.7c-.5.9-1 1.6-1.6 2.2s-1.3 1-2 1.2c-.7.3-1.6.4-2.5.4-2.1 0-3.7-.7-4.9-2-1.2-1.4-1.8-2.9-1.8-4.6 0-1.6.5-3.1 1.5-4.3 1.3-1.6 2.9-2.4 5.1-2.4 2.2 0 3.9.8 5.2 2.5.9 1.2 1.4 2.6 1.4 4.4h-11.5c0 1.5.5 2.7 1.4 3.6.9.9 2 1.4 3.4 1.4.6 0 1.3-.1 1.9-.3.6-.2 1.1-.5 1.6-.9.4-.4.9-1 1.4-1.9zm0-3.4c-.2-.9-.5-1.6-1-2.1-.4-.5-1-.9-1.7-1.3s-1.4-.5-2.2-.5c-1.3 0-2.3.4-3.2 1.2-.7.6-1.2 1.5-1.5 2.6h9.6zm15.7 7.7h-1.7l-4.3-9.3-4.2 9.3h-1.8l5.8-12.8h.3l5.9 12.8zm15.2-12.8v12.8h-1.6v-2.2c-.7.8-1.5 1.5-2.3 1.9s-1.8.6-2.8.6c-1.8 0-3.3-.7-4.6-2s-1.9-2.9-1.9-4.8c0-1.8.6-3.4 1.9-4.7s2.8-2 4.7-2c1 0 2 .2 2.8.7s1.6 1.1 2.2 2v-2.3h1.6zm-6.6 1.3c-.9 0-1.8.2-2.5.7-.8.4-1.4 1.1-1.8 1.9s-.7 1.7-.7 2.6c0 .9.2 1.8.7 2.6s1.1 1.5 1.9 1.9c.8.5 1.6.7 2.5.7.9 0 1.7-.2 2.6-.7.8-.5 1.4-1.1 1.9-1.8.4-.8.6-1.6.6-2.6 0-1.5-.5-2.7-1.5-3.7-1.1-1.1-2.3-1.6-3.7-1.6zm11.9-1.3v9.4l9.4-9.4h.1v12.8h-1.6v-9.3l-9.3 9.3h-.2V68.9h1.6zm-.2-5.1h1.5c.3.4.6.7 1.1.9s1 .3 1.6.3c.6 0 1.1-.1 1.5-.3s.7-.5 1.1-.9h1.5c-.2.7-.6 1.3-1.3 1.8s-1.6.7-2.8.7c-1.1 0-2.1-.2-2.8-.7s-1.2-1.1-1.4-1.8zm32.4 7.8l-1.3.8c-1.1-1.5-2.7-2.2-4.6-2.2-1.6 0-2.8.5-3.9 1.5-1 1-1.5 2.2-1.5 3.6 0 .9.2 1.8.7 2.6s1.1 1.5 1.9 1.9c.8.5 1.7.7 2.8.7 1.9 0 3.4-.7 4.6-2.2l1.3.9c-.6.9-1.4 1.6-2.5 2.1s-2.2.7-3.5.7c-2 0-3.7-.6-5-1.9s-2-2.8-2-4.7c0-1.2.3-2.4.9-3.4s1.5-1.9 2.6-2.5 2.3-.9 3.6-.9c.8 0 1.7.1 2.4.4s1.5.6 2 1 1.1.9 1.5 1.6zm6.8 10.1h-3.7V68.9h3.6c1.4 0 2.4.3 3 1s.9 1.4.9 2.2c0 1.3-.6 2.2-1.7 2.6 1.7.6 2.5 1.7 2.5 3.4.1 2.4-1.5 3.6-4.6 3.6zm-2-11.4v4h1.1c1 0 1.6 0 1.9-.1.3-.1.6-.3.8-.6s.4-.7.4-1.2-.1-1-.4-1.3-.6-.6-.9-.6-.9-.1-1.9-.1h-1zm0 5.5v4.5h1.8c.8 0 1.4-.1 1.8-.2s.7-.3.9-.7.4-.8.4-1.3c0-.7-.2-1.3-.7-1.7s-1-.6-1.7-.6h-2.5zm15.6-7.2c2 0 3.6.7 4.9 2.1 1.2 1.3 1.8 2.8 1.8 4.6 0 1.8-.6 3.3-1.9 4.7-1.2 1.3-2.8 2-4.8 2s-3.6-.7-4.8-2c-1.2-1.3-1.9-2.9-1.9-4.7 0-1.8.6-3.3 1.8-4.6 1.3-1.4 2.9-2.1 4.9-2.1zm0 1.6c-1.4 0-2.5.5-3.5 1.5s-1.5 2.2-1.5 3.7c0 .9.2 1.8.7 2.6.4.8 1.1 1.4 1.8 1.8s1.6.7 2.5.7 1.7-.2 2.5-.7 1.4-1 1.8-1.8c.4-.8.7-1.7.7-2.6 0-1.4-.5-2.6-1.5-3.7-1-1-2.2-1.5-3.5-1.5zm11.3 11.5h-1.6V68.9h1.6v5.4h2.1c.3-1.7 1-3.1 2.3-4.1s2.7-1.6 4.3-1.6c1.9 0 3.5.7 4.7 2s1.9 2.9 1.9 4.7c0 1.8-.6 3.4-1.9 4.7s-2.8 2-4.7 2c-1.7 0-3.2-.6-4.4-1.7s-2-2.6-2.2-4.4h-2.1v5.8zm13.7-6.3c0-1.4-.5-2.6-1.5-3.6s-2.2-1.5-3.5-1.5c-1.4 0-2.5.5-3.5 1.5s-1.5 2.2-1.5 3.6.5 2.6 1.4 3.6c.9 1 2.1 1.5 3.6 1.5 1.4 0 2.6-.5 3.5-1.5s1.5-2.2 1.5-3.6zm17.9-6.5h1.7v5.6l6.1-5.6h2l-6 5.7 6.5 7.1h-2.1l-5.5-6.2-.9.8v5.4h-1.7v-5.4l-.9-.8-5.5 6.2h-2.1l6.4-7.1-5.9-5.7h2l6 5.6v-5.6zm13.6 0v9.4l9.4-9.4h.1v12.8h-1.6v-9.3l-9.3 9.3h-.2V68.9h1.6zm15.2 5.4h.9c.5 0 1-.2 1.5-.5s.7-.9.7-1.5-.2-1.1-.5-1.5c-.4-.4-.9-.6-1.7-.6-.9 0-1.8.3-2.7 1l-.9-1.1c1.1-1 2.4-1.4 3.7-1.4 1.1 0 2 .3 2.7.9s1.1 1.4 1.1 2.4c0 1.3-.6 2.2-1.8 2.7 1.5.6 2.3 1.8 2.3 3.4 0 1-.4 1.9-1.1 2.8S299.5 82 298 82c-1.7 0-3.1-.6-4.2-1.7l1-1.2c.8.9 1.8 1.3 3 1.3.8 0 1.5-.2 1.9-.7.5-.4.7-1 .7-1.8 0-.7-.2-1.3-.7-1.7s-1-.6-1.7-.6h-1v-1.3zm17.1 1.2h-7.4v6.1h-1.6V68.9h1.6V74h7.4v-5.1h1.6v12.8h-1.6v-6.2zm6.9-1.5h1.6c1.2 0 2.2.1 2.9.3s1.3.6 1.8 1.3.8 1.4.8 2.3c0 1-.4 1.9-1.1 2.7s-1.8 1.1-3.3 1.1h-4.2V68.9h1.6V74zm.1 1.5v4.8h1.9c2.2 0 3.3-.8 3.3-2.3 0-.4-.1-.9-.4-1.3s-.6-.7-1-.9-1.3-.3-2.4-.3h-1.4zm21.6.5h-1.2l-3.6 5.7h-1.8l3.8-5.9c-1-.1-1.7-.5-2.3-1.1s-.9-1.4-.9-2.3c0-1.1.3-2 1-2.6s1.6-.9 2.7-.9h3.9v12.8h-1.6V76zm0-5.7h-1.1c-1 0-1.8.1-2.1.2s-.6.4-.9.7-.3.8-.3 1.3.1 1 .4 1.3.6.5.9.6 1 .1 2 .1h1.1v-4.2zm5.4-1.4h1.6v2.3c.6-.9 1.4-1.6 2.2-2 .8-.4 1.8-.7 2.8-.7 1.8 0 3.4.7 4.6 2s1.9 2.9 1.9 4.7c0 1.9-.6 3.5-1.9 4.8s-2.8 2-4.6 2c-1 0-1.9-.2-2.8-.6-.9-.4-1.6-1.1-2.3-1.9v6.9h-1.6V68.9zm6.5 1.3c-1.4 0-2.6.5-3.6 1.5s-1.5 2.2-1.5 3.7c0 1 .2 1.8.6 2.6s1.1 1.4 1.9 1.8c.8.5 1.7.7 2.6.7.9 0 1.7-.2 2.5-.7.8-.5 1.4-1.1 1.9-1.9.5-.8.7-1.7.7-2.6 0-.9-.2-1.8-.7-2.6-.5-.8-1.1-1.4-1.8-1.9-.8-.4-1.7-.6-2.6-.6zm15.5 5.7h-2.9c-1.3 0-2.3-.3-2.9-1s-.9-1.6-.9-2.8v-3.2h1.6v2.3c0 1.5.2 2.4.6 2.8s1.1.5 2.1.5h2.4v-5.6h1.6v12.8h-1.6v-5.8zm16 1.5l1.4.7c-.5.9-1 1.6-1.6 2.2-.6.5-1.3 1-2 1.2-.7.3-1.6.4-2.5.4-2.1 0-3.7-.7-4.9-2s-1.8-2.9-1.8-4.6c0-1.6.5-3.1 1.5-4.3 1.3-1.6 2.9-2.4 5.1-2.4 2.2 0 3.9.8 5.2 2.5.9 1.2 1.4 2.6 1.4 4.4h-11.5c0 1.5.5 2.7 1.4 3.6.9.9 2 1.4 3.4 1.4.6 0 1.3-.1 1.9-.3s1.1-.5 1.6-.9.9-1 1.4-1.9zm0-3.4c-.2-.9-.5-1.6-1-2.1-.4-.5-1-.9-1.7-1.3-.7-.3-1.4-.5-2.2-.5-1.3 0-2.3.4-3.2 1.2-.7.6-1.2 1.5-1.5 2.6h9.6z" fill="#7B7B7B"/></svg>