<?xml version="1.0" encoding="UTF-8"?><!DOCTYPE svg PUBLIC "-//W3C//DTD SVG 1.1//EN" "http://www.w3.org/Graphics/SVG/1.1/DTD/svg11.dtd"><svg xmlns="http://www.w3.org/2000/svg"><symbol id="add-favourite-shop" viewBox="0 0 25 22">
  <path d="M12.513,21.998 C10.337,21.998 -0.002,13.106 -0.001,8.081 C-0.001,0.407 9.264,-3.468 12.500,4.016 C15.587,-3.169 25.001,0.334 25.001,8.029 C25.002,13.020 14.690,21.998 12.513,21.998 ZM17.000,11.000 C17.000,11.000 13.000,11.000 13.000,11.000 C13.000,11.000 13.000,7.000 13.000,7.000 C13.000,7.000 12.000,7.000 12.000,7.000 C12.000,7.000 12.000,11.000 12.000,11.000 C12.000,11.000 8.000,11.000 8.000,11.000 C8.000,11.000 8.000,12.000 8.000,12.000 C8.000,12.000 12.000,12.000 12.000,12.000 C12.000,12.000 12.000,16.000 12.000,16.000 C12.000,16.000 13.000,16.000 13.000,16.000 C13.000,16.000 13.000,12.000 13.000,12.000 C13.000,12.000 17.000,12.000 17.000,12.000 C17.000,12.000 17.000,11.000 17.000,11.000 Z" fill-rule="evenodd"/>
</symbol><symbol id="calendar" viewBox="0 0 49 59">
  <path d="M-0.000,59.000 C-0.000,59.000 -0.000,8.000 -0.000,8.000 C-0.000,8.000 6.000,8.000 6.000,8.000 C6.000,8.000 6.000,11.000 6.000,11.000 C6.000,11.000 14.000,11.000 14.000,11.000 C14.000,11.000 14.000,8.000 14.000,8.000 C14.000,8.000 35.000,8.000 35.000,8.000 C35.000,8.000 35.000,11.000 35.000,11.000 C35.000,11.000 43.000,11.000 43.000,11.000 C43.000,11.000 43.000,8.000 43.000,8.000 C43.000,8.000 49.000,8.000 49.000,8.000 C49.000,8.000 49.000,59.000 49.000,59.000 C49.000,59.000 -0.000,59.000 -0.000,59.000 ZM46.000,21.000 C46.000,21.000 3.000,21.000 3.000,21.000 C3.000,21.000 3.000,56.000 3.000,56.000 C3.000,56.000 46.000,56.000 46.000,56.000 C46.000,56.000 46.000,21.000 46.000,21.000 ZM13.000,43.000 C13.000,43.000 6.000,43.000 6.000,43.000 C6.000,43.000 6.000,36.000 6.000,36.000 C6.000,36.000 13.000,36.000 13.000,36.000 C13.000,36.000 13.000,43.000 13.000,43.000 ZM13.000,53.000 C13.000,53.000 6.000,53.000 6.000,53.000 C6.000,53.000 6.000,46.000 6.000,46.000 C6.000,46.000 13.000,46.000 13.000,46.000 C13.000,46.000 13.000,53.000 13.000,53.000 ZM23.000,33.000 C23.000,33.000 16.000,33.000 16.000,33.000 C16.000,33.000 16.000,26.000 16.000,26.000 C16.000,26.000 23.000,26.000 23.000,26.000 C23.000,26.000 23.000,33.000 23.000,33.000 ZM23.000,43.000 C23.000,43.000 16.000,43.000 16.000,43.000 C16.000,43.000 16.000,36.000 16.000,36.000 C16.000,36.000 23.000,36.000 23.000,36.000 C23.000,36.000 23.000,43.000 23.000,43.000 ZM23.000,53.000 C23.000,53.000 16.000,53.000 16.000,53.000 C16.000,53.000 16.000,46.000 16.000,46.000 C16.000,46.000 23.000,46.000 23.000,46.000 C23.000,46.000 23.000,53.000 23.000,53.000 ZM33.000,33.000 C33.000,33.000 26.000,33.000 26.000,33.000 C26.000,33.000 26.000,26.000 26.000,26.000 C26.000,26.000 33.000,26.000 33.000,26.000 C33.000,26.000 33.000,33.000 33.000,33.000 ZM33.000,43.000 C33.000,43.000 26.000,43.000 26.000,43.000 C26.000,43.000 26.000,36.000 26.000,36.000 C26.000,36.000 33.000,36.000 33.000,36.000 C33.000,36.000 33.000,43.000 33.000,43.000 ZM33.000,53.000 C33.000,53.000 26.000,53.000 26.000,53.000 C26.000,53.000 26.000,46.000 26.000,46.000 C26.000,46.000 33.000,46.000 33.000,46.000 C33.000,46.000 33.000,53.000 33.000,53.000 ZM43.000,33.000 C43.000,33.000 36.000,33.000 36.000,33.000 C36.000,33.000 36.000,26.000 36.000,26.000 C36.000,26.000 43.000,26.000 43.000,26.000 C43.000,26.000 43.000,33.000 43.000,33.000 ZM43.000,43.000 C43.000,43.000 36.000,43.000 36.000,43.000 C36.000,43.000 36.000,36.000 36.000,36.000 C36.000,36.000 43.000,36.000 43.000,36.000 C43.000,36.000 43.000,43.000 43.000,43.000 ZM38.000,-0.000 C38.000,-0.000 40.000,-0.000 40.000,-0.000 C40.000,-0.000 42.000,10.000 42.000,10.000 C42.000,10.000 36.000,10.000 36.000,10.000 C36.000,10.000 38.000,-0.000 38.000,-0.000 ZM9.000,-0.000 C9.000,-0.000 11.000,-0.000 11.000,-0.000 C11.000,-0.000 13.000,10.000 13.000,10.000 C13.000,10.000 7.000,10.000 7.000,10.000 C7.000,10.000 9.000,-0.000 9.000,-0.000 Z" fill-rule="evenodd"/>
</symbol><symbol id="comment" viewBox="0 0 20 15">
  <path d="M18.000,10.388 C18.000,10.388 18.000,15.000 18.000,15.000 C18.000,15.000 13.837,12.502 13.837,12.502 C12.655,12.822 11.360,13.000 10.000,13.000 C4.477,13.000 -0.000,10.090 -0.000,6.500 C-0.000,2.910 4.477,-0.000 10.000,-0.000 C15.523,-0.000 20.000,2.910 20.000,6.500 C20.000,7.960 19.250,9.303 18.000,10.388 Z" fill-rule="evenodd"/>
</symbol><symbol id="copy" viewBox="0 0 20 27">
  <path d="M6.000,27.000 C6.000,27.000 6.000,9.000 6.000,9.000 C6.000,9.000 20.000,9.000 20.000,9.000 C20.000,9.000 20.000,27.000 20.000,27.000 C20.000,27.000 6.000,27.000 6.000,27.000 ZM18.000,11.000 C18.000,11.000 8.000,11.000 8.000,11.000 C8.000,11.000 8.000,25.000 8.000,25.000 C8.000,25.000 18.000,25.000 18.000,25.000 C18.000,25.000 18.000,11.000 18.000,11.000 ZM12.000,2.000 C12.000,2.000 2.000,2.000 2.000,2.000 C2.000,2.000 2.000,18.000 2.000,18.000 C2.000,18.000 5.000,18.000 5.000,18.000 C5.000,18.000 5.000,20.000 5.000,20.000 C5.000,20.000 -0.000,20.000 -0.000,20.000 C-0.000,20.000 -0.000,-0.000 -0.000,-0.000 C-0.000,-0.000 14.000,-0.000 14.000,-0.000 C14.000,-0.000 14.000,8.000 14.000,8.000 C14.000,8.000 12.000,8.000 12.000,8.000 C12.000,8.000 12.000,2.000 12.000,2.000 Z" id="path-1" fill-rule="evenodd"/>
</symbol><symbol id="dialog-close" viewBox="0 0 16 16">
  <path d="M15.993,13.869 C15.993,13.869 13.861,16.002 13.861,16.002 C13.861,16.002 7.996,10.136 7.996,10.136 C7.996,10.136 2.130,16.002 2.130,16.002 C2.130,16.002 -0.002,13.869 -0.002,13.869 C-0.002,13.869 5.863,8.004 5.863,8.004 C5.863,8.004 -0.002,2.138 -0.002,2.138 C-0.002,2.138 2.130,0.006 2.130,0.006 C2.130,0.006 7.995,5.871 7.995,5.871 C7.995,5.871 13.327,0.539 13.327,0.539 C13.327,0.539 15.460,2.672 15.460,2.672 C15.460,2.672 10.128,8.004 10.128,8.004 C10.128,8.004 15.993,13.869 15.993,13.869 Z" fill-rule="evenodd"/>
</symbol><symbol id="dislike" viewBox="0 0 16 16">
  <path d="M13.000,10.000 C13.000,10.000 13.000,1.000 13.000,1.000 C13.000,1.000 16.000,1.000 16.000,1.000 C16.000,1.000 16.000,10.000 16.000,10.000 C16.000,10.000 13.000,10.000 13.000,10.000 ZM6.000,16.000 C6.000,16.000 7.000,11.000 7.000,11.000 C7.000,11.000 2.000,11.000 2.000,11.000 C1.448,11.000 -0.000,9.552 -0.000,9.000 C-0.000,9.000 3.000,1.000 3.000,1.000 C3.000,0.447 3.448,-0.000 4.000,-0.000 C4.000,-0.000 11.000,1.000 11.000,1.000 C11.552,1.000 12.000,1.448 12.000,2.000 C12.000,2.000 12.000,8.166 12.000,8.166 C12.000,8.166 8.000,15.000 8.000,15.000 C8.000,15.552 6.552,16.000 6.000,16.000 Z" fill-rule="evenodd"/>
</symbol><symbol id="fav-shops-arrow" viewBox="0 0 14 23">
  <path d="M14.007,20.996 C14.007,20.996 5.638,11.500 5.638,11.500 C5.638,11.500 14.007,2.004 14.007,2.004 C14.007,2.004 13.363,0.004 13.363,0.004 C13.363,0.004 -0.007,11.500 -0.007,11.500 C-0.007,11.500 13.363,22.996 13.363,22.996 C13.363,22.996 14.007,20.996 14.007,20.996 Z" fill-rule="evenodd"/>
</symbol><symbol id="feedback" viewBox="0 0 35 26">
  <path d="M30.718,21.783 C30.272,22.542 29.191,24.655 30.158,26.000 C26.678,26.000 24.968,24.143 24.947,24.120 C23.760,24.357 22.513,24.493 21.219,24.493 C17.280,24.493 13.736,23.313 11.225,21.430 C11.696,21.457 12.170,21.480 12.652,21.480 C21.909,21.480 29.413,16.252 29.413,9.803 C29.413,8.651 29.164,7.541 28.718,6.490 C32.496,8.236 35.000,11.258 35.000,14.700 C35.000,17.489 33.351,19.999 30.718,21.783 ZM13.770,19.596 C12.476,19.596 11.229,19.461 10.042,19.224 C10.026,19.246 8.680,21.103 4.831,21.103 C6.320,19.822 4.086,16.960 4.086,16.960 C4.086,16.960 4.808,17.234 4.808,17.234 C1.862,15.437 -0.011,12.778 -0.011,9.803 C-0.011,4.394 6.159,0.009 13.770,0.009 C21.381,0.009 27.551,4.394 27.551,9.803 C27.551,15.212 21.381,19.596 13.770,19.596 Z" fill-rule="evenodd"/>
</symbol><symbol id="info" viewBox="0 0 35 35">
  <path d="M17.500,35.000 C7.835,35.000 -0.000,27.165 -0.000,17.500 C-0.000,7.835 7.835,-0.000 17.500,-0.000 C27.165,-0.000 35.000,7.835 35.000,17.500 C35.000,27.165 27.165,35.000 17.500,35.000 ZM11.992,16.893 C11.992,17.076 12.174,17.289 12.386,17.289 C12.930,17.289 14.382,14.640 15.502,14.640 C15.744,14.640 16.017,14.914 15.805,15.461 C15.805,15.461 13.687,20.821 13.687,20.821 C13.475,21.340 12.446,23.837 12.446,25.298 C12.446,26.455 13.202,26.973 14.292,26.973 C17.348,26.973 20.888,23.196 20.888,22.313 C20.888,22.039 20.676,21.857 20.525,21.857 C20.101,21.857 18.437,24.445 17.529,24.445 C17.287,24.445 17.167,24.232 17.167,24.019 C17.167,23.532 17.499,22.770 17.681,22.313 C17.681,22.313 19.859,16.376 19.859,16.376 C20.949,13.421 19.557,12.630 18.255,12.630 C16.501,12.630 14.927,13.513 13.717,14.670 C13.324,15.066 11.992,16.345 11.992,16.893 ZM19.919,7.027 C18.588,7.027 17.438,8.123 17.438,9.463 C17.438,10.712 18.255,11.534 19.496,11.534 C20.858,11.534 22.007,10.499 22.007,9.098 C22.007,7.849 21.130,7.027 19.919,7.027 Z" fill-rule="evenodd"/>
</symbol><symbol id="like" viewBox="0 0 16 16">
  <path d="M13.000,15.000 C13.000,15.552 12.552,16.000 12.000,16.000 C12.000,16.000 5.000,15.000 5.000,15.000 C4.448,15.000 4.000,14.552 4.000,14.000 C4.000,14.000 4.000,7.833 4.000,7.833 C4.000,7.833 8.000,1.000 8.000,1.000 C8.000,0.448 9.448,-0.000 10.000,-0.000 C10.000,-0.000 9.000,5.000 9.000,5.000 C9.000,5.000 14.000,5.000 14.000,5.000 C14.552,5.000 16.000,6.448 16.000,7.000 C16.000,7.000 13.000,15.000 13.000,15.000 ZM-0.000,6.000 C-0.000,6.000 3.000,6.000 3.000,6.000 C3.000,6.000 3.000,15.000 3.000,15.000 C3.000,15.000 -0.000,15.000 -0.000,15.000 C-0.000,15.000 -0.000,6.000 -0.000,6.000 Z" fill-rule="evenodd"/>
</symbol><symbol id="link-goto" viewBox="0 0 12 12">
  <path d="M6.000,12.000 C2.686,12.000 -0.000,9.314 -0.000,6.000 C-0.000,2.686 2.686,-0.000 6.000,-0.000 C9.314,-0.000 12.000,2.686 12.000,6.000 C12.000,9.314 9.314,12.000 6.000,12.000 ZM6.000,3.000 C6.000,3.000 6.000,5.000 6.000,5.000 C6.000,5.000 3.000,5.000 3.000,5.000 C3.000,5.000 3.000,7.000 3.000,7.000 C3.000,7.000 6.000,7.000 6.000,7.000 C6.000,7.000 6.000,9.000 6.000,9.000 C6.000,9.000 10.000,6.000 10.000,6.000 C10.000,6.000 6.000,3.000 6.000,3.000 Z" fill-rule="evenodd"/>
</symbol><symbol id="link-info" viewBox="0 0 12 12">
  <path d="M6.000,12.000 C2.686,12.000 -0.000,9.314 -0.000,6.000 C-0.000,2.686 2.686,-0.000 6.000,-0.000 C9.314,-0.000 12.000,2.686 12.000,6.000 C12.000,9.314 9.314,12.000 6.000,12.000 ZM7.000,2.000 C7.000,2.000 5.000,2.000 5.000,2.000 C5.000,2.000 5.000,4.000 5.000,4.000 C5.000,4.000 7.000,4.000 7.000,4.000 C7.000,4.000 7.000,2.000 7.000,2.000 ZM7.000,5.000 C7.000,5.000 5.000,5.000 5.000,5.000 C5.000,5.000 5.000,10.000 5.000,10.000 C5.000,10.000 7.000,10.000 7.000,10.000 C7.000,10.000 7.000,5.000 7.000,5.000 Z" fill-rule="evenodd"/>
</symbol><symbol id="notifications" viewBox="0 0 39 36">
  <path d="M36.200,13.933 C35.604,14.536 34.924,14.987 34.214,15.362 C33.932,12.949 32.804,10.499 30.848,8.522 C28.603,6.252 25.744,5.081 23.031,5.048 C23.425,4.081 24.006,3.174 24.783,2.389 C27.935,-0.799 33.047,-0.799 36.200,2.389 C39.353,5.576 39.353,10.745 36.200,13.933 ZM34.562,20.000 C34.562,24.414 32.644,28.371 29.609,31.116 C29.609,31.116 31.562,36.000 31.562,36.000 C31.562,36.000 24.759,34.056 24.759,34.056 C23.138,34.656 21.392,35.000 19.562,35.000 C17.733,35.000 15.987,34.656 14.366,34.056 C14.366,34.056 7.562,36.000 7.562,36.000 C7.562,36.000 9.516,31.116 9.516,31.116 C6.481,28.371 4.562,24.414 4.562,20.000 C4.562,11.716 11.278,5.000 19.562,5.000 C27.847,5.000 34.562,11.716 34.562,20.000 ZM19.562,8.000 C16.380,8.000 13.494,9.248 11.347,11.270 C11.347,11.270 12.059,11.868 12.059,11.868 C14.034,10.045 16.664,8.923 19.562,8.923 C25.680,8.923 30.639,13.882 30.639,20.000 C30.639,26.118 25.680,31.077 19.562,31.077 C13.445,31.077 8.486,26.118 8.486,20.000 C8.486,16.868 9.791,14.045 11.880,12.031 C11.880,12.031 11.327,11.288 11.327,11.288 C9.014,13.475 7.562,16.565 7.562,20.000 C7.562,26.627 12.935,32.000 19.562,32.000 C26.190,32.000 31.562,26.627 31.562,20.000 C31.562,13.373 26.190,8.000 19.562,8.000 ZM19.709,18.284 C19.709,18.284 26.562,14.000 26.562,14.000 C26.562,14.000 21.165,20.297 21.165,20.297 C21.165,20.297 21.866,21.803 21.866,21.803 C21.866,21.803 18.562,21.000 18.562,21.000 C18.562,21.000 12.434,12.773 12.434,12.773 C10.568,14.615 9.409,17.171 9.409,20.000 C9.409,25.608 13.955,30.154 19.562,30.154 C25.170,30.154 29.716,25.608 29.716,20.000 C29.716,14.392 25.170,9.846 19.562,9.846 C16.948,9.846 14.572,10.843 12.772,12.466 C12.772,12.466 19.709,18.284 19.709,18.284 ZM18.562,20.000 C18.562,20.552 19.010,21.000 19.562,21.000 C20.115,21.000 20.562,20.552 20.562,20.000 C20.562,19.448 20.115,19.000 19.562,19.000 C19.010,19.000 18.562,19.448 18.562,20.000 ZM4.309,15.492 C3.606,15.125 2.931,14.683 2.341,14.092 C-0.784,10.968 -0.784,5.902 2.341,2.778 C5.465,-0.346 10.530,-0.346 13.654,2.778 C14.424,3.548 15.000,4.437 15.390,5.384 C12.701,5.417 9.868,6.564 7.644,8.789 C5.706,10.727 4.589,13.128 4.309,15.492 Z" fill-rule="evenodd"/>
</symbol><symbol id="search-glass-detailed" viewBox="0 0 240 240">
  <path d="M236.450,229.490 C236.450,229.490 228.136,237.803 228.136,237.803 C225.403,240.537 218.970,240.537 216.237,237.803 C216.237,237.803 160.375,174.871 160.375,174.871 C159.204,173.699 159.204,171.800 160.375,170.628 C160.375,170.628 170.275,160.729 170.275,160.729 C171.446,159.557 173.346,159.557 174.517,160.729 C174.517,160.729 237.450,216.590 237.450,216.590 C240.184,219.324 239.184,226.756 236.450,229.490 ZM158.077,143.228 C158.077,143.228 154.718,146.587 154.718,146.587 C154.718,146.587 159.668,151.536 159.668,151.536 C159.668,151.536 161.082,150.122 161.082,150.122 C161.863,149.341 163.130,149.341 163.911,150.122 C163.911,150.122 170.275,156.486 170.275,156.486 C171.056,157.267 171.056,158.533 170.275,159.315 C170.275,159.315 168.860,160.729 168.860,160.729 C168.860,160.729 168.861,160.729 168.861,160.729 C168.861,160.729 161.315,168.274 161.315,168.274 C161.315,168.274 158.961,170.628 158.961,170.628 C158.180,171.409 156.914,171.409 156.133,170.628 C156.133,170.628 149.769,164.264 149.769,164.264 C148.988,163.483 148.988,162.217 149.769,161.436 C149.769,161.436 151.183,160.022 151.183,160.022 C151.183,160.022 146.233,155.072 146.233,155.072 C146.233,155.072 143.228,158.077 143.228,158.077 C141.508,159.797 138.751,159.822 136.986,158.177 C103.038,182.076 55.833,178.870 25.473,148.509 C-8.503,114.534 -8.503,59.448 25.473,25.473 C59.448,-8.503 114.534,-8.503 148.509,25.473 C178.870,55.833 182.076,103.038 158.177,136.986 C159.822,138.750 159.797,141.508 158.077,143.228 ZM143.581,31.151 C112.535,0.105 62.198,0.105 31.151,31.151 C0.105,62.198 0.105,112.535 31.151,143.581 C62.198,174.628 112.535,174.628 143.581,143.581 C174.628,112.535 174.628,62.198 143.581,31.151 ZM33.980,140.753 C4.495,111.268 4.495,63.464 33.980,33.980 C63.464,4.495 111.268,4.495 140.753,33.980 C170.238,63.464 170.238,111.268 140.753,140.753 C111.268,170.238 63.464,170.238 33.980,140.753 ZM139.339,35.394 C110.635,6.691 64.098,6.691 35.394,35.394 C6.691,64.098 6.691,110.635 35.394,139.339 C64.098,168.042 110.635,168.042 139.339,139.339 C168.042,110.635 168.042,64.098 139.339,35.394 Z" fill-rule="evenodd"/>
</symbol><symbol id="search-glass" viewBox="0 0 21 25"><path d="M20.165 21.08c.276.478.112 1.09-.366 1.366l-2.6 1.5c-.48.276-1.09.112-1.37-.367l-4-5.66c-.07-.11-.1-.23-.12-.34-.86.27-1.78.42-2.72.42-4.97 0-9-4.03-9-9s4.03-9 9-9 9 4.03 9 9c0 2.31-.89 4.42-2.32 6.01.19.08.37.21.48.4l4 5.66zM9 3C5.686 3 3 5.685 3 9c0 3.313 2.686 6 6 6s6-2.687 6-6c0-3.314-2.686-6-6-6z" fill-rule="evenodd"/></symbol><symbol id="subscriptions" viewBox="0 0 40 37">
  <path d="M38.656,37.000 C38.656,37.000 15.656,37.000 15.656,37.000 C14.828,37.000 14.156,36.328 14.156,35.500 C14.156,35.500 14.156,35.000 14.156,35.000 C14.156,35.000 22.728,29.285 22.728,29.285 C22.728,29.285 26.156,31.000 26.156,31.000 C26.156,31.000 28.156,31.000 28.156,31.000 C28.156,31.000 31.585,29.286 31.585,29.286 C31.585,29.286 40.156,35.000 40.156,35.000 C40.156,35.000 40.156,35.500 40.156,35.500 C40.156,36.328 39.485,37.000 38.656,37.000 ZM40.156,25.000 C40.156,25.000 40.156,34.000 40.156,34.000 C40.156,34.000 32.956,28.600 32.956,28.600 C32.956,28.600 40.156,25.000 40.156,25.000 ZM25.156,29.000 C25.156,29.000 14.156,23.000 14.156,23.000 C14.156,23.000 14.156,22.500 14.156,22.500 C14.156,21.672 14.828,21.000 15.656,21.000 C15.656,21.000 38.656,21.000 38.656,21.000 C39.485,21.000 40.156,21.672 40.156,22.500 C40.156,22.500 40.156,23.000 40.156,23.000 C40.156,23.000 29.156,29.000 29.156,29.000 C29.156,29.000 25.156,29.000 25.156,29.000 ZM30.170,19.000 C30.475,17.831 30.645,16.490 30.645,14.939 C30.645,11.663 29.602,8.979 27.517,6.887 C25.431,4.794 22.520,3.748 18.782,3.748 C14.779,3.748 11.451,5.144 8.799,7.936 C6.146,10.729 4.820,14.134 4.820,18.151 C4.820,22.042 5.992,25.108 8.337,27.347 C9.417,28.380 10.696,29.163 12.156,29.719 C12.156,29.719 12.156,33.840 12.156,33.840 C9.337,33.152 6.900,31.876 4.851,30.003 C1.611,27.043 -0.009,23.064 -0.009,18.067 C-0.009,12.972 1.719,8.689 5.177,5.217 C8.634,1.746 13.085,0.010 18.530,0.010 C23.569,0.010 27.646,1.358 30.760,4.052 C33.875,6.747 35.432,10.298 35.432,14.708 C35.432,16.275 35.243,17.701 34.887,19.000 C34.887,19.000 30.170,19.000 30.170,19.000 ZM12.156,25.904 C11.581,25.571 11.045,25.164 10.583,24.618 C9.400,23.218 8.809,21.279 8.809,18.802 C8.809,15.597 9.628,12.990 11.266,10.981 C12.903,8.972 14.877,7.968 17.187,7.968 C19.272,7.968 20.581,8.787 21.113,10.424 C21.113,10.424 21.197,10.424 21.197,10.424 C21.197,10.424 21.407,8.346 21.407,8.346 C21.407,8.346 26.131,8.346 26.131,8.346 C25.600,13.368 25.296,16.907 25.212,19.000 C25.212,19.000 20.361,19.000 20.361,19.000 C20.641,17.913 20.798,16.672 20.798,15.233 C20.798,14.113 20.535,13.231 20.010,12.587 C19.486,11.943 18.789,11.621 17.921,11.621 C16.662,11.621 15.636,12.339 14.845,13.773 C14.054,15.208 13.659,16.870 13.659,18.760 C13.659,18.984 13.678,19.188 13.693,19.396 C12.780,19.911 12.156,20.877 12.156,22.000 C12.156,22.000 12.156,25.904 12.156,25.904 ZM14.156,34.000 C14.156,34.000 14.156,25.000 14.156,25.000 C14.156,25.000 21.356,28.600 21.356,28.600 C21.356,28.600 14.156,34.000 14.156,34.000 Z" fill-rule="evenodd"/>
</symbol><symbol id="testimonials" viewBox="0 0 40 29">
  <path d="M33.626,22.497 C33.626,22.497 32.000,29.000 32.000,29.000 C32.000,29.000 24.485,25.660 24.485,25.660 C23.041,25.875 21.544,26.000 20.000,26.000 C8.954,26.000 -0.000,20.180 -0.000,13.000 C-0.000,5.820 8.954,-0.000 20.000,-0.000 C31.046,-0.000 40.000,5.820 40.000,13.000 C40.000,16.753 37.539,20.124 33.626,22.497 ZM17.374,11.136 C17.059,11.453 15.994,12.476 15.994,12.914 C15.994,13.060 16.139,13.231 16.309,13.231 C16.744,13.231 17.906,11.112 18.802,11.112 C18.996,11.112 19.213,11.331 19.044,11.769 C19.044,11.769 17.350,16.057 17.350,16.057 C17.180,16.472 16.357,18.469 16.357,19.639 C16.357,20.564 16.962,20.978 17.834,20.978 C20.279,20.978 23.110,17.957 23.110,17.251 C23.110,17.031 22.941,16.885 22.820,16.885 C22.481,16.885 21.149,18.956 20.423,18.956 C20.230,18.956 20.133,18.785 20.133,18.615 C20.133,18.226 20.399,17.616 20.545,17.251 C20.545,17.251 22.287,12.501 22.287,12.501 C23.159,10.137 22.045,9.504 21.004,9.504 C19.601,9.504 18.342,10.210 17.374,11.136 ZM22.335,5.022 C21.270,5.022 20.351,5.898 20.351,6.970 C20.351,7.969 21.004,8.627 21.997,8.627 C23.086,8.627 24.006,7.799 24.006,6.678 C24.006,5.679 23.304,5.022 22.335,5.022 Z" fill-rule="evenodd"/>
</symbol><symbol id="aside-calendar" viewBox="0 0 27 27">
  <path d="M24.000,27.000 C24.000,27.000 3.000,27.000 3.000,27.000 C1.343,27.000 -0.000,25.657 -0.000,24.000 C-0.000,24.000 -0.000,6.000 -0.000,6.000 C-0.000,4.343 1.343,3.000 3.000,3.000 C3.000,3.000 4.000,3.000 4.000,3.000 C4.000,3.000 4.000,5.000 4.000,5.000 C2.895,5.000 2.000,5.895 2.000,7.000 C2.000,7.000 2.000,23.000 2.000,23.000 C2.000,24.104 2.895,25.000 4.000,25.000 C4.000,25.000 23.000,25.000 23.000,25.000 C24.105,25.000 25.000,24.104 25.000,23.000 C25.000,23.000 25.000,7.000 25.000,7.000 C25.000,5.895 24.105,5.000 23.000,5.000 C23.000,5.000 23.000,3.000 23.000,3.000 C23.000,3.000 24.000,3.000 24.000,3.000 C25.657,3.000 27.000,4.343 27.000,6.000 C27.000,6.000 27.000,24.000 27.000,24.000 C27.000,25.657 25.657,27.000 24.000,27.000 ZM21.000,16.000 C20.448,16.000 20.000,15.552 20.000,15.000 C20.000,14.448 20.448,14.000 21.000,14.000 C21.552,14.000 22.000,14.448 22.000,15.000 C22.000,15.552 21.552,16.000 21.000,16.000 ZM21.000,12.000 C20.448,12.000 20.000,11.552 20.000,11.000 C20.000,10.448 20.448,10.000 21.000,10.000 C21.552,10.000 22.000,10.448 22.000,11.000 C22.000,11.552 21.552,12.000 21.000,12.000 ZM21.000,6.000 C21.000,6.000 20.000,6.000 20.000,6.000 C19.448,6.000 19.000,5.552 19.000,5.000 C19.000,5.000 19.000,1.000 19.000,1.000 C19.000,0.448 19.448,-0.000 20.000,-0.000 C20.000,-0.000 21.000,-0.000 21.000,-0.000 C21.552,-0.000 22.000,0.448 22.000,1.000 C22.000,1.000 22.000,5.000 22.000,5.000 C22.000,5.552 21.552,6.000 21.000,6.000 ZM16.000,14.000 C16.552,14.000 17.000,14.448 17.000,15.000 C17.000,15.552 16.552,16.000 16.000,16.000 C15.448,16.000 15.000,15.552 15.000,15.000 C15.000,14.448 15.448,14.000 16.000,14.000 ZM16.000,10.000 C16.552,10.000 17.000,10.448 17.000,11.000 C17.000,11.552 16.552,12.000 16.000,12.000 C15.448,12.000 15.000,11.552 15.000,11.000 C15.000,10.448 15.448,10.000 16.000,10.000 ZM11.000,10.000 C11.552,10.000 12.000,10.448 12.000,11.000 C12.000,11.552 11.552,12.000 11.000,12.000 C10.448,12.000 10.000,11.552 10.000,11.000 C10.000,10.448 10.448,10.000 11.000,10.000 ZM11.000,18.000 C11.552,18.000 12.000,18.448 12.000,19.000 C12.000,19.552 11.552,20.000 11.000,20.000 C10.448,20.000 10.000,19.552 10.000,19.000 C10.000,18.448 10.448,18.000 11.000,18.000 ZM11.000,14.000 C11.552,14.000 12.000,14.448 12.000,15.000 C12.000,15.552 11.552,16.000 11.000,16.000 C10.448,16.000 10.000,15.552 10.000,15.000 C10.000,14.448 10.448,14.000 11.000,14.000 ZM9.000,3.000 C9.000,3.000 18.000,3.000 18.000,3.000 C18.000,3.000 18.000,5.000 18.000,5.000 C18.000,5.000 9.000,5.000 9.000,5.000 C9.000,5.000 9.000,3.000 9.000,3.000 ZM6.000,10.000 C6.552,10.000 7.000,10.448 7.000,11.000 C7.000,11.552 6.552,12.000 6.000,12.000 C5.448,12.000 5.000,11.552 5.000,11.000 C5.000,10.448 5.448,10.000 6.000,10.000 ZM6.000,18.000 C6.552,18.000 7.000,18.448 7.000,19.000 C7.000,19.552 6.552,20.000 6.000,20.000 C5.448,20.000 5.000,19.552 5.000,19.000 C5.000,18.448 5.448,18.000 6.000,18.000 ZM6.000,14.000 C6.552,14.000 7.000,14.448 7.000,15.000 C7.000,15.552 6.552,16.000 6.000,16.000 C5.448,16.000 5.000,15.552 5.000,15.000 C5.000,14.448 5.448,14.000 6.000,14.000 ZM7.000,6.000 C7.000,6.000 6.000,6.000 6.000,6.000 C5.448,6.000 5.000,5.552 5.000,5.000 C5.000,5.000 5.000,1.000 5.000,1.000 C5.000,0.448 5.448,-0.000 6.000,-0.000 C6.000,-0.000 7.000,-0.000 7.000,-0.000 C7.552,-0.000 8.000,0.448 8.000,1.000 C8.000,1.000 8.000,5.000 8.000,5.000 C8.000,5.552 7.552,6.000 7.000,6.000 Z" fill-rule="evenodd"/>
</symbol><symbol id="aside-categories" viewBox="0 0 24 18">
  <path d="M23.000,10.000 C23.000,10.000 8.000,10.000 8.000,10.000 C7.448,10.000 7.000,9.552 7.000,9.000 C7.000,8.448 7.448,8.000 8.000,8.000 C8.000,8.000 23.000,8.000 23.000,8.000 C23.552,8.000 24.000,8.448 24.000,9.000 C24.000,9.552 23.552,10.000 23.000,10.000 ZM23.000,3.000 C23.000,3.000 8.000,3.000 8.000,3.000 C7.448,3.000 7.000,2.552 7.000,2.000 C7.000,1.448 7.448,1.000 8.000,1.000 C8.000,1.000 23.000,1.000 23.000,1.000 C23.552,1.000 24.000,1.448 24.000,2.000 C24.000,2.552 23.552,3.000 23.000,3.000 ZM2.000,18.000 C0.895,18.000 -0.000,17.104 -0.000,16.000 C-0.000,14.895 0.895,14.000 2.000,14.000 C3.105,14.000 4.000,14.895 4.000,16.000 C4.000,17.104 3.105,18.000 2.000,18.000 ZM2.000,11.000 C0.895,11.000 -0.000,10.104 -0.000,9.000 C-0.000,7.895 0.895,7.000 2.000,7.000 C3.105,7.000 4.000,7.895 4.000,9.000 C4.000,10.104 3.105,11.000 2.000,11.000 ZM2.000,4.000 C0.895,4.000 -0.000,3.104 -0.000,2.000 C-0.000,0.895 0.895,-0.000 2.000,-0.000 C3.105,-0.000 4.000,0.895 4.000,2.000 C4.000,3.104 3.105,4.000 2.000,4.000 ZM8.000,15.000 C8.000,15.000 23.000,15.000 23.000,15.000 C23.552,15.000 24.000,15.448 24.000,16.000 C24.000,16.552 23.552,17.000 23.000,17.000 C23.000,17.000 8.000,17.000 8.000,17.000 C7.448,17.000 7.000,16.552 7.000,16.000 C7.000,15.448 7.448,15.000 8.000,15.000 Z" id="path-1" fill-rule="evenodd"/>
</symbol><symbol id="aside-coupons" viewBox="0 0 28 22">
  <path d="M27.150,8.757 C27.150,8.757 14.422,21.484 14.422,21.484 C14.285,21.622 13.412,21.710 12.327,21.751 C12.327,21.751 25.322,8.757 25.322,8.757 C25.712,8.366 25.712,7.733 25.322,7.343 C25.322,7.343 18.458,0.478 18.458,0.478 C18.458,0.478 18.665,0.271 18.665,0.271 C19.055,-0.119 19.688,-0.119 20.079,0.271 C20.079,0.271 27.150,7.342 27.150,7.342 C27.540,7.733 27.540,8.366 27.150,8.757 ZM21.493,8.757 C21.493,8.757 8.765,21.484 8.765,21.484 C8.375,21.875 2.085,21.875 1.694,21.484 C1.694,21.484 0.280,20.070 0.280,20.070 C-0.111,19.680 -0.111,13.390 0.280,12.999 C0.280,12.999 13.008,0.271 13.008,0.271 C13.398,-0.119 14.032,-0.119 14.422,0.271 C14.422,0.271 21.493,7.342 21.493,7.342 C21.884,7.733 21.884,8.366 21.493,8.757 ZM5.230,16.535 C4.449,15.754 3.182,15.754 2.401,16.535 C1.620,17.316 1.620,18.582 2.401,19.363 C3.182,20.144 4.449,20.144 5.230,19.363 C6.011,18.582 6.011,17.316 5.230,16.535 Z" fill-rule="evenodd"/>
</symbol><symbol id="aside-favourites" viewBox="0 0 23 20">
  <path d="M11.495,4.368 C8.517,-2.566 0.054,-0.948 -0.001,7.101 C-0.034,11.754 11.512,19.998 11.512,19.998 C11.512,19.998 23.033,11.674 23.001,7.053 C22.945,-1.016 14.335,-2.290 11.495,4.368 Z" id="path-1" fill-rule="evenodd"/>
</symbol><symbol id="aside-follow-us" viewBox="0 0 25 23">
  <path d="M25.000,10.999 C25.000,10.999 24.000,20.999 24.000,20.999 C24.000,22.104 13.105,21.999 12.000,21.999 C12.000,21.999 10.000,21.999 10.000,21.999 C8.895,21.999 8.000,21.104 8.000,19.999 C8.000,19.999 8.000,9.999 8.000,9.999 C8.000,8.895 8.895,7.999 10.000,7.999 C10.000,7.999 14.000,0.999 14.000,0.999 C14.000,0.999 17.000,-0.001 17.000,-0.001 C17.000,-0.001 16.048,8.564 16.048,8.564 C19.883,9.211 25.000,10.274 25.000,10.999 ZM-0.000,8.000 C-0.000,8.000 7.000,8.000 7.000,8.000 C7.000,8.000 7.000,23.000 7.000,23.000 C7.000,23.000 -0.000,23.000 -0.000,23.000 C-0.000,23.000 -0.000,8.000 -0.000,8.000 ZM2.421,21.546 C3.012,22.132 3.969,22.132 4.559,21.546 C5.150,20.960 5.150,20.010 4.559,19.424 C3.969,18.839 3.012,18.839 2.421,19.424 C1.831,20.010 1.831,20.960 2.421,21.546 Z" id="path-1" fill-rule="evenodd"/>
</symbol><symbol id="aside-pars" viewBox="0 0 30 22">
  <path d="M30.000,12.000 C30.000,12.000 29.000,12.000 29.000,12.000 C29.000,12.000 29.000,22.000 29.000,22.000 C29.000,22.000 9.000,22.000 9.000,22.000 C9.000,22.000 9.000,18.000 9.000,18.000 C9.000,18.000 11.000,18.000 11.000,18.000 C11.000,18.000 11.000,20.000 11.000,20.000 C11.000,20.000 18.000,20.000 18.000,20.000 C18.000,20.000 18.000,12.000 18.000,12.000 C18.000,12.000 11.000,12.000 11.000,12.000 C11.000,12.000 11.000,14.000 11.000,14.000 C11.000,14.000 9.000,14.000 9.000,14.000 C9.000,14.000 9.000,12.000 9.000,12.000 C9.000,12.000 8.000,12.000 8.000,12.000 C8.000,12.000 8.000,6.000 8.000,6.000 C8.000,6.000 17.284,6.000 17.284,6.000 C18.672,6.154 19.788,6.181 19.788,6.181 C19.788,6.181 20.923,6.154 22.309,6.000 C22.309,6.000 30.000,6.000 30.000,6.000 C30.000,6.000 30.000,12.000 30.000,12.000 ZM18.000,8.000 C18.000,8.000 10.000,8.000 10.000,8.000 C10.000,8.000 10.000,11.000 10.000,11.000 C10.000,11.000 18.000,11.000 18.000,11.000 C18.000,11.000 18.000,8.000 18.000,8.000 ZM20.000,20.000 C20.000,20.000 27.000,20.000 27.000,20.000 C27.000,20.000 27.000,12.000 27.000,12.000 C27.000,12.000 20.000,12.000 20.000,12.000 C20.000,12.000 20.000,20.000 20.000,20.000 ZM28.000,8.000 C28.000,8.000 20.000,8.000 20.000,8.000 C20.000,8.000 20.000,11.000 20.000,11.000 C20.000,11.000 28.000,11.000 28.000,11.000 C28.000,11.000 28.000,8.000 28.000,8.000 ZM17.284,6.000 C15.919,5.848 14.292,5.573 13.204,5.076 C11.009,4.074 13.512,-1.971 16.496,0.655 C19.479,3.279 19.788,6.181 19.788,6.181 C19.788,6.181 18.000,6.000 18.000,6.000 C18.000,6.000 17.284,6.000 17.284,6.000 ZM17.227,3.100 C15.902,2.161 14.789,4.322 15.764,4.681 C16.740,5.038 18.691,5.076 18.691,5.076 C18.691,5.076 18.554,4.038 17.227,3.100 ZM19.788,6.181 C19.788,6.181 20.086,3.476 22.963,1.029 C25.840,-1.418 28.254,4.217 26.137,5.151 C25.116,5.601 23.603,5.856 22.309,6.000 C22.309,6.000 21.000,6.000 21.000,6.000 C21.000,6.000 19.788,6.181 19.788,6.181 ZM23.668,4.782 C24.609,4.448 23.536,2.433 22.257,3.308 C20.979,4.183 20.846,5.151 20.846,5.151 C20.846,5.151 22.728,5.116 23.668,4.782 ZM12.000,15.000 C12.000,15.000 12.000,17.000 12.000,17.000 C12.000,17.000 7.000,17.000 7.000,17.000 C7.000,17.000 7.000,22.000 7.000,22.000 C7.000,22.000 5.000,22.000 5.000,22.000 C5.000,22.000 5.000,17.000 5.000,17.000 C5.000,17.000 -0.000,17.000 -0.000,17.000 C-0.000,17.000 -0.000,15.000 -0.000,15.000 C-0.000,15.000 5.000,15.000 5.000,15.000 C5.000,15.000 5.000,10.000 5.000,10.000 C5.000,10.000 7.000,10.000 7.000,10.000 C7.000,10.000 7.000,15.000 7.000,15.000 C7.000,15.000 12.000,15.000 12.000,15.000 Z" id="path-1" fill-rule="evenodd"/>
</symbol><symbol id="aside-testimonials" viewBox="0 0 30 22">
  <path d="M28.000,17.080 C28.000,17.080 28.000,21.998 28.000,21.998 C28.000,21.998 23.837,19.335 23.837,19.335 C22.655,19.676 21.360,19.866 20.000,19.866 C16.039,19.866 12.627,18.265 11.007,15.950 C17.162,15.565 22.000,11.706 22.000,6.993 C22.000,6.703 21.978,6.416 21.942,6.132 C26.535,6.759 30.000,9.564 30.000,12.932 C30.000,14.490 29.250,15.922 28.000,17.080 ZM10.000,13.866 C8.640,13.866 7.345,13.676 6.163,13.335 C6.163,13.335 2.000,15.999 2.000,15.999 C2.000,15.999 2.000,11.080 2.000,11.080 C0.750,9.922 -0.000,8.490 -0.000,6.932 C-0.000,3.103 4.477,-0.001 10.000,-0.001 C15.523,-0.001 20.000,3.103 20.000,6.932 C20.000,10.761 15.523,13.866 10.000,13.866 Z" fill-rule="evenodd"/>
</symbol><symbol id="favourites" viewBox="0 0 14 12">
  <path d="M7.000,2.204 C5.188,-1.872 -0.001,0.239 -0.001,4.418 C-0.001,7.155 5.789,11.998 7.007,11.998 C8.226,11.998 14.001,7.109 14.001,4.390 C14.001,0.199 8.729,-1.709 7.000,2.204 Z" fill-rule="evenodd"/>
</symbol><symbol id="help" viewBox="0 0 7 12"><path d="M3.637 8.163c-.058-.088-.103-.197-.137-.328-.034-.13-.05-.258-.05-.383 0-.182.023-.344.07-.488.046-.143.115-.278.207-.406.09-.128.205-.257.343-.387.138-.13.298-.27.48-.42.272-.22.51-.44.72-.65.208-.21.382-.43.523-.66.14-.23.247-.47.32-.73.073-.26.11-.54.11-.86 0-.5-.088-.93-.262-1.28-.17-.35-.41-.65-.72-.88-.31-.23-.67-.4-1.09-.5C3.73.07 3.28.02 2.8.02c-.508 0-.998.06-1.47.18S.42.5.016.74v2.35c.39-.344.804-.6 1.242-.77.437-.17.86-.254 1.265-.254.19 0 .36.028.51.086.158.05.288.13.39.23.11.1.19.22.25.353.058.137.087.286.087.45 0 .185-.026.356-.078.51-.053.153-.13.3-.236.445-.102.143-.23.287-.377.43-.15.143-.32.3-.52.464-.19.156-.35.313-.49.472-.15.16-.26.324-.36.5-.1.173-.17.36-.22.56-.05.195-.07.413-.07.653 0 .15.01.31.04.48.03.17.07.32.12.45h2.06zm.117 3.055c.265-.245.398-.555.398-.93 0-.37-.135-.674-.406-.914-.27-.244-.612-.367-1.023-.367-.417 0-.763.123-1.04.367-.276.245-.414.55-.414.914 0 .355.13.662.41.923.27.25.62.38 1.04.38.41 0 .76-.12 1.03-.36z" id="path-1" fill-rule="evenodd"/></symbol><symbol id="liked-empty" viewBox="0 0 14 13"><path d="M10.733 8.37l.593 4.63L7 11.018 2.674 13l.593-4.63L0 4.966l4.693-.88L7 0l2.307 4.085 4.692.88-3.27 3.405zM7.99 5.887L7 4l-.99 1.886L4 6.292l1.4 1.57L5.146 10 7 9.085 8.854 10 8.6 7.863l1.4-1.57-2.01-.407z" id="path-1" fill-rule="evenodd"/></symbol><symbol id="liked" viewBox="0 0 14 13"><path d="M7 0l2.307 4.085 4.692.88-3.27 3.405.59 4.63L7 11.017l-4.326 1.98.593-4.628L0 4.96l4.693-.88L7 0" id="path-1" fill-rule="evenodd"/></symbol><symbol id="settings" viewBox="0 0 15 13"><path d="M15 9.792v.414l-.576.256c-.023.12-.054.236-.093.35l.37.508-.2.36-.63-.068c-.08.09-.16.176-.25.255l.07.627-.36.207-.51-.37c-.11.04-.22.07-.34.1l-.25.58h-.42l-.25-.57c-.12-.02-.23-.05-.35-.09l-.51.37-.36-.2.07-.62c-.09-.08-.17-.16-.25-.25l-.63.07-.2-.36.37-.51c-.03-.11-.07-.23-.09-.35l-.6-.28V9.8l.58-.256c.02-.12.06-.24.1-.35l-.38-.51.2-.36.63.06c.08-.09.16-.177.25-.256l-.07-.62.36-.2.51.37c.11-.04.22-.07.34-.09l.26-.58h.41l.26.574c.12.02.23.055.35.095l.51-.373.36.205-.06.63c.09.08.18.16.26.26l.63-.07.21.36-.37.5c.04.11.07.23.09.35l.57.25zM12 9c-.552 0-1 .448-1 1s.448 1 1 1 1-.448 1-1-.448-1-1-1zM8.885 6.352l.617.85-.344.596-1.046-.11c-.13.15-.273.293-.424.424l.11 1.045-.597.345-.84-.618c-.19.065-.38.118-.58.156l-.43.96h-.69l-.42-.96c-.2-.038-.39-.09-.58-.156l-.85.618-.59-.345.11-1.045c-.15-.13-.29-.273-.42-.425l-1.04.11L.5 7.2l.617-.847c-.067-.19-.12-.383-.157-.58L0 5.343v-.69l.96-.427c.038-.2-.025-.04.04-.23L.497 2.8l.345-.6L2 2c.13-.152.16.018.312-.113L2.202.842 2.8.497s1.116.298 1.24.44L4 1c.064-.013.064-.036.04-.063L4.656 0h.69L6 1c.2.037.164.05.352.115l.85-.618.597.345-.12 1.045c.15.13.29.273.42.425l1.04-.11.34.596-.62.85c.06.187.11.38.15.58l.96.426v.69l-.96.427c-.04.2-.09.4-.16.59zM5 3.447c-.858 0-1.553.695-1.553 1.552 0 .85.695 1.55 1.553 1.55S6.553 5.85 6.553 5 5.858 3.446 5 3.446z" id="path-1" fill-rule="evenodd"/></symbol><symbol id="sign-in" viewBox="0 0 14 13"><path d="M12 13V2H6v2L4 3V0h10v13h-2zM5.816 6H11v3h-1V8H9v2H8V8H5.816C5.403 9.162 4.304 10 3 10c-1.657 0-3-1.343-3-3s1.343-3 3-3c1.304 0 2.403.837 2.816 2zM3 6c-.552 0-1 .448-1 1s.448 1 1 1 1-.448 1-1-.448-1-1-1zm3 7H4v-2l2-1v3z" id="path-1" fill-rule="evenodd"/></symbol><symbol id="sign-out" viewBox="0 0 14 13"><path d="M14 7l-4 3v3H8v-3h2V8H5V6h5V4H8V2H2v11H0V0h10v4l4 3zm-4 3l1-2h-1v2zm0-4h1l-1-2v2z" id="path-1" fill-rule="evenodd"/></symbol><symbol id="sign-up" viewBox="0 0 9 12"><path d="M8 12H1c-.552 0-1-.448-1-1V7c0-.552.448-1 1-1V3h.05c.245-1.694 1.688-3 3.45-3C6.433 0 8 1.567 8 3.5c0 .17-.013.337-.037.5H6V3h-.1c-.208-.58-.75-1-1.4-1-.65 0-1.192.42-1.4 1H3v3h5c.552 0 1 .448 1 1v4c0 .552-.448 1-1 1zM4.5 8c-.276 0-.5.223-.5.5 0 .276.224 1.5.5 1.5S5 8.775 5 8.5c0-.277-.224-.5-.5-.5z" id="path-1" fill-rule="evenodd"/></symbol><symbol id="category-adult" viewBox="0 0 12 17">
  <path d="M12.000,10.000 C12.000,12.209 10.209,14.000 8.000,14.000 C7.151,14.000 6.367,13.731 5.720,13.280 C5.720,13.280 4.500,14.500 4.500,14.500 C4.500,14.500 6.000,16.000 6.000,16.000 C6.000,16.000 5.000,17.000 5.000,17.000 C5.000,17.000 3.500,15.500 3.500,15.500 C3.500,15.500 2.000,17.000 2.000,17.000 C2.000,17.000 1.000,16.000 1.000,16.000 C1.000,16.000 2.500,14.500 2.500,14.500 C2.500,14.500 1.000,13.000 1.000,13.000 C1.000,13.000 2.000,12.000 2.000,12.000 C2.000,12.000 3.500,13.500 3.500,13.500 C3.500,13.500 4.719,12.280 4.719,12.280 C4.268,11.633 4.000,10.849 4.000,10.000 C1.791,10.000 -0.000,8.209 -0.000,6.000 C-0.000,3.791 1.791,2.000 4.000,2.000 C4.849,2.000 5.633,2.268 6.280,2.719 C6.280,2.719 8.000,1.000 8.000,1.000 C8.000,1.000 5.000,1.000 5.000,1.000 C5.000,1.000 5.000,-0.000 5.000,-0.000 C5.000,-0.000 9.000,-0.000 9.000,-0.000 C9.000,-0.000 10.000,-0.000 10.000,-0.000 C10.000,-0.000 10.000,1.000 10.000,1.000 C10.000,1.000 10.000,5.000 10.000,5.000 C10.000,5.000 9.000,5.000 9.000,5.000 C9.000,5.000 9.000,2.000 9.000,2.000 C9.000,2.000 7.280,3.719 7.280,3.719 C7.732,4.367 8.000,5.151 8.000,6.000 C10.209,6.000 12.000,7.791 12.000,10.000 ZM6.221,4.779 C6.221,4.779 6.000,5.000 6.000,5.000 C6.000,5.000 5.000,4.000 5.000,4.000 C5.000,4.000 5.221,3.779 5.221,3.779 C4.857,3.579 4.445,3.454 4.000,3.454 C2.594,3.454 1.454,4.594 1.454,6.000 C1.454,7.406 2.594,8.545 4.000,8.545 C4.100,8.545 4.195,8.527 4.292,8.516 C4.698,7.503 5.503,6.698 6.516,6.292 C6.527,6.195 6.545,6.100 6.545,6.000 C6.545,5.555 6.421,5.143 6.221,4.779 ZM5.231,10.000 C5.231,10.507 5.377,10.976 5.615,11.385 C5.615,11.385 6.000,11.000 6.000,11.000 C6.000,11.000 7.000,12.000 7.000,12.000 C7.000,12.000 6.615,12.385 6.615,12.385 C7.024,12.623 7.493,12.769 8.000,12.769 C9.529,12.769 10.769,11.529 10.769,10.000 C10.769,8.470 9.529,7.231 8.000,7.231 C6.471,7.231 5.231,8.470 5.231,10.000 Z" id="path-1" fill-rule="evenodd"/>
</symbol><symbol id="category-bear" viewBox="0 0 17 15">
  <path d="M15.711,5.459 C15.895,6.109 16.000,6.791 16.000,7.500 C16.000,11.642 12.642,15.000 8.500,15.000 C4.358,15.000 1.000,11.642 1.000,7.500 C1.000,6.791 1.105,6.109 1.288,5.459 C0.511,4.917 -0.000,4.019 -0.000,3.000 C-0.000,1.343 1.343,-0.000 3.000,-0.000 C3.804,-0.000 4.530,0.320 5.069,0.835 C6.098,0.305 7.262,-0.000 8.500,-0.000 C9.737,-0.000 10.902,0.305 11.931,0.835 C12.469,0.320 13.196,-0.000 14.000,-0.000 C15.657,-0.000 17.000,1.343 17.000,3.000 C17.000,4.019 16.489,4.917 15.711,5.459 ZM5.500,4.000 C4.671,4.000 4.000,4.671 4.000,5.500 C4.000,6.328 4.671,7.000 5.500,7.000 C6.328,7.000 7.000,6.328 7.000,5.500 C7.000,4.671 6.328,4.000 5.500,4.000 ZM6.000,9.500 C6.000,10.881 7.119,12.000 8.500,12.000 C9.881,12.000 11.000,10.881 11.000,9.500 C11.000,8.119 9.881,7.000 8.500,7.000 C7.119,7.000 6.000,8.119 6.000,9.500 ZM11.500,4.000 C10.671,4.000 10.000,4.671 10.000,5.500 C10.000,6.328 10.671,7.000 11.500,7.000 C12.328,7.000 13.000,6.328 13.000,5.500 C13.000,4.671 12.328,4.000 11.500,4.000 Z" id="path-1" fill-rule="evenodd"/>
</symbol><symbol id="category-book" viewBox="0 0 12 16">
  <path d="M11.000,14.000 C11.000,14.000 11.000,1.000 11.000,1.000 C11.000,1.000 3.000,1.000 3.000,1.000 C3.000,1.000 2.000,2.000 2.000,2.000 C2.000,2.000 6.000,2.000 6.000,2.000 C6.000,2.000 6.000,8.000 6.000,8.000 C6.000,8.000 8.000,8.000 8.000,8.000 C8.000,8.000 8.000,2.000 8.000,2.000 C8.000,2.000 10.000,2.000 10.000,2.000 C10.000,2.000 10.000,16.000 10.000,16.000 C10.000,16.000 -0.000,16.000 -0.000,16.000 C-0.000,16.000 -0.000,2.000 -0.000,2.000 C-0.000,2.000 2.000,-0.000 2.000,-0.000 C2.000,-0.000 11.000,-0.000 11.000,-0.000 C11.000,-0.000 12.000,-0.000 12.000,-0.000 C12.000,-0.000 12.000,1.000 12.000,1.000 C12.000,1.000 12.000,14.000 12.000,14.000 C12.000,14.000 11.000,14.000 11.000,14.000 Z" id="path-1" fill-rule="evenodd"/>
</symbol><symbol id="category-clock" viewBox="0 0 13 19">
  <path d="M6.500,16.000 C2.910,16.000 -0.000,13.090 -0.000,9.500 C-0.000,5.910 2.910,3.000 6.500,3.000 C10.090,3.000 13.000,5.910 13.000,9.500 C13.000,13.090 10.090,16.000 6.500,16.000 ZM6.500,4.143 C3.541,4.143 1.143,6.541 1.143,9.500 C1.143,12.458 3.541,14.857 6.500,14.857 C9.459,14.857 11.857,12.458 11.857,9.500 C11.857,6.541 9.459,4.143 6.500,4.143 ZM2.464,6.293 C2.464,6.293 3.171,5.586 3.171,5.586 C3.171,5.586 6.707,9.121 6.707,9.121 C6.707,9.121 8.828,7.000 8.828,7.000 C8.828,7.000 9.535,7.707 9.535,7.707 C9.535,7.707 6.707,10.535 6.707,10.535 C6.707,10.535 2.464,6.293 2.464,6.293 ZM3.000,3.000 C3.000,3.000 3.000,-0.000 3.000,-0.000 C3.000,-0.000 10.000,-0.000 10.000,-0.000 C10.000,-0.000 10.000,3.000 10.000,3.000 C10.000,3.000 8.250,2.000 6.500,2.000 C4.750,2.000 3.000,3.000 3.000,3.000 ZM10.000,16.000 C10.000,16.000 10.000,19.000 10.000,19.000 C10.000,19.000 3.000,19.000 3.000,19.000 C3.000,19.000 3.000,16.000 3.000,16.000 C3.000,16.000 4.708,17.000 6.437,17.000 C8.208,17.000 10.000,16.000 10.000,16.000 Z" id="path-1" fill-rule="evenodd"/>
</symbol><symbol id="category-clothes" viewBox="0 0 18 14">
  <path d="M15.000,9.000 C15.000,9.000 14.000,8.000 14.000,8.000 C14.000,8.000 14.000,14.000 14.000,14.000 C14.000,14.000 4.000,14.000 4.000,14.000 C4.000,14.000 4.000,8.000 4.000,8.000 C4.000,8.000 3.000,9.000 3.000,9.000 C3.000,9.000 -0.000,7.000 -0.000,7.000 C-0.000,7.000 4.000,1.000 4.000,1.000 C4.000,1.000 7.000,1.000 7.000,1.000 C7.000,1.000 7.000,-0.000 7.000,-0.000 C7.000,-0.000 11.000,-0.000 11.000,-0.000 C11.000,-0.000 11.000,1.000 11.000,1.000 C11.000,1.000 14.000,1.000 14.000,1.000 C14.000,1.000 18.000,7.000 18.000,7.000 C18.000,7.000 15.000,9.000 15.000,9.000 Z" id="path-1" fill-rule="evenodd"/>
</symbol><symbol id="category-compass" viewBox="0 0 16 16">
  <path d="M8.000,16.000 C3.582,16.000 -0.000,12.418 -0.000,8.000 C-0.000,3.581 3.582,-0.000 8.000,-0.000 C12.418,-0.000 16.000,3.581 16.000,8.000 C16.000,12.418 12.418,16.000 8.000,16.000 ZM8.000,1.000 C4.134,1.000 1.000,4.134 1.000,8.000 C1.000,10.586 2.418,12.819 4.504,14.031 C4.504,14.031 5.402,6.500 5.402,6.500 C5.402,6.500 11.474,1.957 11.474,1.957 C10.447,1.364 9.271,1.000 8.000,1.000 ZM7.000,8.000 C7.000,8.552 7.448,9.000 8.000,9.000 C8.552,9.000 9.000,8.552 9.000,8.000 C9.000,7.447 8.552,7.000 8.000,7.000 C7.448,7.000 7.000,7.447 7.000,8.000 ZM11.496,1.969 C11.496,1.969 10.598,9.500 10.598,9.500 C10.598,9.500 4.526,14.043 4.526,14.043 C5.553,14.635 6.729,15.000 8.000,15.000 C11.866,15.000 15.000,11.866 15.000,8.000 C15.000,5.414 13.582,3.181 11.496,1.969 Z" id="path-1" fill-rule="evenodd"/>
</symbol><symbol id="category-grass" viewBox="0 0 8 17">
  <path d="M6.457,12.907 C5.538,13.826 4.567,14.405 4.000,14.427 C4.000,14.427 4.000,17.218 4.000,17.218 C4.000,17.218 3.000,17.218 3.000,17.218 C3.000,17.218 3.000,12.047 3.000,12.047 C2.519,11.830 1.930,11.412 1.362,10.848 C0.306,9.800 -0.265,8.666 0.087,8.317 C0.439,7.967 1.581,8.534 2.637,9.582 C2.766,9.710 2.886,9.839 3.000,9.968 C3.000,9.968 3.000,6.219 3.000,6.219 C3.000,6.219 3.500,6.219 3.500,6.219 C3.500,6.219 4.000,6.219 4.000,6.219 C4.000,6.219 4.000,11.678 4.000,11.678 C4.016,11.781 4.019,11.874 4.000,11.951 C4.000,11.951 4.000,12.767 4.000,12.767 C4.261,12.361 4.615,11.921 5.043,11.492 C6.215,10.321 7.481,9.687 7.872,10.078 C8.262,10.469 7.629,11.735 6.457,12.907 ZM1.000,2.718 C1.000,1.718 1.300,0.816 1.780,0.179 C2.228,-0.416 2.834,1.219 3.500,1.219 C4.151,1.219 4.743,-0.434 5.188,0.137 C5.687,0.777 6.000,1.696 6.000,2.718 C6.000,4.652 4.881,6.219 3.500,6.219 C2.119,6.219 1.000,4.652 1.000,2.718 Z" id="path-1" fill-rule="evenodd"/>
</symbol><symbol id="category-home" viewBox="0 0 18 16">
  <path d="M17.000,7.937 C17.000,7.937 15.000,7.000 15.000,7.000 C15.000,7.000 15.000,16.000 15.000,16.000 C15.000,16.000 11.000,16.000 11.000,16.000 C11.000,16.000 11.000,10.000 11.000,10.000 C11.000,10.000 7.000,10.000 7.000,10.000 C7.000,10.000 7.000,16.000 7.000,16.000 C7.000,16.000 3.000,16.000 3.000,16.000 C3.000,16.000 3.000,7.062 3.000,7.062 C3.000,7.062 1.000,8.000 1.000,8.000 C1.000,8.000 -0.000,6.000 -0.000,6.000 C-0.000,6.000 8.833,-0.000 8.833,-0.000 C8.833,-0.000 18.000,6.000 18.000,6.000 C18.000,6.000 17.000,7.937 17.000,7.937 Z" id="path-1" fill-rule="evenodd"/>
</symbol><symbol id="category-meal" viewBox="0 0 12 18">
  <path d="M10.531,18.000 C9.771,18.000 9.000,16.000 9.000,16.000 C9.000,16.000 10.000,12.000 10.000,12.000 C10.000,12.000 10.000,10.500 10.000,10.500 C10.000,10.500 9.000,9.000 9.000,9.000 C9.000,9.000 9.000,2.000 9.000,2.000 C9.000,2.000 11.000,-0.000 11.000,-0.000 C11.000,-0.000 11.000,3.000 11.000,3.000 C11.000,3.000 11.000,12.000 11.000,12.000 C11.000,12.000 12.000,16.000 12.000,16.000 C12.000,16.000 11.271,18.000 10.531,18.000 ZM3.000,7.866 C3.000,7.866 3.000,12.000 3.000,12.000 C3.000,12.000 4.000,16.000 4.000,16.000 C4.000,16.000 3.271,18.000 2.531,18.000 C1.771,18.000 1.000,16.000 1.000,16.000 C1.000,16.000 2.000,12.000 2.000,12.000 C2.000,12.000 2.000,7.826 2.000,7.826 C0.938,7.200 -0.000,5.000 -0.000,5.000 C-0.000,5.000 -0.000,1.000 -0.000,1.000 C-0.000,1.000 1.000,-0.000 1.000,-0.000 C1.000,-0.000 1.000,0.022 1.000,0.062 C1.000,0.570 1.000,4.000 1.000,4.000 C1.000,4.000 2.000,4.000 2.000,4.000 C2.000,4.000 2.000,-0.000 2.000,-0.000 C2.000,-0.000 3.000,-0.000 3.000,-0.000 C3.000,-0.000 3.000,4.000 3.000,4.000 C3.000,4.000 4.000,4.000 4.000,4.000 C4.000,4.000 4.000,0.219 4.000,0.219 C4.000,0.219 4.000,0.031 4.000,0.031 C4.000,0.031 4.000,-0.000 4.000,-0.000 C4.000,-0.000 5.000,1.000 5.000,1.000 C5.000,1.000 5.000,5.000 5.000,5.000 C5.000,5.000 4.063,7.285 3.000,7.866 Z" id="path-1" fill-rule="evenodd"/>
</symbol><symbol id="category-mobile" viewBox="0 0 9 16">
  <path d="M8.000,16.000 C8.000,16.000 1.000,16.000 1.000,16.000 C0.448,16.000 -0.000,15.552 -0.000,15.000 C-0.000,15.000 -0.000,1.000 -0.000,1.000 C-0.000,0.448 0.448,-0.000 1.000,-0.000 C1.000,-0.000 8.000,-0.000 8.000,-0.000 C8.552,-0.000 9.000,0.448 9.000,1.000 C9.000,1.000 9.000,15.000 9.000,15.000 C9.000,15.552 8.552,16.000 8.000,16.000 ZM4.000,15.000 C4.000,15.000 5.000,15.000 5.000,15.000 C5.000,15.000 5.000,14.000 5.000,14.000 C5.000,14.000 4.000,14.000 4.000,14.000 C4.000,14.000 4.000,15.000 4.000,15.000 ZM8.000,2.000 C8.000,1.447 7.552,1.000 7.000,1.000 C7.000,1.000 2.000,1.000 2.000,1.000 C1.448,1.000 1.000,1.447 1.000,2.000 C1.000,2.000 1.000,12.000 1.000,12.000 C1.000,12.552 1.448,13.000 2.000,13.000 C2.000,13.000 7.000,13.000 7.000,13.000 C7.552,13.000 8.000,12.552 8.000,12.000 C8.000,12.000 8.000,2.000 8.000,2.000 Z" id="path-1" fill-rule="evenodd"/>
</symbol><symbol id="category-par" viewBox="0 0 22 16">
  <path d="M22.000,4.459 C22.000,4.459 22.000,8.918 22.000,8.918 C22.000,8.918 21.457,8.918 21.457,8.918 C21.457,8.918 21.457,15.738 21.457,15.738 C21.457,15.738 6.519,15.738 6.519,15.738 C6.519,15.738 6.519,13.115 6.519,13.115 C6.519,13.115 8.148,13.115 8.148,13.115 C8.148,13.115 8.148,14.164 8.148,14.164 C8.148,14.164 13.037,14.164 13.037,14.164 C13.037,14.164 13.037,8.393 13.037,8.393 C13.037,8.393 8.148,8.393 8.148,8.393 C8.148,8.393 8.148,10.230 8.148,10.230 C8.148,10.230 6.519,10.230 6.519,10.230 C6.519,10.230 6.519,8.918 6.519,8.918 C6.519,8.918 5.975,8.918 5.975,8.918 C5.975,8.918 5.975,4.495 5.975,4.495 C5.975,4.495 12.959,4.495 12.959,4.495 C12.959,4.495 14.511,4.495 14.511,4.495 C14.511,4.495 15.287,4.495 15.287,4.495 C15.287,4.495 22.000,4.459 22.000,4.459 ZM13.037,6.033 C13.037,6.033 7.333,6.033 7.333,6.033 C7.333,6.033 7.333,7.606 7.333,7.606 C7.333,7.606 13.037,7.606 13.037,7.606 C13.037,7.606 13.037,6.033 13.037,6.033 ZM15.210,14.164 C15.210,14.164 19.827,14.164 19.827,14.164 C19.827,14.164 19.827,8.393 19.827,8.393 C19.827,8.393 15.210,8.393 15.210,8.393 C15.210,8.393 15.210,14.164 15.210,14.164 ZM15.210,7.606 C15.210,7.606 20.642,7.606 20.642,7.606 C20.642,7.606 20.642,6.033 20.642,6.033 C20.642,6.033 15.210,6.033 15.210,6.033 C15.210,6.033 15.210,7.606 15.210,7.606 ZM12.097,0.476 C14.285,2.385 14.511,4.495 14.511,4.495 C14.511,4.495 11.292,4.420 9.683,3.692 C8.073,2.963 9.909,-1.433 12.097,0.476 ZM11.560,3.404 C12.276,3.664 13.707,3.692 13.707,3.692 C13.707,3.692 13.606,2.937 12.634,2.255 C11.661,1.572 10.845,3.144 11.560,3.404 ZM19.167,3.746 C17.615,4.425 14.511,4.495 14.511,4.495 C14.511,4.495 14.730,2.528 16.839,0.749 C18.949,-1.031 20.719,3.067 19.167,3.746 ZM16.322,2.406 C15.384,3.043 15.287,3.746 15.287,3.746 C15.287,3.746 16.667,3.721 17.357,3.478 C18.046,3.235 17.260,1.770 16.322,2.406 ZM8.963,11.016 C8.963,11.016 8.963,12.328 8.963,12.328 C8.963,12.328 5.160,12.328 5.160,12.328 C5.160,12.328 5.160,16.000 5.160,16.000 C5.160,16.000 3.802,16.000 3.802,16.000 C3.802,16.000 3.802,12.328 3.802,12.328 C3.802,12.328 0.000,12.328 0.000,12.328 C0.000,12.328 0.000,11.016 0.000,11.016 C0.000,11.016 3.802,11.016 3.802,11.016 C3.802,11.016 3.802,7.344 3.802,7.344 C3.802,7.344 5.160,7.344 5.160,7.344 C5.160,7.344 5.160,11.016 5.160,11.016 C5.160,11.016 8.963,11.016 8.963,11.016 Z" fill-rule="evenodd"/>
</symbol><symbol id="category-polisher" viewBox="0 0 13 22">
  <path d="M12.000,22.000 C12.000,22.000 11.000,22.000 11.000,22.000 C10.448,22.000 10.000,21.552 10.000,21.000 C10.000,21.000 10.000,20.000 10.000,20.000 C10.000,20.000 13.000,20.000 13.000,20.000 C13.000,20.000 13.000,21.000 13.000,21.000 C13.000,21.552 12.552,22.000 12.000,22.000 ZM10.000,15.000 C10.000,14.447 10.448,14.000 11.000,14.000 C11.000,14.000 11.000,5.000 11.000,5.000 C11.000,5.000 10.000,5.000 10.000,5.000 C10.000,5.000 10.000,4.000 10.000,4.000 C10.000,4.000 11.000,4.000 11.000,4.000 C11.000,4.000 11.000,3.000 11.000,3.000 C11.000,3.000 10.000,3.000 10.000,3.000 C10.000,3.000 10.000,2.000 10.000,2.000 C10.000,2.000 11.000,2.000 11.000,2.000 C11.000,2.000 11.000,1.000 11.000,1.000 C11.000,1.000 10.000,1.000 10.000,1.000 C10.000,1.000 10.000,-0.000 10.000,-0.000 C10.000,-0.000 13.000,-0.000 13.000,-0.000 C13.000,-0.000 13.000,1.000 13.000,1.000 C13.000,1.000 12.000,1.000 12.000,1.000 C12.000,1.000 12.000,2.000 12.000,2.000 C12.000,2.000 13.000,2.000 13.000,2.000 C13.000,2.000 13.000,3.000 13.000,3.000 C13.000,3.000 12.000,3.000 12.000,3.000 C12.000,3.000 12.000,4.000 12.000,4.000 C12.000,4.000 13.000,4.000 13.000,4.000 C13.000,4.000 13.000,5.000 13.000,5.000 C13.000,5.000 12.000,5.000 12.000,5.000 C12.000,5.000 12.000,14.000 12.000,14.000 C12.552,14.000 13.000,14.447 13.000,15.000 C13.000,15.000 13.000,19.000 13.000,19.000 C13.000,19.000 10.000,19.000 10.000,19.000 C10.000,19.000 10.000,15.000 10.000,15.000 ZM6.000,22.000 C6.000,22.000 2.000,22.000 2.000,22.000 C0.895,22.000 -0.000,21.104 -0.000,20.000 C-0.000,20.000 -0.000,16.000 -0.000,16.000 C-0.000,14.895 0.895,14.000 2.000,14.000 C2.000,14.000 3.000,14.000 3.000,14.000 C3.000,14.000 3.000,13.000 3.000,13.000 C3.000,13.000 2.000,13.000 2.000,13.000 C2.000,13.000 2.000,9.000 2.000,9.000 C2.000,7.895 2.895,7.000 4.000,7.000 C5.104,7.000 6.000,7.895 6.000,9.000 C6.000,9.000 6.000,13.000 6.000,13.000 C6.000,13.000 5.000,13.000 5.000,13.000 C5.000,13.000 5.000,14.000 5.000,14.000 C5.000,14.000 6.000,14.000 6.000,14.000 C7.104,14.000 8.000,14.895 8.000,16.000 C8.000,16.000 8.000,20.000 8.000,20.000 C8.000,21.104 7.104,22.000 6.000,22.000 ZM6.000,15.000 C6.000,15.000 2.000,15.000 2.000,15.000 C2.000,15.000 1.000,16.000 1.000,16.000 C1.000,16.000 1.000,20.000 1.000,20.000 C1.000,20.000 2.000,20.000 2.000,20.000 C2.000,20.000 2.000,16.000 2.000,16.000 C2.000,16.000 7.000,16.000 7.000,16.000 C7.000,16.000 6.000,15.000 6.000,15.000 Z" id="path-1" fill-rule="evenodd"/>
</symbol><symbol id="category-shoe" viewBox="0 0 18 17">
  <path d="M6.300,12.235 C5.625,12.235 3.600,12.235 2.700,12.235 C1.800,12.235 -0.113,12.235 -0.000,13.647 C0.112,15.059 1.800,16.941 1.800,16.941 C1.800,16.941 8.100,16.941 8.100,16.941 C8.100,16.941 13.725,6.941 15.300,8.470 C15.300,9.882 15.300,16.941 15.300,16.941 C15.300,16.941 16.200,17.000 16.200,17.000 C16.200,17.000 18.000,8.900 18.000,3.882 C18.000,1.631 16.987,0.235 15.300,-0.000 C14.737,3.059 8.100,11.647 6.300,12.235 Z" id="path-1" fill-rule="evenodd"/>
</symbol><symbol id="category-soap" viewBox="0 0 10 17">
  <path d="M-0.000,14.000 C-0.000,14.000 -0.000,6.000 -0.000,6.000 C-0.000,4.895 0.895,4.000 2.000,4.000 C2.000,4.000 2.000,3.000 2.000,3.000 C2.000,3.000 4.000,3.000 4.000,3.000 C4.000,3.000 4.000,2.000 4.000,2.000 C4.000,2.000 4.000,-0.000 4.000,-0.000 C4.000,-0.000 6.000,-0.000 6.000,-0.000 C6.000,-0.000 6.000,1.000 6.000,1.000 C6.000,1.000 8.000,1.000 8.000,1.000 C8.000,1.000 8.000,2.000 8.000,2.000 C8.000,2.000 6.000,2.000 6.000,2.000 C6.000,2.000 6.000,3.000 6.000,3.000 C6.000,3.000 8.000,3.000 8.000,3.000 C8.000,3.000 8.000,4.000 8.000,4.000 C9.104,4.000 10.000,4.895 10.000,6.000 C10.000,6.000 10.000,14.000 10.000,14.000 C10.000,14.000 -0.000,14.000 -0.000,14.000 ZM8.000,5.000 C8.000,5.000 2.000,5.000 2.000,5.000 C2.000,5.000 1.000,6.000 1.000,6.000 C1.000,6.000 1.000,13.000 1.000,13.000 C1.000,13.000 2.000,13.000 2.000,13.000 C2.000,13.000 2.000,6.000 2.000,6.000 C2.000,6.000 9.000,6.000 9.000,6.000 C9.000,6.000 8.000,5.000 8.000,5.000 ZM7.000,16.000 C7.000,16.000 3.000,16.000 3.000,16.000 C1.895,16.000 1.000,16.104 1.000,15.000 C1.000,15.000 9.000,15.000 9.000,15.000 C9.000,16.104 8.105,16.000 7.000,16.000 Z" id="path-1" fill-rule="evenodd"/>
</symbol><symbol id="category-sport" viewBox="0 0 19 10">
  <path d="M17.000,9.000 C17.000,9.000 17.000,1.000 17.000,1.000 C17.000,1.000 19.000,1.000 19.000,1.000 C19.000,1.000 19.000,9.000 19.000,9.000 C19.000,9.000 17.000,9.000 17.000,9.000 ZM14.000,-0.000 C14.000,-0.000 16.000,-0.000 16.000,-0.000 C16.000,-0.000 16.000,10.000 16.000,10.000 C16.000,10.000 14.000,10.000 14.000,10.000 C14.000,10.000 14.000,-0.000 14.000,-0.000 ZM6.000,4.000 C6.000,4.000 13.000,4.000 13.000,4.000 C13.000,4.000 13.000,6.000 13.000,6.000 C13.000,6.000 6.000,6.000 6.000,6.000 C6.000,6.000 6.000,4.000 6.000,4.000 ZM3.000,-0.000 C3.000,-0.000 5.000,-0.000 5.000,-0.000 C5.000,-0.000 5.000,10.000 5.000,10.000 C5.000,10.000 3.000,10.000 3.000,10.000 C3.000,10.000 3.000,-0.000 3.000,-0.000 ZM-0.000,1.000 C-0.000,1.000 2.000,1.000 2.000,1.000 C2.000,1.000 2.000,9.000 2.000,9.000 C2.000,9.000 -0.000,9.000 -0.000,9.000 C-0.000,9.000 -0.000,1.000 -0.000,1.000 Z" id="path-1" fill-rule="evenodd"/>
</symbol><symbol id="category-stepler" viewBox="0 0 20 11">
  <path d="M18.031,6.031 C18.031,6.031 18.031,7.031 18.031,7.031 C18.031,7.031 17.031,7.031 17.031,7.031 C17.031,7.031 16.431,6.431 16.431,6.431 C16.431,6.431 6.031,9.031 6.031,9.031 C6.031,9.031 18.031,9.031 18.031,9.031 C18.031,9.031 18.031,10.031 18.031,10.031 C18.031,10.031 2.031,10.031 2.031,10.031 C1.498,10.174 1.174,9.564 1.031,9.031 C1.031,9.031 0.031,5.031 0.031,5.031 C-0.112,4.498 0.498,4.174 1.031,4.031 C1.031,4.031 17.031,0.031 17.031,0.031 C17.565,-0.112 17.888,0.498 18.031,1.031 C18.031,1.031 19.031,5.031 19.031,5.031 C19.174,5.565 18.565,5.888 18.031,6.031 ZM13.884,1.553 C13.884,1.553 0.884,5.553 0.884,5.553 C0.884,5.553 1.178,6.509 1.178,6.509 C1.178,6.509 14.178,2.509 14.178,2.509 C14.178,2.509 13.884,1.553 13.884,1.553 Z" id="path-1" fill-rule="evenodd"/>
</symbol><symbol id="category-zoo" viewBox="0 0 16 17">
  <path d="M14.313,7.269 C13.041,8.499 11.385,8.851 10.616,8.057 C9.848,7.262 10.256,5.622 11.529,4.393 C12.802,3.164 14.458,2.811 15.226,3.605 C15.995,4.400 15.586,6.040 14.313,7.269 ZM9.787,0.109 C8.754,-0.287 7.405,0.733 6.774,2.386 C6.142,4.038 6.467,5.699 7.500,6.094 C8.532,6.489 9.882,5.470 10.513,3.817 C11.144,2.165 10.819,0.504 9.787,0.109 ZM3.771,2.192 C2.691,2.034 1.630,3.184 1.401,4.760 C1.173,6.336 1.863,7.742 2.944,7.901 C4.024,8.059 5.085,6.909 5.313,5.333 C5.541,3.757 4.851,2.350 3.771,2.192 ZM15.280,10.102 C14.625,9.229 13.059,9.295 11.784,10.249 C10.509,11.204 10.006,12.685 10.661,13.558 C11.317,14.431 12.882,14.365 14.157,13.411 C15.433,12.456 15.935,10.975 15.280,10.102 ZM8.638,16.856 C10.367,16.339 10.156,9.945 8.066,8.609 C5.881,7.211 -0.460,10.306 0.037,12.150 C0.533,13.994 3.242,14.260 4.525,14.742 C5.808,15.222 5.969,17.655 8.638,16.856 Z" id="path-1" fill-rule="evenodd"/>
</symbol><symbol id="confirm-controls-comment" viewBox="0 0 20 15">
  <path d="M18.000,10.387 C18.000,10.387 18.000,14.999 18.000,14.999 C18.000,14.999 13.838,12.501 13.838,12.501 C12.656,12.821 11.360,12.999 10.000,12.999 C4.477,12.999 -0.000,10.089 -0.000,6.499 C-0.000,2.909 4.477,-0.001 10.000,-0.001 C15.523,-0.001 20.000,2.909 20.000,6.499 C20.000,7.959 19.250,9.302 18.000,10.387 Z" fill-rule="evenodd"/>
</symbol><symbol id="confirm-controls-coupons" viewBox="0 0 20 20">
  <path d="M19.790,7.817 C19.790,7.817 18.958,8.647 17.754,9.849 C17.754,9.849 17.246,9.341 17.246,9.341 C17.246,9.341 16.737,9.849 16.737,9.849 C16.737,9.849 17.246,10.357 17.246,10.357 C13.920,13.677 8.469,19.118 8.088,19.499 C7.537,20.049 2.407,20.430 1.008,19.034 C-0.392,17.637 -0.095,12.431 0.456,11.880 C1.008,11.330 12.158,0.199 12.158,0.199 C12.439,-0.082 12.895,-0.082 13.176,0.199 C13.176,0.199 19.790,6.801 19.790,6.801 C20.071,7.082 20.071,7.537 19.790,7.817 ZM4.654,15.563 C4.022,14.932 2.997,14.932 2.364,15.563 C1.732,16.194 1.732,17.217 2.364,17.848 C2.997,18.480 4.022,18.480 4.654,17.848 C5.286,17.217 5.286,16.194 4.654,15.563 ZM10.123,2.230 C10.123,2.230 9.614,2.738 9.614,2.738 C9.614,2.738 10.377,3.500 10.377,3.500 C10.377,3.500 10.886,2.992 10.886,2.992 C10.886,2.992 10.123,2.230 10.123,2.230 ZM11.141,3.246 C11.141,3.246 10.632,3.754 10.632,3.754 C10.632,3.754 11.395,4.516 11.395,4.516 C11.395,4.516 11.904,4.008 11.904,4.008 C11.904,4.008 11.141,3.246 11.141,3.246 ZM12.158,4.262 C12.158,4.262 11.649,4.770 11.649,4.770 C11.649,4.770 12.412,5.532 12.412,5.532 C12.412,5.532 12.921,5.024 12.921,5.024 C12.921,5.024 12.158,4.262 12.158,4.262 ZM13.176,5.278 C13.176,5.278 12.667,5.786 12.667,5.786 C12.667,5.786 13.430,6.547 13.430,6.547 C13.430,6.547 13.939,6.040 13.939,6.040 C13.939,6.040 13.176,5.278 13.176,5.278 ZM14.193,6.293 C14.193,6.293 13.684,6.801 13.684,6.801 C13.684,6.801 14.448,7.563 14.448,7.563 C14.448,7.563 14.956,7.055 14.956,7.055 C14.956,7.055 14.193,6.293 14.193,6.293 ZM15.211,7.309 C15.211,7.309 14.702,7.817 14.702,7.817 C14.702,7.817 15.465,8.579 15.465,8.579 C15.465,8.579 15.974,8.071 15.974,8.071 C15.974,8.071 15.211,7.309 15.211,7.309 ZM16.228,8.325 C16.228,8.325 15.720,8.833 15.720,8.833 C15.720,8.833 16.483,9.595 16.483,9.595 C16.483,9.595 16.991,9.087 16.991,9.087 C16.991,9.087 16.228,8.325 16.228,8.325 Z" fill-rule="evenodd"/>
</symbol><symbol id="campaign" viewBox="0 0 16 16">
  <g id="actionsvg">
    <circle cx="8" cy="8" r="8"/>
    <path d="M6.410,6.923 C6.782,6.499 6.968,5.928 6.968,5.209 C6.968,4.509 6.800,3.966 6.463,3.580 C6.127,3.194 5.660,3.000 5.063,3.000 C4.439,3.000 3.940,3.214 3.566,3.641 C3.192,4.068 3.005,4.645 3.005,5.373 C3.005,6.040 3.181,6.571 3.532,6.965 C3.884,7.359 4.347,7.557 4.922,7.557 C5.542,7.557 6.038,7.345 6.410,6.923 ZM5.790,5.263 C5.790,6.077 5.523,6.483 4.989,6.483 C4.467,6.483 4.206,6.093 4.206,5.312 C4.206,4.487 4.480,4.074 5.029,4.074 C5.536,4.074 5.790,4.470 5.790,5.263 C5.790,5.263 5.790,5.263 5.790,5.263 ZM9.437,3.123 C9.437,3.123 4.183,11.869 4.183,11.869 C4.183,11.869 5.559,11.869 5.559,11.869 C5.559,11.869 10.823,3.123 10.823,3.123 C10.823,3.123 9.437,3.123 9.437,3.123 ZM11.443,11.351 C11.815,10.924 12.001,10.350 12.001,9.631 C12.001,8.931 11.834,8.390 11.500,8.008 C11.165,7.626 10.697,7.435 10.096,7.435 C9.472,7.435 8.973,7.648 8.600,8.075 C8.226,8.502 8.039,9.080 8.039,9.807 C8.039,10.475 8.214,11.005 8.566,11.399 C8.917,11.794 9.380,11.991 9.955,11.991 C10.575,11.991 11.071,11.778 11.443,11.351 ZM10.609,8.819 C10.752,9.027 10.823,9.320 10.823,9.698 C10.823,10.511 10.556,10.918 10.023,10.918 C9.493,10.918 9.228,10.527 9.228,9.747 C9.228,8.921 9.500,8.508 10.045,8.508 C10.278,8.508 10.466,8.612 10.609,8.819 Z" fill="#fff" fill-rule="evenodd"/>
  </g>
</symbol><symbol id="coupon-comment" viewBox="0 0 14 13">
  <path d="M12.189,8.356 C11.541,8.866 10.855,12.567 10.855,12.567 C10.855,12.567 8.017,10.000 7.000,10.000 C3.134,10.000 -0.000,7.761 -0.000,5.000 C-0.000,2.238 3.134,-0.000 7.000,-0.000 C10.866,-0.000 14.000,2.238 14.000,5.000 C14.000,6.291 13.314,7.468 12.189,8.356 ZM7.000,2.000 C4.239,2.000 2.000,3.343 2.000,5.000 C2.000,6.657 4.239,8.000 7.000,8.000 C9.761,8.000 12.000,6.657 12.000,5.000 C12.000,3.343 9.761,2.000 7.000,2.000 Z" id="path-1" fill-rule="evenodd"/>
</symbol><symbol id="coupon-goto" viewBox="0 0 12 12">
  <path d="M6.000,12.000 C2.686,12.000 -0.000,9.314 -0.000,6.000 C-0.000,2.686 2.686,-0.000 6.000,-0.000 C9.314,-0.000 12.000,2.686 12.000,6.000 C12.000,9.314 9.314,12.000 6.000,12.000 ZM5.000,3.000 C5.000,3.000 5.000,5.000 5.000,5.000 C5.000,5.000 3.000,5.000 3.000,5.000 C3.000,5.000 3.000,7.000 3.000,7.000 C3.000,7.000 5.000,7.000 5.000,7.000 C5.000,7.000 5.000,9.000 5.000,9.000 C5.000,9.000 9.000,6.000 9.000,6.000 C9.000,6.000 5.000,3.000 5.000,3.000 Z" fill-rule="evenodd"/>
</symbol><symbol id="coupon-like" viewBox="0 0 22 22">
  <path d="M11.000,0.999 C11.000,0.999 14.295,7.285 14.295,7.285 C14.295,7.285 20.999,8.639 20.999,8.639 C20.999,8.639 16.333,13.877 16.333,13.877 C16.333,13.877 17.179,20.999 17.179,20.999 C17.179,20.999 11.000,17.951 11.000,17.951 C11.000,17.951 4.820,20.999 4.820,20.999 C4.820,20.999 5.667,13.877 5.667,13.877 C5.667,13.877 1.001,8.639 1.001,8.639 C1.001,8.639 7.704,7.285 7.704,7.285 C7.704,7.285 11.000,0.999 11.000,0.999 " id="path-1" stroke="currentColor" fill-rule="evenodd"/>
</symbol><symbol id="coupon-send-to-email" viewBox="0 0 20 20">
  <path d="M19.000,20.000 C19.000,20.000 1.000,20.000 1.000,20.000 C0.448,20.000 -0.000,19.552 -0.000,19.000 C-0.000,19.000 -0.000,6.000 -0.000,6.000 C-0.000,5.447 0.448,4.000 1.000,4.000 C1.000,4.000 9.094,-0.000 9.094,-0.000 C9.094,-0.000 11.000,-0.000 11.000,-0.000 C11.000,-0.000 19.000,4.000 19.000,4.000 C19.552,4.000 20.000,5.447 20.000,6.000 C20.000,6.000 20.000,19.000 20.000,19.000 C20.000,19.552 19.552,20.000 19.000,20.000 ZM17.000,19.000 C17.000,19.000 11.000,14.000 11.000,14.000 C11.000,14.000 9.000,14.000 9.000,14.000 C9.000,14.000 3.000,19.000 3.000,19.000 C3.000,19.000 17.000,19.000 17.000,19.000 ZM1.000,18.000 C1.000,18.000 8.000,14.000 8.000,14.000 C8.000,14.000 1.000,9.000 1.000,9.000 C1.000,9.000 1.000,18.000 1.000,18.000 ZM18.000,5.000 C18.000,5.000 11.000,1.000 11.000,1.000 C11.000,1.000 9.000,1.000 9.000,1.000 C9.000,1.000 2.000,5.000 2.000,5.000 C2.000,5.000 1.000,8.000 1.000,8.000 C1.000,8.000 4.429,10.143 4.429,10.143 C4.429,10.143 3.000,9.000 3.000,9.000 C3.000,9.000 17.400,9.000 17.400,9.000 C17.400,9.000 19.000,8.000 19.000,8.000 C19.000,8.000 18.000,5.000 18.000,5.000 ZM16.667,10.666 C16.667,10.666 12.000,14.000 12.000,14.000 C12.000,14.000 19.000,18.000 19.000,18.000 C19.000,18.000 19.000,9.500 19.000,9.500 C19.000,9.500 16.667,10.666 16.667,10.666 Z" id="path-1" fill-rule="evenodd"/>
</symbol><symbol id="coupon-send-to-mobile" viewBox="0 0 11 20">
	<path d="M10.000,20.000 C10.000,20.000 1.000,20.000 1.000,20.000 C0.448,20.000 -0.000,19.552 -0.000,19.000 C-0.000,19.000 -0.000,1.000 -0.000,1.000 C-0.000,0.448 0.448,-0.000 1.000,-0.000 C1.000,-0.000 10.000,-0.000 10.000,-0.000 C10.552,-0.000 11.000,0.448 11.000,1.000 C11.000,1.000 11.000,19.000 11.000,19.000 C11.000,19.552 10.552,20.000 10.000,20.000 ZM5.500,19.000 C6.328,19.000 7.000,18.828 7.000,18.000 C7.000,17.171 6.328,17.000 5.500,17.000 C4.671,17.000 4.000,17.171 4.000,18.000 C4.000,18.828 4.671,19.000 5.500,19.000 ZM7.500,1.000 C7.500,1.000 3.500,1.000 3.500,1.000 C3.224,1.000 3.000,1.224 3.000,1.500 C3.000,1.776 3.224,2.000 3.500,2.000 C3.500,2.000 7.500,2.000 7.500,2.000 C7.776,2.000 8.000,1.776 8.000,1.500 C8.000,1.224 7.776,1.000 7.500,1.000 ZM10.000,4.000 C10.000,3.448 9.552,3.000 9.000,3.000 C9.000,3.000 2.000,3.000 2.000,3.000 C1.448,3.000 1.000,3.448 1.000,4.000 C1.000,4.000 1.000,15.000 1.000,15.000 C1.000,15.552 1.448,16.000 2.000,16.000 C2.000,16.000 9.000,16.000 9.000,16.000 C9.552,16.000 10.000,15.552 10.000,15.000 C10.000,15.000 10.000,4.000 10.000,4.000 Z" id="path-1" fill-rule="evenodd"/>
</symbol><symbol id="coupon-share" viewBox="0 0 13 13">
  <g id="coupon-sharesvg">
    <path d="M10.500,5.000 C9.729,5.000 9.049,4.644 8.590,4.096 C8.590,4.096 5.772,5.857 5.772,5.857 C5.917,6.210 6.000,6.595 6.000,7.000 C6.000,7.363 5.926,7.706 5.807,8.028 C5.807,8.028 8.569,9.606 8.569,9.606 C8.932,9.233 9.438,9.000 10.000,9.000 C11.105,9.000 12.000,9.895 12.000,11.000 C12.000,12.105 11.105,13.000 10.000,13.000 C8.895,13.000 8.000,12.105 8.000,11.000 C8.000,10.818 8.032,10.645 8.078,10.477 C8.078,10.477 5.308,8.895 5.308,8.895 C4.758,9.564 3.934,10.000 3.000,10.000 C1.343,10.000 -0.000,8.657 -0.000,7.000 C-0.000,5.343 1.343,4.000 3.000,4.000 C3.892,4.000 4.684,4.397 5.233,5.014 C5.233,5.014 8.116,3.213 8.116,3.213 C8.048,2.986 8.000,2.749 8.000,2.500 C8.000,1.119 9.119,-0.000 10.500,-0.000 C11.881,-0.000 13.000,1.119 13.000,2.500 C13.000,3.881 11.881,5.000 10.500,5.000 Z" fill-rule="evenodd"/>
  </g>
</symbol><symbol id="coupon-valid-till" viewBox="0 0 14 14">
  <path d="M7.000,14.000 C3.134,14.000 -0.000,10.866 -0.000,7.000 C-0.000,3.134 3.134,-0.000 7.000,-0.000 C10.866,-0.000 14.000,3.134 14.000,7.000 C14.000,10.866 10.866,14.000 7.000,14.000 ZM7.000,0.875 C5.853,0.875 4.792,1.210 3.874,1.759 C3.874,1.759 7.708,6.645 7.708,6.645 C7.708,6.645 11.000,4.999 11.000,4.999 C11.000,4.999 8.209,8.719 8.209,8.719 C8.209,8.719 8.250,9.396 8.250,9.396 C8.250,9.396 7.648,8.999 7.648,8.999 C7.648,8.999 6.000,8.999 6.000,8.999 C6.000,8.999 6.409,8.180 6.409,8.180 C6.409,8.180 6.384,8.164 6.384,8.164 C6.384,8.164 3.824,1.786 3.824,1.786 C2.062,2.862 0.875,4.785 0.875,7.000 C0.875,10.383 3.617,13.125 7.000,13.125 C10.383,13.125 13.125,10.383 13.125,7.000 C13.125,3.617 10.383,0.875 7.000,0.875 Z" id="path-1" fill-rule="evenodd"/>
</symbol><symbol id="coupon" viewBox="0 0 16 16">
  <g id="couponsvg">
    <circle cx="8" cy="8" r="8"/>
    <path d="M7.853,11.388 C7.853,11.388 3.611,11.388 3.611,11.388 C3.611,11.388 3.611,7.146 3.611,7.146 C3.611,7.146 8.268,2.489 8.268,2.489 C8.268,2.489 12.510,6.732 12.510,6.732 C12.510,6.732 7.853,11.388 7.853,11.388 ZM6.439,8.560 C6.049,8.169 5.415,8.169 5.025,8.560 C4.634,8.950 4.634,9.584 5.025,9.974 C5.415,10.365 6.049,10.365 6.439,9.974 C6.830,9.584 6.830,8.950 6.439,8.560 Z" fill="#fff" fill-rule="evenodd"/>
  </g>
</symbol><symbol id="par" viewBox="0 0 16 16">
  <g id="parsvg">
    <circle id="circle-1" fill="#ee4f4f" cx="8" cy="8" r="8"/>
    <path d="M12.000,7.000 C12.000,7.000 11.000,7.000 11.000,7.000 C11.000,7.000 11.000,11.000 11.000,11.000 C11.000,11.000 5.000,11.000 5.000,11.000 C5.000,11.000 5.000,7.000 5.000,7.000 C5.000,7.000 4.000,7.000 4.000,7.000 C4.000,7.000 4.000,5.000 4.000,5.000 C4.000,5.000 8.000,5.000 8.000,5.000 C8.000,5.000 12.000,5.000 12.000,5.000 C12.000,5.000 12.000,7.000 12.000,7.000 ZM10.000,7.000 C10.000,7.000 9.000,7.000 9.000,7.000 C9.000,7.000 8.000,10.000 8.000,10.000 C8.000,10.000 7.000,7.000 7.000,7.000 C7.000,7.000 6.000,7.000 6.000,7.000 C6.000,7.000 6.000,10.000 6.000,10.000 C6.000,10.000 10.000,10.000 10.000,10.000 C10.000,10.000 10.000,7.000 10.000,7.000 ZM6.000,4.000 C6.000,3.448 6.895,3.000 8.000,3.000 C9.105,3.000 10.000,3.448 10.000,4.000 C10.000,4.552 9.105,5.000 8.000,5.000 C6.895,5.000 6.000,4.552 6.000,4.000 Z" id="path-1" fill="#ffffff" fill-rule="evenodd"/>
  </g>
</symbol><symbol id="type-cashback" viewBox="0 0 61 54">
  <g id="type-cashback-same-shopsvg">
    <path d="M52.328,13.200 C52.328,13.200 53.851,12.791 53.851,12.791 C53.851,12.791 55.374,18.475 55.374,18.475 C55.374,18.475 52.328,13.200 52.328,13.200 ZM28.680,44.694 C28.680,44.694 54.250,29.931 54.250,29.931 C54.250,29.931 56.228,37.313 56.228,37.313 C56.228,37.313 28.680,44.694 28.680,44.694 ZM12.111,44.791 C12.111,44.791 13.720,50.799 13.720,50.799 C13.720,50.799 15.330,50.368 15.330,50.368 C15.330,50.368 16.211,51.893 16.211,51.893 C16.211,51.893 21.904,48.606 21.904,48.606 C21.904,48.606 58.708,38.745 58.708,38.745 C58.708,38.745 56.066,28.882 56.066,28.882 C56.066,28.882 57.882,27.834 57.882,27.834 C57.882,27.834 61.188,40.176 61.188,40.176 C61.188,40.176 12.288,53.279 12.288,53.279 C12.288,53.279 8.198,38.015 8.198,38.015 C8.198,38.015 12.111,44.791 12.111,44.791 Z" id="path-1" class="cls-3" fill-rule="evenodd"/>
    <path d="M14.186,49.867 C14.186,49.867 0.011,25.316 0.011,25.316 C0.011,25.316 43.853,0.003 43.853,0.003 C43.853,0.003 58.028,24.555 58.028,24.555 C58.028,24.555 14.186,49.867 14.186,49.867 ZM43.112,2.769 C43.112,2.769 2.777,26.057 2.777,26.057 C2.777,26.057 3.790,27.811 3.790,27.811 C3.790,27.811 3.790,27.811 3.790,27.811 C3.790,27.811 14.927,47.102 14.927,47.102 C14.927,47.102 16.681,46.089 16.681,46.089 C16.681,46.089 16.681,46.089 16.681,46.089 C16.681,46.089 53.508,24.826 53.508,24.826 C53.508,24.826 53.508,24.826 53.508,24.826 C53.508,24.826 55.262,23.813 55.262,23.813 C55.262,23.813 44.125,4.523 44.125,4.523 C44.125,4.523 44.125,4.523 44.125,4.523 C44.125,4.523 43.112,2.769 43.112,2.769 ZM52.496,23.073 C52.496,23.073 15.668,44.336 15.668,44.336 C15.668,44.336 5.543,26.798 5.543,26.798 C5.543,26.798 42.371,5.535 42.371,5.535 C42.371,5.535 52.496,23.073 52.496,23.073 ZM25.105,20.181 C22.200,21.859 21.204,25.574 22.882,28.480 C24.559,31.385 28.275,32.381 31.180,30.703 C34.086,29.025 35.081,25.310 33.404,22.405 C31.726,19.499 28.011,18.504 25.105,20.181 Z" fill-rule="evenodd"/>
  </g>
</symbol><symbol id="type-delivery" viewBox="0 0 54 31">
  <path d="M50.328,25.184 C49.890,22.133 47.272,19.784 44.100,19.784 C40.926,19.784 38.309,22.133 37.871,25.184 C37.871,25.184 34.199,25.184 34.199,25.184 C34.199,25.184 32.400,25.184 32.400,25.184 C32.400,25.184 30.599,25.184 30.599,25.184 C30.599,25.184 28.799,25.184 28.799,25.184 C28.799,25.184 16.128,25.184 16.128,25.184 C15.690,22.133 13.072,19.784 9.899,19.784 C6.727,19.784 4.109,22.133 3.671,25.184 C3.671,25.184 -0.001,25.184 -0.001,25.184 C-0.001,25.184 -0.001,21.584 -0.001,21.584 C-0.001,21.584 1.799,21.584 1.799,21.584 C1.799,21.584 1.799,-0.016 1.799,-0.016 C1.799,-0.016 30.599,-0.016 30.599,-0.016 C30.599,-0.016 30.599,21.584 30.599,21.584 C30.599,21.584 32.400,21.584 32.400,21.584 C32.400,21.584 32.400,3.584 32.400,3.584 C32.400,3.584 41.399,3.584 41.399,3.584 C41.399,3.584 52.199,16.484 52.199,16.484 C52.199,16.484 52.199,21.584 52.199,21.584 C52.199,21.584 53.999,21.584 53.999,21.584 C53.999,21.584 53.999,25.184 53.999,25.184 C53.999,25.184 50.328,25.184 50.328,25.184 ZM39.599,7.184 C39.599,7.184 34.199,7.184 34.199,7.184 C34.199,7.184 34.199,16.184 34.199,16.184 C34.199,16.184 46.799,16.184 46.799,16.184 C46.799,16.184 39.599,7.184 39.599,7.184 ZM9.899,21.584 C12.385,21.584 14.399,23.599 14.399,26.084 C14.399,28.569 12.385,30.584 9.899,30.584 C7.414,30.584 5.400,28.569 5.400,26.084 C5.400,23.599 7.414,21.584 9.899,21.584 ZM44.100,21.584 C46.585,21.584 48.599,23.599 48.599,26.084 C48.599,28.569 46.585,30.584 44.100,30.584 C41.614,30.584 39.599,28.569 39.599,26.084 C39.599,23.599 41.614,21.584 44.100,21.584 Z" fill-rule="evenodd"/>
</symbol><symbol id="type-discount" viewBox="0 0 50 34">
  <path d="M28.699,33.746 C28.699,33.746 5.073,33.746 5.073,33.746 C2.278,33.746 0.011,31.480 0.011,28.684 C0.011,28.684 0.011,5.060 0.011,5.060 C0.011,2.263 2.278,-0.003 5.073,-0.003 C5.073,-0.003 28.699,-0.003 28.699,-0.003 C34.696,-0.003 49.271,13.531 49.271,16.484 C49.271,19.437 34.579,33.746 28.699,33.746 ZM8.449,3.371 C4.721,3.371 3.386,6.394 3.386,10.122 C3.386,13.850 4.721,16.872 8.449,16.872 C12.177,16.872 13.511,13.850 13.511,10.122 C13.511,6.394 12.177,3.371 8.449,3.371 ZM20.460,4.265 C20.460,4.265 6.960,29.578 6.960,29.578 C6.960,29.578 9.937,31.166 9.937,31.166 C9.937,31.166 23.437,5.853 23.437,5.853 C23.437,5.853 20.460,4.265 20.460,4.265 ZM23.636,16.872 C19.908,16.872 18.573,19.894 18.573,23.622 C18.573,27.350 19.908,30.371 23.636,30.371 C27.364,30.371 28.699,27.350 28.699,23.622 C28.699,19.894 27.364,16.872 23.636,16.872 ZM39.667,11.809 C37.337,11.809 35.449,13.698 35.449,16.028 C35.449,18.358 37.337,20.247 39.667,20.247 C41.997,20.247 43.886,18.358 43.886,16.028 C43.886,13.698 41.997,11.809 39.667,11.809 ZM23.636,26.988 C21.777,26.988 21.957,25.482 21.957,23.622 C21.957,21.763 21.777,20.255 23.636,20.255 C25.495,20.255 25.315,21.763 25.315,23.622 C25.315,25.482 25.495,26.988 23.636,26.988 ZM8.449,13.488 C6.589,13.488 6.770,11.981 6.770,10.122 C6.770,8.262 6.589,6.756 8.449,6.756 C10.308,6.756 10.127,8.262 10.127,10.122 C10.127,11.981 10.308,13.488 8.449,13.488 Z" fill-rule="evenodd"/>
</symbol><symbol id="type-gift" viewBox="0 0 48 48">
  <g id="type-gift-same-shopsvg">
    <path d="M44.999,26.926 C44.999,26.926 44.999,47.245 44.999,47.245 C44.999,47.245 26.999,47.245 26.999,47.245 C26.999,47.245 20.249,47.245 20.249,47.245 C20.249,47.245 2.249,47.245 2.249,47.245 C2.249,47.245 2.249,26.926 2.249,26.926 C2.249,26.926 -0.001,26.926 -0.001,26.926 C-0.001,26.926 -0.001,24.745 -0.001,24.745 C-0.001,24.745 -0.001,22.496 -0.001,22.496 C-0.001,22.496 -0.001,13.496 -0.001,13.496 C-0.001,13.496 20.249,13.496 20.249,13.496 C20.249,13.496 26.999,13.496 26.999,13.496 C26.999,13.496 47.250,13.496 47.250,13.496 C47.250,13.496 47.250,22.496 47.250,22.496 C47.250,22.496 47.250,24.745 47.250,24.745 C47.250,24.745 47.250,27.066 47.250,27.066 C47.250,27.066 44.999,26.926 44.999,26.926 ZM26.999,42.746 C26.999,42.746 40.499,42.746 40.499,42.746 C40.499,42.746 40.499,24.745 40.499,24.745 C40.499,24.745 26.999,24.745 26.999,24.745 C26.999,24.745 26.999,42.746 26.999,42.746 ZM6.749,24.817 C6.749,24.817 6.749,42.746 6.749,42.746 C6.749,42.746 20.249,42.746 20.249,42.746 C20.249,42.746 20.249,24.745 20.249,24.745 C20.249,24.745 5.602,24.745 5.602,24.745 C5.602,24.745 6.749,24.817 6.749,24.817 ZM4.499,17.997 C4.499,17.997 4.499,22.496 4.499,22.496 C4.499,22.496 20.249,22.496 20.249,22.496 C20.249,22.496 20.249,17.997 20.249,17.997 C20.249,17.997 4.499,17.997 4.499,17.997 ZM42.749,17.997 C42.749,17.997 26.999,17.997 26.999,17.997 C26.999,17.997 26.999,22.496 26.999,22.496 C26.999,22.496 40.499,22.496 40.499,22.496 C40.499,22.496 42.749,22.496 42.749,22.496 C42.749,22.496 42.749,17.997 42.749,17.997 Z" fill-rule="evenodd"/>
    <path d="M38.249,11.246 C33.749,13.284 24.749,13.496 24.749,13.496 C24.749,13.496 25.382,7.589 31.499,2.246 C37.616,-3.097 42.749,9.207 38.249,11.246 ZM29.999,7.223 C27.281,9.134 26.999,11.246 26.999,11.246 C26.999,11.246 30.999,11.170 32.999,10.441 C34.999,9.712 32.718,5.313 29.999,7.223 Z" fill-rule="evenodd"/>
    <path d="M10.749,11.082 C6.083,8.895 11.406,-4.303 17.749,1.429 C24.093,7.161 24.749,13.496 24.749,13.496 C24.749,13.496 15.416,13.270 10.749,11.082 ZM19.305,6.768 C16.486,4.719 14.120,9.438 16.194,10.220 C18.268,11.002 22.416,11.082 22.416,11.082 C22.416,11.082 22.124,8.817 19.305,6.768 Z" fill-rule="evenodd"/>
  </g>
</symbol><symbol id="footer-about" viewBox="0 0 80 80"><path d="M40 80C17.91 80 0 62.09 0 40S17.91 0 40 0s40 17.91 40 40-17.91 40-40 40zm0-78C19.013 2 2 19.013 2 40s17.013 38 38 38 38-17.013 38-38S60.987 2 40 2zm15.998 43.7l2.54 20.3L40 57.312l-18.54 8.686L24.003 45.7l-14-14.93 20.11-3.857L40 9l9.887 17.913 20.11 3.858-14 14.93zm-23.42-5.873c0 .23.23.502.5.502.692 0 2.537-3.36 3.96-3.36.308 0 .654.34.384 1.04l-2.69 6.79c-.27.65-1.577 3.82-1.577 5.67 0 1.46.96 2.12 2.345 2.12 3.883 0 8.38-4.78 8.38-5.9 0-.35-.268-.58-.46-.58-.538 0-2.653 3.28-3.806 3.28-.308 0-.46-.27-.46-.54 0-.62.422-1.58.652-2.16l2.768-7.52c1.384-3.74-.385-4.75-2.038-4.75-2.23 0-4.23 1.12-5.766 2.58-.5.502-2.19 2.12-2.19 2.816zM42.65 27.33c-1.69 0-3.152 1.388-3.152 3.085 0 1.582 1.038 2.624 2.615 2.624 1.73 0 3.19-1.32 3.19-3.09 0-1.58-1.114-2.63-2.653-2.63z" id="path-1" fill-rule="evenodd"/></symbol><symbol id="footer-blog" viewBox="0 0 52 40"><path d="M51.763 6.74c.3.3.3.786 0 1.087l-3.267 3.264-7.623-7.61L44.14.21c.3-.3.79-.3 1.09 0l3.81 3.808-3.266 3.263L48.496 10l3.267-3.263zm-4.9 5.982L39.24 5.107l1.09-1.088 7.622 7.61-1.09 1.09zm-.305.305L23.45 36.11l-9.985 2.626.395.494-3.08-.77-2.31.77-5.39-1.538L0 40l1.54-4.616 6.93 2.308 2.31-2.308 2.433 3.037 2.614-9.92L38.695 5.65l7.623 7.616.24-.24zM15.283 34.48c1.157-.035 2.28 1.02 2.178 2.175-.01.017 5.45-1.088 5.45-1.088l.55-2.72h-2.18l.546-1.63-2.722.543.546-2.72h-1.09v-1.088l-2.18 1.088s-1.106 5.456-1.09 5.44zM38.695 6.74L18.55 26.863l3.81-.544L40.33 8.37l-1.635-1.63z" id="path-1" fill-rule="evenodd"/></symbol><symbol id="footer-categories" viewBox="0 0 80 80"><path d="M40 80C17.91 80 0 62.09 0 40S17.91 0 40 0s40 17.91 40 40-17.91 40-40 40zm0-78C19.013 2 2 19.013 2 40s17.013 38 38 38 38-17.013 38-38S60.987 2 40 2zm29.575 32.634s-1.667 1.65-4.11 4.063L64.44 37.68l-1.027 1.017 1.028 1.016-18.49 18.284c-1.11 1.1-11.47 1.863-14.29-.93-.12-.118-.22-.266-.33-.41l2.6-2.567c.133.215.285.42.47.607 1.28 1.262 3.35 1.262 4.625 0 1.278-1.263 1.278-3.31 0-4.57-.186-.187-.395-.337-.612-.468L53.6 34.63c.567-.56.567-1.47 0-2.033l-6.393-6.32c.635-.626 1.25-1.232 1.828-1.805L50.568 26l1.028-1.016-1.54-1.524-.632.625 4.74-4.688c.568-.56 1.488-.56 2.056 0l13.355 13.205c.568.56.568 1.47 0 2.032zM52.11 25.492l-1.027 1.015 1.54 1.524 1.028-1.01-1.54-1.52zm2.055 2.03l-1.027 1.017 1.54 1.52 1.028-1.02-1.54-1.53zm2.055 2.033l-1.028 1.016 1.54 1.53 1.03-1.01-1.542-1.522zm2.054 2.03l-1.027 1.017 1.54 1.524 1.028-1.016-1.54-1.524zm2.055 2.033l-1.03 1.016 1.54 1.524 1.02-1.016-1.54-1.524zm2.05 2.032l-1.03 1.016 1.54 1.523 1.03-1.02-1.54-1.53zm-12.42-1.016l-4.11 4.063-1.03-1.016-1.03 1.02 1.024 1.02L26.332 58c-1.113 1.1-11.472 1.862-14.297-.93-2.825-2.797-2.225-13.21-1.113-14.31l18.492-18.284L30.954 26l1.028-1.016-1.54-1.524-.943.932 5.05-4.995c.56-.56 1.48-.56 2.05 0l13.36 13.205c.56.56.56 1.47 0 2.032zM19.39 50.126c-1.276-1.263-3.346-1.263-4.623 0-1.276 1.26-1.276 3.308 0 4.57 1.277 1.263 3.347 1.263 4.623 0 1.277-1.262 1.277-3.31 0-4.57zm13.1-24.634l-1.028 1.015 1.54 1.524 1.026-1.01-1.54-1.52zm2.054 2.03L33.52 28.54l1.54 1.52 1.03-1.02-1.54-1.525zm2.055 2.033l-1.02 1.015 1.54 1.525 1.03-1.016-1.546-1.53zm2.053 2.03l-1.025 1.017 1.54 1.524 1.03-1.016-1.54-1.524zm2.057 2.033l-1.026 1.016 1.54 1.524 1.027-1.016-1.54-1.524zm2.056 2.032l-1.028 1.016 1.54 1.523 1.03-1.02-1.543-1.53z" id="path-1" fill-rule="evenodd"/></symbol><symbol id="footer-feedback" viewBox="0 0 52 37"><path d="M45.582 31.264c-.675 1.12-2.244 4.14-.826 6.048-5.16 0-7.696-2.664-7.727-2.697-1.77.34-3.62.535-5.53.535-5.85 0-11.1-1.695-14.83-4.397.7.04 1.4.072 2.113.072 13.73 0 24.86-7.502 24.86-16.756 0-1.66-.37-3.25-1.03-4.76 5.6 2.5 9.314 6.84 9.314 11.78 0 4-2.447 7.61-6.355 10.17zm-25.13-3.14c-1.92 0-3.768-.196-5.53-.536-.023.033-2.018 2.697-7.727 2.697 2.21-1.838-1.105-5.946-1.105-5.946l1.07.39C2.793 22.15.015 18.34.015 14.07.015 6.306 9.165.013 20.452.013 31.74.013 40.89 6.307 40.89 14.07c0 7.76-9.15 14.053-20.438 14.053z" id="path-1" fill-rule="evenodd"/></symbol><symbol id="footer-social" viewBox="0 0 35 35"><path d="M31 31c0 .552-2.667 2-5 2s-14-1-14-1c-.552 0-1-.448-1-1V13c0-.552 4.167-9.333 7-13 5 0-1.333 12 4 12s11 1 11 1 2 5.333 2 7c0 1.667-4 11-4 11zM8 35H1c-.552 0-1-.448-1-1V13c0-.552.448-1 1-1h7c.552 0 1 .448 1 1v21c0 .552-.448 1-1 1zm-4.5-5c-.828 0-1.5.67-1.5 1.5 0 .828.672 1.5 1.5 1.5S5 32.328 5 31.5c0-.83-.672-1.5-1.5-1.5z" id="path-1" fill-rule="evenodd"/></symbol><symbol id="subscribe" viewBox="0 0 18 12"><path d="M16 12H2c-1.105 0-2-.896-2-2V3l8 5h2l8-5v7c0 1.104-.895 2-2 2zm-6-6H8L0 2C0 .895.895 0 2 0h14c1.105 0 2 .895 2 2l-8 4z" id="path-1" fill-rule="evenodd"/></symbol><symbol id="categories" viewBox="0 0 19 15"><path d="M6 14v-2h13v2H6zm0-7h13v2H6V7zm0-5h13v2H6V2zM0 13l1-1 1 1 2-3 1 1-3 4-2-2zm0-5l1-1 1 1 2-3 1 1-3 4-2-2zm0-5l1-1 1 1 2-3 1 1-3 4-2-2z" id="path-1" fill-rule="evenodd"/></symbol><symbol id="exclusive" viewBox="0 0 31 12"><path d="M31 12h-4l-2-9h6l-2 4.166L31 12zM6 10L8 0h15l2 10H6zm11-9h-2l-2 3h2v5h2V1zM0 12l2-4-2-5h6l-2 9H0z" id="path-1" fill-rule="evenodd"/></symbol><symbol id="new" viewBox="0 0 20 20"><path d="M17.422 8.733L20.002 10l-2.39 1.78 1.704 1.86-2.88.79.637 2.642-2.702-.525-.35 2.614-2.74-1.74L10 20.01l-1.78-2.39-1.86 1.704-.792-2.88-2.64.636.525-2.702L.84 14.02l1.733-2.748L-.007 10l2.39-1.782-1.7-1.858 2.88-.792-.635-2.64 2.702.524.355-2.614 2.747 1.74L10-.002l1.78 2.388L13.64.683l.79 2.88 2.643-.636-.526 2.702 2.614.35-1.73 2.75zM10 3c-3.866 0-7 3.134-7 7 0 3.865 3.134 7 7 7s7-3.135 7-7c0-3.866-3.134-7-7-7zm0 13c-3.314 0-6-2.687-6-6 0-3.314 2.686-6 6-6s6 2.686 6 6c0 3.313-2.686 6-6 6z" id="path-1" fill-rule="evenodd"/></symbol><symbol id="popular" viewBox="0 0 20 19"><path d="M10 0l3.296 5.97L20 7.258l-4.667 4.976L16.18 19 10 16.103 3.82 19l.847-6.767L0 7.257 6.705 5.97 10 0" id="path-1" fill-rule="evenodd"/></symbol><symbol id="shops" viewBox="0 0 20 16"><path d="M16 11H3V1H0V0h4v2h16l-4 9zM5 9h10l2-5H5v5zm9 4v.1c.58.208 1 .75 1 1.4 0 .828-.672 1.5-1.5 1.5-.83 0-1.5-.672-1.5-1.5 0-.178.044-.343.1-.5H5.9c.056.157.1.322.1.5 0 .828-.672 1.5-1.5 1.5S3 15.328 3 14.5c0-.178.044-.343.1-.5H3v-1h11z" id="path-1" fill-rule="evenodd"/></symbol><symbol id="select-list-deselect" viewBox="0 0 16 16">
  <path d="M9.250,6.000 C9.250,6.000 10.000,3.000 10.000,3.000 C10.000,3.000 3.000,8.000 3.000,8.000 C3.000,8.000 10.000,13.000 10.000,13.000 C10.000,13.000 9.250,10.000 9.250,10.000 C9.250,10.000 15.738,10.000 15.738,10.000 C14.848,13.449 11.726,16.000 8.000,16.000 C3.582,16.000 -0.000,12.418 -0.000,8.000 C-0.000,3.582 3.582,-0.000 8.000,-0.000 C11.726,-0.000 14.848,2.551 15.738,6.000 C15.738,6.000 9.250,6.000 9.250,6.000 Z" fill-rule="evenodd"/>
</symbol><symbol id="select-list-select" viewBox="0 0 16 16">
  <path d="M8.000,16.000 C4.274,16.000 1.152,13.449 0.262,10.000 C0.262,10.000 6.750,10.000 6.750,10.000 C6.750,10.000 6.000,13.000 6.000,13.000 C6.000,13.000 13.000,8.000 13.000,8.000 C13.000,8.000 6.000,3.000 6.000,3.000 C6.000,3.000 6.750,6.000 6.750,6.000 C6.750,6.000 0.262,6.000 0.262,6.000 C1.152,2.551 4.274,-0.000 8.000,-0.000 C12.418,-0.000 16.000,3.582 16.000,8.000 C16.000,12.418 12.418,16.000 8.000,16.000 Z" fill-rule="evenodd"/>
</symbol><symbol id="facebook" viewBox="0 0 52 52"><title/><description/><defs/><g fill="none" fill-rule="evenodd" id="black" stroke="none" stroke-width="1"><g fill="#346DA6" id="color" transform="translate(-140.000000, 0.000000)"><circle cx="166" cy="26" d="M166,52 C180.359404,52 192,40.3594042 192,26 C192,11.6405958 180.359404,0 166,0 C151.640596,0 140,11.6405958 140,26 C140,40.3594042 151.640596,52 166,52 Z M166,52" id="Facebook" r="26"/></g><g fill="#FFFFFF" id="Icon" transform="translate(-130.000000, 11.000000)"><path d="M152.067261,30.005738 L152.067261,14.9990998 L149.017517,14.9990997 L149.017517,10.0247755 L152.067261,10.0247755 L152.067261,7.01660156 C152.067261,2.95908992 153.280396,0.0332031215 157.723022,0.0332031215 L163.008178,0.0332031215 L163.008178,4.99731463 L159.286621,4.99731463 C157.422975,4.99731463 156.998291,6.23572613 156.998291,7.53259282 L156.998291,10.0247746 L162.7335,10.0247751 L161.950683,14.9990998 L156.998291,14.9990998 L156.998291,30.0057374 L152.067261,30.005738 Z M152.067261,30.005738" id="facebook"/></g></g></symbol><symbol id="googleplus" viewBox="0 0 52 52"><title/><description/><defs/><g fill="none" fill-rule="evenodd" id="black" stroke="none" stroke-width="1"><g fill="#CA4638" id="color" transform="translate(-210.000000, 0.000000)"><circle cx="236" cy="26" d="M236,52 C250.359404,52 262,40.3594042 262,26 C262,11.6405958 250.359404,0 236,0 C221.640596,0 210,11.6405958 210,26 C210,40.3594042 221.640596,52 236,52 Z M236,52" id="Google+" r="26"/></g><g fill="#FFFFFF" id="Icon" transform="translate(-200.000000, 11.000000)"><path d="M224.23398,12.7187267 C225.082956,11.8670402 225.157228,10.6851964 225.157228,10.0194605 C225.157228,7.35949886 223.568245,3.21952182 220.50033,3.21952182 C219.539404,3.21952182 218.504749,3.70039128 217.912743,4.44039896 C217.284685,5.2164583 217.099276,6.21316462 217.099276,7.17436141 C217.099276,9.64999883 218.540801,13.7533821 221.71931,13.7533821 C222.643371,13.753111 223.641432,13.3093775 224.23398,12.7187267 L224.23398,12.7187267 Z M223.161105,19.7401256 C222.865373,19.7024475 222.680506,19.7024475 222.311587,19.7024475 C221.978719,19.7024475 219.982596,19.7767193 218.430477,20.2947247 C217.617553,20.5904567 215.252239,21.4765685 215.252239,24.1010207 C215.252239,26.7249307 217.802148,28.6091041 221.756988,28.6091041 C225.30523,28.6091041 227.189674,26.9097971 227.189674,24.618755 C227.189674,22.7332262 225.970423,21.7362488 223.161105,19.7401256 L223.161105,19.7401256 Z M234,16 L230,16 L230,14 L234,14 L234,10 L236,10 L236,14 L240,14 L240,16 L236,16 L236,20 L234,20 L234,16 Z M225.785557,3.33011637 C226.635075,4.03271707 228.409467,5.51056392 228.409467,8.32015352 C228.409467,11.0552002 226.857077,12.3487228 225.30523,13.5677025 C224.824902,14.0483009 224.269761,14.5660352 224.269761,15.3792305 C224.269761,16.1924257 224.824902,16.6361593 225.230416,16.968214 L226.561616,18.0023273 C228.188278,19.3695796 229.665854,20.6270505 229.665854,23.177773 C229.665854,26.6509299 226.302478,30.1625781 219.94546,30.1625781 C214.587316,30.1625781 212,27.6126688 212,24.87708 C212,23.5464215 212.665465,21.661977 214.846726,20.3679123 C217.137497,18.963253 220.242818,18.780013 221.904989,18.6680631 C221.387526,18.0023273 220.796333,17.2994555 220.796333,16.1550187 C220.796333,15.5266899 220.981199,15.156415 221.166066,14.7132236 C220.758655,14.7498173 220.353142,14.7877665 219.982867,14.7877665 C216.065976,14.7877665 213.848393,11.8667691 213.848393,8.98480511 C213.848393,7.28549809 214.624181,5.39942723 216.213436,4.03217494 C218.320425,2.29573201 220.833198,2 222.828779,2 L230.441913,2 L228.076599,3.32957424 L225.785557,3.32957424 L225.785557,3.33011637 Z M225.785557,3.33011637" id="g+"/></g></g></symbol><symbol id="twitter" viewBox="0 0 52 52">
<title/>
<description/>
<g id="black">
	<g id="color">
		<circle id="Twitter" fill="#2FC0D3" cx="26" cy="26" r="26"/>
	</g>
	<g id="Icon" transform="translate(10.000000, 11.000000)">
		<path id="twitter" fill="#FFFFFF" d="M25.578,4.979c-1.047-1.191-2.541-1.95-4.192-1.978c-3.173-0.053-5.745,2.628-5.745,5.987
			c0,0.477,0.051,0.941,0.148,1.388c-4.774-0.31-9.007-2.796-11.84-6.543C3.455,4.731,3.171,5.78,3.171,6.905
			c0,2.128,1.014,4.017,2.556,5.132c-0.941-0.042-1.828-0.327-2.602-0.794c0,0.025,0,0.051,0,0.077c0,2.972,1.98,5.466,4.608,6.047
			c-0.482,0.137-0.99,0.207-1.514,0.204c-0.37-0.003-0.73-0.044-1.081-0.117c0.731,2.438,2.852,4.216,5.366,4.275
			c-1.966,1.632-4.443,2.604-7.135,2.599C2.907,24.326,2.449,24.297,2,24.239c2.542,1.744,5.562,2.76,8.806,2.761
			C21.372,27.003,27.15,17.808,27.15,9.832c0-0.262-0.006-0.522-0.017-0.781C28.256,8.214,29.23,7.166,30,5.969
			c-1.03,0.464-2.137,0.772-3.299,0.902c1.186-0.729,2.097-1.898,2.525-3.299C28.116,4.245,26.887,4.728,25.578,4.979z"/>
	</g>
</g>
</symbol><symbol id="vkontakte" viewBox="0 0 52 52">
<title/>
<description/>
<g id="black">
	<g id="color" transform="translate(-210.000000, -350.000000)">
		<circle id="dropbox" fill="#468FBC" cx="236" cy="376" r="26"/>
	</g>
</g>
<g>
	<path fill="#FFFFFF" d="M38.964,31.887c0,1.384-0.264,2.602-0.789,3.65c-0.521,1.049-1.227,1.917-2.115,2.604
		c-1.048,0.822-2.2,1.41-3.453,1.76c-1.255,0.349-2.849,0.523-4.783,0.523h-11.16V12.545h9.848c2.046,0,3.599,0.078,4.653,0.233
		c1.055,0.157,2.043,0.484,2.965,0.983c0.999,0.538,1.746,1.255,2.24,2.154c0.491,0.899,0.74,1.935,0.74,3.108
		c0,1.36-0.342,2.57-1.023,3.632c-0.678,1.061-1.618,1.841-2.816,2.34v0.15c1.724,0.361,3.104,1.101,4.137,2.218
		C38.445,28.48,38.964,29.988,38.964,31.887z M29.994,20.427c0-0.449-0.115-0.911-0.347-1.384c-0.23-0.476-0.59-0.818-1.075-1.03
		c-0.462-0.201-1.008-0.31-1.639-0.329c-0.631-0.019-1.57-0.028-2.818-0.028h-0.488v5.898h0.88c1.2,0,2.038-0.012,2.519-0.038
		c0.48-0.024,0.977-0.156,1.488-0.393c0.563-0.263,0.949-0.624,1.162-1.085C29.889,21.577,29.994,21.039,29.994,20.427z
		 M31.754,31.755c0-0.861-0.174-1.535-0.523-2.022c-0.35-0.485-0.875-0.854-1.573-1.104c-0.425-0.161-1.008-0.253-1.751-0.271
		c-0.741-0.019-1.737-0.027-2.985-0.027h-1.293v6.983h0.375c1.822,0,3.082-0.013,3.782-0.038c0.698-0.024,1.411-0.193,2.134-0.505
		c0.638-0.274,1.103-0.678,1.395-1.208C31.607,33.03,31.754,32.429,31.754,31.755z"/>
</g>
</symbol><symbol id="user-favourites" viewBox="0 0 30 24"><path d="M14.993 5.68C11.11-3.337.07-1.234-.002 9.23c-.042 6.05 15.018 14.767 15.018 14.767s15.028-8.82 14.986-14.828C29.93-1.32 18.698-2.98 14.992 5.68z" id="path-1" fill-rule="evenodd"/></symbol><symbol id="user-feed" viewBox="0 0 26 23"><path d="M0 23v-5h26v5H0zM0 9h26v5H0V9zm0-9h26v5H0V0z" id="path-1" fill-rule="evenodd"/></symbol><symbol id="user-liked" viewBox="0 0 26 25"><path d="M13 0l4.284 7.857 8.714 1.692-6.066 6.54 1.1 8.9L13 21.19 4.966 25l1.1-8.903L.003 9.55l8.713-1.693L13 0" id="path-1" fill-rule="evenodd"/></symbol><symbol id="user-notifications" viewBox="0 0 30 16"><path d="M28.5 16h-27C.672 16 0 15.328 0 14.5V14l10.476-4.762L14 11h2l3.524-1.762L30 14v.5c0 .828-.672 1.5-1.5 1.5zM30 4v9l-9-4.5L30 4zM13 9L0 2v-.5C0 .672.672 0 1.5 0h27c.828 0 1.5.672 1.5 1.5V2L17 9h-4zM0 13V4l9 4.5L0 13z" id="path-1" fill-rule="evenodd"/></symbol><symbol id="user-tickets" viewBox="0 0 13 22"><path d="M6.79 15.276c-.106-.166-.192-.37-.255-.615-.064-.24-.095-.48-.095-.71 0-.34.044-.646.132-.914.088-.27.217-.523.388-.762.17-.24.386-.48.644-.724.26-.244.56-.508.9-.79.51-.42.958-.83 1.35-1.224.39-.398.717-.81.98-1.24.264-.43.464-.887.6-1.37.138-.484.206-1.024.206-1.62 0-.937-.164-1.74-.49-2.41-.328-.668-.782-1.217-1.363-1.647C9.207.81 8.525.5 7.744.3 6.962.1 6.118 0 5.21 0c-.95 0-1.867.11-2.755.336-.89.224-1.71.562-2.46 1.01v4.41c.73-.645 1.507-1.126 2.328-1.443.82-.317 1.61-.476 2.373-.476.35 0 .67.054.96.16.287.108.53.255.732.44.2.186.352.408.46.667.107.26.16.54.16.842 0 .352-.048.672-.145.96-.098.288-.244.566-.44.834-.195.268-.432.537-.71.805-.28.27-.603.56-.974.872-.35.293-.66.588-.93.886-.264.298-.484.61-.66.938-.175.33-.307.68-.395 1.05-.088.37-.13.78-.13 1.23 0 .29.026.59.08.9.053.32.13.61.227.86h3.85zm.22 5.728c.5-.46.748-1.04.748-1.744 0-.693-.254-1.264-.76-1.713-.51-.46-1.15-.69-1.92-.69-.782 0-1.43.23-1.95.69-.516.46-.775 1.03-.775 1.713 0 .665.26 1.24.776 1.73.51.468 1.16.702 1.94.702s1.425-.23 1.933-.688z" id="path-1" fill-rule="evenodd"/></symbol></svg>