<?xml version="1.0" encoding="UTF-8"?><!DOCTYPE svg PUBLIC "-//W3C//DTD SVG 1.1//EN" "http://www.w3.org/Graphics/SVG/1.1/DTD/svg11.dtd"><svg xmlns="http://www.w3.org/2000/svg"><symbol id="search-glass" viewBox="0 0 21 25"><defs><style>.cls-2 { fill: #9b9b9b; }</style></defs><path d="M20.165 21.08c.276.478.112 1.09-.366 1.366l-2.6 1.5c-.48.276-1.09.112-1.37-.367l-4-5.66c-.07-.11-.1-.23-.12-.34-.86.27-1.78.42-2.72.42-4.97 0-9-4.03-9-9s4.03-9 9-9 9 4.03 9 9c0 2.31-.89 4.42-2.32 6.01.19.08.37.21.48.4l4 5.66zM9 3C5.686 3 3 5.685 3 9c0 3.313 2.686 6 6 6s6-2.687 6-6c0-3.314-2.686-6-6-6z" id="path-1" class="cls-2" fill-rule="evenodd"/></symbol><symbol id="add-favourite-shop" viewBox="0 0 52 52"><defs><style>.cls-3 { stroke: #dddddd; stroke-linecap: round; stroke-width: 2px; stroke-dasharray: 0.001,4; fill: none; } .cls-4 { fill: #e3e3e3; }</style></defs><g id="add-favourite-shopsvg"><path id="rect-1" class="cls-3" d="M1 1h50v50H1z"/><path d="M25.513 36.998c-2.176 0-12.515-8.892-12.514-13.917 0-7.67 9.26-11.54 12.5-4.06 3.08-7.19 12.5-3.68 12.5 4.01C38 28.02 27.69 37 25.51 37zM30 26h-4v-4h-1v4h-4v1h4v4h1v-4h4v-1z" id="path-1" class="cls-4" fill-rule="evenodd"/></g></symbol><symbol id="favourites" viewBox="0 0 14 12"><defs><style>.cls-2 { fill: #f88d1a; }</style></defs><path d="M7 2.218c-1.812-4.16-7-2.006-7 2.26 0 2.795 5.79 7.74 7.007 7.74C8.227 12.218 14 7.224 14 4.45c0-4.28-5.27-6.227-7-2.232z" id="path-1" class="cls-2" fill-rule="evenodd"/></symbol><symbol id="help" viewBox="0 0 7 12"><defs><style>.cls-2 { fill: #f88d1a; }</style></defs><path d="M3.637 8.163c-.058-.088-.103-.197-.137-.328-.034-.13-.05-.258-.05-.383 0-.182.023-.344.07-.488.046-.143.115-.278.207-.406.09-.128.205-.257.343-.387.138-.13.298-.27.48-.42.272-.22.51-.44.72-.65.208-.21.382-.43.523-.66.14-.23.247-.47.32-.73.073-.26.11-.54.11-.86 0-.5-.088-.93-.262-1.28-.17-.35-.41-.65-.72-.88-.31-.23-.67-.4-1.09-.5C3.73.07 3.28.02 2.8.02c-.508 0-.998.06-1.47.18S.42.5.016.74v2.35c.39-.344.804-.6 1.242-.77.437-.17.86-.254 1.265-.254.19 0 .36.028.51.086.158.05.288.13.39.23.11.1.19.22.25.353.058.137.087.286.087.45 0 .185-.026.356-.078.51-.053.153-.13.3-.236.445-.102.143-.23.287-.377.43-.15.143-.32.3-.52.464-.19.156-.35.313-.49.472-.15.16-.26.324-.36.5-.1.173-.17.36-.22.56-.05.195-.07.413-.07.653 0 .15.01.31.04.48.03.17.07.32.12.45h2.06zm.117 3.055c.265-.245.398-.555.398-.93 0-.37-.135-.674-.406-.914-.27-.244-.612-.367-1.023-.367-.417 0-.763.123-1.04.367-.276.245-.414.55-.414.914 0 .355.13.662.41.923.27.25.62.38 1.04.38.41 0 .76-.12 1.03-.36z" id="path-1" class="cls-2" fill-rule="evenodd"/></symbol><symbol id="liked-empty" viewBox="0 0 14 13"><defs><style>.cls-2 { fill: #ffa646; }</style></defs><path d="M10.733 8.37l.593 4.63L7 11.018 2.674 13l.593-4.63L0 4.966l4.693-.88L7 0l2.307 4.085 4.692.88-3.27 3.405zM7.99 5.887L7 4l-.99 1.886L4 6.292l1.4 1.57L5.146 10 7 9.085 8.854 10 8.6 7.863l1.4-1.57-2.01-.407z" id="path-1" class="cls-2" fill-rule="evenodd"/></symbol><symbol id="liked" viewBox="0 0 14 13"><defs><style>.cls-2 { fill: #f88d1a; }</style></defs><path d="M7 0l2.307 4.085 4.692.88-3.27 3.405.59 4.63L7 11.017l-4.326 1.98.593-4.628L0 4.96l4.693-.88L7 0" id="path-1" class="cls-2" fill-rule="evenodd"/></symbol><symbol id="settings" viewBox="0 0 15 13"><defs><style>.cls-2 { fill: #f88d1a; }</style></defs><path d="M15 9.792v.414l-.576.256c-.023.12-.054.236-.093.35l.37.508-.2.36-.63-.068c-.08.09-.16.176-.25.255l.07.627-.36.207-.51-.37c-.11.04-.22.07-.34.1l-.25.58h-.42l-.25-.57c-.12-.02-.23-.05-.35-.09l-.51.37-.36-.2.07-.62c-.09-.08-.17-.16-.25-.25l-.63.07-.2-.36.37-.51c-.03-.11-.07-.23-.09-.35l-.6-.28V9.8l.58-.256c.02-.12.06-.24.1-.35l-.38-.51.2-.36.63.06c.08-.09.16-.177.25-.256l-.07-.62.36-.2.51.37c.11-.04.22-.07.34-.09l.26-.58h.41l.26.574c.12.02.23.055.35.095l.51-.373.36.205-.06.63c.09.08.18.16.26.26l.63-.07.21.36-.37.5c.04.11.07.23.09.35l.57.25zM12 9c-.552 0-1 .448-1 1s.448 1 1 1 1-.448 1-1-.448-1-1-1zM8.885 6.352l.617.85-.344.596-1.046-.11c-.13.15-.273.293-.424.424l.11 1.045-.597.345-.84-.618c-.19.065-.38.118-.58.156l-.43.96h-.69l-.42-.96c-.2-.038-.39-.09-.58-.156l-.85.618-.59-.345.11-1.045c-.15-.13-.29-.273-.42-.425l-1.04.11L.5 7.2l.617-.847c-.067-.19-.12-.383-.157-.58L0 5.343v-.69l.96-.427c.038-.2-.025-.04.04-.23L.497 2.8l.345-.6L2 2c.13-.152.16.018.312-.113L2.202.842 2.8.497s1.116.298 1.24.44L4 1c.064-.013.064-.036.04-.063L4.656 0h.69L6 1c.2.037.164.05.352.115l.85-.618.597.345-.12 1.045c.15.13.29.273.42.425l1.04-.11.34.596-.62.85c.06.187.11.38.15.58l.96.426v.69l-.96.427c-.04.2-.09.4-.16.59zM5 3.447c-.858 0-1.553.695-1.553 1.552 0 .85.695 1.55 1.553 1.55S6.553 5.85 6.553 5 5.858 3.446 5 3.446z" id="path-1" class="cls-2" fill-rule="evenodd"/></symbol><symbol id="sign-in" viewBox="0 0 14 13"><defs><style>.cls-2 { fill: #f88d1a; }</style></defs><path d="M12 13V2H6v2L4 3V0h10v13h-2zM5.816 6H11v3h-1V8H9v2H8V8H5.816C5.403 9.162 4.304 10 3 10c-1.657 0-3-1.343-3-3s1.343-3 3-3c1.304 0 2.403.837 2.816 2zM3 6c-.552 0-1 .448-1 1s.448 1 1 1 1-.448 1-1-.448-1-1-1zm3 7H4v-2l2-1v3z" id="path-1" class="cls-2" fill-rule="evenodd"/></symbol><symbol id="sign-out" viewBox="0 0 14 13"><defs><style>.cls-2 { fill: #f88d1a; }</style></defs><path d="M14 7l-4 3v3H8v-3h2V8H5V6h5V4H8V2H2v11H0V0h10v4l4 3zm-4 3l1-2h-1v2zm0-4h1l-1-2v2z" id="path-1" class="cls-2" fill-rule="evenodd"/></symbol><symbol id="sign-up" viewBox="0 0 9 12"><defs><style>.cls-2 { fill: #f88d1a; }</style></defs><path d="M8 12H1c-.552 0-1-.448-1-1V7c0-.552.448-1 1-1V3h.05c.245-1.694 1.688-3 3.45-3C6.433 0 8 1.567 8 3.5c0 .17-.013.337-.037.5H6V3h-.1c-.208-.58-.75-1-1.4-1-.65 0-1.192.42-1.4 1H3v3h5c.552 0 1 .448 1 1v4c0 .552-.448 1-1 1zM4.5 8c-.276 0-.5.223-.5.5 0 .276.224 1.5.5 1.5S5 8.775 5 8.5c0-.277-.224-.5-.5-.5z" id="path-1" class="cls-2" fill-rule="evenodd"/></symbol><symbol id="footer-about" viewBox="0 0 80 80"><defs><style>.cls-2 { fill: #464646; }</style></defs><path d="M40 80C17.91 80 0 62.09 0 40S17.91 0 40 0s40 17.91 40 40-17.91 40-40 40zm0-78C19.013 2 2 19.013 2 40s17.013 38 38 38 38-17.013 38-38S60.987 2 40 2zm15.998 43.7l2.54 20.3L40 57.312l-18.54 8.686L24.003 45.7l-14-14.93 20.11-3.857L40 9l9.887 17.913 20.11 3.858-14 14.93zm-23.42-5.873c0 .23.23.502.5.502.692 0 2.537-3.36 3.96-3.36.308 0 .654.346.384 1.04l-2.69 6.79c-.27.655-1.577 3.82-1.577 5.67 0 1.465.96 2.12 2.345 2.12 3.883 0 8.38-4.78 8.38-5.9 0-.35-.268-.58-.46-.58-.538 0-2.653 3.28-3.806 3.28-.308 0-.46-.27-.46-.54 0-.618.422-1.58.652-2.16l2.768-7.52c1.384-3.74-.385-4.746-2.038-4.746-2.23 0-4.23 1.118-5.766 2.584-.5.503-2.19 2.122-2.19 2.817zM42.65 27.33c-1.69 0-3.152 1.388-3.152 3.085 0 1.582 1.038 2.624 2.615 2.624 1.73 0 3.19-1.317 3.19-3.09 0-1.58-1.114-2.624-2.653-2.624z" id="path-1" class="cls-2" fill-rule="evenodd"/></symbol><symbol id="footer-blog" viewBox="0 0 52 40"><defs><style>.cls-2 { fill: #464646; }</style></defs><path d="M51.763 6.74c.3.3.3.786 0 1.087l-3.267 3.264-7.623-7.612L44.14.212c.3-.3.79-.3 1.09 0l3.81 3.808-3.266 3.263 2.722 2.72 3.267-3.264zm-4.9 5.982L39.24 5.107l1.09-1.088 7.622 7.612-1.09 1.088zm-.305.305L23.45 36.11l-9.985 2.626.395.494-3.08-.77-2.31.77-5.39-1.538L0 40l1.54-4.616 6.93 2.308 2.31-2.308 2.433 3.037 2.614-9.922L38.695 5.65l7.623 7.616.24-.24zM15.283 34.48c1.157-.035 2.28 1.02 2.178 2.175-.014.017 5.448-1.088 5.448-1.088l.544-2.72h-2.177l.545-1.63-2.723.543.545-2.72h-1.09v-1.088l-2.178 1.088s-1.106 5.456-1.09 5.44zM38.695 6.74L18.55 26.863l3.81-.544L40.33 8.37l-1.635-1.63z" id="path-1" class="cls-2" fill-rule="evenodd"/></symbol><symbol id="footer-categories" viewBox="0 0 80 80"><defs><style>.cls-2 { fill: #464646; }</style></defs><path d="M40 80C17.91 80 0 62.09 0 40S17.91 0 40 0s40 17.91 40 40-17.91 40-40 40zm0-78C19.013 2 2 19.013 2 40s17.013 38 38 38 38-17.013 38-38S60.987 2 40 2zm29.575 32.634s-1.667 1.65-4.11 4.063L64.44 37.68l-1.027 1.017 1.028 1.016-18.49 18.284c-1.11 1.1-11.47 1.863-14.295-.93-.12-.118-.224-.266-.33-.41l2.596-2.567c.133.215.285.42.47.607 1.28 1.262 3.35 1.262 4.625 0 1.278-1.263 1.278-3.31 0-4.57-.186-.187-.395-.337-.612-.468L53.6 34.63c.567-.56.567-1.47 0-2.033l-6.393-6.32c.635-.626 1.25-1.232 1.828-1.805L50.568 26l1.028-1.016-1.54-1.524-.632.625 4.74-4.688c.568-.56 1.488-.56 2.056 0l13.355 13.205c.568.56.568 1.47 0 2.032zM52.11 25.492l-1.027 1.015 1.54 1.524 1.028-1.01-1.54-1.524zm2.055 2.03l-1.027 1.017 1.54 1.52 1.028-1.017-1.54-1.524zm2.055 2.033l-1.028 1.016 1.54 1.528 1.03-1.016-1.542-1.523zm2.054 2.03l-1.027 1.017 1.54 1.524 1.028-1.016-1.54-1.524zm2.055 2.033l-1.03 1.016 1.54 1.524 1.025-1.016-1.54-1.524zm2.05 2.032l-1.028 1.016 1.54 1.523 1.03-1.02-1.542-1.524zm-12.42-1.016l-4.11 4.063-1.027-1.016-1.027 1.02 1.027 1.017L26.333 58c-1.114 1.1-11.473 1.862-14.298-.93-2.825-2.797-2.225-13.21-1.113-14.31l18.492-18.284L30.954 26l1.028-1.016-1.54-1.524-.943.932 5.05-4.995c.564-.56 1.484-.56 2.05 0l13.36 13.205c.568.56.568 1.47 0 2.032zM19.397 50.126c-1.276-1.263-3.346-1.263-4.623 0-1.276 1.26-1.276 3.308 0 4.57 1.277 1.263 3.347 1.263 4.623 0 1.277-1.262 1.277-3.31 0-4.57zm13.1-24.634l-1.028 1.015 1.54 1.524 1.027-1.01-1.54-1.524zm2.054 2.03l-1.027 1.017 1.54 1.52 1.03-1.017-1.542-1.524zm2.055 2.033L35.58 30.57l1.54 1.525 1.03-1.016-1.543-1.527zm2.055 2.03l-1.027 1.017 1.54 1.524 1.028-1.016-1.54-1.524zm2.055 2.033l-1.027 1.016 1.54 1.524 1.028-1.016-1.54-1.524zm2.055 2.032l-1.028 1.016 1.54 1.523 1.03-1.02-1.542-1.524z" id="path-1" class="cls-2" fill-rule="evenodd"/></symbol><symbol id="footer-feedback" viewBox="0 0 52 37"><defs><style>.cls-2 { fill: #464646; }</style></defs><path d="M45.582 31.264c-.675 1.12-2.244 4.14-.826 6.048-5.16 0-7.696-2.664-7.727-2.697-1.764.34-3.614.535-5.53.535-5.845 0-11.1-1.695-14.825-4.397.7.04 1.403.072 2.117.072 13.73 0 24.858-7.502 24.858-16.756 0-1.656-.37-3.25-1.03-4.758 5.603 2.507 9.316 6.843 9.316 11.782 0 4.004-2.447 7.61-6.355 10.168zm-25.13-3.14c-1.92 0-3.768-.196-5.53-.536-.023.033-2.018 2.697-7.727 2.697 2.21-1.838-1.105-5.946-1.105-5.946l1.07.39C2.793 22.155.015 18.34.015 14.07.015 6.306 9.165.013 20.452.013 31.74.013 40.89 6.307 40.89 14.07c0 7.76-9.15 14.053-20.438 14.053z" id="path-1" class="cls-2" fill-rule="evenodd"/></symbol><symbol id="footer-social" viewBox="0 0 35 35"><defs><style>.cls-2 { fill: #464646; }</style></defs><path d="M31 31c0 .552-2.667 2-5 2s-14-1-14-1c-.552 0-1-.448-1-1V13c0-.552 4.167-9.333 7-13 5 0-1.333 12 4 12s11 1 11 1 2 5.333 2 7c0 1.667-4 11-4 11zM8 35H1c-.552 0-1-.448-1-1V13c0-.552.448-1 1-1h7c.552 0 1 .448 1 1v21c0 .552-.448 1-1 1zm-4.5-5c-.828 0-1.5.67-1.5 1.5 0 .828.672 1.5 1.5 1.5S5 32.328 5 31.5c0-.83-.672-1.5-1.5-1.5z" id="path-1" class="cls-2" fill-rule="evenodd"/></symbol><symbol id="subscribe" viewBox="0 0 18 12"><defs><style>.cls-2 { fill: #fdfdfd; }</style></defs><path d="M16 12H2c-1.105 0-2-.896-2-2V3l8 5h2l8-5v7c0 1.104-.895 2-2 2zm-6-6H8L0 2C0 .895.895 0 2 0h14c1.105 0 2 .895 2 2l-8 4z" id="path-1" class="cls-2" fill-rule="evenodd"/></symbol><symbol id="categories" viewBox="0 0 19 15"><defs><style>.cls-2 { fill: #9b9b9b; }</style></defs><path d="M6 14v-2h13v2H6zm0-7h13v2H6V7zm0-5h13v2H6V2zM0 13l1-1 1 1 2-3 1 1-3 4-2-2zm0-5l1-1 1 1 2-3 1 1-3 4-2-2zm0-5l1-1 1 1 2-3 1 1-3 4-2-2z" id="path-1" class="cls-2" fill-rule="evenodd"/></symbol><symbol id="exclusive" viewBox="0 0 31 12"><defs><style>.cls-2 { fill: #9b9b9b; }</style></defs><path d="M31 12h-4l-2-9h6l-2 4.166L31 12zM6 10L8 0h15l2 10H6zm11-9h-2l-2 3h2v5h2V1zM0 12l2-4-2-5h6l-2 9H0z" id="path-1" class="cls-2" fill-rule="evenodd"/></symbol><symbol id="new" viewBox="0 0 20 20"><defs><style>.cls-2 { fill: #9b9b9b; }</style></defs><path d="M17.422 8.733L20.002 10l-2.39 1.78 1.704 1.86-2.88.79.637 2.642-2.702-.525-.35 2.614-2.74-1.74L10 20.01l-1.78-2.39-1.86 1.704-.792-2.88-2.64.636.525-2.702L.84 14.02l1.733-2.748L-.007 10l2.39-1.782-1.7-1.858 2.88-.792-.635-2.64 2.702.524.355-2.614 2.747 1.74L10-.002l1.78 2.388L13.64.683l.79 2.88 2.643-.636-.526 2.702 2.614.35-1.73 2.75zM10 3c-3.866 0-7 3.134-7 7 0 3.865 3.134 7 7 7s7-3.135 7-7c0-3.866-3.134-7-7-7zm0 13c-3.314 0-6-2.687-6-6 0-3.314 2.686-6 6-6s6 2.686 6 6c0 3.313-2.686 6-6 6z" id="path-1" class="cls-2" fill-rule="evenodd"/></symbol><symbol id="popular" viewBox="0 0 20 19"><defs><style>.cls-2 { fill: #9b9b9b; }</style></defs><path d="M10 0l3.296 5.97L20 7.258l-4.667 4.976L16.18 19 10 16.103 3.82 19l.847-6.767L0 7.257 6.705 5.97 10 0" id="path-1" class="cls-2" fill-rule="evenodd"/></symbol><symbol id="shops" viewBox="0 0 20 16"><defs><style>.cls-2 { fill: #9b9b9b; }</style></defs><path d="M16 11H3V1H0V0h4v2h16l-4 9zM5 9h10l2-5H5v5zm9 4v.1c.58.208 1 .75 1 1.4 0 .828-.672 1.5-1.5 1.5-.83 0-1.5-.672-1.5-1.5 0-.178.044-.343.1-.5H5.9c.056.157.1.322.1.5 0 .828-.672 1.5-1.5 1.5S3 15.328 3 14.5c0-.178.044-.343.1-.5H3v-1h11z" id="path-1" class="cls-2" fill-rule="evenodd"/></symbol><symbol id="facebook" viewBox="0 0 52 52"><title/><g fill="none" fill-rule="evenodd"><circle cx="166" cy="26" r="26" fill="#346DA6" transform="translate(-140)"/><path d="M22.067 41.006V26h-3.05v-4.975h3.05v-3.008c0-4.058 1.213-6.984 5.656-6.984h5.285v4.964h-3.72c-1.865 0-2.29 1.24-2.29 2.536v2.492h5.735L31.95 26H27v15.006h-4.93zm0 0" fill="#fff"/></g></symbol><symbol id="googleplus" viewBox="0 0 52 52"><title/><g fill="none" fill-rule="evenodd"><circle cx="236" cy="26" r="26" fill="#CA4638" transform="translate(-210)"/><path d="M24.234 23.72c.85-.853.923-2.035.923-2.7 0-2.66-1.59-6.8-4.657-6.8-.96 0-1.995.48-2.587 1.22-.628.776-.814 1.773-.814 2.734 0 2.476 1.44 6.58 4.62 6.58.922 0 1.92-.445 2.513-1.035zm-1.073 7.02c-.294-.038-.48-.038-.847-.038-.333 0-2.33.075-3.882.593-.81.295-3.177 1.182-3.177 3.806 0 2.626 2.55 4.51 6.505 4.51 3.548 0 5.433-1.7 5.433-3.99 0-1.886-1.22-2.883-4.03-4.88zM34 27h-4v-2h4v-4h2v4h4v2h-4v4h-2v-4zm-8.214-12.67c.85.703 2.623 2.18 2.623 4.99 0 2.735-1.554 4.03-3.106 5.248-.48.48-1.035.998-1.035 1.81 0 .814.554 1.258.96 1.59l1.33 1.034c1.627 1.368 3.105 2.625 3.105 5.176 0 3.473-3.364 6.985-9.72 6.985-5.36 0-7.946-2.55-7.946-5.286 0-1.33.664-3.215 2.846-4.51 2.29-1.404 5.396-1.587 7.058-1.7-.517-.665-1.11-1.368-1.11-2.512 0-.628.186-1 .37-1.442-.406.037-.812.075-1.182.075-3.917 0-6.135-2.92-6.135-5.803 0-1.7.776-3.586 2.365-4.953C18.32 13.296 20.832 13 22.83 13h7.612l-2.365 1.33h-2.29zm0 0" fill="#fff"/></g></symbol><symbol id="twitter" viewBox="0 0 52 52"><title/><circle fill="#2FC0D3" cx="26" cy="26" r="26"/><path fill="#fff" d="M35.578 15.98c-1.047-1.192-2.54-1.95-4.192-1.98-3.173-.052-5.745 2.63-5.745 5.988 0 .477.053.94.15 1.388-4.774-.31-9.007-2.796-11.84-6.543-.494.898-.78 1.947-.78 3.072 0 2.128 1.016 4.017 2.558 5.132-.94-.042-1.828-.327-2.602-.794v.077c0 2.972 1.98 5.466 4.608 6.047-.482.137-.99.207-1.514.204-.37 0-.73-.042-1.082-.115.73 2.438 2.852 4.216 5.366 4.275-1.966 1.63-4.443 2.603-7.135 2.598-.464-.002-.92-.03-1.37-.09C14.54 36.984 17.56 38 20.805 38c10.566.003 16.344-9.192 16.344-17.168 0-.262-.006-.522-.017-.78 1.123-.838 2.097-1.886 2.867-3.083-1.03.462-2.137.77-3.3.9 1.187-.73 2.098-1.898 2.526-3.3-1.11.674-2.34 1.157-3.648 1.408z"/></symbol><symbol id="vkontakte" viewBox="0 0 52 52"><title/><circle fill="#468FBC" cx="236" cy="376" r="26" transform="translate(-210 -350)"/><path fill="#fff" d="M38.964 31.887c0 1.384-.264 2.602-.79 3.65-.52 1.05-1.226 1.917-2.114 2.604-1.048.824-2.2 1.41-3.453 1.76-1.255.35-2.85.525-4.783.525h-11.16v-27.88h9.848c2.046 0 3.6.08 4.653.234 1.055.156 2.043.483 2.965.982 1 .54 1.746 1.256 2.24 2.155.49.9.74 1.935.74 3.108 0 1.36-.342 2.57-1.023 3.632-.678 1.06-1.618 1.84-2.816 2.34v.15c1.726.36 3.106 1.1 4.14 2.218 1.036 1.117 1.555 2.625 1.555 4.524zm-8.97-11.46c0-.45-.115-.91-.347-1.384-.23-.476-.59-.818-1.075-1.03-.462-.2-1.008-.31-1.64-.33-.63-.018-1.57-.027-2.817-.027h-.488v5.898h.88c1.2 0 2.038-.012 2.52-.038.48-.024.976-.156 1.487-.393.563-.263.95-.624 1.162-1.085.213-.46.318-1 .318-1.61zm1.76 11.328c0-.86-.174-1.535-.523-2.022-.35-.485-.873-.854-1.57-1.104-.426-.163-1.01-.255-1.75-.273-.743-.02-1.74-.027-2.987-.027H23.63v6.984h.374c1.822 0 3.082-.013 3.782-.038.698-.024 1.41-.193 2.134-.505.638-.272 1.103-.676 1.395-1.206.292-.533.44-1.134.44-1.808z"/></symbol></svg>