<svg xmlns="http://www.w3.org/2000/svg"><symbol id="add-favourite-shop" viewBox="0 0 25 22"><path d="M12.513 21.998C10.337 21.998-.002 13.106 0 8.08 0 .408 9.263-3.467 12.5 4.017 15.587-3.17 25 .334 25 8.03c.002 4.99-10.31 13.968-12.487 13.968zM17 11h-4V7h-1v4H8v1h4v4h1v-4h4v-1z" fill-rule="evenodd"/></symbol><symbol id="calendar" viewBox="0 0 49 59"><path d="M0 59V8h6v3h8V8h21v3h8V8h6v51H0zm46-38H3v35h43V21zM13 43H6v-7h7v7zm0 10H6v-7h7v7zm10-20h-7v-7h7v7zm0 10h-7v-7h7v7zm0 10h-7v-7h7v7zm10-20h-7v-7h7v7zm0 10h-7v-7h7v7zm0 10h-7v-7h7v7zm10-20h-7v-7h7v7zm0 10h-7v-7h7v7zM38 0h2l2 10h-6l2-10zM9 0h2l2 10H7L9 0z" fill-rule="evenodd"/></symbol><symbol id="clock" viewBox="0 0 14 14"><path d="M7 14c-3.866 0-7-3.134-7-7s3.134-7 7-7 7 3.134 7 7-3.134 7-7 7zM7 .875c-1.147 0-2.208.335-3.126.884l3.834 4.885L11 5 8.21 8.72l.04.676L7.648 9H6l.41-.82-.026-.016-2.56-6.378C2.062 2.862.874 4.786.874 7c0 3.383 2.743 6.125 6.126 6.125 3.383 0 6.125-2.742 6.125-6.125S10.383.875 7 .875z" id="path-1" fill-rule="evenodd"/></symbol><symbol id="comment" viewBox="0 0 20 15"><path d="M18 10.388V15l-4.163-2.498C12.655 12.822 11.36 13 10 13 4.477 13 0 10.09 0 6.5S4.477 0 10 0s10 2.91 10 6.5c0 1.46-.75 2.803-2 3.888z" fill-rule="evenodd"/></symbol><symbol id="copy" viewBox="0 0 20 27"><path d="M6 27V9h14v18H6zm12-16H8v14h10V11zm-6-9H2v16h3v2H0V0h14v8h-2V2z" id="path-1" fill-rule="evenodd"/></symbol><symbol id="dialog-close" viewBox="0 0 16 16"><path d="M15.993 13.87L13.86 16l-5.864-5.866-5.866 5.866-2.132-2.133 5.865-5.866-5.865-5.866L2.13.006 7.995 5.87 13.327.54 15.46 2.67l-5.332 5.332 5.865 5.865z" fill-rule="evenodd"/></symbol><symbol id="dislike" viewBox="0 0 16 16"><path d="M13 10V1h3v9h-3zm-7 6l1-5H2c-.552 0-2-1.448-2-2l3-8c0-.553.448-1 1-1l7 1c.552 0 1 .448 1 1v6.166L8 15c0 .552-1.448 1-2 1z" fill-rule="evenodd"/></symbol><symbol id="fav-shops-arrow" viewBox="0 0 14 23"><path d="M14.007 20.996L5.637 11.5l8.37-9.496-.644-2L-.007 11.5l13.37 11.496.644-2z" fill-rule="evenodd"/></symbol><symbol id="feedback" viewBox="0 0 35 26"><path d="M30.718 21.783c-.446.76-1.527 2.872-.56 4.217-3.48 0-5.19-1.857-5.21-1.88-1.188.237-2.435.373-3.73.373-3.938 0-7.482-1.18-9.993-3.063.47.027.945.05 1.427.05 9.257 0 16.76-5.228 16.76-11.677 0-1.152-.248-2.262-.694-3.313C32.496 8.236 35 11.258 35 14.7c0 2.79-1.65 5.3-4.282 7.083zM13.77 19.596c-1.294 0-2.54-.135-3.728-.372-.016.022-1.362 1.88-5.21 1.88 1.488-1.282-.746-4.144-.746-4.144l.722.274c-2.946-1.797-4.82-4.456-4.82-7.43C-.01 4.393 6.16.008 13.77.008c7.61 0 13.78 4.384 13.78 9.793 0 5.41-6.17 9.793-13.78 9.793z" fill-rule="evenodd"/></symbol><symbol id="info" viewBox="0 0 35 35"><path d="M17.5 35C7.835 35 0 27.165 0 17.5S7.835 0 17.5 0 35 7.835 35 17.5 27.165 35 17.5 35zm-5.508-18.107c0 .183.182.396.394.396.544 0 1.996-2.65 3.116-2.65.242 0 .515.274.303.82l-2.118 5.36c-.212.52-1.24 3.017-1.24 4.478 0 1.157.755 1.675 1.845 1.675 3.056 0 6.596-3.777 6.596-4.66 0-.274-.212-.456-.363-.456-.424 0-2.088 2.588-2.996 2.588-.243 0-.363-.213-.363-.426 0-.488.332-1.25.514-1.707l2.18-5.937c1.09-2.955-.303-3.746-1.605-3.746-1.754 0-3.328.883-4.538 2.04-.393.396-1.725 1.675-1.725 2.223zm7.927-9.866c-1.332 0-2.482 1.096-2.482 2.436 0 1.25.817 2.07 2.058 2.07 1.362 0 2.51-1.034 2.51-2.435 0-1.25-.876-2.07-2.087-2.07z" fill-rule="evenodd"/></symbol><symbol id="like" viewBox="0 0 16 16"><path d="M13 15c0 .552-.448 1-1 1l-7-1c-.552 0-1-.448-1-1V7.833L8 1c0-.552 1.448-1 2-1L9 5h5c.552 0 2 1.448 2 2l-3 8zM0 6h3v9H0V6z" fill-rule="evenodd"/></symbol><symbol id="link-goto-alt" viewBox="0 0 12 8"><path d="M0 8s1.562-4.563 8-6c.187 0-2-2-2-2l6 2-3 4s-.125-1.938 0-2C2.625 4 0 8 0 8z" fill-rule="evenodd"/></symbol><symbol id="link-goto" viewBox="0 0 12 12"><path d="M6 12c-3.314 0-6-2.686-6-6s2.686-6 6-6 6 2.686 6 6-2.686 6-6 6zm0-9v2H3v2h3v2l4-3-4-3z" fill-rule="evenodd"/></symbol><symbol id="link-info" viewBox="0 0 12 12"><path d="M6 12c-3.314 0-6-2.686-6-6s2.686-6 6-6 6 2.686 6 6-2.686 6-6 6zM7 2H5v2h2V2zm0 3H5v5h2V5z" fill-rule="evenodd"/></symbol><symbol id="notifications" viewBox="0 0 39 36"><path d="M36.2 13.933c-.596.603-1.276 1.054-1.986 1.43-.282-2.414-1.41-4.864-3.366-6.84-2.245-2.27-5.104-3.442-7.817-3.475.395-.967.976-1.874 1.753-2.66 3.152-3.187 8.264-3.187 11.417 0 3.153 3.188 3.153 8.357 0 11.545zM34.562 20c0 4.414-1.918 8.37-4.953 11.116L31.56 36l-6.803-1.944c-1.622.6-3.368.944-5.198.944-1.83 0-3.575-.344-5.196-.944L7.562 36l1.954-4.884C6.48 28.37 4.562 24.414 4.562 20c0-8.284 6.716-15 15-15 8.285 0 15 6.716 15 15zm-15-12c-3.182 0-6.068 1.248-8.215 3.27l.712.598c1.974-1.823 4.604-2.945 7.502-2.945 6.118 0 11.077 4.96 11.077 11.077 0 6.118-4.96 11.077-11.078 11.077-6.117 0-11.076-4.96-11.076-11.077 0-3.132 1.305-5.955 3.394-7.97l-.553-.742C9.014 13.475 7.562 16.565 7.562 20c0 6.627 5.373 12 12 12 6.628 0 12-5.373 12-12s-5.372-12-12-12zm.147 10.284L26.56 14l-5.397 6.297.7 1.506L18.563 21l-6.128-8.227C10.568 14.615 9.41 17.17 9.41 20c0 5.608 4.545 10.154 10.152 10.154 5.608 0 10.154-4.546 10.154-10.154S25.17 9.846 19.562 9.846c-2.614 0-4.99.997-6.79 2.62l6.937 5.818zM18.56 20c0 .552.448 1 1 1 .553 0 1-.448 1-1s-.447-1-1-1c-.552 0-1 .448-1 1zM4.31 15.492c-.704-.367-1.38-.81-1.97-1.4-3.124-3.124-3.124-8.19 0-11.314 3.125-3.124 8.19-3.124 11.314 0 .77.77 1.346 1.66 1.736 2.606-2.69.033-5.522 1.18-7.746 3.405-1.938 1.937-3.055 4.338-3.335 6.702z" fill-rule="evenodd"/></symbol><symbol id="search-glass-detailed" viewBox="0 0 240 240"><path d="M236.45 229.49l-8.314 8.313c-2.733 2.734-9.166 2.734-11.9 0l-55.86-62.932c-1.172-1.17-1.172-3.07 0-4.242l9.9-9.9c1.17-1.17 3.07-1.17 4.24 0l62.934 55.862c2.734 2.734 1.734 10.166-1 12.9zm-78.373-86.262l-3.36 3.36 4.95 4.948 1.415-1.414c.78-.78 2.048-.78 2.83 0l6.363 6.364c.78.78.78 2.047 0 2.83l-1.415 1.413-7.545 7.544-2.354 2.354c-.78.78-2.046.78-2.827 0l-6.364-6.364c-.782-.78-.782-2.047 0-2.828l1.413-1.414-4.95-4.95-3.005 3.005c-1.72 1.72-4.477 1.745-6.242.1-33.948 23.9-81.153 20.693-111.513-9.668-33.976-33.976-33.976-89.062 0-123.037 33.975-33.976 89.06-33.976 123.036 0 30.36 30.36 33.566 77.565 9.667 111.513 1.645 1.764 1.62 4.522-.1 6.242zM143.58 31.15C112.536.106 62.2.106 31.15 31.15.106 62.2.106 112.536 31.15 143.58c31.048 31.048 81.385 31.048 112.43 0 31.048-31.045 31.048-81.382 0-112.43zM33.98 140.754c-29.485-29.485-29.485-77.29 0-106.773 29.484-29.485 77.288-29.485 106.773 0 29.485 29.484 29.485 77.288 0 106.773s-77.29 29.485-106.773 0zm105.36-105.36c-28.705-28.702-75.242-28.702-103.946 0C6.69 64.1 6.69 110.636 35.394 139.34c28.704 28.702 75.24 28.702 103.945 0 28.702-28.705 28.702-75.242 0-103.946z" fill-rule="evenodd"/></symbol><symbol id="search-glass" viewBox="0 0 21 25"><path d="M20.165 21.08c.276.478.112 1.09-.366 1.366l-2.6 1.5c-.48.276-1.09.112-1.37-.367l-4-5.66c-.07-.11-.1-.23-.12-.34-.86.27-1.78.42-2.72.42-4.97 0-9-4.03-9-9s4.03-9 9-9 9 4.03 9 9c0 2.31-.89 4.42-2.32 6.01.19.08.37.21.48.4l4 5.66zM9 3C5.686 3 3 5.685 3 9c0 3.313 2.686 6 6 6s6-2.687 6-6c0-3.314-2.686-6-6-6z" fill-rule="evenodd"/></symbol><symbol id="subscriptions" viewBox="0 0 40 37"><path d="M38.656 37h-23c-.828 0-1.5-.672-1.5-1.5V35l8.572-5.715L26.156 31h2l3.43-1.714L40.155 35v.5c0 .828-.67 1.5-1.5 1.5zm1.5-12v9l-7.2-5.4 7.2-3.6zm-15 4l-11-6v-.5c0-.828.672-1.5 1.5-1.5h23c.83 0 1.5.672 1.5 1.5v.5l-11 6h-4zm5.014-10c.305-1.17.475-2.51.475-4.06 0-3.277-1.043-5.96-3.128-8.053-2.086-2.093-4.997-3.14-8.735-3.14-4.003 0-7.33 1.397-9.983 4.19-2.654 2.792-3.98 6.197-3.98 10.214 0 3.892 1.172 6.958 3.517 9.197 1.08 1.033 2.36 1.816 3.82 2.372v4.12c-2.82-.688-5.257-1.964-7.306-3.837-3.24-2.96-4.86-6.94-4.86-11.936 0-5.095 1.73-9.378 5.187-12.85C8.634 1.747 13.085.01 18.53.01c5.04 0 9.116 1.348 12.23 4.042 3.115 2.695 4.672 6.246 4.672 10.656 0 1.567-.19 2.993-.545 4.292H30.17zm-18.014 6.904c-.575-.333-1.11-.74-1.573-1.286-1.183-1.4-1.774-3.34-1.774-5.816 0-3.205.818-5.812 2.456-7.82 1.637-2.01 3.61-3.014 5.92-3.014 2.086 0 3.395.82 3.927 2.456h.084l.21-2.078h4.724c-.53 5.022-.834 8.56-.918 10.654h-4.85c.28-1.087.436-2.328.436-3.767 0-1.12-.263-2.002-.788-2.646-.524-.644-1.22-.966-2.09-.966-1.258 0-2.284.72-3.075 2.153-.79 1.435-1.186 3.097-1.186 4.987 0 .224.018.428.033.636-.913.515-1.537 1.48-1.537 2.604v3.904zm2 8.096v-9l7.2 3.6-7.2 5.4z" fill-rule="evenodd"/></symbol><symbol id="testimonials" viewBox="0 0 40 29"><path d="M33.626 22.497L32 29l-7.515-3.34c-1.444.215-2.94.34-4.485.34C8.954 26 0 20.18 0 13S8.954 0 20 0s20 5.82 20 13c0 3.753-2.46 7.124-6.374 9.497zm-16.252-11.36c-.315.316-1.38 1.34-1.38 1.777 0 .146.145.317.315.317.434 0 1.596-2.118 2.492-2.118.194 0 .41.22.242.657l-1.694 4.287c-.17.415-.993 2.412-.993 3.582 0 .924.605 1.338 1.477 1.338 2.445 0 5.276-3.02 5.276-3.727 0-.22-.17-.365-.29-.365-.34 0-1.67 2.07-2.397 2.07-.193 0-.29-.17-.29-.34 0-.39.266-1 .412-1.364l1.742-4.75c.872-2.363-.242-2.996-1.283-2.996-1.403 0-2.662.706-3.63 1.632zm4.96-6.115c-1.064 0-1.983.876-1.983 1.948 0 1 .654 1.657 1.647 1.657 1.09 0 2.01-.828 2.01-1.95 0-.998-.703-1.655-1.672-1.655z" fill-rule="evenodd"/></symbol><symbol id="aside-calendar" viewBox="0 0 27 27"><path d="M24 27H3c-1.657 0-3-1.343-3-3V6c0-1.657 1.343-3 3-3h1v2c-1.105 0-2 .895-2 2v16c0 1.104.895 2 2 2h19c1.105 0 2-.896 2-2V7c0-1.105-.895-2-2-2V3h1c1.657 0 3 1.343 3 3v18c0 1.657-1.343 3-3 3zm-3-11c-.552 0-1-.448-1-1s.448-1 1-1 1 .448 1 1-.448 1-1 1zm0-4c-.552 0-1-.448-1-1s.448-1 1-1 1 .448 1 1-.448 1-1 1zm0-6h-1c-.552 0-1-.448-1-1V1c0-.552.448-1 1-1h1c.552 0 1 .448 1 1v4c0 .552-.448 1-1 1zm-5 8c.552 0 1 .448 1 1s-.448 1-1 1-1-.448-1-1 .448-1 1-1zm0-4c.552 0 1 .448 1 1s-.448 1-1 1-1-.448-1-1 .448-1 1-1zm-5 0c.552 0 1 .448 1 1s-.448 1-1 1-1-.448-1-1 .448-1 1-1zm0 8c.552 0 1 .448 1 1s-.448 1-1 1-1-.448-1-1 .448-1 1-1zm0-4c.552 0 1 .448 1 1s-.448 1-1 1-1-.448-1-1 .448-1 1-1zM9 3h9v2H9V3zm-3 7c.552 0 1 .448 1 1s-.448 1-1 1-1-.448-1-1 .448-1 1-1zm0 8c.552 0 1 .448 1 1s-.448 1-1 1-1-.448-1-1 .448-1 1-1zm0-4c.552 0 1 .448 1 1s-.448 1-1 1-1-.448-1-1 .448-1 1-1zm1-8H6c-.552 0-1-.448-1-1V1c0-.552.448-1 1-1h1c.552 0 1 .448 1 1v4c0 .552-.448 1-1 1z" fill-rule="evenodd"/></symbol><symbol id="aside-categories" viewBox="0 0 24 18"><path d="M23 10H8c-.552 0-1-.448-1-1s.448-1 1-1h15c.552 0 1 .448 1 1s-.448 1-1 1zm0-7H8c-.552 0-1-.448-1-1s.448-1 1-1h15c.552 0 1 .448 1 1s-.448 1-1 1zM2 18c-1.105 0-2-.896-2-2 0-1.105.895-2 2-2s2 .895 2 2c0 1.104-.895 2-2 2zm0-7c-1.105 0-2-.896-2-2 0-1.105.895-2 2-2s2 .895 2 2c0 1.104-.895 2-2 2zm0-7C.895 4 0 3.104 0 2 0 .895.895 0 2 0s2 .895 2 2c0 1.104-.895 2-2 2zm6 11h15c.552 0 1 .448 1 1s-.448 1-1 1H8c-.552 0-1-.448-1-1s.448-1 1-1z" id="path-1" fill-rule="evenodd"/></symbol><symbol id="aside-coupons" viewBox="0 0 28 22"><path d="M27.15 8.757L14.422 21.484c-.137.138-1.01.226-2.095.267L25.322 8.758c.39-.39.39-1.024 0-1.414L18.458.478l.207-.207c.39-.39 1.023-.39 1.414 0l7.07 7.072c.39.39.39 1.024 0 1.415zm-5.657 0L8.765 21.484c-.39.39-6.68.39-7.07 0L.28 20.07c-.39-.39-.39-6.68 0-7.07L13.008.27c.39-.39 1.024-.39 1.414 0l7.07 7.072c.392.39.392 1.024 0 1.415zM5.23 16.535c-.78-.78-2.048-.78-2.83 0-.78.78-.78 2.047 0 2.828.782.78 2.05.78 2.83 0 .78-.78.78-2.047 0-2.828z" fill-rule="evenodd"/></symbol><symbol id="aside-favourites" viewBox="0 0 23 20"><path d="M11.495 4.368C8.517-2.566.055-.948 0 7.1-.035 11.755 11.51 20 11.51 20s11.52-8.324 11.49-12.945c-.057-8.07-8.667-9.343-11.507-2.685z" id="path-1" fill-rule="evenodd"/></symbol><symbol id="aside-follow-us" viewBox="0 0 25 23"><path d="M25 11l-1 10c0 1.104-10.895 1-12 1h-2c-1.105 0-2-.896-2-2V10c0-1.105.895-2 2-2l4-7 3-1-.952 8.564C19.883 9.21 25 10.274 25 11zM0 8h7v15H0V8zm2.42 13.546c.592.586 1.55.586 2.14 0 .59-.586.59-1.536 0-2.122-.59-.585-1.548-.585-2.14 0-.59.586-.59 1.536 0 2.122z" id="path-1" fill-rule="evenodd"/></symbol><symbol id="aside-pars" viewBox="0 0 30 22"><path d="M30 12h-1v10H9v-4h2v2h7v-8h-7v2H9v-2H8V6h9.284c1.388.154 2.504.18 2.504.18s1.135-.026 2.52-.18H30v6zM18 8h-8v3h8V8zm2 12h7v-8h-7v8zm8-12h-8v3h8V8zM17.284 6c-1.365-.152-2.992-.427-4.08-.924-2.195-1.002.308-7.047 3.292-4.42 2.983 2.623 3.292 5.525 3.292 5.525L18 6h-.716zm-.057-2.9c-1.325-.94-2.438 1.222-1.463 1.58.976.358 2.927.396 2.927.396s-.136-1.038-1.463-1.976zm2.56 3.08s.3-2.704 3.176-5.15c2.877-2.448 5.29 3.187 3.174 4.12-1.02.45-2.534.706-3.828.85H21l-1.212.18zm3.88-1.398c.942-.334-.13-2.35-1.41-1.474-1.278.875-1.41 1.843-1.41 1.843s1.88-.034 2.82-.368zM12 15v2H7v5H5v-5H0v-2h5v-5h2v5h5z" id="path-1" fill-rule="evenodd"/></symbol><symbol id="aside-testimonials" viewBox="0 0 30 22"><path d="M28 17.08v4.918l-4.163-2.663c-1.182.34-2.477.53-3.837.53-3.96 0-7.373-1.6-8.993-3.915C17.162 15.565 22 11.706 22 6.993c0-.29-.022-.577-.058-.86 4.593.626 8.058 3.43 8.058 6.8 0 1.557-.75 2.99-2 4.147zm-18-3.214c-1.36 0-2.655-.19-3.837-.53L2 15.998v-4.92C.75 9.922 0 8.49 0 6.932 0 3.102 4.477 0 10 0S20 3.102 20 6.93c0 3.83-4.477 6.934-10 6.934z" fill-rule="evenodd"/></symbol><symbol id="favourites" viewBox="0 0 14 12"><path d="M7 2.204C5.188-1.872 0 .24 0 4.418c0 2.737 5.79 7.58 7.007 7.58 1.22 0 6.994-4.89 6.994-7.608 0-4.19-5.27-6.1-7-2.186z" fill-rule="evenodd"/></symbol><symbol id="help" viewBox="0 0 7 12"><path d="M3.637 8.163c-.058-.088-.103-.197-.137-.328-.034-.13-.05-.258-.05-.383 0-.182.023-.344.07-.488.046-.143.115-.278.207-.406.09-.128.205-.257.343-.387.138-.13.298-.27.48-.42.272-.22.51-.44.72-.65.208-.21.382-.43.523-.66.14-.23.247-.47.32-.73.073-.26.11-.54.11-.86 0-.5-.088-.93-.262-1.28-.17-.35-.41-.65-.72-.88-.31-.23-.67-.4-1.09-.5C3.73.07 3.28.02 2.8.02c-.508 0-.998.06-1.47.18S.42.5.016.74v2.35c.39-.344.804-.6 1.242-.77.437-.17.86-.254 1.265-.254.19 0 .36.028.51.086.158.05.288.13.39.23.11.1.19.22.25.353.058.137.087.286.087.45 0 .185-.026.356-.078.51-.053.153-.13.3-.236.445-.102.143-.23.287-.377.43-.15.143-.32.3-.52.464-.19.156-.35.313-.49.472-.15.16-.26.324-.36.5-.1.173-.17.36-.22.56-.05.195-.07.413-.07.653 0 .15.01.31.04.48.03.17.07.32.12.45h2.06zm.117 3.055c.265-.245.398-.555.398-.93 0-.37-.135-.674-.406-.914-.27-.244-.612-.367-1.023-.367-.417 0-.763.123-1.04.367-.276.245-.414.55-.414.914 0 .355.13.662.41.923.27.25.62.38 1.04.38.41 0 .76-.12 1.03-.36z" id="path-1" fill-rule="evenodd"/></symbol><symbol id="liked-empty" viewBox="0 0 14 13"><path d="M10.733 8.37l.593 4.63L7 11.018 2.674 13l.593-4.63L0 4.966l4.693-.88L7 0l2.307 4.085 4.692.88-3.27 3.405zM7.99 5.887L7 4l-.99 1.886L4 6.292l1.4 1.57L5.146 10 7 9.085 8.854 10 8.6 7.863l1.4-1.57-2.01-.407z" id="path-1" fill-rule="evenodd"/></symbol><symbol id="liked" viewBox="0 0 14 13"><path d="M7 0l2.307 4.085 4.692.88-3.27 3.405.59 4.63L7 11.017l-4.326 1.98.593-4.628L0 4.96l4.693-.88L7 0" fill-rule="evenodd"/></symbol><symbol id="settings" viewBox="0 0 15 13"><path d="M15 9.792v.414l-.576.256c-.023.12-.054.236-.093.35l.37.508-.2.36-.63-.068c-.08.09-.16.176-.25.255l.07.627-.36.207-.51-.37c-.11.04-.22.07-.34.1l-.25.58h-.42l-.25-.57c-.12-.02-.23-.05-.35-.09l-.51.37-.36-.2.07-.62c-.09-.08-.17-.16-.25-.25l-.63.07-.2-.36.37-.51c-.03-.11-.07-.23-.09-.35l-.6-.28V9.8l.58-.256c.02-.12.06-.24.1-.35l-.38-.51.2-.36.63.06c.08-.09.16-.177.25-.256l-.07-.62.36-.2.51.37c.11-.04.22-.07.34-.09l.26-.58h.41l.26.574c.12.02.23.055.35.095l.51-.373.36.205-.06.63c.09.08.18.16.26.26l.63-.07.21.36-.37.5c.04.11.07.23.09.35l.57.25zM12 9c-.552 0-1 .448-1 1s.448 1 1 1 1-.448 1-1-.448-1-1-1zM8.885 6.352l.617.85-.344.596-1.046-.11c-.13.15-.273.293-.424.424l.11 1.045-.597.345-.84-.618c-.19.065-.38.118-.58.156l-.43.96h-.69l-.42-.96c-.2-.038-.39-.09-.58-.156l-.85.618-.59-.345.11-1.045c-.15-.13-.29-.273-.42-.425l-1.04.11L.5 7.2l.617-.847c-.067-.19-.12-.383-.157-.58L0 5.343v-.69l.96-.427c.038-.2-.025-.04.04-.23L.497 2.8l.345-.6L2 2c.13-.152.16.018.312-.113L2.202.842 2.8.497s1.116.298 1.24.44L4 1c.064-.013.064-.036.04-.063L4.656 0h.69L6 1c.2.037.164.05.352.115l.85-.618.597.345-.12 1.045c.15.13.29.273.42.425l1.04-.11.34.596-.62.85c.06.187.11.38.15.58l.96.426v.69l-.96.427c-.04.2-.09.4-.16.59zM5 3.447c-.858 0-1.553.695-1.553 1.552 0 .85.695 1.55 1.553 1.55S6.553 5.85 6.553 5 5.858 3.446 5 3.446z" id="path-1" fill-rule="evenodd"/></symbol><symbol id="sign-in" viewBox="0 0 14 13"><path d="M12 13V2H6v2L4 3V0h10v13h-2zM5.816 6H11v3h-1V8H9v2H8V8H5.816C5.403 9.162 4.304 10 3 10c-1.657 0-3-1.343-3-3s1.343-3 3-3c1.304 0 2.403.837 2.816 2zM3 6c-.552 0-1 .448-1 1s.448 1 1 1 1-.448 1-1-.448-1-1-1zm3 7H4v-2l2-1v3z" id="path-1" fill-rule="evenodd"/></symbol><symbol id="sign-out" viewBox="0 0 14 13"><path d="M14 7l-4 3v3H8v-3h2V8H5V6h5V4H8V2H2v11H0V0h10v4l4 3zm-4 3l1-2h-1v2zm0-4h1l-1-2v2z" id="path-1" fill-rule="evenodd"/></symbol><symbol id="sign-up" viewBox="0 0 9 12"><path d="M8 12H1c-.552 0-1-.448-1-1V7c0-.552.448-1 1-1V3h.05c.245-1.694 1.688-3 3.45-3C6.433 0 8 1.567 8 3.5c0 .17-.013.337-.037.5H6V3h-.1c-.208-.58-.75-1-1.4-1-.65 0-1.192.42-1.4 1H3v3h5c.552 0 1 .448 1 1v4c0 .552-.448 1-1 1zM4.5 8c-.276 0-.5.223-.5.5 0 .276.224 1.5.5 1.5S5 8.775 5 8.5c0-.277-.224-.5-.5-.5z" id="path-1" fill-rule="evenodd"/></symbol><symbol id="category-adult" viewBox="0 0 12 17"><path d="M12 10c0 2.21-1.79 4-4 4-.85 0-1.633-.27-2.28-.72L4.5 14.5 6 16l-1 1-1.5-1.5L2 17l-1-1 1.5-1.5L1 13l1-1 1.5 1.5 1.22-1.22C4.267 11.633 4 10.85 4 10c-2.21 0-4-1.79-4-4s1.79-4 4-4c.85 0 1.633.268 2.28.72L8 1H5V0h5v5H9V2L7.28 3.72C7.732 4.366 8 5.15 8 6c2.21 0 4 1.79 4 4zM6.22 4.78L6 5 5 4l.22-.22c-.363-.2-.775-.326-1.22-.326-1.406 0-2.546 1.14-2.546 2.546S2.594 8.545 4 8.545c.1 0 .195-.018.292-.03.406-1.012 1.21-1.817 2.224-2.223.01-.097.03-.192.03-.292 0-.445-.125-.857-.325-1.22zM5.23 10c0 .507.147.976.385 1.385L6 11l1 1-.385.385c.41.238.878.384 1.385.384 1.53 0 2.77-1.24 2.77-2.77S9.53 7.23 8 7.23 5.23 8.47 5.23 10z" id="path-1" fill-rule="evenodd"/></symbol><symbol id="category-bear" viewBox="0 0 17 15"><path d="M15.71 5.46c.185.65.29 1.33.29 2.04 0 4.142-3.358 7.5-7.5 7.5C4.358 15 1 11.642 1 7.5c0-.71.105-1.39.288-2.04C.51 4.916 0 4.02 0 3c0-1.657 1.343-3 3-3 .804 0 1.53.32 2.07.835C6.097.305 7.26 0 8.5 0c1.237 0 2.402.305 3.43.835C12.47.32 13.197 0 14 0c1.657 0 3 1.343 3 3 0 1.02-.51 1.917-1.29 2.46zM5.5 4C4.67 4 4 4.67 4 5.5 4 6.328 4.67 7 5.5 7 6.328 7 7 6.328 7 5.5 7 4.67 6.328 4 5.5 4zM6 9.5C6 10.88 7.12 12 8.5 12S11 10.88 11 9.5 9.88 7 8.5 7 6 8.12 6 9.5zM11.5 4c-.83 0-1.5.67-1.5 1.5 0 .828.67 1.5 1.5 1.5.828 0 1.5-.672 1.5-1.5 0-.83-.672-1.5-1.5-1.5z" id="path-1" fill-rule="evenodd"/></symbol><symbol id="category-book" viewBox="0 0 12 16"><path d="M11 14V1H3L2 2h4v6h2V2h2v14H0V2l2-2h10v14h-1z" id="path-1" fill-rule="evenodd"/></symbol><symbol id="category-clock" viewBox="0 0 13 19"><path d="M6.5 16C2.91 16 0 13.09 0 9.5S2.91 3 6.5 3 13 5.91 13 9.5 10.09 16 6.5 16zm0-11.857c-2.96 0-5.357 2.398-5.357 5.357 0 2.958 2.398 5.357 5.357 5.357 2.96 0 5.357-2.4 5.357-5.357 0-2.96-2.398-5.357-5.357-5.357zm-4.036 2.15l.707-.707L6.708 9.12 8.827 7l.708.707-2.828 2.828-4.243-4.242zM3 3V0h7v3S8.25 2 6.5 2 3 3 3 3zm7 13v3H3v-3s1.708 1 3.437 1C8.207 17 10 16 10 16z" id="path-1" fill-rule="evenodd"/></symbol><symbol id="category-clothes" viewBox="0 0 18 14"><path d="M15 9l-1-1v6H4V8L3 9 0 7l4-6h3V0h4v1h3l4 6-3 2z" id="path-1" fill-rule="evenodd"/></symbol><symbol id="category-compass" viewBox="0 0 16 16"><path d="M8 16c-4.418 0-8-3.582-8-8 0-4.42 3.582-8 8-8s8 3.58 8 8c0 4.418-3.582 8-8 8zM8 1C4.134 1 1 4.134 1 8c0 2.586 1.418 4.82 3.504 6.03l.898-7.53 6.072-4.543C10.447 1.364 9.27 1 8 1zM7 8c0 .552.448 1 1 1s1-.448 1-1c0-.553-.448-1-1-1s-1 .447-1 1zm4.496-6.03l-.898 7.53-6.072 4.543C5.553 14.635 6.73 15 8 15c3.866 0 7-3.134 7-7 0-2.586-1.418-4.82-3.504-6.03z" id="path-1" fill-rule="evenodd"/></symbol><symbol id="category-grass" viewBox="0 0 8 17"><path d="M6.457 12.907c-.92.92-1.89 1.498-2.457 1.52v2.79H3v-5.17c-.48-.217-1.07-.635-1.638-1.2C.306 9.8-.265 8.668.087 8.318c.352-.35 1.494.217 2.55 1.265.13.128.25.257.363.386v-3.75h1v5.46c.016.103.02.196 0 .273v.817c.26-.406.615-.846 1.043-1.275 1.172-1.17 2.438-1.805 2.83-1.414.39.39-.244 1.657-1.416 2.83zM1 2.717c0-1 .3-1.9.78-2.538.448-.596 1.054 1.04 1.72 1.04.65 0 1.243-1.654 1.688-1.083.5.64.812 1.56.812 2.58C6 4.653 4.88 6.22 3.5 6.22S1 4.65 1 2.717z" id="path-1" fill-rule="evenodd"/></symbol><symbol id="category-home" viewBox="0 0 18 16"><path d="M17 7.937L15 7v9h-4v-6H7v6H3V7.062L1 8 0 6l8.833-6L18 6l-1 1.937z" id="path-1" fill-rule="evenodd"/></symbol><symbol id="category-meal" viewBox="0 0 12 18"><path d="M10.53 18C9.77 18 9 16 9 16l1-4v-1.5L9 9V2l2-2v12l1 4s-.73 2-1.47 2zM3 7.866V12l1 4s-.73 2-1.47 2C1.77 18 1 16 1 16l1-4V7.826C.938 7.2 0 5 0 5V1l1-1v4h1V0h1v4h1V0l1 1v4s-.937 2.285-2 2.866z" id="path-1" fill-rule="evenodd"/></symbol><symbol id="category-mobile" viewBox="0 0 9 16"><path d="M8 16H1c-.552 0-1-.448-1-1V1c0-.552.448-1 1-1h7c.552 0 1 .448 1 1v14c0 .552-.448 1-1 1zm-4-1h1v-1H4v1zM8 2c0-.553-.448-1-1-1H2c-.552 0-1 .447-1 1v10c0 .552.448 1 1 1h5c.552 0 1-.448 1-1V2z" id="path-1" fill-rule="evenodd"/></symbol><symbol id="category-par" viewBox="0 0 22 16"><path d="M22 4.46v4.458h-.543v6.82H6.52v-2.623h1.628v1.05h4.89V8.392h-4.89v1.837h-1.63V8.918h-.543V4.495h9.311L22 4.46zm-8.963 1.573H7.333v1.573h5.704V6.033zm2.173 8.13h4.617v-5.77H15.21v5.77zm0-6.557h5.432V6.033H15.21v1.573zM12.097.476c2.188 1.91 2.414 4.02 2.414 4.02s-3.218-.076-4.827-.804c-1.61-.73.226-5.125 2.414-3.216zm-.537 2.928c.716.26 2.147.288 2.147.288s-.1-.755-1.073-1.437c-.973-.683-1.79.89-1.074 1.15zm7.607.342c-1.552.68-4.656.75-4.656.75s.22-1.968 2.33-3.747c2.11-1.78 3.88 2.317 2.327 2.996zm-2.845-1.34c-.938.637-1.035 1.34-1.035 1.34s1.38-.025 2.07-.268c.69-.243-.097-1.708-1.035-1.072zm-7.36 8.61v1.312H5.16V16H3.802v-3.672H0v-1.312h3.802V7.344H5.16v3.672h3.803z" fill-rule="evenodd"/></symbol><symbol id="category-polisher" viewBox="0 0 13 22"><path d="M12 22h-1c-.552 0-1-.448-1-1v-1h3v1c0 .552-.448 1-1 1zm-2-7c0-.553.448-1 1-1V5h-1V4h1V3h-1V2h1V1h-1V0h3v1h-1v1h1v1h-1v1h1v1h-1v9c.552 0 1 .447 1 1v4h-3v-4zm-4 7H2c-1.105 0-2-.896-2-2v-4c0-1.105.895-2 2-2h1v-1H2V9c0-1.105.895-2 2-2 1.104 0 2 .895 2 2v4H5v1h1c1.104 0 2 .895 2 2v4c0 1.104-.896 2-2 2zm0-7H2l-1 1v4h1v-4h5l-1-1z" id="path-1" fill-rule="evenodd"/></symbol><symbol id="category-shoe" viewBox="0 0 18 17"><path d="M6.3 12.235H2.7c-.9 0-2.813 0-2.7 1.412.112 1.412 1.8 3.294 1.8 3.294h6.3s5.625-10 7.2-8.47v8.47l.9.06S18 8.9 18 3.882C18 1.632 16.987.235 15.3 0c-.563 3.06-7.2 11.647-9 12.235z" id="path-1" fill-rule="evenodd"/></symbol><symbol id="category-soap" viewBox="0 0 10 17"><path d="M0 14V6c0-1.105.895-2 2-2V3h2V0h2v1h2v1H6v1h2v1c1.104 0 2 .895 2 2v8H0zm8-9H2L1 6v7h1V6h7L8 5zM7 16H3c-1.105 0-2 .104-2-1h8c0 1.104-.895 1-2 1z" id="path-1" fill-rule="evenodd"/></symbol><symbol id="category-sport" viewBox="0 0 19 10"><path d="M17 9V1h2v8h-2zm-3-9h2v10h-2V0zM6 4h7v2H6V4zM3 0h2v10H3V0zM0 1h2v8H0V1z" id="path-1" fill-rule="evenodd"/></symbol><symbol id="category-stepler" viewBox="0 0 20 11"><path d="M18.03 6.03v1h-1l-.6-.6-10.4 2.6h12v1h-16c-.532.144-.856-.466-1-1l-1-4c-.142-.532.468-.856 1-1l16-4c.535-.142.858.468 1 1l1 4c.144.535-.465.858-1 1zm-4.146-4.477l-13 4 .294.956 13-4-.294-.957z" id="path-1" fill-rule="evenodd"/></symbol><symbol id="category-zoo" viewBox="0 0 16 17"><path d="M14.313 7.27c-1.272 1.23-2.928 1.58-3.697.787-.768-.795-.36-2.435.913-3.664 1.272-1.23 2.928-1.582 3.696-.788.77.795.36 2.435-.913 3.664zM9.787.11C8.754-.288 7.405.732 6.774 2.385 6.142 4.038 6.467 5.7 7.5 6.094c1.032.395 2.382-.624 3.013-2.277.63-1.652.306-3.313-.726-3.708zM3.77 2.19c-1.08-.158-2.14.992-2.37 2.568-.227 1.576.463 2.982 1.544 3.14 1.08.16 2.14-.99 2.37-2.567.227-1.576-.463-2.983-1.543-3.14zm11.51 7.91c-.655-.873-2.22-.807-3.496.147-1.275.954-1.778 2.435-1.123 3.308.657.873 2.222.807 3.497-.147 1.276-.954 1.778-2.435 1.123-3.308zm-6.642 6.754c1.73-.517 1.518-6.91-.572-8.247C5.88 7.21-.46 10.305.036 12.15c.497 1.844 3.206 2.11 4.49 2.592 1.282.48 1.443 2.913 4.112 2.114z" id="path-1" fill-rule="evenodd"/></symbol><symbol id="confirm-controls-comment" viewBox="0 0 20 15"><path d="M18 10.387V15l-4.162-2.5c-1.182.32-2.478.5-3.838.5-5.523 0-10-2.91-10-6.5S4.477 0 10 0s10 2.91 10 6.5c0 1.46-.75 2.802-2 3.887z" fill-rule="evenodd"/></symbol><symbol id="confirm-controls-coupons" viewBox="0 0 20 20"><path d="M19.79 7.817L17.754 9.85l-.508-.51-.51.51.51.507c-3.326 3.32-8.777 8.76-9.158 9.142-.55.55-5.68.93-7.08-.466-1.4-1.397-1.103-6.603-.552-7.154L12.158.2c.28-.282.737-.282 1.018 0l6.614 6.6c.28.282.28.737 0 1.017zM4.654 15.563c-.632-.63-1.657-.63-2.29 0-.632.63-.632 1.654 0 2.285.633.632 1.658.632 2.29 0 .632-.63.632-1.654 0-2.285zm5.47-13.333l-.51.508.763.762.51-.508-.764-.762zm1.017 1.016l-.508.508.763.762.51-.508-.764-.762zm1.018 1.016l-.51.508.764.762.51-.508-.764-.762zm1.018 1.016l-.51.508.764.76.51-.506-.764-.762zm1.017 1.015l-.51.508.765.763.508-.508-.763-.762zM15.21 7.31l-.508.507.763.762.51-.51-.764-.76zm1.018 1.015l-.508.508.763.762.508-.508-.762-.762z" fill-rule="evenodd"/></symbol><symbol id="campaign" viewBox="0 0 16 16"><g id="actionsvg"><circle cx="8" cy="8" r="8"/><path d="M6.41 6.923c.372-.424.558-.995.558-1.714 0-.7-.168-1.244-.505-1.63-.336-.386-.803-.58-1.4-.58-.624 0-1.123.214-1.497.64-.374.428-.56 1.005-.56 1.733 0 .667.175 1.198.526 1.592.352.394.815.592 1.39.592.62 0 1.116-.212 1.488-.634zm-.62-1.66c0 .814-.267 1.22-.8 1.22-.523 0-.784-.39-.784-1.17 0-.826.274-1.24.823-1.24.506 0 .76.397.76 1.19zm3.647-2.14L4.183 11.87H5.56l5.263-8.747H9.437zm2.006 8.228c.372-.426.558-1 .558-1.72 0-.7-.166-1.24-.5-1.622-.335-.382-.803-.573-1.404-.573-.624 0-1.123.213-1.496.64-.374.427-.56 1.005-.56 1.732 0 .668.174 1.198.526 1.592.35.394.814.59 1.39.59.62 0 1.115-.212 1.487-.64zm-.834-2.53c.142.207.213.5.213.878 0 .813-.267 1.22-.8 1.22-.53 0-.795-.39-.795-1.17 0-.827.272-1.24.817-1.24.233 0 .42.104.564.31z" fill="#fff" fill-rule="evenodd"/></g></symbol><symbol id="coupon-comment" viewBox="0 0 14 13"><path d="M12.19 8.356c-.65.51-1.335 4.21-1.335 4.21S8.017 10 7 10c-3.866 0-7-2.24-7-5 0-2.762 3.134-5 7-5s7 2.238 7 5c0 1.29-.686 2.468-1.81 3.356zM7 2C4.24 2 2 3.343 2 5s2.24 3 5 3 5-1.343 5-3-2.24-3-5-3z" id="path-1" fill-rule="evenodd"/></symbol><symbol id="coupon-goto" viewBox="0 0 12 12"><path d="M6 12c-3.314 0-6-2.686-6-6s2.686-6 6-6 6 2.686 6 6-2.686 6-6 6zM5 3v2H3v2h2v2l4-3-4-3z" fill-rule="evenodd"/></symbol><symbol id="coupon-like" viewBox="0 0 22 22"><path d="M11 1l3.295 6.285L21 8.64l-4.667 5.237L17.18 21 11 17.95 4.82 21l.847-7.123L1 8.64l6.704-1.355L11 1" id="path-1" stroke="currentColor" fill-rule="evenodd"/></symbol><symbol id="coupon-send-to-email" viewBox="0 0 20 20"><path d="M19 20H1c-.552 0-1-.448-1-1V6c0-.553.448-2 1-2l8.094-4H11l8 4c.552 0 1 1.447 1 2v13c0 .552-.448 1-1 1zm-2-1l-6-5H9l-6 5h14zM1 18l7-4-7-5v9zM18 5l-7-4H9L2 5 1 8l3.43 2.143L3 9h14.4L19 8l-1-3zm-1.333 5.666L12 14l7 4V9.5l-2.333 1.166z" id="path-1" fill-rule="evenodd"/></symbol><symbol id="coupon-send-to-mobile" viewBox="0 0 11 20"><path d="M10 20H1c-.552 0-1-.448-1-1V1c0-.552.448-1 1-1h9c.552 0 1 .448 1 1v18c0 .552-.448 1-1 1zm-4.5-1c.828 0 1.5-.172 1.5-1 0-.83-.672-1-1.5-1-.83 0-1.5.17-1.5 1 0 .828.67 1 1.5 1zm2-18h-4c-.276 0-.5.224-.5.5s.224.5.5.5h4c.276 0 .5-.224.5-.5S7.776 1 7.5 1zM10 4c0-.552-.448-1-1-1H2c-.552 0-1 .448-1 1v11c0 .552.448 1 1 1h7c.552 0 1-.448 1-1V4z" id="path-1" fill-rule="evenodd"/></symbol><symbol id="coupon-share" viewBox="0 0 13 13"><path d="M10.5 5c-.77 0-1.45-.356-1.91-.904l-2.818 1.76C5.917 6.21 6 6.597 6 7c0 .363-.074.706-.193 1.028L8.57 9.606C8.93 9.233 9.437 9 10 9c1.105 0 2 .895 2 2s-.895 2-2 2-2-.895-2-2c0-.182.032-.355.078-.523l-2.77-1.582C4.758 9.565 3.934 10 3 10c-1.657 0-3-1.343-3-3s1.343-3 3-3c.892 0 1.684.397 2.233 1.014l2.883-1.8C8.048 2.985 8 2.748 8 2.5 8 1.12 9.12 0 10.5 0S13 1.12 13 2.5 11.88 5 10.5 5z" fill-rule="evenodd" id="coupon-sharesvg"/></symbol><symbol id="coupon" viewBox="0 0 16 16"><g id="couponsvg"><circle cx="8" cy="8" r="8"/><path d="M7.853 11.388H3.61V7.146L8.27 2.49 12.51 6.73l-4.657 4.656zM6.44 8.56c-.39-.39-1.025-.39-1.415 0-.39.39-.39 1.024 0 1.414.39.39 1.024.39 1.414 0 .39-.39.39-1.024 0-1.414z" fill="#fff" fill-rule="evenodd"/></g></symbol><symbol id="par" viewBox="0 0 16 16"><g id="parsvg"><circle id="circle-1" cx="8" cy="8" r="8"/><path d="M12 7h-1v4H5V7H4V5h8v2zm-2 0H9l-1 3-1-3H6v3h4V7zM6 4c0-.552.895-1 2-1s2 .448 2 1-.895 1-2 1-2-.448-2-1z" fill="#fff" fill-rule="evenodd"/></g></symbol><symbol id="type-cashback" viewBox="0 0 61 54"><g id="type-cashback-same-shopsvg" fill-rule="evenodd"><path d="M52.328 13.2l1.523-.41 1.524 5.685-3.046-5.275zM28.68 44.694L54.25 29.93l1.978 7.383-27.548 7.38zm-16.57.097l1.61 6.01 1.61-.432.88 1.525 5.694-3.287 36.804-9.86-2.642-9.864 1.816-1.048 3.306 12.342-48.9 13.103-4.09-15.265 3.913 6.776z" id="path-1" class="cls-3"/><path d="M14.186 49.867L.01 25.317 43.854.002l14.175 24.552-43.842 25.312zM43.112 2.77L2.777 26.056 3.79 27.81l11.137 19.292 1.754-1.013L53.51 24.825l1.754-1.013-11.137-19.29-1.013-1.754zm9.384 20.303L15.668 44.336 5.543 26.798 42.37 5.535l10.126 17.538zm-27.39-2.892c-2.906 1.68-3.902 5.394-2.224 8.3 1.677 2.905 5.393 3.9 8.298 2.223 2.906-1.678 3.9-5.393 2.224-8.298-1.678-2.906-5.393-3.9-8.3-2.224z"/></g></symbol><symbol id="type-delivery" viewBox="0 0 54 31"><path d="M50.328 25.184c-.438-3.05-3.056-5.4-6.228-5.4-3.174 0-5.79 2.35-6.23 5.4H16.13c-.438-3.05-3.056-5.4-6.23-5.4-3.17 0-5.79 2.35-6.227 5.4H0v-3.6h1.8v-21.6h28.8v21.6h1.8v-18h9l10.8 12.9v5.1H54v3.6h-3.672zm-10.73-18h-5.4v9h12.6l-7.2-9zm-29.7 14.4c2.487 0 4.5 2.015 4.5 4.5s-2.013 4.5-4.5 4.5c-2.484 0-4.498-2.015-4.498-4.5s2.014-4.5 4.5-4.5zm34.202 0c2.485 0 4.5 2.015 4.5 4.5s-2.015 4.5-4.5 4.5c-2.486 0-4.5-2.015-4.5-4.5s2.014-4.5 4.5-4.5z" fill-rule="evenodd"/></symbol><symbol id="type-discount" viewBox="0 0 50 34"><path d="M28.7 33.746H5.072C2.278 33.746.01 31.48.01 28.684V5.06C.01 2.263 2.28-.003 5.074-.003H28.7c5.996 0 20.57 13.534 20.57 16.487 0 2.953-14.69 17.262-20.57 17.262zM8.45 3.37c-3.73 0-5.064 3.024-5.064 6.752 0 3.728 1.335 6.75 5.063 6.75 3.727 0 5.06-3.022 5.06-6.75s-1.333-6.75-5.06-6.75zm12.01.895L6.96 29.578l2.977 1.588 13.5-25.313-2.977-1.588zm3.176 12.607c-3.728 0-5.063 3.022-5.063 6.75s1.335 6.75 5.063 6.75c3.728 0 5.063-3.022 5.063-6.75s-1.336-6.75-5.064-6.75zm16.03-5.063c-2.33 0-4.217 1.888-4.217 4.218s1.887 4.22 4.217 4.22c2.33 0 4.22-1.89 4.22-4.22s-1.89-4.22-4.22-4.22zm-16.03 15.178c-1.86 0-1.68-1.506-1.68-3.366s-.18-3.367 1.68-3.367c1.86 0 1.68 1.508 1.68 3.367 0 1.86.18 3.366-1.68 3.366zM8.45 13.488c-1.86 0-1.68-1.507-1.68-3.366 0-1.86-.18-3.366 1.68-3.366 1.858 0 1.677 1.506 1.677 3.366s.18 3.366-1.678 3.366z" fill-rule="evenodd"/></symbol><symbol id="type-gift" viewBox="0 0 48 48"><g id="type-gift-same-shopsvg" fill-rule="evenodd"><path d="M45 26.926v20.32H2.25v-20.32H0v-13.43h47.25v13.57l-2.25-.14zm-18 15.82h13.5v-18H27v18zM6.75 24.816v17.93h13.5v-18H5.6l1.147.07zm-2.25-6.82v4.5h15.75v-4.5H4.5zm38.25 0H27v4.5h15.75v-4.5zM38.25 11.246c-4.5 2.038-13.5 2.25-13.5 2.25s.632-5.907 6.75-11.25c6.116-5.343 11.25 6.96 6.75 9zM30 7.223c-2.72 1.91-3 4.023-3 4.023s4-.076 6-.805c2-.728-.282-5.127-3-3.217zM10.75 11.082c-4.667-2.187.656-15.385 7-9.653 6.343 5.73 7 12.066 7 12.066s-9.334-.226-14-2.414zm8.555-4.314c-2.82-2.05-5.185 2.67-3.11 3.452 2.073.782 6.22.862 6.22.862s-.29-2.265-3.11-4.314z"/></g></symbol><symbol id="footer-about" viewBox="0 0 80 80"><path d="M40 80C17.91 80 0 62.09 0 40S17.91 0 40 0s40 17.91 40 40-17.91 40-40 40zm0-78C19.013 2 2 19.013 2 40s17.013 38 38 38 38-17.013 38-38S60.987 2 40 2zm15.998 43.7l2.54 20.3L40 57.312l-18.54 8.686L24.003 45.7l-14-14.93 20.11-3.857L40 9l9.887 17.913 20.11 3.858-14 14.93zm-23.42-5.873c0 .23.23.502.5.502.692 0 2.537-3.36 3.96-3.36.308 0 .654.34.384 1.04l-2.69 6.79c-.27.65-1.577 3.82-1.577 5.67 0 1.46.96 2.12 2.345 2.12 3.883 0 8.38-4.78 8.38-5.9 0-.35-.268-.58-.46-.58-.538 0-2.653 3.28-3.806 3.28-.308 0-.46-.27-.46-.54 0-.62.422-1.58.652-2.16l2.768-7.52c1.384-3.74-.385-4.75-2.038-4.75-2.23 0-4.23 1.12-5.766 2.58-.5.5-2.19 2.12-2.19 2.815zM42.65 27.33c-1.69 0-3.152 1.388-3.152 3.085 0 1.582 1.038 2.624 2.615 2.624 1.73 0 3.19-1.32 3.19-3.09 0-1.58-1.114-2.63-2.653-2.63z" id="path-1" fill-rule="evenodd"/></symbol><symbol id="footer-blog" viewBox="0 0 52 40"><path d="M51.763 6.74c.3.3.3.786 0 1.087l-3.267 3.264-7.623-7.61L44.14.21c.3-.3.79-.3 1.09 0l3.81 3.808-3.266 3.263L48.496 10l3.267-3.263zm-4.9 5.982L39.24 5.107l1.09-1.088 7.622 7.61-1.09 1.09zm-.305.305L23.45 36.11l-9.985 2.626.395.494-3.08-.77-2.31.77-5.39-1.538L0 40l1.54-4.616 6.93 2.308 2.31-2.308 2.433 3.037 2.614-9.92L38.695 5.65l7.623 7.616.24-.24zM15.283 34.48c1.157-.035 2.28 1.02 2.178 2.175-.01.017 5.45-1.088 5.45-1.088l.55-2.72h-2.18l.547-1.63-2.722.543.546-2.72h-1.09v-1.088l-2.18 1.088s-1.105 5.456-1.09 5.44zM38.695 6.74L18.55 26.863l3.81-.544L40.33 8.37l-1.635-1.63z" id="path-1" fill-rule="evenodd"/></symbol><symbol id="footer-categories" viewBox="0 0 80 80"><path d="M40 80C17.91 80 0 62.09 0 40S17.91 0 40 0s40 17.91 40 40-17.91 40-40 40zm0-78C19.013 2 2 19.013 2 40s17.013 38 38 38 38-17.013 38-38S60.987 2 40 2zm29.575 32.634s-1.667 1.65-4.11 4.063L64.44 37.68l-1.027 1.017 1.028 1.016-18.49 18.284c-1.11 1.1-11.47 1.863-14.29-.93-.12-.118-.22-.266-.33-.41l2.6-2.567c.134.215.286.42.47.607 1.28 1.262 3.35 1.262 4.626 0 1.278-1.263 1.278-3.31 0-4.57-.186-.187-.395-.337-.612-.468L53.6 34.63c.567-.56.567-1.47 0-2.033l-6.393-6.32c.635-.626 1.25-1.232 1.828-1.805L50.568 26l1.028-1.016-1.54-1.524-.632.625 4.74-4.688c.568-.56 1.488-.56 2.056 0l13.355 13.205c.568.56.568 1.47 0 2.032zM52.11 25.492l-1.027 1.015 1.54 1.524 1.028-1.01-1.54-1.52zm2.055 2.03l-1.027 1.017 1.54 1.52 1.028-1.02-1.54-1.53zm2.055 2.033l-1.028 1.016 1.54 1.53 1.03-1.01-1.542-1.52zm2.054 2.03l-1.027 1.017 1.54 1.524 1.028-1.016-1.54-1.524zm2.055 2.033l-1.03 1.016 1.54 1.524 1.02-1.016-1.54-1.524zm2.05 2.032l-1.03 1.016 1.54 1.523 1.03-1.02-1.54-1.53zm-12.42-1.016l-4.11 4.063-1.03-1.016-1.03 1.02 1.023 1.02L26.333 58c-1.114 1.1-11.473 1.862-14.298-.93-2.825-2.797-2.225-13.21-1.113-14.31l18.492-18.284L30.954 26l1.028-1.016-1.54-1.524-.943.932 5.05-4.995c.56-.56 1.48-.56 2.05 0l13.36 13.205c.56.56.56 1.47 0 2.032zM19.39 50.126c-1.276-1.263-3.346-1.263-4.623 0-1.276 1.26-1.276 3.308 0 4.57 1.277 1.263 3.347 1.263 4.623 0 1.277-1.262 1.277-3.31 0-4.57zm13.1-24.634l-1.028 1.015 1.54 1.524 1.026-1.01-1.54-1.52zm2.054 2.03L33.52 28.54l1.54 1.52 1.03-1.02-1.54-1.525zm2.055 2.033l-1.02 1.015 1.54 1.525 1.03-1.016-1.547-1.53zm2.052 2.03l-1.025 1.017 1.54 1.524 1.03-1.016-1.54-1.524zm2.057 2.033l-1.027 1.016 1.54 1.524 1.027-1.016-1.54-1.524zm2.055 2.032l-1.028 1.016 1.54 1.523 1.03-1.02-1.543-1.53z" id="path-1" fill-rule="evenodd"/></symbol><symbol id="footer-feedback" viewBox="0 0 52 37"><path d="M45.582 31.264c-.675 1.12-2.244 4.14-.826 6.048-5.16 0-7.696-2.664-7.727-2.697-1.77.34-3.62.535-5.53.535-5.85 0-11.1-1.695-14.83-4.397.7.04 1.4.072 2.112.072 13.73 0 24.86-7.502 24.86-16.756 0-1.66-.37-3.25-1.03-4.76 5.6 2.5 9.314 6.84 9.314 11.78 0 4-2.447 7.61-6.355 10.17zm-25.13-3.14c-1.92 0-3.768-.196-5.53-.536-.023.033-2.018 2.697-7.727 2.697 2.21-1.838-1.105-5.946-1.105-5.946l1.07.39C2.793 22.15.015 18.34.015 14.07.015 6.306 9.165.013 20.452.013 31.74.013 40.89 6.307 40.89 14.07c0 7.76-9.15 14.053-20.438 14.053z" id="path-1" fill-rule="evenodd"/></symbol><symbol id="footer-social" viewBox="0 0 35 35"><path d="M31 31c0 .552-2.667 2-5 2s-14-1-14-1c-.552 0-1-.448-1-1V13c0-.552 4.167-9.333 7-13 5 0-1.333 12 4 12s11 1 11 1 2 5.333 2 7c0 1.667-4 11-4 11zM8 35H1c-.552 0-1-.448-1-1V13c0-.552.448-1 1-1h7c.552 0 1 .448 1 1v21c0 .552-.448 1-1 1zm-4.5-5c-.828 0-1.5.67-1.5 1.5 0 .828.672 1.5 1.5 1.5S5 32.328 5 31.5c0-.83-.672-1.5-1.5-1.5z" id="path-1" fill-rule="evenodd"/></symbol><symbol id="subscribe" viewBox="0 0 18 12"><path d="M16 12H2c-1.105 0-2-.896-2-2V3l8 5h2l8-5v7c0 1.104-.895 2-2 2zm-6-6H8L0 2C0 .895.895 0 2 0h14c1.105 0 2 .895 2 2l-8 4z" id="path-1" fill-rule="evenodd"/></symbol><symbol id="categories" viewBox="0 0 19 15"><path d="M6 14v-2h13v2H6zm0-7h13v2H6V7zm0-5h13v2H6V2zM0 13l1-1 1 1 2-3 1 1-3 4-2-2zm0-5l1-1 1 1 2-3 1 1-3 4-2-2zm0-5l1-1 1 1 2-3 1 1-3 4-2-2z" id="path-1" fill-rule="evenodd"/></symbol><symbol id="exclusive" viewBox="0 0 31 12"><path d="M31 12h-4l-2-9h6l-2 4.166L31 12zM6 10L8 0h15l2 10H6zm11-9h-2l-2 3h2v5h2V1zM0 12l2-4-2-5h6l-2 9H0z" id="path-1" fill-rule="evenodd"/></symbol><symbol id="new" viewBox="0 0 20 20"><path d="M17.422 8.733L20.002 10l-2.39 1.78 1.704 1.86-2.88.79.637 2.642-2.702-.525-.35 2.614-2.74-1.74L10 20.01l-1.78-2.39-1.86 1.704-.792-2.88-2.64.636.525-2.702L.84 14.02l1.733-2.748L-.007 10l2.39-1.782-1.7-1.858 2.88-.792-.635-2.64 2.702.524.355-2.614 2.747 1.74L10-.002l1.78 2.388L13.64.683l.79 2.88 2.643-.636-.526 2.702 2.614.35-1.73 2.75zM10 3c-3.866 0-7 3.134-7 7 0 3.865 3.134 7 7 7s7-3.135 7-7c0-3.866-3.134-7-7-7zm0 13c-3.314 0-6-2.687-6-6 0-3.314 2.686-6 6-6s6 2.686 6 6c0 3.313-2.686 6-6 6z" id="path-1" fill-rule="evenodd"/></symbol><symbol id="popular" viewBox="0 0 20 19"><path d="M10 0l3.296 5.97L20 7.258l-4.667 4.976L16.18 19 10 16.103 3.82 19l.847-6.767L0 7.257 6.705 5.97 10 0" id="path-1" fill-rule="evenodd"/></symbol><symbol id="shops" viewBox="0 0 20 16"><path d="M16 11H3V1H0V0h4v2h16l-4 9zM5 9h10l2-5H5v5zm9 4v.1c.58.208 1 .75 1 1.4 0 .828-.672 1.5-1.5 1.5-.83 0-1.5-.672-1.5-1.5 0-.178.044-.343.1-.5H5.9c.056.157.1.322.1.5 0 .828-.672 1.5-1.5 1.5S3 15.328 3 14.5c0-.178.044-.343.1-.5H3v-1h11z" id="path-1" fill-rule="evenodd"/></symbol><symbol id="select-list-deselect" viewBox="0 0 16 16"><path d="M9.25 6L10 3 3 8l7 5-.75-3h6.488c-.89 3.45-4.012 6-7.738 6-4.418 0-8-3.582-8-8s3.582-8 8-8c3.726 0 6.848 2.55 7.738 6H9.25z" fill-rule="evenodd"/></symbol><symbol id="select-list-select" viewBox="0 0 16 16"><path d="M8 16c-3.726 0-6.848-2.55-7.738-6H6.75L6 13l7-5-7-5 .75 3H.262C1.152 2.55 4.274 0 8 0c4.418 0 8 3.582 8 8s-3.582 8-8 8z" fill-rule="evenodd"/></symbol><symbol id="facebook" viewBox="0 0 52 52"><title/><g fill="none" fill-rule="evenodd" id="black"><g fill="#346DA6" id="color" transform="translate(-140)"><circle cx="166" cy="26" id="Facebook" r="26"/></g><g fill="#fff" id="Icon"><path d="M22.067 41.006V26h-3.05v-4.975h3.05v-3.008c0-4.058 1.213-6.984 5.656-6.984h5.285v4.964h-3.72c-1.865 0-2.29 1.24-2.29 2.536v2.492h5.735L31.95 26H27v15.006h-4.93zm0 0" id="facebook"/></g></g></symbol><symbol id="googleplus" viewBox="0 0 52 52"><title/><g fill="none" fill-rule="evenodd" id="black"><g fill="#CA4638" id="color" transform="translate(-210)"><circle cx="236" cy="26" id="Google+" r="26"/></g><g fill="#fff" id="Icon"><path d="M24.234 23.72c.85-.853.923-2.035.923-2.7 0-2.66-1.59-6.8-4.657-6.8-.96 0-1.995.48-2.587 1.22-.628.776-.814 1.773-.814 2.734 0 2.476 1.44 6.58 4.62 6.58.923 0 1.92-.445 2.514-1.035zm-1.073 7.02c-.295-.038-.48-.038-.848-.038-.333 0-2.33.075-3.882.593-.812.295-3.178 1.182-3.178 3.806 0 2.625 2.55 4.51 6.505 4.51 3.548 0 5.433-1.7 5.433-3.99 0-1.887-1.22-2.884-4.03-4.88zM34 27h-4v-2h4v-4h2v4h4v2h-4v4h-2v-4zm-8.214-12.67c.85.703 2.623 2.18 2.623 4.99 0 2.735-1.553 4.03-3.105 5.248-.48.48-1.035.998-1.035 1.81 0 .814.555 1.258.96 1.59l1.332 1.034c1.626 1.368 3.104 2.625 3.104 5.176 0 3.473-3.364 6.985-9.72 6.985-5.36 0-7.946-2.55-7.946-5.286 0-1.33.665-3.215 2.847-4.51 2.29-1.404 5.396-1.587 7.058-1.7-.517-.665-1.11-1.368-1.11-2.512 0-.628.186-1 .37-1.442-.406.037-.812.075-1.182.075-3.917 0-6.135-2.92-6.135-5.803 0-1.7.776-3.586 2.365-4.953C18.32 13.296 20.833 13 22.83 13h7.612l-2.365 1.33h-2.29zm0 0" id="g+"/></g></g></symbol><symbol id="twitter" viewBox="0 0 52 52"><title/><g id="black"><g id="color"><circle id="Twitter" fill="#2FC0D3" cx="26" cy="26" r="26"/></g><g id="Icon"><path id="twitter" fill="#fff" d="M35.578 15.98c-1.047-1.192-2.54-1.95-4.192-1.98-3.173-.052-5.745 2.63-5.745 5.988 0 .477.052.94.15 1.388-4.775-.31-9.008-2.796-11.84-6.543-.495.898-.78 1.947-.78 3.072 0 2.128 1.015 4.017 2.557 5.132-.94-.042-1.828-.327-2.602-.794v.077c0 2.972 1.98 5.466 4.608 6.047-.482.137-.99.207-1.514.204-.37-.002-.73-.043-1.082-.116.73 2.438 2.852 4.216 5.366 4.275-1.966 1.63-4.443 2.603-7.135 2.598-.463-.002-.92-.03-1.37-.09C14.542 36.984 17.562 38 20.806 38c10.566.003 16.344-9.192 16.344-17.168 0-.262-.006-.522-.017-.78 1.123-.838 2.097-1.886 2.867-3.083-1.03.463-2.137.77-3.3.9 1.187-.728 2.098-1.897 2.526-3.298-1.11.673-2.34 1.156-3.648 1.407z"/></g></g></symbol><symbol id="vkontakte" viewBox="0 0 52 52"><title/><g id="black"><g id="color" transform="translate(-210 -350)"><circle id="dropbox" fill="#468FBC" cx="236" cy="376" r="26"/></g></g><path fill="#fff" d="M38.964 31.887c0 1.384-.264 2.602-.79 3.65-.52 1.05-1.226 1.917-2.114 2.604-1.048.823-2.2 1.41-3.453 1.76-1.255.35-2.85.524-4.783.524h-11.16v-27.88h9.848c2.046 0 3.6.08 4.653.234 1.055.157 2.043.484 2.965.983 1 .54 1.746 1.256 2.24 2.155.49.9.74 1.935.74 3.108 0 1.36-.342 2.57-1.023 3.632-.678 1.06-1.618 1.84-2.816 2.34v.15c1.725.36 3.105 1.1 4.138 2.218 1.037 1.117 1.556 2.625 1.556 4.524zm-8.97-11.46c0-.45-.115-.91-.347-1.384-.23-.476-.59-.818-1.075-1.03-.462-.2-1.008-.31-1.64-.33-.63-.018-1.57-.027-2.817-.027h-.488v5.898h.88c1.2 0 2.038-.012 2.52-.038.48-.024.976-.156 1.487-.393.563-.263.95-.624 1.162-1.085.213-.46.318-1 .318-1.61zm1.76 11.328c0-.86-.174-1.535-.523-2.022-.35-.485-.874-.854-1.572-1.104-.425-.162-1.008-.254-1.75-.272-.742-.02-1.738-.027-2.986-.027H23.63v6.984h.374c1.822 0 3.082-.013 3.782-.038.698-.024 1.41-.193 2.134-.505.638-.273 1.103-.677 1.395-1.207.292-.533.44-1.134.44-1.808z"/></symbol><symbol id="tab-filter-all" viewBox="0 0 13 10"><path d="M12 6H1c-.552 0-1-.448-1-1s.448-1 1-1h11c.552 0 1 .448 1 1s-.448 1-1 1zm0-4H1c-.552 0-1-.448-1-1s.448-1 1-1h11c.552 0 1 .448 1 1s-.448 1-1 1zM1 8h11c.552 0 1 .448 1 1s-.448 1-1 1H1c-.552 0-1-.448-1-1s.448-1 1-1z" fill-rule="evenodd"/></symbol><symbol id="tab-filter-responses" viewBox="0 0 13 11"><path d="M13 4.47C13 2.002 10.09.002 6.5.002S0 2.002 0 4.47c0 2.11 2.132 3.88 4.996 4.345-.233.79-.622 1.72-1.232 2.186 1.176.003 2.335-1.1 3.13-2.072C10.3 8.788 13 6.846 13 4.47z" fill-rule="evenodd"/></symbol><symbol id="timeline-event-comment" viewBox="0 0 15 12"><path d="M15 4.876C15 2.184 11.64.002 7.5.002 3.36.002 0 2.184 0 4.876c0 2.303 2.46 4.232 5.765 4.74-.27.862-.718 1.878-1.422 2.385 1.357.004 2.695-1.198 3.612-2.26C11.885 9.587 15 7.468 15 4.876z" fill-rule="evenodd"/></symbol><symbol id="timeline-event-coupon" viewBox="0 0 14 14"><path d="M13.018 5.95l-6.364 6.365C5.504 13.465.91 13.64.29 13.022c-.618-.62-.176-5.48.708-6.364L7.36.294c.392-.39 1.025-.39 1.416 0l4.242 4.243c.39.39.39 1.023 0 1.414zm-9.9 4.244c-.39-.39-1.023-.39-1.413 0-.39.39-.39 1.023 0 1.414.39.39 1.023.39 1.414 0 .39-.39.39-1.024 0-1.414z" fill-rule="evenodd"/></symbol><symbol id="timeline-event-shop" viewBox="0 0 12 10"><path d="M11.8 3.187l-.8 4h-1l.8-4H4l-.298-.298 1.413 3.297H10v1H5l-3.05-6H0v-1h2l.46-.196.084.197H3v1h-.027l.428 1H12v1h-.2zm-5.8 5c.552 0 1 .448 1 1 0 .553-.448 1-1 1s-1-.447-1-1c0-.552.448-1 1-1zm3 0c.552 0 1 .448 1 1 0 .553-.448 1-1 1s-1-.447-1-1c0-.552.448-1 1-1z" fill-rule="evenodd"/></symbol><symbol id="timeline-event-ticket-large" viewBox="0 0 24 15"><path d="M20.502 10.144l-.36-9.648h3.24l-.38 9.648h-2.5zm1.28 1.358c.52 0 .946.15 1.278.454.333.303.5.685.5 1.147 0 .47-.166.857-.495 1.163-.328.305-.756.46-1.284.46-.52 0-.95-.16-1.288-.475-.338-.315-.508-.697-.508-1.147 0-.468.17-.852.513-1.152.342-.298.77-.448 1.284-.448zM13 11l.667-2H9V8h5l-1-2V5l4 3v1l-4 3v-1zM7.454 5.733c-.18.297-.406.58-.674.855-.27.273-.577.555-.926.844-.235.196-.442.378-.62.547-.177.168-.325.334-.442.5-.118.165-.207.34-.267.526-.06.186-.09.396-.09.632 0 .162.02.328.065.496.043.17.102.31.176.425H2.028c-.067-.176-.12-.374-.156-.593-.037-.22-.055-.426-.055-.622 0-.31.03-.594.09-.85s.152-.497.272-.724c.12-.224.27-.44.452-.646.182-.206.393-.41.635-.612.255-.216.478-.417.67-.602.19-.186.353-.37.487-.557.134-.185.235-.378.302-.577.067-.198.1-.42.1-.662 0-.21-.036-.403-.11-.582-.074-.18-.18-.332-.317-.46-.138-.13-.306-.23-.504-.304-.198-.074-.418-.11-.66-.11-.523 0-1.067.108-1.63.328-.564.22-1.098.55-1.6.996V.937c.516-.31 1.08-.543 1.69-.7.61-.154 1.242-.23 1.893-.23.623 0 1.203.068 1.74.206.537.138 1.005.356 1.405.653.4.297.71.676.936 1.138.226.462.338 1.017.338 1.664 0 .412-.047.785-.14 1.12-.095.332-.232.648-.414.945zm-3.956 5.92c.53 0 .97.157 1.32.474.348.31.522.705.522 1.184 0 .487-.17.888-.513 1.205-.35.317-.792.476-1.33.476-.536 0-.982-.16-1.338-.485-.357-.337-.534-.735-.534-1.194 0-.47.177-.865.533-1.183.355-.317.8-.475 1.338-.475z" fill-rule="evenodd"/></symbol><symbol id="timeline-event-ticket" viewBox="0 0 5 9"><path d="M2.707 6.1c-.043-.067-.077-.15-.103-.246-.025-.098-.038-.194-.038-.288 0-.136.018-.258.053-.366.034-.107.086-.21.154-.305.07-.095.155-.192.258-.29.104-.097.224-.203.36-.316.204-.17.383-.332.54-.49.156-.158.287-.323.392-.495.106-.172.186-.355.24-.548.055-.194.082-.41.082-.648 0-.376-.065-.697-.196-.965-.13-.267-.312-.487-.545-.66C3.673.316 3.4.19 3.088.11c-.313-.08-.65-.12-1.014-.12-.38 0-.746.045-1.1.135-.357.09-.685.225-.986.404V2.29c.293-.257.604-.45.932-.576.328-.127.644-.19.95-.19.14 0 .268.02.383.064.115.043.213.1.293.176.08.074.14.163.184.266.043.104.065.216.065.337 0 .14-.02.27-.06.384-.038.116-.096.227-.174.335-.078.107-.172.215-.284.322-.11.108-.24.224-.39.35-.14.116-.263.234-.368.353-.106.12-.194.244-.264.375-.07.13-.123.27-.158.42-.036.148-.053.312-.053.49 0 .115.01.235.032.362s.052.24.09.343h1.542zm.088 2.29c.2-.183.3-.415.3-.697 0-.277-.103-.506-.306-.685-.204-.184-.46-.276-.77-.276s-.57.092-.778.276c-.207.183-.31.412-.31.685 0 .266.103.496.31.692.207.187.467.28.78.28.312 0 .57-.09.773-.274z" fill-rule="evenodd"/></symbol><symbol id="user-favourites" viewBox="0 0 30 24"><path d="M14.993 5.68C11.11-3.337.07-1.234-.002 9.23c-.042 6.05 15.018 14.767 15.018 14.767s15.028-8.82 14.986-14.828C29.93-1.32 18.698-2.98 14.992 5.68z" id="path-1" fill-rule="evenodd"/></symbol><symbol id="user-feed" viewBox="0 0 26 23"><path d="M0 23v-5h26v5H0zM0 9h26v5H0V9zm0-9h26v5H0V0z" id="path-1" fill-rule="evenodd"/></symbol><symbol id="user-liked" viewBox="0 0 26 25"><path d="M13 0l4.284 7.857 8.714 1.692-6.066 6.54 1.1 8.9L13 21.19 4.966 25l1.1-8.903L.003 9.55l8.713-1.693L13 0" id="path-1" fill-rule="evenodd"/></symbol><symbol id="user-notifications" viewBox="0 0 30 16"><path d="M28.5 16h-27C.672 16 0 15.328 0 14.5V14l10.476-4.762L14 11h2l3.524-1.762L30 14v.5c0 .828-.672 1.5-1.5 1.5zM30 4v9l-9-4.5L30 4zM13 9L0 2v-.5C0 .672.672 0 1.5 0h27c.828 0 1.5.672 1.5 1.5V2L17 9h-4zM0 13V4l9 4.5L0 13z" id="path-1" fill-rule="evenodd"/></symbol><symbol id="user-tickets" viewBox="0 0 13 22"><path d="M6.79 15.276c-.106-.166-.192-.37-.255-.615-.064-.24-.095-.48-.095-.71 0-.34.044-.645.132-.913.088-.27.217-.523.388-.762.17-.24.386-.48.644-.724.26-.243.56-.507.9-.79.51-.42.958-.83 1.35-1.223.39-.398.717-.81.98-1.24.264-.43.464-.887.6-1.37.138-.484.206-1.024.206-1.62 0-.937-.164-1.74-.49-2.41-.328-.668-.782-1.217-1.363-1.647C9.207.81 8.525.5 7.744.3 6.962.1 6.118 0 5.21 0c-.95 0-1.867.11-2.755.336-.89.224-1.71.562-2.46 1.01v4.41c.73-.645 1.507-1.126 2.328-1.443.82-.317 1.61-.476 2.373-.476.35 0 .67.054.96.16.287.108.53.255.732.44.2.186.352.408.46.667.107.26.16.54.16.842 0 .352-.048.672-.145.96-.098.288-.244.566-.44.834-.195.268-.432.537-.71.805-.28.27-.603.56-.974.872-.35.293-.66.588-.93.886-.265.298-.485.61-.66.938-.176.33-.308.68-.396 1.05-.088.37-.13.78-.13 1.23 0 .29.026.59.08.9.053.32.13.61.227.86h3.85zm.22 5.728c.5-.46.748-1.04.748-1.744 0-.693-.254-1.264-.76-1.713-.51-.46-1.15-.69-1.92-.69-.782 0-1.43.23-1.95.69-.516.46-.775 1.03-.775 1.713 0 .665.26 1.24.776 1.73.51.468 1.16.702 1.94.702s1.424-.23 1.932-.688z" id="path-1" fill-rule="evenodd"/></symbol></svg>