<svg xmlns="http://www.w3.org/2000/svg" xmlns:xlink="http://www.w3.org/1999/xlink" preserveAspectRatio="xMidYMid" width="16" height="16" viewBox="0 0 16 16">
  <g id="actionsvg">
    <circle cx="8" cy="8" r="8"/>
    <path d="M6.410,6.923 C6.782,6.499 6.968,5.928 6.968,5.209 C6.968,4.509 6.800,3.966 6.463,3.580 C6.127,3.194 5.660,3.000 5.063,3.000 C4.439,3.000 3.940,3.214 3.566,3.641 C3.192,4.068 3.005,4.645 3.005,5.373 C3.005,6.040 3.181,6.571 3.532,6.965 C3.884,7.359 4.347,7.557 4.922,7.557 C5.542,7.557 6.038,7.345 6.410,6.923 ZM5.790,5.263 C5.790,6.077 5.523,6.483 4.989,6.483 C4.467,6.483 4.206,6.093 4.206,5.312 C4.206,4.487 4.480,4.074 5.029,4.074 C5.536,4.074 5.790,4.470 5.790,5.263 C5.790,5.263 5.790,5.263 5.790,5.263 ZM9.437,3.123 C9.437,3.123 4.183,11.869 4.183,11.869 C4.183,11.869 5.559,11.869 5.559,11.869 C5.559,11.869 10.823,3.123 10.823,3.123 C10.823,3.123 9.437,3.123 9.437,3.123 ZM11.443,11.351 C11.815,10.924 12.001,10.350 12.001,9.631 C12.001,8.931 11.834,8.390 11.500,8.008 C11.165,7.626 10.697,7.435 10.096,7.435 C9.472,7.435 8.973,7.648 8.600,8.075 C8.226,8.502 8.039,9.080 8.039,9.807 C8.039,10.475 8.214,11.005 8.566,11.399 C8.917,11.794 9.380,11.991 9.955,11.991 C10.575,11.991 11.071,11.778 11.443,11.351 ZM10.609,8.819 C10.752,9.027 10.823,9.320 10.823,9.698 C10.823,10.511 10.556,10.918 10.023,10.918 C9.493,10.918 9.228,10.527 9.228,9.747 C9.228,8.921 9.500,8.508 10.045,8.508 C10.278,8.508 10.466,8.612 10.609,8.819 Z" fill="#fff" fill-rule="evenodd"/>
  </g>
</svg>
