<svg xmlns="http://www.w3.org/2000/svg" xmlns:xlink="http://www.w3.org/1999/xlink" preserveAspectRatio="xMidYMid" width="22" height="22" viewBox="0 0 22 22">
  <path d="M11.000,0.999 C11.000,0.999 14.295,7.285 14.295,7.285 C14.295,7.285 20.999,8.639 20.999,8.639 C20.999,8.639 16.333,13.877 16.333,13.877 C16.333,13.877 17.179,20.999 17.179,20.999 C17.179,20.999 11.000,17.951 11.000,17.951 C11.000,17.951 4.820,20.999 4.820,20.999 C4.820,20.999 5.667,13.877 5.667,13.877 C5.667,13.877 1.001,8.639 1.001,8.639 C1.001,8.639 7.704,7.285 7.704,7.285 C7.704,7.285 11.000,0.999 11.000,0.999 " id="path-1" stroke="currentColor" fill-rule="evenodd"/>
</svg>
