<svg xmlns="http://www.w3.org/2000/svg" xmlns:xlink="http://www.w3.org/1999/xlink" preserveAspectRatio="xMidYMid" width="16" height="16" viewBox="0 0 16 16">
  <g id="couponsvg">
    <circle id="circle-1" fill="#21a5d6" cx="8" cy="8" r="8"/>
    <path d="M7.853,11.388 C7.853,11.388 3.611,11.388 3.611,11.388 C3.611,11.388 3.611,7.146 3.611,7.146 C3.611,7.146 8.268,2.489 8.268,2.489 C8.268,2.489 12.510,6.732 12.510,6.732 C12.510,6.732 7.853,11.388 7.853,11.388 ZM6.439,8.560 C6.049,8.169 5.415,8.169 5.025,8.560 C4.634,8.950 4.634,9.584 5.025,9.974 C5.415,10.365 6.049,10.365 6.439,9.974 C6.830,9.584 6.830,8.950 6.439,8.560 Z" id="path-1" fill="#fff" fill-rule="evenodd"/>
  </g>
</svg>
