<svg xmlns="http://www.w3.org/2000/svg" xmlns:xlink="http://www.w3.org/1999/xlink" preserveAspectRatio="xMidYMid" width="14" height="13" viewBox="0 0 14 13">
  <path d="M12.189,8.356 C11.541,8.866 10.855,12.567 10.855,12.567 C10.855,12.567 8.017,10.000 7.000,10.000 C3.134,10.000 -0.000,7.761 -0.000,5.000 C-0.000,2.238 3.134,-0.000 7.000,-0.000 C10.866,-0.000 14.000,2.238 14.000,5.000 C14.000,6.291 13.314,7.468 12.189,8.356 ZM7.000,2.000 C4.239,2.000 2.000,3.343 2.000,5.000 C2.000,6.657 4.239,8.000 7.000,8.000 C9.761,8.000 12.000,6.657 12.000,5.000 C12.000,3.343 9.761,2.000 7.000,2.000 Z" id="path-1" fill-rule="evenodd"/>
</svg>
