<svg xmlns="http://www.w3.org/2000/svg" xmlns:xlink="http://www.w3.org/1999/xlink" preserveAspectRatio="xMidYMid" width="13" height="13" viewBox="0 0 13 13">
  <g id="coupon-sharesvg">
    <path d="M10.500,5.000 C9.729,5.000 9.049,4.644 8.590,4.096 C8.590,4.096 5.772,5.857 5.772,5.857 C5.917,6.210 6.000,6.595 6.000,7.000 C6.000,7.363 5.926,7.706 5.807,8.028 C5.807,8.028 8.569,9.606 8.569,9.606 C8.932,9.233 9.438,9.000 10.000,9.000 C11.105,9.000 12.000,9.895 12.000,11.000 C12.000,12.105 11.105,13.000 10.000,13.000 C8.895,13.000 8.000,12.105 8.000,11.000 C8.000,10.818 8.032,10.645 8.078,10.477 C8.078,10.477 5.308,8.895 5.308,8.895 C4.758,9.564 3.934,10.000 3.000,10.000 C1.343,10.000 -0.000,8.657 -0.000,7.000 C-0.000,5.343 1.343,4.000 3.000,4.000 C3.892,4.000 4.684,4.397 5.233,5.014 C5.233,5.014 8.116,3.213 8.116,3.213 C8.048,2.986 8.000,2.749 8.000,2.500 C8.000,1.119 9.119,-0.000 10.500,-0.000 C11.881,-0.000 13.000,1.119 13.000,2.500 C13.000,3.881 11.881,5.000 10.500,5.000 Z" fill-rule="evenodd"/>
  </g>
</svg>
