<svg xmlns="http://www.w3.org/2000/svg" xmlns:xlink="http://www.w3.org/1999/xlink" preserveAspectRatio="xMidYMid" width="20" height="20" viewBox="0 0 20 20">
  <path d="M19.000,20.000 C19.000,20.000 1.000,20.000 1.000,20.000 C0.448,20.000 -0.000,19.552 -0.000,19.000 C-0.000,19.000 -0.000,6.000 -0.000,6.000 C-0.000,5.447 0.448,4.000 1.000,4.000 C1.000,4.000 9.094,-0.000 9.094,-0.000 C9.094,-0.000 11.000,-0.000 11.000,-0.000 C11.000,-0.000 19.000,4.000 19.000,4.000 C19.552,4.000 20.000,5.447 20.000,6.000 C20.000,6.000 20.000,19.000 20.000,19.000 C20.000,19.552 19.552,20.000 19.000,20.000 ZM17.000,19.000 C17.000,19.000 11.000,14.000 11.000,14.000 C11.000,14.000 9.000,14.000 9.000,14.000 C9.000,14.000 3.000,19.000 3.000,19.000 C3.000,19.000 17.000,19.000 17.000,19.000 ZM1.000,18.000 C1.000,18.000 8.000,14.000 8.000,14.000 C8.000,14.000 1.000,9.000 1.000,9.000 C1.000,9.000 1.000,18.000 1.000,18.000 ZM18.000,5.000 C18.000,5.000 11.000,1.000 11.000,1.000 C11.000,1.000 9.000,1.000 9.000,1.000 C9.000,1.000 2.000,5.000 2.000,5.000 C2.000,5.000 1.000,8.000 1.000,8.000 C1.000,8.000 4.429,10.143 4.429,10.143 C4.429,10.143 3.000,9.000 3.000,9.000 C3.000,9.000 17.400,9.000 17.400,9.000 C17.400,9.000 19.000,8.000 19.000,8.000 C19.000,8.000 18.000,5.000 18.000,5.000 ZM16.667,10.666 C16.667,10.666 12.000,14.000 12.000,14.000 C12.000,14.000 19.000,18.000 19.000,18.000 C19.000,18.000 19.000,9.500 19.000,9.500 C19.000,9.500 16.667,10.666 16.667,10.666 Z" id="path-1" fill-rule="evenodd"/>
</svg>
