<svg xmlns="http://www.w3.org/2000/svg" xmlns:xlink="http://www.w3.org/1999/xlink" preserveAspectRatio="xMidYMid" width="11" height="20" viewBox="0 0 11 20">
	<path d="M10.000,20.000 C10.000,20.000 1.000,20.000 1.000,20.000 C0.448,20.000 -0.000,19.552 -0.000,19.000 C-0.000,19.000 -0.000,1.000 -0.000,1.000 C-0.000,0.448 0.448,-0.000 1.000,-0.000 C1.000,-0.000 10.000,-0.000 10.000,-0.000 C10.552,-0.000 11.000,0.448 11.000,1.000 C11.000,1.000 11.000,19.000 11.000,19.000 C11.000,19.552 10.552,20.000 10.000,20.000 ZM5.500,19.000 C6.328,19.000 7.000,18.828 7.000,18.000 C7.000,17.171 6.328,17.000 5.500,17.000 C4.671,17.000 4.000,17.171 4.000,18.000 C4.000,18.828 4.671,19.000 5.500,19.000 ZM7.500,1.000 C7.500,1.000 3.500,1.000 3.500,1.000 C3.224,1.000 3.000,1.224 3.000,1.500 C3.000,1.776 3.224,2.000 3.500,2.000 C3.500,2.000 7.500,2.000 7.500,2.000 C7.776,2.000 8.000,1.776 8.000,1.500 C8.000,1.224 7.776,1.000 7.500,1.000 ZM10.000,4.000 C10.000,3.448 9.552,3.000 9.000,3.000 C9.000,3.000 2.000,3.000 2.000,3.000 C1.448,3.000 1.000,3.448 1.000,4.000 C1.000,4.000 1.000,15.000 1.000,15.000 C1.000,15.552 1.448,16.000 2.000,16.000 C2.000,16.000 9.000,16.000 9.000,16.000 C9.552,16.000 10.000,15.552 10.000,15.000 C10.000,15.000 10.000,4.000 10.000,4.000 Z" id="path-1" fill-rule="evenodd"/>
</svg>
