<svg xmlns="http://www.w3.org/2000/svg" xmlns:xlink="http://www.w3.org/1999/xlink" preserveAspectRatio="xMidYMid" width="16" height="16" viewBox="0 0 16 16">
  <g id="parsvg">
    <circle id="circle-1" fill="#ee4f4f" cx="8" cy="8" r="8"/>
    <path d="M12.000,7.000 C12.000,7.000 11.000,7.000 11.000,7.000 C11.000,7.000 11.000,11.000 11.000,11.000 C11.000,11.000 5.000,11.000 5.000,11.000 C5.000,11.000 5.000,7.000 5.000,7.000 C5.000,7.000 4.000,7.000 4.000,7.000 C4.000,7.000 4.000,5.000 4.000,5.000 C4.000,5.000 8.000,5.000 8.000,5.000 C8.000,5.000 12.000,5.000 12.000,5.000 C12.000,5.000 12.000,7.000 12.000,7.000 ZM10.000,7.000 C10.000,7.000 9.000,7.000 9.000,7.000 C9.000,7.000 8.000,10.000 8.000,10.000 C8.000,10.000 7.000,7.000 7.000,7.000 C7.000,7.000 6.000,7.000 6.000,7.000 C6.000,7.000 6.000,10.000 6.000,10.000 C6.000,10.000 10.000,10.000 10.000,10.000 C10.000,10.000 10.000,7.000 10.000,7.000 ZM6.000,4.000 C6.000,3.448 6.895,3.000 8.000,3.000 C9.105,3.000 10.000,3.448 10.000,4.000 C10.000,4.552 9.105,5.000 8.000,5.000 C6.895,5.000 6.000,4.552 6.000,4.000 Z" id="path-1" fill="#ffffff" fill-rule="evenodd"/>
  </g>
</svg>
