<svg xmlns="http://www.w3.org/2000/svg" xmlns:xlink="http://www.w3.org/1999/xlink" preserveAspectRatio="xMidYMid" width="48" height="48" viewBox="0 0 48 48">
  <g id="type-gift-same-shopsvg">
    <path d="M44.999,26.926 C44.999,26.926 44.999,47.245 44.999,47.245 C44.999,47.245 26.999,47.245 26.999,47.245 C26.999,47.245 20.249,47.245 20.249,47.245 C20.249,47.245 2.249,47.245 2.249,47.245 C2.249,47.245 2.249,26.926 2.249,26.926 C2.249,26.926 -0.001,26.926 -0.001,26.926 C-0.001,26.926 -0.001,24.745 -0.001,24.745 C-0.001,24.745 -0.001,22.496 -0.001,22.496 C-0.001,22.496 -0.001,13.496 -0.001,13.496 C-0.001,13.496 20.249,13.496 20.249,13.496 C20.249,13.496 26.999,13.496 26.999,13.496 C26.999,13.496 47.250,13.496 47.250,13.496 C47.250,13.496 47.250,22.496 47.250,22.496 C47.250,22.496 47.250,24.745 47.250,24.745 C47.250,24.745 47.250,27.066 47.250,27.066 C47.250,27.066 44.999,26.926 44.999,26.926 ZM26.999,42.746 C26.999,42.746 40.499,42.746 40.499,42.746 C40.499,42.746 40.499,24.745 40.499,24.745 C40.499,24.745 26.999,24.745 26.999,24.745 C26.999,24.745 26.999,42.746 26.999,42.746 ZM6.749,24.817 C6.749,24.817 6.749,42.746 6.749,42.746 C6.749,42.746 20.249,42.746 20.249,42.746 C20.249,42.746 20.249,24.745 20.249,24.745 C20.249,24.745 5.602,24.745 5.602,24.745 C5.602,24.745 6.749,24.817 6.749,24.817 ZM4.499,17.997 C4.499,17.997 4.499,22.496 4.499,22.496 C4.499,22.496 20.249,22.496 20.249,22.496 C20.249,22.496 20.249,17.997 20.249,17.997 C20.249,17.997 4.499,17.997 4.499,17.997 ZM42.749,17.997 C42.749,17.997 26.999,17.997 26.999,17.997 C26.999,17.997 26.999,22.496 26.999,22.496 C26.999,22.496 40.499,22.496 40.499,22.496 C40.499,22.496 42.749,22.496 42.749,22.496 C42.749,22.496 42.749,17.997 42.749,17.997 Z" fill-rule="evenodd"/>
    <path d="M38.249,11.246 C33.749,13.284 24.749,13.496 24.749,13.496 C24.749,13.496 25.382,7.589 31.499,2.246 C37.616,-3.097 42.749,9.207 38.249,11.246 ZM29.999,7.223 C27.281,9.134 26.999,11.246 26.999,11.246 C26.999,11.246 30.999,11.170 32.999,10.441 C34.999,9.712 32.718,5.313 29.999,7.223 Z" fill-rule="evenodd"/>
    <path d="M10.749,11.082 C6.083,8.895 11.406,-4.303 17.749,1.429 C24.093,7.161 24.749,13.496 24.749,13.496 C24.749,13.496 15.416,13.270 10.749,11.082 ZM19.305,6.768 C16.486,4.719 14.120,9.438 16.194,10.220 C18.268,11.002 22.416,11.082 22.416,11.082 C22.416,11.082 22.124,8.817 19.305,6.768 Z" fill-rule="evenodd"/>
  </g>
</svg>
