<svg xmlns="http://www.w3.org/2000/svg" xmlns:xlink="http://www.w3.org/1999/xlink" preserveAspectRatio="xMidYMid" width="54" height="31" viewBox="0 0 54 31">
  <path d="M50.328,25.184 C49.890,22.133 47.272,19.784 44.100,19.784 C40.926,19.784 38.309,22.133 37.871,25.184 C37.871,25.184 34.199,25.184 34.199,25.184 C34.199,25.184 32.400,25.184 32.400,25.184 C32.400,25.184 30.599,25.184 30.599,25.184 C30.599,25.184 28.799,25.184 28.799,25.184 C28.799,25.184 16.128,25.184 16.128,25.184 C15.690,22.133 13.072,19.784 9.899,19.784 C6.727,19.784 4.109,22.133 3.671,25.184 C3.671,25.184 -0.001,25.184 -0.001,25.184 C-0.001,25.184 -0.001,21.584 -0.001,21.584 C-0.001,21.584 1.799,21.584 1.799,21.584 C1.799,21.584 1.799,-0.016 1.799,-0.016 C1.799,-0.016 30.599,-0.016 30.599,-0.016 C30.599,-0.016 30.599,21.584 30.599,21.584 C30.599,21.584 32.400,21.584 32.400,21.584 C32.400,21.584 32.400,3.584 32.400,3.584 C32.400,3.584 41.399,3.584 41.399,3.584 C41.399,3.584 52.199,16.484 52.199,16.484 C52.199,16.484 52.199,21.584 52.199,21.584 C52.199,21.584 53.999,21.584 53.999,21.584 C53.999,21.584 53.999,25.184 53.999,25.184 C53.999,25.184 50.328,25.184 50.328,25.184 ZM39.599,7.184 C39.599,7.184 34.199,7.184 34.199,7.184 C34.199,7.184 34.199,16.184 34.199,16.184 C34.199,16.184 46.799,16.184 46.799,16.184 C46.799,16.184 39.599,7.184 39.599,7.184 ZM9.899,21.584 C12.385,21.584 14.399,23.599 14.399,26.084 C14.399,28.569 12.385,30.584 9.899,30.584 C7.414,30.584 5.400,28.569 5.400,26.084 C5.400,23.599 7.414,21.584 9.899,21.584 ZM44.100,21.584 C46.585,21.584 48.599,23.599 48.599,26.084 C48.599,28.569 46.585,30.584 44.100,30.584 C41.614,30.584 39.599,28.569 39.599,26.084 C39.599,23.599 41.614,21.584 44.100,21.584 Z" fill-rule="evenodd"/>
</svg>
