<svg xmlns="http://www.w3.org/2000/svg" xmlns:xlink="http://www.w3.org/1999/xlink" preserveAspectRatio="xMidYMid" width="61" height="54" viewBox="0 0 61 54">
  <g id="type-cashback-same-shopsvg">
    <path d="M52.328,13.200 C52.328,13.200 53.851,12.791 53.851,12.791 C53.851,12.791 55.374,18.475 55.374,18.475 C55.374,18.475 52.328,13.200 52.328,13.200 ZM28.680,44.694 C28.680,44.694 54.250,29.931 54.250,29.931 C54.250,29.931 56.228,37.313 56.228,37.313 C56.228,37.313 28.680,44.694 28.680,44.694 ZM12.111,44.791 C12.111,44.791 13.720,50.799 13.720,50.799 C13.720,50.799 15.330,50.368 15.330,50.368 C15.330,50.368 16.211,51.893 16.211,51.893 C16.211,51.893 21.904,48.606 21.904,48.606 C21.904,48.606 58.708,38.745 58.708,38.745 C58.708,38.745 56.066,28.882 56.066,28.882 C56.066,28.882 57.882,27.834 57.882,27.834 C57.882,27.834 61.188,40.176 61.188,40.176 C61.188,40.176 12.288,53.279 12.288,53.279 C12.288,53.279 8.198,38.015 8.198,38.015 C8.198,38.015 12.111,44.791 12.111,44.791 Z" id="path-1" class="cls-3" fill-rule="evenodd"/>
    <path d="M14.186,49.867 C14.186,49.867 0.011,25.316 0.011,25.316 C0.011,25.316 43.853,0.003 43.853,0.003 C43.853,0.003 58.028,24.555 58.028,24.555 C58.028,24.555 14.186,49.867 14.186,49.867 ZM43.112,2.769 C43.112,2.769 2.777,26.057 2.777,26.057 C2.777,26.057 3.790,27.811 3.790,27.811 C3.790,27.811 3.790,27.811 3.790,27.811 C3.790,27.811 14.927,47.102 14.927,47.102 C14.927,47.102 16.681,46.089 16.681,46.089 C16.681,46.089 16.681,46.089 16.681,46.089 C16.681,46.089 53.508,24.826 53.508,24.826 C53.508,24.826 53.508,24.826 53.508,24.826 C53.508,24.826 55.262,23.813 55.262,23.813 C55.262,23.813 44.125,4.523 44.125,4.523 C44.125,4.523 44.125,4.523 44.125,4.523 C44.125,4.523 43.112,2.769 43.112,2.769 ZM52.496,23.073 C52.496,23.073 15.668,44.336 15.668,44.336 C15.668,44.336 5.543,26.798 5.543,26.798 C5.543,26.798 42.371,5.535 42.371,5.535 C42.371,5.535 52.496,23.073 52.496,23.073 ZM25.105,20.181 C22.200,21.859 21.204,25.574 22.882,28.480 C24.559,31.385 28.275,32.381 31.180,30.703 C34.086,29.025 35.081,25.310 33.404,22.405 C31.726,19.499 28.011,18.504 25.105,20.181 Z" fill-rule="evenodd"/>
  </g>
</svg>
