<svg xmlns="http://www.w3.org/2000/svg" xmlns:xlink="http://www.w3.org/1999/xlink" preserveAspectRatio="xMidYMid" width="40" height="58" viewBox="0 0 40 58">
  <defs>
    <style>

      .cls-4 {
        fill: #000000;
        opacity: 0.25;
      }

      .cls-5 {
        fill: url(#linear-gradient-1);
      }

      .cls-6 {
        fill: url(#linear-gradient-2);
      }

      .cls-7 {
        fill: #ffffff;
      }
    </style>

    <linearGradient id="linear-gradient-1" gradientUnits="userSpaceOnUse" x1="20" y1="56" x2="20" y2="0">
      <stop offset="0" stop-color="#f87501"/>
      <stop offset="0.88" stop-color="#f88d1a"/>
      <stop offset="1" stop-color="#ffa800"/>
    </linearGradient>
    <linearGradient id="linear-gradient-2" gradientUnits="userSpaceOnUse" x1="20" y1="56" x2="20" y2="46">
      <stop offset="0" stop-color="#ffb400"/>
      <stop offset="1" stop-color="#f8b11a"/>
    </linearGradient>
  </defs>
  <g id="freesvg">
    <g id="bg">
      <path d="M-0.000,1.999 C-0.000,1.999 40.000,1.999 40.000,1.999 C40.000,1.999 40.000,57.999 40.000,57.999 C40.000,57.999 20.000,52.999 20.000,52.999 C20.000,52.999 -0.000,57.999 -0.000,57.999 C-0.000,57.999 -0.000,1.999 -0.000,1.999 Z" id="path-1" class="cls-4" fill-rule="evenodd"/>
      <path d="M-0.000,-0.001 C-0.000,-0.001 40.000,-0.001 40.000,-0.001 C40.000,-0.001 40.000,55.999 40.000,55.999 C40.000,55.999 20.000,50.999 20.000,50.999 C20.000,50.999 -0.000,55.999 -0.000,55.999 C-0.000,55.999 -0.000,-0.001 -0.000,-0.001 Z" id="path-2" class="cls-5" fill-rule="evenodd"/>
      <path d="M-0.000,51.999 C-0.000,51.999 20.000,45.999 20.000,45.999 C20.000,45.999 40.000,51.999 40.000,51.999 C40.000,51.999 40.000,55.999 40.000,55.999 C40.000,55.999 20.000,50.999 20.000,50.999 C20.000,50.999 -0.000,55.999 -0.000,55.999 C-0.000,55.999 -0.000,51.999 -0.000,51.999 Z" id="path-3" class="cls-6" fill-rule="evenodd"/>
    </g>
    <path d="M23.000,34.999 C23.000,34.999 9.000,34.999 9.000,34.999 C7.343,34.999 6.000,33.655 6.000,31.998 C6.000,31.998 6.000,17.999 6.000,17.999 C6.000,16.342 7.343,14.998 9.000,14.998 C9.000,14.998 23.000,14.998 23.000,14.998 C26.554,14.998 35.191,23.019 35.191,24.769 C35.191,26.519 26.485,34.999 23.000,34.999 ZM11.000,16.999 C8.791,16.999 8.000,18.790 8.000,20.998 C8.000,23.208 8.791,24.998 11.000,24.998 C13.209,24.998 14.000,23.208 14.000,20.998 C14.000,18.790 13.209,16.999 11.000,16.999 ZM18.117,17.528 C18.117,17.528 10.117,32.528 10.117,32.528 C10.117,32.528 11.882,33.469 11.882,33.469 C11.882,33.469 19.882,18.469 19.882,18.469 C19.882,18.469 18.117,17.528 18.117,17.528 ZM20.000,24.998 C17.791,24.998 17.000,26.789 17.000,28.999 C17.000,31.207 17.791,32.999 20.000,32.999 C22.209,32.999 23.000,31.207 23.000,28.999 C23.000,26.789 22.209,24.998 20.000,24.998 ZM29.500,21.999 C28.119,21.999 27.000,23.118 27.000,24.499 C27.000,25.879 28.119,26.999 29.500,26.999 C30.880,26.999 32.000,25.879 32.000,24.499 C32.000,23.118 30.880,21.999 29.500,21.999 ZM20.000,30.993 C18.898,30.993 19.005,30.100 19.005,28.999 C19.005,27.897 18.898,27.004 20.000,27.004 C21.101,27.004 20.994,27.897 20.994,28.999 C20.994,30.100 21.101,30.993 20.000,30.993 ZM11.000,22.993 C9.898,22.993 10.005,22.100 10.005,20.998 C10.005,19.897 9.898,19.004 11.000,19.004 C12.101,19.004 11.994,19.897 11.994,20.998 C11.994,22.100 12.101,22.993 11.000,22.993 Z" id="path-4" class="cls-7" fill-rule="evenodd"/>
  </g>
</svg>
