<svg xmlns="http://www.w3.org/2000/svg" xmlns:xlink="http://www.w3.org/1999/xlink" preserveAspectRatio="xMidYMid" width="50" height="34" viewBox="0 0 50 34">
  <path d="M28.699,33.746 C28.699,33.746 5.073,33.746 5.073,33.746 C2.278,33.746 0.011,31.480 0.011,28.684 C0.011,28.684 0.011,5.060 0.011,5.060 C0.011,2.263 2.278,-0.003 5.073,-0.003 C5.073,-0.003 28.699,-0.003 28.699,-0.003 C34.696,-0.003 49.271,13.531 49.271,16.484 C49.271,19.437 34.579,33.746 28.699,33.746 ZM8.449,3.371 C4.721,3.371 3.386,6.394 3.386,10.122 C3.386,13.850 4.721,16.872 8.449,16.872 C12.177,16.872 13.511,13.850 13.511,10.122 C13.511,6.394 12.177,3.371 8.449,3.371 ZM20.460,4.265 C20.460,4.265 6.960,29.578 6.960,29.578 C6.960,29.578 9.937,31.166 9.937,31.166 C9.937,31.166 23.437,5.853 23.437,5.853 C23.437,5.853 20.460,4.265 20.460,4.265 ZM23.636,16.872 C19.908,16.872 18.573,19.894 18.573,23.622 C18.573,27.350 19.908,30.371 23.636,30.371 C27.364,30.371 28.699,27.350 28.699,23.622 C28.699,19.894 27.364,16.872 23.636,16.872 ZM39.667,11.809 C37.337,11.809 35.449,13.698 35.449,16.028 C35.449,18.358 37.337,20.247 39.667,20.247 C41.997,20.247 43.886,18.358 43.886,16.028 C43.886,13.698 41.997,11.809 39.667,11.809 ZM23.636,26.988 C21.777,26.988 21.957,25.482 21.957,23.622 C21.957,21.763 21.777,20.255 23.636,20.255 C25.495,20.255 25.315,21.763 25.315,23.622 C25.315,25.482 25.495,26.988 23.636,26.988 ZM8.449,13.488 C6.589,13.488 6.770,11.981 6.770,10.122 C6.770,8.262 6.589,6.756 8.449,6.756 C10.308,6.756 10.127,8.262 10.127,10.122 C10.127,11.981 10.308,13.488 8.449,13.488 Z" fill-rule="evenodd"/>
</svg>
