<svg xmlns="http://www.w3.org/2000/svg" xmlns:xlink="http://www.w3.org/1999/xlink" preserveAspectRatio="xMidYMid" width="16" height="17" viewBox="0 0 16 17">
  <path d="M14.313,7.269 C13.041,8.499 11.385,8.851 10.616,8.057 C9.848,7.262 10.256,5.622 11.529,4.393 C12.802,3.164 14.458,2.811 15.226,3.605 C15.995,4.400 15.586,6.040 14.313,7.269 ZM9.787,0.109 C8.754,-0.287 7.405,0.733 6.774,2.386 C6.142,4.038 6.467,5.699 7.500,6.094 C8.532,6.489 9.882,5.470 10.513,3.817 C11.144,2.165 10.819,0.504 9.787,0.109 ZM3.771,2.192 C2.691,2.034 1.630,3.184 1.401,4.760 C1.173,6.336 1.863,7.742 2.944,7.901 C4.024,8.059 5.085,6.909 5.313,5.333 C5.541,3.757 4.851,2.350 3.771,2.192 ZM15.280,10.102 C14.625,9.229 13.059,9.295 11.784,10.249 C10.509,11.204 10.006,12.685 10.661,13.558 C11.317,14.431 12.882,14.365 14.157,13.411 C15.433,12.456 15.935,10.975 15.280,10.102 ZM8.638,16.856 C10.367,16.339 10.156,9.945 8.066,8.609 C5.881,7.211 -0.460,10.306 0.037,12.150 C0.533,13.994 3.242,14.260 4.525,14.742 C5.808,15.222 5.969,17.655 8.638,16.856 Z" id="path-1" fill-rule="evenodd"/>
</svg>
