<svg xmlns="http://www.w3.org/2000/svg" xmlns:xlink="http://www.w3.org/1999/xlink" preserveAspectRatio="xMidYMid" width="17" height="15" viewBox="0 0 17 15">
  <path d="M15.711,5.459 C15.895,6.109 16.000,6.791 16.000,7.500 C16.000,11.642 12.642,15.000 8.500,15.000 C4.358,15.000 1.000,11.642 1.000,7.500 C1.000,6.791 1.105,6.109 1.288,5.459 C0.511,4.917 -0.000,4.019 -0.000,3.000 C-0.000,1.343 1.343,-0.000 3.000,-0.000 C3.804,-0.000 4.530,0.320 5.069,0.835 C6.098,0.305 7.262,-0.000 8.500,-0.000 C9.737,-0.000 10.902,0.305 11.931,0.835 C12.469,0.320 13.196,-0.000 14.000,-0.000 C15.657,-0.000 17.000,1.343 17.000,3.000 C17.000,4.019 16.489,4.917 15.711,5.459 ZM5.500,4.000 C4.671,4.000 4.000,4.671 4.000,5.500 C4.000,6.328 4.671,7.000 5.500,7.000 C6.328,7.000 7.000,6.328 7.000,5.500 C7.000,4.671 6.328,4.000 5.500,4.000 ZM6.000,9.500 C6.000,10.881 7.119,12.000 8.500,12.000 C9.881,12.000 11.000,10.881 11.000,9.500 C11.000,8.119 9.881,7.000 8.500,7.000 C7.119,7.000 6.000,8.119 6.000,9.500 ZM11.500,4.000 C10.671,4.000 10.000,4.671 10.000,5.500 C10.000,6.328 10.671,7.000 11.500,7.000 C12.328,7.000 13.000,6.328 13.000,5.500 C13.000,4.671 12.328,4.000 11.500,4.000 Z" id="path-1" fill-rule="evenodd"/>
</svg>
