<svg xmlns="http://www.w3.org/2000/svg" xmlns:xlink="http://www.w3.org/1999/xlink" preserveAspectRatio="xMidYMid" width="13" height="19" viewBox="0 0 13 19">
  <path d="M6.500,16.000 C2.910,16.000 -0.000,13.090 -0.000,9.500 C-0.000,5.910 2.910,3.000 6.500,3.000 C10.090,3.000 13.000,5.910 13.000,9.500 C13.000,13.090 10.090,16.000 6.500,16.000 ZM6.500,4.143 C3.541,4.143 1.143,6.541 1.143,9.500 C1.143,12.458 3.541,14.857 6.500,14.857 C9.459,14.857 11.857,12.458 11.857,9.500 C11.857,6.541 9.459,4.143 6.500,4.143 ZM2.464,6.293 C2.464,6.293 3.171,5.586 3.171,5.586 C3.171,5.586 6.707,9.121 6.707,9.121 C6.707,9.121 8.828,7.000 8.828,7.000 C8.828,7.000 9.535,7.707 9.535,7.707 C9.535,7.707 6.707,10.535 6.707,10.535 C6.707,10.535 2.464,6.293 2.464,6.293 ZM3.000,3.000 C3.000,3.000 3.000,-0.000 3.000,-0.000 C3.000,-0.000 10.000,-0.000 10.000,-0.000 C10.000,-0.000 10.000,3.000 10.000,3.000 C10.000,3.000 8.250,2.000 6.500,2.000 C4.750,2.000 3.000,3.000 3.000,3.000 ZM10.000,16.000 C10.000,16.000 10.000,19.000 10.000,19.000 C10.000,19.000 3.000,19.000 3.000,19.000 C3.000,19.000 3.000,16.000 3.000,16.000 C3.000,16.000 4.708,17.000 6.437,17.000 C8.208,17.000 10.000,16.000 10.000,16.000 Z" id="path-1" fill-rule="evenodd"/>
</svg>
