<svg xmlns="http://www.w3.org/2000/svg" xmlns:xlink="http://www.w3.org/1999/xlink" preserveAspectRatio="xMidYMid" width="22" height="16" viewBox="0 0 22 16">
  <path d="M22.000,4.459 C22.000,4.459 22.000,8.918 22.000,8.918 C22.000,8.918 21.457,8.918 21.457,8.918 C21.457,8.918 21.457,15.738 21.457,15.738 C21.457,15.738 6.519,15.738 6.519,15.738 C6.519,15.738 6.519,13.115 6.519,13.115 C6.519,13.115 8.148,13.115 8.148,13.115 C8.148,13.115 8.148,14.164 8.148,14.164 C8.148,14.164 13.037,14.164 13.037,14.164 C13.037,14.164 13.037,8.393 13.037,8.393 C13.037,8.393 8.148,8.393 8.148,8.393 C8.148,8.393 8.148,10.230 8.148,10.230 C8.148,10.230 6.519,10.230 6.519,10.230 C6.519,10.230 6.519,8.918 6.519,8.918 C6.519,8.918 5.975,8.918 5.975,8.918 C5.975,8.918 5.975,4.495 5.975,4.495 C5.975,4.495 12.959,4.495 12.959,4.495 C12.959,4.495 14.511,4.495 14.511,4.495 C14.511,4.495 15.287,4.495 15.287,4.495 C15.287,4.495 22.000,4.459 22.000,4.459 ZM13.037,6.033 C13.037,6.033 7.333,6.033 7.333,6.033 C7.333,6.033 7.333,7.606 7.333,7.606 C7.333,7.606 13.037,7.606 13.037,7.606 C13.037,7.606 13.037,6.033 13.037,6.033 ZM15.210,14.164 C15.210,14.164 19.827,14.164 19.827,14.164 C19.827,14.164 19.827,8.393 19.827,8.393 C19.827,8.393 15.210,8.393 15.210,8.393 C15.210,8.393 15.210,14.164 15.210,14.164 ZM15.210,7.606 C15.210,7.606 20.642,7.606 20.642,7.606 C20.642,7.606 20.642,6.033 20.642,6.033 C20.642,6.033 15.210,6.033 15.210,6.033 C15.210,6.033 15.210,7.606 15.210,7.606 ZM12.097,0.476 C14.285,2.385 14.511,4.495 14.511,4.495 C14.511,4.495 11.292,4.420 9.683,3.692 C8.073,2.963 9.909,-1.433 12.097,0.476 ZM11.560,3.404 C12.276,3.664 13.707,3.692 13.707,3.692 C13.707,3.692 13.606,2.937 12.634,2.255 C11.661,1.572 10.845,3.144 11.560,3.404 ZM19.167,3.746 C17.615,4.425 14.511,4.495 14.511,4.495 C14.511,4.495 14.730,2.528 16.839,0.749 C18.949,-1.031 20.719,3.067 19.167,3.746 ZM16.322,2.406 C15.384,3.043 15.287,3.746 15.287,3.746 C15.287,3.746 16.667,3.721 17.357,3.478 C18.046,3.235 17.260,1.770 16.322,2.406 ZM8.963,11.016 C8.963,11.016 8.963,12.328 8.963,12.328 C8.963,12.328 5.160,12.328 5.160,12.328 C5.160,12.328 5.160,16.000 5.160,16.000 C5.160,16.000 3.802,16.000 3.802,16.000 C3.802,16.000 3.802,12.328 3.802,12.328 C3.802,12.328 0.000,12.328 0.000,12.328 C0.000,12.328 0.000,11.016 0.000,11.016 C0.000,11.016 3.802,11.016 3.802,11.016 C3.802,11.016 3.802,7.344 3.802,7.344 C3.802,7.344 5.160,7.344 5.160,7.344 C5.160,7.344 5.160,11.016 5.160,11.016 C5.160,11.016 8.963,11.016 8.963,11.016 Z" fill-rule="evenodd"/>
</svg>
