<svg xmlns="http://www.w3.org/2000/svg" xmlns:xlink="http://www.w3.org/1999/xlink" preserveAspectRatio="xMidYMid" width="20" height="11" viewBox="0 0 20 11">
  <path d="M18.031,6.031 C18.031,6.031 18.031,7.031 18.031,7.031 C18.031,7.031 17.031,7.031 17.031,7.031 C17.031,7.031 16.431,6.431 16.431,6.431 C16.431,6.431 6.031,9.031 6.031,9.031 C6.031,9.031 18.031,9.031 18.031,9.031 C18.031,9.031 18.031,10.031 18.031,10.031 C18.031,10.031 2.031,10.031 2.031,10.031 C1.498,10.174 1.174,9.564 1.031,9.031 C1.031,9.031 0.031,5.031 0.031,5.031 C-0.112,4.498 0.498,4.174 1.031,4.031 C1.031,4.031 17.031,0.031 17.031,0.031 C17.565,-0.112 17.888,0.498 18.031,1.031 C18.031,1.031 19.031,5.031 19.031,5.031 C19.174,5.565 18.565,5.888 18.031,6.031 ZM13.884,1.553 C13.884,1.553 0.884,5.553 0.884,5.553 C0.884,5.553 1.178,6.509 1.178,6.509 C1.178,6.509 14.178,2.509 14.178,2.509 C14.178,2.509 13.884,1.553 13.884,1.553 Z" id="path-1" fill-rule="evenodd"/>
</svg>
