<svg xmlns="http://www.w3.org/2000/svg" xmlns:xlink="http://www.w3.org/1999/xlink" preserveAspectRatio="xMidYMid" width="19" height="10" viewBox="0 0 19 10">
  <path d="M17.000,9.000 C17.000,9.000 17.000,1.000 17.000,1.000 C17.000,1.000 19.000,1.000 19.000,1.000 C19.000,1.000 19.000,9.000 19.000,9.000 C19.000,9.000 17.000,9.000 17.000,9.000 ZM14.000,-0.000 C14.000,-0.000 16.000,-0.000 16.000,-0.000 C16.000,-0.000 16.000,10.000 16.000,10.000 C16.000,10.000 14.000,10.000 14.000,10.000 C14.000,10.000 14.000,-0.000 14.000,-0.000 ZM6.000,4.000 C6.000,4.000 13.000,4.000 13.000,4.000 C13.000,4.000 13.000,6.000 13.000,6.000 C13.000,6.000 6.000,6.000 6.000,6.000 C6.000,6.000 6.000,4.000 6.000,4.000 ZM3.000,-0.000 C3.000,-0.000 5.000,-0.000 5.000,-0.000 C5.000,-0.000 5.000,10.000 5.000,10.000 C5.000,10.000 3.000,10.000 3.000,10.000 C3.000,10.000 3.000,-0.000 3.000,-0.000 ZM-0.000,1.000 C-0.000,1.000 2.000,1.000 2.000,1.000 C2.000,1.000 2.000,9.000 2.000,9.000 C2.000,9.000 -0.000,9.000 -0.000,9.000 C-0.000,9.000 -0.000,1.000 -0.000,1.000 Z" id="path-1" fill-rule="evenodd"/>
</svg>
