<svg xmlns="http://www.w3.org/2000/svg" xmlns:xlink="http://www.w3.org/1999/xlink" preserveAspectRatio="xMidYMid" width="8" height="17" viewBox="0 0 8 17">
  <path d="M6.457,12.907 C5.538,13.826 4.567,14.405 4.000,14.427 C4.000,14.427 4.000,17.218 4.000,17.218 C4.000,17.218 3.000,17.218 3.000,17.218 C3.000,17.218 3.000,12.047 3.000,12.047 C2.519,11.830 1.930,11.412 1.362,10.848 C0.306,9.800 -0.265,8.666 0.087,8.317 C0.439,7.967 1.581,8.534 2.637,9.582 C2.766,9.710 2.886,9.839 3.000,9.968 C3.000,9.968 3.000,6.219 3.000,6.219 C3.000,6.219 3.500,6.219 3.500,6.219 C3.500,6.219 4.000,6.219 4.000,6.219 C4.000,6.219 4.000,11.678 4.000,11.678 C4.016,11.781 4.019,11.874 4.000,11.951 C4.000,11.951 4.000,12.767 4.000,12.767 C4.261,12.361 4.615,11.921 5.043,11.492 C6.215,10.321 7.481,9.687 7.872,10.078 C8.262,10.469 7.629,11.735 6.457,12.907 ZM1.000,2.718 C1.000,1.718 1.300,0.816 1.780,0.179 C2.228,-0.416 2.834,1.219 3.500,1.219 C4.151,1.219 4.743,-0.434 5.188,0.137 C5.687,0.777 6.000,1.696 6.000,2.718 C6.000,4.652 4.881,6.219 3.500,6.219 C2.119,6.219 1.000,4.652 1.000,2.718 Z" id="path-1" fill-rule="evenodd"/>
</svg>
