<svg xmlns="http://www.w3.org/2000/svg" xmlns:xlink="http://www.w3.org/1999/xlink" preserveAspectRatio="xMidYMid" width="18" height="14" viewBox="0 0 18 14">
  <path d="M15.000,9.000 C15.000,9.000 14.000,8.000 14.000,8.000 C14.000,8.000 14.000,14.000 14.000,14.000 C14.000,14.000 4.000,14.000 4.000,14.000 C4.000,14.000 4.000,8.000 4.000,8.000 C4.000,8.000 3.000,9.000 3.000,9.000 C3.000,9.000 -0.000,7.000 -0.000,7.000 C-0.000,7.000 4.000,1.000 4.000,1.000 C4.000,1.000 7.000,1.000 7.000,1.000 C7.000,1.000 7.000,-0.000 7.000,-0.000 C7.000,-0.000 11.000,-0.000 11.000,-0.000 C11.000,-0.000 11.000,1.000 11.000,1.000 C11.000,1.000 14.000,1.000 14.000,1.000 C14.000,1.000 18.000,7.000 18.000,7.000 C18.000,7.000 15.000,9.000 15.000,9.000 Z" id="path-1" fill-rule="evenodd"/>
</svg>
