<svg xmlns="http://www.w3.org/2000/svg" xmlns:xlink="http://www.w3.org/1999/xlink" preserveAspectRatio="xMidYMid" width="10" height="17" viewBox="0 0 10 17">
  <path d="M-0.000,14.000 C-0.000,14.000 -0.000,6.000 -0.000,6.000 C-0.000,4.895 0.895,4.000 2.000,4.000 C2.000,4.000 2.000,3.000 2.000,3.000 C2.000,3.000 4.000,3.000 4.000,3.000 C4.000,3.000 4.000,2.000 4.000,2.000 C4.000,2.000 4.000,-0.000 4.000,-0.000 C4.000,-0.000 6.000,-0.000 6.000,-0.000 C6.000,-0.000 6.000,1.000 6.000,1.000 C6.000,1.000 8.000,1.000 8.000,1.000 C8.000,1.000 8.000,2.000 8.000,2.000 C8.000,2.000 6.000,2.000 6.000,2.000 C6.000,2.000 6.000,3.000 6.000,3.000 C6.000,3.000 8.000,3.000 8.000,3.000 C8.000,3.000 8.000,4.000 8.000,4.000 C9.104,4.000 10.000,4.895 10.000,6.000 C10.000,6.000 10.000,14.000 10.000,14.000 C10.000,14.000 -0.000,14.000 -0.000,14.000 ZM8.000,5.000 C8.000,5.000 2.000,5.000 2.000,5.000 C2.000,5.000 1.000,6.000 1.000,6.000 C1.000,6.000 1.000,13.000 1.000,13.000 C1.000,13.000 2.000,13.000 2.000,13.000 C2.000,13.000 2.000,6.000 2.000,6.000 C2.000,6.000 9.000,6.000 9.000,6.000 C9.000,6.000 8.000,5.000 8.000,5.000 ZM7.000,16.000 C7.000,16.000 3.000,16.000 3.000,16.000 C1.895,16.000 1.000,16.104 1.000,15.000 C1.000,15.000 9.000,15.000 9.000,15.000 C9.000,16.104 8.105,16.000 7.000,16.000 Z" id="path-1" fill-rule="evenodd"/>
</svg>
