<svg xmlns="http://www.w3.org/2000/svg" xmlns:xlink="http://www.w3.org/1999/xlink" preserveAspectRatio="xMidYMid" width="12" height="16" viewBox="0 0 12 16">
  <path d="M11.000,14.000 C11.000,14.000 11.000,1.000 11.000,1.000 C11.000,1.000 3.000,1.000 3.000,1.000 C3.000,1.000 2.000,2.000 2.000,2.000 C2.000,2.000 6.000,2.000 6.000,2.000 C6.000,2.000 6.000,8.000 6.000,8.000 C6.000,8.000 8.000,8.000 8.000,8.000 C8.000,8.000 8.000,2.000 8.000,2.000 C8.000,2.000 10.000,2.000 10.000,2.000 C10.000,2.000 10.000,16.000 10.000,16.000 C10.000,16.000 -0.000,16.000 -0.000,16.000 C-0.000,16.000 -0.000,2.000 -0.000,2.000 C-0.000,2.000 2.000,-0.000 2.000,-0.000 C2.000,-0.000 11.000,-0.000 11.000,-0.000 C11.000,-0.000 12.000,-0.000 12.000,-0.000 C12.000,-0.000 12.000,1.000 12.000,1.000 C12.000,1.000 12.000,14.000 12.000,14.000 C12.000,14.000 11.000,14.000 11.000,14.000 Z" id="path-1" fill-rule="evenodd"/>
</svg>
