<svg xmlns="http://www.w3.org/2000/svg" xmlns:xlink="http://www.w3.org/1999/xlink" preserveAspectRatio="xMidYMid" width="13" height="22" viewBox="0 0 13 22">
  <path d="M12.000,22.000 C12.000,22.000 11.000,22.000 11.000,22.000 C10.448,22.000 10.000,21.552 10.000,21.000 C10.000,21.000 10.000,20.000 10.000,20.000 C10.000,20.000 13.000,20.000 13.000,20.000 C13.000,20.000 13.000,21.000 13.000,21.000 C13.000,21.552 12.552,22.000 12.000,22.000 ZM10.000,15.000 C10.000,14.447 10.448,14.000 11.000,14.000 C11.000,14.000 11.000,5.000 11.000,5.000 C11.000,5.000 10.000,5.000 10.000,5.000 C10.000,5.000 10.000,4.000 10.000,4.000 C10.000,4.000 11.000,4.000 11.000,4.000 C11.000,4.000 11.000,3.000 11.000,3.000 C11.000,3.000 10.000,3.000 10.000,3.000 C10.000,3.000 10.000,2.000 10.000,2.000 C10.000,2.000 11.000,2.000 11.000,2.000 C11.000,2.000 11.000,1.000 11.000,1.000 C11.000,1.000 10.000,1.000 10.000,1.000 C10.000,1.000 10.000,-0.000 10.000,-0.000 C10.000,-0.000 13.000,-0.000 13.000,-0.000 C13.000,-0.000 13.000,1.000 13.000,1.000 C13.000,1.000 12.000,1.000 12.000,1.000 C12.000,1.000 12.000,2.000 12.000,2.000 C12.000,2.000 13.000,2.000 13.000,2.000 C13.000,2.000 13.000,3.000 13.000,3.000 C13.000,3.000 12.000,3.000 12.000,3.000 C12.000,3.000 12.000,4.000 12.000,4.000 C12.000,4.000 13.000,4.000 13.000,4.000 C13.000,4.000 13.000,5.000 13.000,5.000 C13.000,5.000 12.000,5.000 12.000,5.000 C12.000,5.000 12.000,14.000 12.000,14.000 C12.552,14.000 13.000,14.447 13.000,15.000 C13.000,15.000 13.000,19.000 13.000,19.000 C13.000,19.000 10.000,19.000 10.000,19.000 C10.000,19.000 10.000,15.000 10.000,15.000 ZM6.000,22.000 C6.000,22.000 2.000,22.000 2.000,22.000 C0.895,22.000 -0.000,21.104 -0.000,20.000 C-0.000,20.000 -0.000,16.000 -0.000,16.000 C-0.000,14.895 0.895,14.000 2.000,14.000 C2.000,14.000 3.000,14.000 3.000,14.000 C3.000,14.000 3.000,13.000 3.000,13.000 C3.000,13.000 2.000,13.000 2.000,13.000 C2.000,13.000 2.000,9.000 2.000,9.000 C2.000,7.895 2.895,7.000 4.000,7.000 C5.104,7.000 6.000,7.895 6.000,9.000 C6.000,9.000 6.000,13.000 6.000,13.000 C6.000,13.000 5.000,13.000 5.000,13.000 C5.000,13.000 5.000,14.000 5.000,14.000 C5.000,14.000 6.000,14.000 6.000,14.000 C7.104,14.000 8.000,14.895 8.000,16.000 C8.000,16.000 8.000,20.000 8.000,20.000 C8.000,21.104 7.104,22.000 6.000,22.000 ZM6.000,15.000 C6.000,15.000 2.000,15.000 2.000,15.000 C2.000,15.000 1.000,16.000 1.000,16.000 C1.000,16.000 1.000,20.000 1.000,20.000 C1.000,20.000 2.000,20.000 2.000,20.000 C2.000,20.000 2.000,16.000 2.000,16.000 C2.000,16.000 7.000,16.000 7.000,16.000 C7.000,16.000 6.000,15.000 6.000,15.000 Z" id="path-1" fill-rule="evenodd"/>
</svg>
