<svg xmlns="http://www.w3.org/2000/svg" xmlns:xlink="http://www.w3.org/1999/xlink" preserveAspectRatio="xMidYMid" width="12" height="17" viewBox="0 0 12 17">
  <path d="M12.000,10.000 C12.000,12.209 10.209,14.000 8.000,14.000 C7.151,14.000 6.367,13.731 5.720,13.280 C5.720,13.280 4.500,14.500 4.500,14.500 C4.500,14.500 6.000,16.000 6.000,16.000 C6.000,16.000 5.000,17.000 5.000,17.000 C5.000,17.000 3.500,15.500 3.500,15.500 C3.500,15.500 2.000,17.000 2.000,17.000 C2.000,17.000 1.000,16.000 1.000,16.000 C1.000,16.000 2.500,14.500 2.500,14.500 C2.500,14.500 1.000,13.000 1.000,13.000 C1.000,13.000 2.000,12.000 2.000,12.000 C2.000,12.000 3.500,13.500 3.500,13.500 C3.500,13.500 4.719,12.280 4.719,12.280 C4.268,11.633 4.000,10.849 4.000,10.000 C1.791,10.000 -0.000,8.209 -0.000,6.000 C-0.000,3.791 1.791,2.000 4.000,2.000 C4.849,2.000 5.633,2.268 6.280,2.719 C6.280,2.719 8.000,1.000 8.000,1.000 C8.000,1.000 5.000,1.000 5.000,1.000 C5.000,1.000 5.000,-0.000 5.000,-0.000 C5.000,-0.000 9.000,-0.000 9.000,-0.000 C9.000,-0.000 10.000,-0.000 10.000,-0.000 C10.000,-0.000 10.000,1.000 10.000,1.000 C10.000,1.000 10.000,5.000 10.000,5.000 C10.000,5.000 9.000,5.000 9.000,5.000 C9.000,5.000 9.000,2.000 9.000,2.000 C9.000,2.000 7.280,3.719 7.280,3.719 C7.732,4.367 8.000,5.151 8.000,6.000 C10.209,6.000 12.000,7.791 12.000,10.000 ZM6.221,4.779 C6.221,4.779 6.000,5.000 6.000,5.000 C6.000,5.000 5.000,4.000 5.000,4.000 C5.000,4.000 5.221,3.779 5.221,3.779 C4.857,3.579 4.445,3.454 4.000,3.454 C2.594,3.454 1.454,4.594 1.454,6.000 C1.454,7.406 2.594,8.545 4.000,8.545 C4.100,8.545 4.195,8.527 4.292,8.516 C4.698,7.503 5.503,6.698 6.516,6.292 C6.527,6.195 6.545,6.100 6.545,6.000 C6.545,5.555 6.421,5.143 6.221,4.779 ZM5.231,10.000 C5.231,10.507 5.377,10.976 5.615,11.385 C5.615,11.385 6.000,11.000 6.000,11.000 C6.000,11.000 7.000,12.000 7.000,12.000 C7.000,12.000 6.615,12.385 6.615,12.385 C7.024,12.623 7.493,12.769 8.000,12.769 C9.529,12.769 10.769,11.529 10.769,10.000 C10.769,8.470 9.529,7.231 8.000,7.231 C6.471,7.231 5.231,8.470 5.231,10.000 Z" id="path-1" fill-rule="evenodd"/>
</svg>
