<svg xmlns="http://www.w3.org/2000/svg" xmlns:xlink="http://www.w3.org/1999/xlink" preserveAspectRatio="xMidYMid" width="9" height="16" viewBox="0 0 9 16">
  <path d="M8.000,16.000 C8.000,16.000 1.000,16.000 1.000,16.000 C0.448,16.000 -0.000,15.552 -0.000,15.000 C-0.000,15.000 -0.000,1.000 -0.000,1.000 C-0.000,0.448 0.448,-0.000 1.000,-0.000 C1.000,-0.000 8.000,-0.000 8.000,-0.000 C8.552,-0.000 9.000,0.448 9.000,1.000 C9.000,1.000 9.000,15.000 9.000,15.000 C9.000,15.552 8.552,16.000 8.000,16.000 ZM4.000,15.000 C4.000,15.000 5.000,15.000 5.000,15.000 C5.000,15.000 5.000,14.000 5.000,14.000 C5.000,14.000 4.000,14.000 4.000,14.000 C4.000,14.000 4.000,15.000 4.000,15.000 ZM8.000,2.000 C8.000,1.447 7.552,1.000 7.000,1.000 C7.000,1.000 2.000,1.000 2.000,1.000 C1.448,1.000 1.000,1.447 1.000,2.000 C1.000,2.000 1.000,12.000 1.000,12.000 C1.000,12.552 1.448,13.000 2.000,13.000 C2.000,13.000 7.000,13.000 7.000,13.000 C7.552,13.000 8.000,12.552 8.000,12.000 C8.000,12.000 8.000,2.000 8.000,2.000 Z" id="path-1" fill-rule="evenodd"/>
</svg>
