<svg xmlns="http://www.w3.org/2000/svg" xmlns:xlink="http://www.w3.org/1999/xlink" preserveAspectRatio="xMidYMid" width="18" height="16" viewBox="0 0 18 16">
  <path d="M17.000,7.937 C17.000,7.937 15.000,7.000 15.000,7.000 C15.000,7.000 15.000,16.000 15.000,16.000 C15.000,16.000 11.000,16.000 11.000,16.000 C11.000,16.000 11.000,10.000 11.000,10.000 C11.000,10.000 7.000,10.000 7.000,10.000 C7.000,10.000 7.000,16.000 7.000,16.000 C7.000,16.000 3.000,16.000 3.000,16.000 C3.000,16.000 3.000,7.062 3.000,7.062 C3.000,7.062 1.000,8.000 1.000,8.000 C1.000,8.000 -0.000,6.000 -0.000,6.000 C-0.000,6.000 8.833,-0.000 8.833,-0.000 C8.833,-0.000 18.000,6.000 18.000,6.000 C18.000,6.000 17.000,7.937 17.000,7.937 Z" id="path-1" fill-rule="evenodd"/>
</svg>
