<svg xmlns="http://www.w3.org/2000/svg" xmlns:xlink="http://www.w3.org/1999/xlink" preserveAspectRatio="xMidYMid" width="13" height="13" viewBox="0 0 64.938 64.969">
  <path d="M64.273,32.380 L63.875,33.180 C63.166,34.600 62.996,36.231 63.394,37.769 L63.619,38.634 C64.260,41.108 63.412,43.731 61.445,45.354 L60.757,45.921 C59.535,46.930 58.719,48.350 58.460,49.917 L58.315,50.799 C57.899,53.322 56.062,55.371 53.608,56.050 L52.750,56.287 C51.225,56.709 49.904,57.673 49.033,59.000 L48.543,59.746 C47.142,61.880 44.634,63.002 42.117,62.620 L41.237,62.486 C39.673,62.249 38.076,62.589 36.743,63.445 L35.993,63.927 C33.849,65.305 31.103,65.305 28.959,63.927 L28.209,63.445 C26.876,62.589 25.279,62.249 23.715,62.486 L22.835,62.620 C20.318,63.002 17.810,61.880 16.409,59.746 L15.919,59.000 C15.048,57.673 13.727,56.709 12.202,56.287 L11.344,56.050 C8.890,55.371 7.053,53.322 6.637,50.799 L6.492,49.917 C6.233,48.350 5.417,46.930 4.195,45.921 L3.507,45.354 C1.540,43.731 0.691,41.108 1.333,38.634 L1.557,37.769 C1.956,36.231 1.785,34.600 1.077,33.180 L0.679,32.380 C-0.461,30.094 -0.174,27.352 1.414,25.354 L1.969,24.655 C2.956,23.413 3.461,21.854 3.389,20.267 L3.348,19.373 C3.233,16.819 4.606,14.431 6.866,13.254 L7.656,12.843 C9.060,12.112 10.153,10.893 10.730,9.414 L11.055,8.581 C11.984,6.201 14.205,4.580 16.746,4.428 L17.634,4.375 C19.214,4.281 20.705,3.614 21.831,2.499 L22.465,1.871 C24.277,0.076 26.963,-0.498 29.346,0.402 L30.179,0.716 C31.660,1.275 33.292,1.275 34.773,0.716 L35.606,0.402 C37.989,-0.498 40.674,0.076 42.487,1.871 L43.121,2.499 C44.247,3.614 45.738,4.281 47.317,4.375 L48.206,4.428 C50.747,4.580 52.968,6.201 53.897,8.581 L54.222,9.414 C54.799,10.893 55.891,12.112 57.296,12.843 L58.086,13.254 C60.346,14.431 61.719,16.819 61.603,19.373 L61.563,20.267 C61.491,21.854 61.996,23.413 62.983,24.655 L63.538,25.354 C65.126,27.352 65.413,30.094 64.273,32.380 ZM59.741,26.232 L59.254,25.619 C58.388,24.530 57.945,23.163 58.008,21.771 L58.044,20.988 C58.145,18.749 56.941,16.654 54.958,15.623 L54.265,15.262 C53.033,14.621 52.075,13.552 51.568,12.255 L51.283,11.525 C50.468,9.438 48.520,8.017 46.291,7.884 L45.511,7.837 C44.126,7.754 42.818,7.170 41.829,6.192 L41.273,5.641 C39.683,4.067 37.327,3.564 35.237,4.353 L34.506,4.629 C33.207,5.119 31.775,5.119 30.476,4.629 L29.745,4.353 C27.655,3.564 25.299,4.067 23.709,5.641 L23.152,6.192 C22.164,7.170 20.856,7.754 19.471,7.837 L18.691,7.884 C16.462,8.017 14.513,9.438 13.699,11.525 L13.414,12.255 C12.907,13.552 11.949,14.621 10.717,15.262 L10.024,15.623 C8.041,16.654 6.837,18.749 6.938,20.988 L6.974,21.771 C7.036,23.163 6.594,24.530 5.728,25.619 L5.241,26.232 C3.848,27.984 3.596,30.389 4.596,32.393 L4.946,33.095 C5.567,34.340 5.717,35.770 5.367,37.118 L5.170,37.877 C4.607,40.046 5.351,42.346 7.077,43.769 L7.680,44.267 C8.753,45.151 9.469,46.396 9.695,47.771 L9.823,48.544 C10.188,50.756 11.800,52.553 13.952,53.148 L14.705,53.357 C16.043,53.727 17.202,54.571 17.966,55.735 L18.396,56.389 C19.625,58.261 21.825,59.244 24.033,58.909 L24.805,58.792 C26.178,58.584 27.578,58.882 28.747,59.633 L29.405,60.055 C31.287,61.263 33.695,61.263 35.576,60.055 L36.235,59.633 C37.404,58.882 38.804,58.584 40.176,58.792 L40.949,58.909 C43.157,59.244 45.357,58.261 46.586,56.389 L47.016,55.735 C47.780,54.571 48.939,53.727 50.277,53.357 L51.030,53.148 C53.182,52.553 54.794,50.756 55.159,48.544 L55.286,47.771 C55.513,46.396 56.229,45.151 57.301,44.267 L57.905,43.769 C59.630,42.346 60.375,40.046 59.812,37.877 L59.615,37.118 C59.265,35.770 59.415,34.340 60.036,33.095 L60.386,32.393 C61.386,30.389 61.134,27.984 59.741,26.232 ZM39.811,44.946 C38.085,44.946 36.695,44.399 35.640,43.304 C34.585,42.209 34.057,40.736 34.057,38.885 C34.057,36.865 34.618,35.262 35.741,34.077 C36.864,32.891 38.361,32.299 40.234,32.299 C42.039,32.299 43.444,32.830 44.448,33.890 C45.452,34.951 45.954,36.453 45.954,38.394 C45.954,40.392 45.396,41.983 44.279,43.169 C43.162,44.354 41.673,44.946 39.811,44.946 ZM41.774,36.142 C41.345,35.567 40.781,35.279 40.082,35.279 C38.446,35.279 37.628,36.424 37.628,38.716 C37.628,40.883 38.424,41.966 40.014,41.966 C41.616,41.966 42.417,40.838 42.417,38.580 C42.417,37.531 42.203,36.718 41.774,36.142 ZM22.482,44.608 L38.254,20.329 L42.417,20.329 L26.611,44.608 L22.482,44.608 ZM24.699,32.637 C22.973,32.637 21.582,32.090 20.527,30.995 C19.472,29.900 18.945,28.427 18.945,26.576 C18.945,24.556 19.506,22.953 20.629,21.768 C21.751,20.583 23.249,19.990 25.122,19.990 C26.916,19.990 28.317,20.526 29.327,21.598 C30.337,22.671 30.842,24.178 30.842,26.119 C30.842,28.117 30.283,29.703 29.166,30.877 C28.050,32.051 26.560,32.637 24.699,32.637 ZM25.020,22.970 C23.373,22.970 22.549,24.116 22.549,26.407 C22.549,28.574 23.333,29.658 24.902,29.658 C26.504,29.658 27.305,28.529 27.305,26.271 C27.305,24.070 26.543,22.970 25.020,22.970 Z"/>
</svg>
