<svg xmlns="http://www.w3.org/2000/svg" xmlns:xlink="http://www.w3.org/1999/xlink" preserveAspectRatio="xMidYMid" width="12" height="18" viewBox="0 0 12 18">
  <path d="M10.531,18.000 C9.771,18.000 9.000,16.000 9.000,16.000 C9.000,16.000 10.000,12.000 10.000,12.000 C10.000,12.000 10.000,10.500 10.000,10.500 C10.000,10.500 9.000,9.000 9.000,9.000 C9.000,9.000 9.000,2.000 9.000,2.000 C9.000,2.000 11.000,-0.000 11.000,-0.000 C11.000,-0.000 11.000,3.000 11.000,3.000 C11.000,3.000 11.000,12.000 11.000,12.000 C11.000,12.000 12.000,16.000 12.000,16.000 C12.000,16.000 11.271,18.000 10.531,18.000 ZM3.000,7.866 C3.000,7.866 3.000,12.000 3.000,12.000 C3.000,12.000 4.000,16.000 4.000,16.000 C4.000,16.000 3.271,18.000 2.531,18.000 C1.771,18.000 1.000,16.000 1.000,16.000 C1.000,16.000 2.000,12.000 2.000,12.000 C2.000,12.000 2.000,7.826 2.000,7.826 C0.938,7.200 -0.000,5.000 -0.000,5.000 C-0.000,5.000 -0.000,1.000 -0.000,1.000 C-0.000,1.000 1.000,-0.000 1.000,-0.000 C1.000,-0.000 1.000,0.022 1.000,0.062 C1.000,0.570 1.000,4.000 1.000,4.000 C1.000,4.000 2.000,4.000 2.000,4.000 C2.000,4.000 2.000,-0.000 2.000,-0.000 C2.000,-0.000 3.000,-0.000 3.000,-0.000 C3.000,-0.000 3.000,4.000 3.000,4.000 C3.000,4.000 4.000,4.000 4.000,4.000 C4.000,4.000 4.000,0.219 4.000,0.219 C4.000,0.219 4.000,0.031 4.000,0.031 C4.000,0.031 4.000,-0.000 4.000,-0.000 C4.000,-0.000 5.000,1.000 5.000,1.000 C5.000,1.000 5.000,5.000 5.000,5.000 C5.000,5.000 4.063,7.285 3.000,7.866 Z" id="path-1" fill-rule="evenodd"/>
</svg>
