<svg xmlns="http://www.w3.org/2000/svg" xmlns:xlink="http://www.w3.org/1999/xlink" preserveAspectRatio="xMidYMid" width="18" height="17" viewBox="0 0 18 17">
  <path d="M6.300,12.235 C5.625,12.235 3.600,12.235 2.700,12.235 C1.800,12.235 -0.113,12.235 -0.000,13.647 C0.112,15.059 1.800,16.941 1.800,16.941 C1.800,16.941 8.100,16.941 8.100,16.941 C8.100,16.941 13.725,6.941 15.300,8.470 C15.300,9.882 15.300,16.941 15.300,16.941 C15.300,16.941 16.200,17.000 16.200,17.000 C16.200,17.000 18.000,8.900 18.000,3.882 C18.000,1.631 16.987,0.235 15.300,-0.000 C14.737,3.059 8.100,11.647 6.300,12.235 Z" id="path-1" fill-rule="evenodd"/>
</svg>
