<svg xmlns="http://www.w3.org/2000/svg" xmlns:xlink="http://www.w3.org/1999/xlink" preserveAspectRatio="xMidYMid" width="40" height="58" viewBox="0 0 40 58">
  <defs>
    <style>

      .cls-4 {
        fill: #000000;
        opacity: 0.25;
      }

      .cls-5 {
        fill: url(#linear-gradient-1);
      }

      .cls-6 {
        fill: url(#linear-gradient-2);
      }

      .cls-8 {
        fill: #ffffff;
      }
    </style>

    <linearGradient id="linear-gradient-1" gradientUnits="userSpaceOnUse" x1="20" y1="56" x2="20" y2="0">
      <stop offset="0" stop-color="#85b70c"/>
      <stop offset="1" stop-color="#aed231"/>
    </linearGradient>
    <linearGradient id="linear-gradient-2" gradientUnits="userSpaceOnUse" x1="20" y1="56" x2="20" y2="46">
      <stop offset="0" stop-color="#85b70c"/>
      <stop offset="1" stop-color="#aed231"/>
    </linearGradient>
  </defs>
  <g id="moneysvg">
    <g id="bg-">
      <path d="M-0.000,1.999 C-0.000,1.999 40.000,1.999 40.000,1.999 C40.000,1.999 40.000,57.999 40.000,57.999 C40.000,57.999 20.000,52.999 20.000,52.999 C20.000,52.999 -0.000,57.999 -0.000,57.999 C-0.000,57.999 -0.000,1.999 -0.000,1.999 Z" id="path-1" class="cls-4" fill-rule="evenodd"/>
      <path d="M-0.000,-0.001 C-0.000,-0.001 40.000,-0.001 40.000,-0.001 C40.000,-0.001 40.000,55.999 40.000,55.999 C40.000,55.999 20.000,50.999 20.000,50.999 C20.000,50.999 -0.000,55.999 -0.000,55.999 C-0.000,55.999 -0.000,-0.001 -0.000,-0.001 Z" id="path-2" class="cls-5" fill-rule="evenodd"/>
      <path d="M-0.000,51.999 C-0.000,51.999 20.000,45.999 20.000,45.999 C20.000,45.999 40.000,51.999 40.000,51.999 C40.000,51.999 40.000,55.999 40.000,55.999 C40.000,55.999 20.000,50.999 20.000,50.999 C20.000,50.999 -0.000,55.999 -0.000,55.999 C-0.000,55.999 -0.000,51.999 -0.000,51.999 Z" id="path-3" class="cls-6" fill-rule="evenodd"/>
    </g>
    <g id="money_icon">
      <path d="M31.010,18.203 C31.010,18.203 31.762,18.002 31.762,18.002 C31.762,18.002 32.514,20.808 32.514,20.808 C32.514,20.808 31.010,18.203 31.010,18.203 ZM19.331,33.756 C19.331,33.756 31.959,26.465 31.959,26.465 C31.959,26.465 32.936,30.111 32.936,30.111 C32.936,30.111 19.331,33.756 19.331,33.756 ZM11.150,33.804 C11.150,33.804 11.686,35.805 11.686,35.805 C11.686,35.805 11.686,35.805 11.686,35.805 C11.686,35.805 11.944,36.770 11.944,36.770 C11.944,36.770 12.739,36.557 12.739,36.557 C12.739,36.557 13.174,37.311 13.174,37.311 C13.174,37.311 15.986,35.688 15.986,35.688 C15.986,35.688 33.195,31.077 33.195,31.077 C33.195,31.077 33.195,31.077 33.195,31.077 C33.195,31.077 34.161,30.818 34.161,30.818 C34.161,30.818 32.856,25.948 32.856,25.948 C32.856,25.948 33.752,25.430 33.752,25.430 C33.752,25.430 35.385,31.525 35.385,31.525 C35.385,31.525 11.237,37.995 11.237,37.995 C11.237,37.995 9.218,30.458 9.218,30.458 C9.218,30.458 11.150,33.804 11.150,33.804 Z" id="path-4" class="cls-8" fill-rule="evenodd"/>
      <path d="M12.174,36.311 C12.174,36.311 5.174,24.186 5.174,24.186 C5.174,24.186 26.825,11.686 26.825,11.686 C26.825,11.686 33.825,23.811 33.825,23.811 C33.825,23.811 12.174,36.311 12.174,36.311 ZM26.459,13.052 C26.459,13.052 6.540,24.552 6.540,24.552 C6.540,24.552 7.040,25.419 7.040,25.419 C7.040,25.419 7.041,25.419 7.041,25.419 C7.041,25.419 12.540,34.945 12.540,34.945 C12.540,34.945 13.406,34.445 13.406,34.445 C13.406,34.445 13.406,34.445 13.406,34.445 C13.406,34.445 32.459,23.445 32.459,23.445 C32.459,23.445 26.459,13.052 26.459,13.052 ZM31.093,23.079 C31.093,23.079 12.906,33.579 12.906,33.579 C12.906,33.579 7.907,24.919 7.907,24.919 C7.907,24.919 26.093,14.419 26.093,14.419 C26.093,14.419 31.093,23.079 31.093,23.079 ZM17.567,21.651 C16.132,22.479 15.640,24.314 16.469,25.749 C17.297,27.183 19.132,27.675 20.567,26.847 C22.002,26.019 22.493,24.184 21.665,22.749 C20.836,21.314 19.001,20.822 17.567,21.651 Z" id="path-5" class="cls-8" fill-rule="evenodd"/>
    </g>
  </g>
</svg>
