<svg xmlns="http://www.w3.org/2000/svg" xmlns:xlink="http://www.w3.org/1999/xlink" preserveAspectRatio="xMidYMid" width="40" height="58" viewBox="0 0 40 58">
  <defs>
    <style>

      .cls-4 {
        fill: #000000;
        opacity: 0.25;
      }

      .cls-5 {
        fill: url(#linear-gradient-1);
      }

      .cls-6 {
        fill: url(#linear-gradient-2);
      }

      .cls-8 {
        fill: #ffffff;
      }
    </style>

    <linearGradient id="linear-gradient-1" gradientUnits="userSpaceOnUse" x1="20" y1="56" x2="20" y2="0">
      <stop offset="0" stop-color="#fa1b1b"/>
      <stop offset="0.88" stop-color="#f8531a"/>
      <stop offset="1" stop-color="#ff7241"/>
    </linearGradient>
    <linearGradient id="linear-gradient-2" gradientUnits="userSpaceOnUse" x1="20" y1="56" x2="20" y2="46">
      <stop offset="0" stop-color="#ffabab"/>
      <stop offset="1" stop-color="#ff7b7b"/>
    </linearGradient>
  </defs>
  <g id="giftsvg">
    <g id="bg-">
      <path d="M-0.000,1.999 C-0.000,1.999 40.000,1.999 40.000,1.999 C40.000,1.999 40.000,57.999 40.000,57.999 C40.000,57.999 20.000,52.999 20.000,52.999 C20.000,52.999 -0.000,57.999 -0.000,57.999 C-0.000,57.999 -0.000,1.999 -0.000,1.999 Z" id="path-1" class="cls-4" fill-rule="evenodd"/>
      <path d="M-0.000,-0.001 C-0.000,-0.001 40.000,-0.001 40.000,-0.001 C40.000,-0.001 40.000,55.999 40.000,55.999 C40.000,55.999 20.000,50.999 20.000,50.999 C20.000,50.999 -0.000,55.999 -0.000,55.999 C-0.000,55.999 -0.000,-0.001 -0.000,-0.001 Z" id="path-2" class="cls-5" fill-rule="evenodd"/>
      <path d="M-0.000,51.999 C-0.000,51.999 20.000,45.999 20.000,45.999 C20.000,45.999 40.000,51.999 40.000,51.999 C40.000,51.999 40.000,55.999 40.000,55.999 C40.000,55.999 20.000,50.999 20.000,50.999 C20.000,50.999 -0.000,55.999 -0.000,55.999 C-0.000,55.999 -0.000,51.999 -0.000,51.999 Z" id="path-3" class="cls-6" fill-rule="evenodd"/>
    </g>
    <g id="gift">
      <path d="M29.000,24.967 C29.000,24.967 29.000,33.998 29.000,33.998 C29.000,33.998 21.000,33.998 21.000,33.998 C21.000,33.998 18.000,33.998 18.000,33.998 C18.000,33.998 10.000,33.998 10.000,33.998 C10.000,33.998 10.000,24.967 10.000,24.967 C10.000,24.967 9.000,24.967 9.000,24.967 C9.000,24.967 9.000,23.998 9.000,23.998 C9.000,23.998 9.000,22.999 9.000,22.999 C9.000,22.999 9.000,18.999 9.000,18.999 C9.000,18.999 18.000,18.999 18.000,18.999 C18.000,18.999 21.000,18.999 21.000,18.999 C21.000,18.999 30.000,18.999 30.000,18.999 C30.000,18.999 30.000,22.999 30.000,22.999 C30.000,22.999 30.000,23.998 30.000,23.998 C30.000,23.998 30.000,25.030 30.000,25.030 C30.000,25.030 29.000,24.967 29.000,24.967 ZM21.000,31.998 C21.000,31.998 27.000,31.998 27.000,31.998 C27.000,31.998 27.000,23.998 27.000,23.998 C27.000,23.998 21.000,23.998 21.000,23.998 C21.000,23.998 21.000,31.998 21.000,31.998 ZM12.000,24.030 C12.000,24.030 12.000,31.998 12.000,31.998 C12.000,31.998 18.000,31.998 18.000,31.998 C18.000,31.998 18.000,23.998 18.000,23.998 C18.000,23.998 11.496,23.998 11.496,23.998 C11.496,23.998 12.000,24.030 12.000,24.030 ZM11.000,20.998 C11.000,20.998 11.000,22.999 11.000,22.999 C11.000,22.999 18.000,22.999 18.000,22.999 C18.000,22.999 18.000,20.998 18.000,20.998 C18.000,20.998 11.000,20.998 11.000,20.998 ZM28.000,20.998 C28.000,20.998 21.000,20.998 21.000,20.998 C21.000,20.998 21.000,22.999 21.000,22.999 C21.000,22.999 27.000,22.999 27.000,22.999 C27.000,22.999 28.000,22.999 28.000,22.999 C28.000,22.999 28.000,20.998 28.000,20.998 Z" id="path-4" class="cls-8" fill-rule="evenodd"/>
      <path d="M26.000,17.999 C24.000,18.905 20.000,18.999 20.000,18.999 C20.000,18.999 20.281,16.374 23.000,13.999 C25.718,11.624 28.000,17.093 26.000,17.999 ZM22.333,16.211 C21.125,17.060 21.000,17.999 21.000,17.999 C21.000,17.999 22.777,17.965 23.666,17.641 C24.555,17.317 23.541,15.362 22.333,16.211 Z" id="path-5" class="cls-8" fill-rule="evenodd"/>
      <path d="M13.777,17.926 C11.703,16.954 14.069,11.088 16.889,13.635 C19.708,16.183 20.000,18.999 20.000,18.999 C20.000,18.999 15.852,18.898 13.777,17.926 ZM17.580,16.008 C16.327,15.098 15.275,17.195 16.197,17.542 C17.119,17.890 18.963,17.926 18.963,17.926 C18.963,17.926 18.833,16.919 17.580,16.008 Z" id="path-6" class="cls-8" fill-rule="evenodd"/>
    </g>
  </g>
</svg>
