<svg xmlns="http://www.w3.org/2000/svg" xmlns:xlink="http://www.w3.org/1999/xlink" preserveAspectRatio="xMidYMid" width="40" height="58" viewBox="0 0 40 58">
  <defs>
    <style>

      .cls-4 {
        fill: #000000;
        opacity: 0.25;
      }

      .cls-5 {
        fill: url(#linear-gradient-1);
      }

      .cls-6 {
        fill: url(#linear-gradient-2);
      }

      .cls-7 {
        fill: #fdfdfd;
      }
    </style>

    <linearGradient id="linear-gradient-1" gradientUnits="userSpaceOnUse" x1="20" y1="56" x2="20" y2="0">
      <stop offset="0" stop-color="#0f698d"/>
      <stop offset="0.88" stop-color="#21a5d6"/>
      <stop offset="1" stop-color="#26bcf4"/>
    </linearGradient>
    <linearGradient id="linear-gradient-2" gradientUnits="userSpaceOnUse" x1="20" y1="56" x2="20" y2="46">
      <stop offset="0" stop-color="#21a5d6"/>
      <stop offset="1" stop-color="#59cffa"/>
    </linearGradient>
  </defs>
  <g id="deliversvg">
    <g id="bg">
      <path d="M-0.000,1.999 C-0.000,1.999 40.000,1.999 40.000,1.999 C40.000,1.999 40.000,57.999 40.000,57.999 C40.000,57.999 20.000,52.999 20.000,52.999 C20.000,52.999 -0.000,57.999 -0.000,57.999 C-0.000,57.999 -0.000,1.999 -0.000,1.999 Z" id="path-1" class="cls-4" fill-rule="evenodd"/>
      <path d="M-0.000,-0.001 C-0.000,-0.001 40.000,-0.001 40.000,-0.001 C40.000,-0.001 40.000,55.999 40.000,55.999 C40.000,55.999 20.000,50.999 20.000,50.999 C20.000,50.999 -0.000,55.999 -0.000,55.999 C-0.000,55.999 -0.000,-0.001 -0.000,-0.001 Z" id="path-2" class="cls-5" fill-rule="evenodd"/>
      <path d="M-0.000,51.999 C-0.000,51.999 20.000,45.999 20.000,45.999 C20.000,45.999 40.000,51.999 40.000,51.999 C40.000,51.999 40.000,55.999 40.000,55.999 C40.000,55.999 20.000,50.999 20.000,50.999 C20.000,50.999 -0.000,55.999 -0.000,55.999 C-0.000,55.999 -0.000,51.999 -0.000,51.999 Z" id="path-3" class="cls-6" fill-rule="evenodd"/>
    </g>
    <path d="M32.949,31.998 C32.705,30.304 31.261,28.999 29.500,28.999 C27.738,28.999 26.295,30.304 26.050,31.998 C26.050,31.998 24.000,31.998 24.000,31.998 C24.000,31.998 23.000,31.998 23.000,31.998 C23.000,31.998 22.000,31.998 22.000,31.998 C22.000,31.998 21.000,31.998 21.000,31.998 C21.000,31.998 13.949,31.998 13.949,31.998 C13.705,30.304 12.261,28.999 10.500,28.999 C8.738,28.999 7.295,30.304 7.050,31.998 C7.050,31.998 5.000,31.998 5.000,31.998 C5.000,31.998 5.000,29.999 5.000,29.999 C5.000,29.999 6.000,29.999 6.000,29.999 C6.000,29.999 6.000,17.999 6.000,17.999 C6.000,17.999 22.000,17.999 22.000,17.999 C22.000,17.999 22.000,29.999 22.000,29.999 C22.000,29.999 23.000,29.999 23.000,29.999 C23.000,29.999 23.000,19.999 23.000,19.999 C23.000,19.999 28.000,19.999 28.000,19.999 C28.000,19.999 34.000,27.165 34.000,27.165 C34.000,27.165 34.000,29.999 34.000,29.999 C34.000,29.999 35.000,29.999 35.000,29.999 C35.000,29.999 35.000,31.998 35.000,31.998 C35.000,31.998 32.949,31.998 32.949,31.998 ZM27.000,21.999 C27.000,21.999 24.000,21.999 24.000,21.999 C24.000,21.999 24.000,26.999 24.000,26.999 C24.000,26.999 31.000,26.999 31.000,26.999 C31.000,26.999 27.000,21.999 27.000,21.999 ZM10.500,29.999 C11.880,29.999 13.000,31.118 13.000,32.499 C13.000,33.879 11.880,34.999 10.500,34.999 C9.119,34.999 8.000,33.879 8.000,32.499 C8.000,31.118 9.119,29.999 10.500,29.999 ZM29.500,29.999 C30.880,29.999 32.000,31.118 32.000,32.499 C32.000,33.879 30.880,34.999 29.500,34.999 C28.119,34.999 27.000,33.879 27.000,32.499 C27.000,31.118 28.119,29.999 29.500,29.999 Z" id="path-4" class="cls-7" fill-rule="evenodd"/>
  </g>
</svg>
