<svg xmlns="http://www.w3.org/2000/svg" xmlns:xlink="http://www.w3.org/1999/xlink" preserveAspectRatio="xMidYMid" width="20" height="20" viewBox="0 0 20 20">
  <path d="M19.790,7.817 C19.790,7.817 18.958,8.647 17.754,9.849 C17.754,9.849 17.246,9.341 17.246,9.341 C17.246,9.341 16.737,9.849 16.737,9.849 C16.737,9.849 17.246,10.357 17.246,10.357 C13.920,13.677 8.469,19.118 8.088,19.499 C7.537,20.049 2.407,20.430 1.008,19.034 C-0.392,17.637 -0.095,12.431 0.456,11.880 C1.008,11.330 12.158,0.199 12.158,0.199 C12.439,-0.082 12.895,-0.082 13.176,0.199 C13.176,0.199 19.790,6.801 19.790,6.801 C20.071,7.082 20.071,7.537 19.790,7.817 ZM4.654,15.563 C4.022,14.932 2.997,14.932 2.364,15.563 C1.732,16.194 1.732,17.217 2.364,17.848 C2.997,18.480 4.022,18.480 4.654,17.848 C5.286,17.217 5.286,16.194 4.654,15.563 ZM10.123,2.230 C10.123,2.230 9.614,2.738 9.614,2.738 C9.614,2.738 10.377,3.500 10.377,3.500 C10.377,3.500 10.886,2.992 10.886,2.992 C10.886,2.992 10.123,2.230 10.123,2.230 ZM11.141,3.246 C11.141,3.246 10.632,3.754 10.632,3.754 C10.632,3.754 11.395,4.516 11.395,4.516 C11.395,4.516 11.904,4.008 11.904,4.008 C11.904,4.008 11.141,3.246 11.141,3.246 ZM12.158,4.262 C12.158,4.262 11.649,4.770 11.649,4.770 C11.649,4.770 12.412,5.532 12.412,5.532 C12.412,5.532 12.921,5.024 12.921,5.024 C12.921,5.024 12.158,4.262 12.158,4.262 ZM13.176,5.278 C13.176,5.278 12.667,5.786 12.667,5.786 C12.667,5.786 13.430,6.547 13.430,6.547 C13.430,6.547 13.939,6.040 13.939,6.040 C13.939,6.040 13.176,5.278 13.176,5.278 ZM14.193,6.293 C14.193,6.293 13.684,6.801 13.684,6.801 C13.684,6.801 14.448,7.563 14.448,7.563 C14.448,7.563 14.956,7.055 14.956,7.055 C14.956,7.055 14.193,6.293 14.193,6.293 ZM15.211,7.309 C15.211,7.309 14.702,7.817 14.702,7.817 C14.702,7.817 15.465,8.579 15.465,8.579 C15.465,8.579 15.974,8.071 15.974,8.071 C15.974,8.071 15.211,7.309 15.211,7.309 ZM16.228,8.325 C16.228,8.325 15.720,8.833 15.720,8.833 C15.720,8.833 16.483,9.595 16.483,9.595 C16.483,9.595 16.991,9.087 16.991,9.087 C16.991,9.087 16.228,8.325 16.228,8.325 Z" fill-rule="evenodd"/>
</svg>
