<svg xmlns="http://www.w3.org/2000/svg" xmlns:xlink="http://www.w3.org/1999/xlink" preserveAspectRatio="xMidYMid" width="16" height="16" viewBox="0 0 16 16">
  <path d="M8.000,16.000 C4.274,16.000 1.152,13.449 0.262,10.000 C0.262,10.000 6.750,10.000 6.750,10.000 C6.750,10.000 6.000,13.000 6.000,13.000 C6.000,13.000 13.000,8.000 13.000,8.000 C13.000,8.000 6.000,3.000 6.000,3.000 C6.000,3.000 6.750,6.000 6.750,6.000 C6.750,6.000 0.262,6.000 0.262,6.000 C1.152,2.551 4.274,-0.000 8.000,-0.000 C12.418,-0.000 16.000,3.582 16.000,8.000 C16.000,12.418 12.418,16.000 8.000,16.000 Z" fill-rule="evenodd"/>
</svg>
