<svg xmlns="http://www.w3.org/2000/svg" xmlns:xlink="http://www.w3.org/1999/xlink" preserveAspectRatio="xMidYMid" width="16" height="16" viewBox="0 0 16 16">
  <path d="M9.250,6.000 C9.250,6.000 10.000,3.000 10.000,3.000 C10.000,3.000 3.000,8.000 3.000,8.000 C3.000,8.000 10.000,13.000 10.000,13.000 C10.000,13.000 9.250,10.000 9.250,10.000 C9.250,10.000 15.738,10.000 15.738,10.000 C14.848,13.449 11.726,16.000 8.000,16.000 C3.582,16.000 -0.000,12.418 -0.000,8.000 C-0.000,3.582 3.582,-0.000 8.000,-0.000 C11.726,-0.000 14.848,2.551 15.738,6.000 C15.738,6.000 9.250,6.000 9.250,6.000 Z" fill-rule="evenodd"/>
</svg>
