<?xml version="1.0" ?><svg height="52px" version="1.1" viewBox="0 0 52 52" width="52px" xmlns="http://www.w3.org/2000/svg" xmlns:sketch="http://www.bohemiancoding.com/sketch/ns" xmlns:xlink="http://www.w3.org/1999/xlink"><title/><description/><defs/><g fill="none" fill-rule="evenodd" id="black" stroke="none" stroke-width="1"><g fill="#346DA6" id="color" transform="translate(-140.000000, 0.000000)"><circle cx="166" cy="26" d="M166,52 C180.359404,52 192,40.3594042 192,26 C192,11.6405958 180.359404,0 166,0 C151.640596,0 140,11.6405958 140,26 C140,40.3594042 151.640596,52 166,52 Z M166,52" id="Facebook" r="26"/></g><g fill="#FFFFFF" id="Icon" transform="translate(-130.000000, 11.000000)"><path d="M152.067261,30.005738 L152.067261,14.9990998 L149.017517,14.9990997 L149.017517,10.0247755 L152.067261,10.0247755 L152.067261,7.01660156 C152.067261,2.95908992 153.280396,0.0332031215 157.723022,0.0332031215 L163.008178,0.0332031215 L163.008178,4.99731463 L159.286621,4.99731463 C157.422975,4.99731463 156.998291,6.23572613 156.998291,7.53259282 L156.998291,10.0247746 L162.7335,10.0247751 L161.950683,14.9990998 L156.998291,14.9990998 L156.998291,30.0057374 L152.067261,30.005738 Z M152.067261,30.005738" id="facebook"/></g></g></svg>