<svg height="52" viewBox="0 0 52 52" width="52" xmlns="http://www.w3.org/2000/svg"><title/><g fill="none" fill-rule="evenodd"><circle cx="236" cy="26" r="26" fill="#CA4638" transform="translate(-210)"/><path d="M24.234 23.72c.85-.853.923-2.035.923-2.7 0-2.66-1.59-6.8-4.657-6.8-.96 0-1.995.48-2.587 1.22-.628.776-.814 1.773-.814 2.734 0 2.476 1.44 6.58 4.62 6.58.922 0 1.92-.445 2.513-1.035zm-1.073 7.02c-.294-.038-.48-.038-.847-.038-.333 0-2.33.075-3.882.593-.81.295-3.177 1.182-3.177 3.806 0 2.626 2.55 4.51 6.505 4.51 3.548 0 5.433-1.7 5.433-3.99 0-1.886-1.22-2.883-4.03-4.88zM34 27h-4v-2h4v-4h2v4h4v2h-4v4h-2v-4zm-8.214-12.67c.85.703 2.623 2.18 2.623 4.99 0 2.735-1.554 4.03-3.106 5.248-.48.48-1.035.998-1.035 1.81 0 .814.554 1.258.96 1.59l1.33 1.034c1.627 1.368 3.105 2.625 3.105 5.176 0 3.473-3.364 6.985-9.72 6.985-5.36 0-7.946-2.55-7.946-5.286 0-1.33.664-3.215 2.846-4.51 2.29-1.404 5.396-1.587 7.058-1.7-.517-.665-1.11-1.368-1.11-2.512 0-.628.186-1 .37-1.442-.406.037-.812.075-1.182.075-3.917 0-6.135-2.92-6.135-5.803 0-1.7.776-3.586 2.365-4.953C18.32 13.296 20.832 13 22.83 13h7.612l-2.365 1.33h-2.29zm0 0" fill="#fff"/></g></svg>