<?xml version="1.0" ?><svg height="52px" version="1.1" viewBox="0 0 52 52" width="52px" xmlns="http://www.w3.org/2000/svg" xmlns:sketch="http://www.bohemiancoding.com/sketch/ns" xmlns:xlink="http://www.w3.org/1999/xlink"><title/><description/><defs/><g fill="none" fill-rule="evenodd" id="black" stroke="none" stroke-width="1"><g fill="#CA4638" id="color" transform="translate(-210.000000, 0.000000)"><circle cx="236" cy="26" d="M236,52 C250.359404,52 262,40.3594042 262,26 C262,11.6405958 250.359404,0 236,0 C221.640596,0 210,11.6405958 210,26 C210,40.3594042 221.640596,52 236,52 Z M236,52" id="Google+" r="26"/></g><g fill="#FFFFFF" id="Icon" transform="translate(-200.000000, 11.000000)"><path d="M224.23398,12.7187267 C225.082956,11.8670402 225.157228,10.6851964 225.157228,10.0194605 C225.157228,7.35949886 223.568245,3.21952182 220.50033,3.21952182 C219.539404,3.21952182 218.504749,3.70039128 217.912743,4.44039896 C217.284685,5.2164583 217.099276,6.21316462 217.099276,7.17436141 C217.099276,9.64999883 218.540801,13.7533821 221.71931,13.7533821 C222.643371,13.753111 223.641432,13.3093775 224.23398,12.7187267 L224.23398,12.7187267 Z M223.161105,19.7401256 C222.865373,19.7024475 222.680506,19.7024475 222.311587,19.7024475 C221.978719,19.7024475 219.982596,19.7767193 218.430477,20.2947247 C217.617553,20.5904567 215.252239,21.4765685 215.252239,24.1010207 C215.252239,26.7249307 217.802148,28.6091041 221.756988,28.6091041 C225.30523,28.6091041 227.189674,26.9097971 227.189674,24.618755 C227.189674,22.7332262 225.970423,21.7362488 223.161105,19.7401256 L223.161105,19.7401256 Z M234,16 L230,16 L230,14 L234,14 L234,10 L236,10 L236,14 L240,14 L240,16 L236,16 L236,20 L234,20 L234,16 Z M225.785557,3.33011637 C226.635075,4.03271707 228.409467,5.51056392 228.409467,8.32015352 C228.409467,11.0552002 226.857077,12.3487228 225.30523,13.5677025 C224.824902,14.0483009 224.269761,14.5660352 224.269761,15.3792305 C224.269761,16.1924257 224.824902,16.6361593 225.230416,16.968214 L226.561616,18.0023273 C228.188278,19.3695796 229.665854,20.6270505 229.665854,23.177773 C229.665854,26.6509299 226.302478,30.1625781 219.94546,30.1625781 C214.587316,30.1625781 212,27.6126688 212,24.87708 C212,23.5464215 212.665465,21.661977 214.846726,20.3679123 C217.137497,18.963253 220.242818,18.780013 221.904989,18.6680631 C221.387526,18.0023273 220.796333,17.2994555 220.796333,16.1550187 C220.796333,15.5266899 220.981199,15.156415 221.166066,14.7132236 C220.758655,14.7498173 220.353142,14.7877665 219.982867,14.7877665 C216.065976,14.7877665 213.848393,11.8667691 213.848393,8.98480511 C213.848393,7.28549809 214.624181,5.39942723 216.213436,4.03217494 C218.320425,2.29573201 220.833198,2 222.828779,2 L230.441913,2 L228.076599,3.32957424 L225.785557,3.32957424 L225.785557,3.33011637 Z M225.785557,3.33011637" id="g+"/></g></g></svg>