<svg xmlns="http://www.w3.org/2000/svg" width="52" height="52" viewBox="0 0 52 52"><title/><circle fill="#2FC0D3" cx="26" cy="26" r="26"/><path fill="#fff" d="M35.578 15.98c-1.047-1.192-2.54-1.95-4.192-1.98-3.173-.052-5.745 2.63-5.745 5.988 0 .477.053.94.15 1.388-4.774-.31-9.007-2.796-11.84-6.543-.494.898-.78 1.947-.78 3.072 0 2.128 1.016 4.017 2.558 5.132-.94-.042-1.828-.327-2.602-.794v.077c0 2.972 1.98 5.466 4.608 6.047-.482.137-.99.207-1.514.204-.37 0-.73-.042-1.082-.115.73 2.438 2.852 4.216 5.366 4.275-1.966 1.63-4.443 2.603-7.135 2.598-.464-.002-.92-.03-1.37-.09C14.54 36.984 17.56 38 20.805 38c10.566.003 16.344-9.192 16.344-17.168 0-.262-.006-.522-.017-.78 1.123-.838 2.097-1.886 2.867-3.083-1.03.462-2.137.77-3.3.9 1.187-.73 2.098-1.898 2.526-3.3-1.11.674-2.34 1.157-3.648 1.408z"/></svg>