<?xml version="1.0" encoding="utf-8"?>
<!-- Generator: Adobe Illustrator 16.0.0, SVG Export Plug-In . SVG Version: 6.00 Build 0)  -->
<!DOCTYPE svg PUBLIC "-//W3C//DTD SVG 1.1//EN" "http://www.w3.org/Graphics/SVG/1.1/DTD/svg11.dtd">
<svg version="1.1" id="Layer_1" xmlns:sketch="http://www.bohemiancoding.com/sketch/ns"
	 xmlns="http://www.w3.org/2000/svg" xmlns:xlink="http://www.w3.org/1999/xlink" x="0px" y="0px" width="52px" height="52px"
	 viewBox="0 0 52 52" enable-background="new 0 0 52 52" xml:space="preserve">
<title></title>
<description></description>
<g id="black">
	<g id="color">
		<circle id="Twitter" fill="#2FC0D3" cx="26" cy="26" r="26"/>
	</g>
	<g id="Icon" transform="translate(10.000000, 11.000000)">
		<path id="twitter" fill="#FFFFFF" d="M25.578,4.979c-1.047-1.191-2.541-1.95-4.192-1.978c-3.173-0.053-5.745,2.628-5.745,5.987
			c0,0.477,0.051,0.941,0.148,1.388c-4.774-0.31-9.007-2.796-11.84-6.543C3.455,4.731,3.171,5.78,3.171,6.905
			c0,2.128,1.014,4.017,2.556,5.132c-0.941-0.042-1.828-0.327-2.602-0.794c0,0.025,0,0.051,0,0.077c0,2.972,1.98,5.466,4.608,6.047
			c-0.482,0.137-0.99,0.207-1.514,0.204c-0.37-0.003-0.73-0.044-1.081-0.117c0.731,2.438,2.852,4.216,5.366,4.275
			c-1.966,1.632-4.443,2.604-7.135,2.599C2.907,24.326,2.449,24.297,2,24.239c2.542,1.744,5.562,2.76,8.806,2.761
			C21.372,27.003,27.15,17.808,27.15,9.832c0-0.262-0.006-0.522-0.017-0.781C28.256,8.214,29.23,7.166,30,5.969
			c-1.03,0.464-2.137,0.772-3.299,0.902c1.186-0.729,2.097-1.898,2.525-3.299C28.116,4.245,26.887,4.728,25.578,4.979z"/>
	</g>
</g>
</svg>
