<svg xmlns="http://www.w3.org/2000/svg" width="52" height="52" viewBox="0 0 52 52"><title/><circle fill="#468FBC" cx="236" cy="376" r="26" transform="translate(-210 -350)"/><path fill="#fff" d="M38.964 31.887c0 1.384-.264 2.602-.79 3.65-.52 1.05-1.226 1.917-2.114 2.604-1.048.824-2.2 1.41-3.453 1.76-1.255.35-2.85.525-4.783.525h-11.16v-27.88h9.848c2.046 0 3.6.08 4.653.234 1.055.156 2.043.483 2.965.982 1 .54 1.746 1.256 2.24 2.155.49.9.74 1.935.74 3.108 0 1.36-.342 2.57-1.023 3.632-.678 1.06-1.618 1.84-2.816 2.34v.15c1.726.36 3.106 1.1 4.14 2.218 1.036 1.117 1.555 2.625 1.555 4.524zm-8.97-11.46c0-.45-.115-.91-.347-1.384-.23-.476-.59-.818-1.075-1.03-.462-.2-1.008-.31-1.64-.33-.63-.018-1.57-.027-2.817-.027h-.488v5.898h.88c1.2 0 2.038-.012 2.52-.038.48-.024.976-.156 1.487-.393.563-.263.95-.624 1.162-1.085.213-.46.318-1 .318-1.61zm1.76 11.328c0-.86-.174-1.535-.523-2.022-.35-.485-.873-.854-1.57-1.104-.426-.163-1.01-.255-1.75-.273-.743-.02-1.74-.027-2.987-.027H23.63v6.984h.374c1.822 0 3.082-.013 3.782-.038.698-.024 1.41-.193 2.134-.505.638-.272 1.103-.676 1.395-1.206.292-.533.44-1.134.44-1.808z"/></svg>