<?xml version="1.0" encoding="utf-8"?>
<!-- Generator: Adobe Illustrator 16.0.0, SVG Export Plug-In . SVG Version: 6.00 Build 0)  -->
<!DOCTYPE svg PUBLIC "-//W3C//DTD SVG 1.1//EN" "http://www.w3.org/Graphics/SVG/1.1/DTD/svg11.dtd">
<svg version="1.1" id="Layer_1" xmlns:sketch="http://www.bohemiancoding.com/sketch/ns"
	 xmlns="http://www.w3.org/2000/svg" xmlns:xlink="http://www.w3.org/1999/xlink" x="0px" y="0px" width="52px" height="52px"
	 viewBox="0 0 52 52" enable-background="new 0 0 52 52" xml:space="preserve">
<title></title>
<description></description>
<g id="black">
	<g id="color" transform="translate(-210.000000, -350.000000)">
		<circle id="dropbox" fill="#468FBC" cx="236" cy="376" r="26"/>
	</g>
</g>
<g>
	<path fill="#FFFFFF" d="M38.964,31.887c0,1.384-0.264,2.602-0.789,3.65c-0.521,1.049-1.227,1.917-2.115,2.604
		c-1.048,0.822-2.2,1.41-3.453,1.76c-1.255,0.349-2.849,0.523-4.783,0.523h-11.16V12.545h9.848c2.046,0,3.599,0.078,4.653,0.233
		c1.055,0.157,2.043,0.484,2.965,0.983c0.999,0.538,1.746,1.255,2.24,2.154c0.491,0.899,0.74,1.935,0.74,3.108
		c0,1.36-0.342,2.57-1.023,3.632c-0.678,1.061-1.618,1.841-2.816,2.34v0.15c1.724,0.361,3.104,1.101,4.137,2.218
		C38.445,28.48,38.964,29.988,38.964,31.887z M29.994,20.427c0-0.449-0.115-0.911-0.347-1.384c-0.23-0.476-0.59-0.818-1.075-1.03
		c-0.462-0.201-1.008-0.31-1.639-0.329c-0.631-0.019-1.57-0.028-2.818-0.028h-0.488v5.898h0.88c1.2,0,2.038-0.012,2.519-0.038
		c0.48-0.024,0.977-0.156,1.488-0.393c0.563-0.263,0.949-0.624,1.162-1.085C29.889,21.577,29.994,21.039,29.994,20.427z
		 M31.754,31.755c0-0.861-0.174-1.535-0.523-2.022c-0.35-0.485-0.875-0.854-1.573-1.104c-0.425-0.161-1.008-0.253-1.751-0.271
		c-0.741-0.019-1.737-0.027-2.985-0.027h-1.293v6.983h0.375c1.822,0,3.082-0.013,3.782-0.038c0.698-0.024,1.411-0.193,2.134-0.505
		c0.638-0.274,1.103-0.678,1.395-1.208C31.607,33.03,31.754,32.429,31.754,31.755z"/>
</g>
</svg>
