<svg xmlns="http://www.w3.org/2000/svg" xmlns:xlink="http://www.w3.org/1999/xlink" preserveAspectRatio="xMidYMid" width="13" height="10" viewBox="0 0 13 10">
  <path d="M12.000,6.000 C12.000,6.000 1.000,6.000 1.000,6.000 C0.448,6.000 -0.000,5.552 -0.000,5.000 C-0.000,4.448 0.448,4.000 1.000,4.000 C1.000,4.000 12.000,4.000 12.000,4.000 C12.552,4.000 13.000,4.448 13.000,5.000 C13.000,5.552 12.552,6.000 12.000,6.000 ZM12.000,2.000 C12.000,2.000 1.000,2.000 1.000,2.000 C0.448,2.000 -0.000,1.552 -0.000,1.000 C-0.000,0.448 0.448,-0.000 1.000,-0.000 C1.000,-0.000 12.000,-0.000 12.000,-0.000 C12.552,-0.000 13.000,0.448 13.000,1.000 C13.000,1.552 12.552,2.000 12.000,2.000 ZM1.000,8.000 C1.000,8.000 12.000,8.000 12.000,8.000 C12.552,8.000 13.000,8.448 13.000,9.000 C13.000,9.552 12.552,10.000 12.000,10.000 C12.000,10.000 1.000,10.000 1.000,10.000 C0.448,10.000 -0.000,9.552 -0.000,9.000 C-0.000,8.448 0.448,8.000 1.000,8.000 Z" fill-rule="evenodd"/>
</svg>
