<svg xmlns="http://www.w3.org/2000/svg" preserveAspectRatio="xMidYMid" width="60" height="57" viewBox="0 0 60 57"><defs><style>.cls-2 { fill: #f88d1a; }</style></defs><path d="M45.998 36.702L48.538 57 30 48.31 11.46 57l2.543-20.3-14-14.928 20.11-3.86L30 .002l9.887 17.91 20.11 3.86-14 14.93zm-23.42-5.875c0 .232.23.502.5.502.692 0 2.537-3.36 3.96-3.36.308 0 .654.346.384 1.04l-2.69 6.79c-.27.655-1.577 3.82-1.577 5.67 0 1.465.96 2.12 2.345 2.12 3.883 0 8.38-4.78 8.38-5.9 0-.35-.268-.58-.46-.58-.538 0-2.653 3.28-3.806 3.28-.308 0-.46-.27-.46-.54 0-.618.422-1.58.652-2.16l2.768-7.52c1.384-3.74-.385-4.746-2.038-4.746-2.23 0-4.23 1.118-5.766 2.584-.5.503-2.19 2.12-2.19 2.816zM32.65 18.33c-1.69 0-3.152 1.39-3.152 3.086 0 1.582 1.038 2.624 2.615 2.624 1.73 0 3.19-1.312 3.19-3.087 0-1.582-1.114-2.622-2.653-2.622z" id="path-1" class="cls-2" fill-rule="evenodd"/></svg>