<svg xmlns="http://www.w3.org/2000/svg" preserveAspectRatio="xMidYMid" width="68" height="52" viewBox="0 0 68 52"><defs><style>.cls-2 { fill: #464646; }</style></defs><path d="M67.224 8.762c.39.39.39 1.023 0 1.414L62.98 14.42l-9.9-9.9L57.325.275c.39-.39 1.024-.39 1.414 0l4.95 4.95-4.248 4.243 3.536 3.534 4.244-4.242zM60.86 16.54l-9.9-9.9-.4.4 1.814-1.814 9.9 9.9-1.414 1.414zM30.454 46.945l-12.968 3.413L18 51l-4-1-3 1-7-2-4 3 2-6 9 3 3-3 3.16 3.95 3.395-12.904 29.698-29.7 9.9 9.9-29.7 29.7zm-10.607-2.12c1.503-.045 2.96 1.325 2.83 2.827-.023.022 7.07-1.414 7.07-1.414l.707-3.535h-2.828l.707-2.122-3.536.71.707-3.532H24.09V36.34l-2.828 1.413s-1.437 7.093-1.415 7.07zM50.253 8.76L24.09 34.925l4.95-.708 23.334-23.334-2.12-2.12z" id="path-1" class="cls-2" fill-rule="evenodd"/></svg>