<svg xmlns="http://www.w3.org/2000/svg" preserveAspectRatio="xMidYMid" width="70" height="47" viewBox="0 0 70 47"><defs><style>.cls-2 { fill: #f88d1a; }</style></defs><path d="M69.504 18.37l-4.794 4.775-1.198-1.194-1.2 1.2 1.2 1.194c-7.835 7.8-20.677 20.59-21.575 21.484-1.298 1.293-13.384 2.19-16.68-1.094-.138-.14-.26-.314-.384-.48l3.03-3.02c.154.253.33.495.55.713 1.49 1.483 3.904 1.483 5.394 0 1.49-1.483 1.49-3.888 0-5.37-.22-.22-.463-.395-.716-.55L50.86 18.37c.66-.66.66-1.727 0-2.387L43.4 8.557l2.13-2.122 1.8 1.79 1.197-1.193-1.8-1.79 4.8-4.776c.662-.66 1.735-.66 2.397 0l15.58 15.516c.663.66.663 1.728 0 2.388zM49.13 7.63l-1.2 1.194 1.798 1.79 1.198-1.193-1.797-1.79zm2.396 2.388l-1.2 1.193 1.8 1.79 1.198-1.19-1.798-1.79zm2.397 2.387l-1.2 1.193 1.8 1.79 1.198-1.193-1.792-1.79zm2.397 2.387l-1.2 1.193 1.8 1.79 1.198-1.193-1.798-1.79zm2.397 2.387l-1.197 1.19 1.796 1.79 1.2-1.196-1.8-1.79zm2.397 2.382l-1.198 1.194 1.798 1.79 1.198-1.194-1.798-1.79zM46.62 18.37l-4.793 4.775-1.2-1.194-1.197 1.2 1.198 1.194.33-.33-21.904 21.814c-1.298 1.293-13.384 2.19-16.68-1.094-3.296-3.284-2.597-15.518-1.3-16.81L28.644.464c.66-.66 1.735-.66 2.397 0L46.62 15.98c.665.66.665 1.73 0 2.39zM10.965 36.574c-1.49-1.483-3.905-1.483-5.394 0-1.49 1.483-1.49 3.888 0 5.37 1.49 1.484 3.91 1.484 5.4 0 1.49-1.482 1.49-3.887 0-5.37zM23.848 5.24L22.65 6.436l1.798 1.79 1.198-1.193-1.798-1.79zm2.397 2.388l-1.198 1.194 1.798 1.79 1.198-1.193-1.798-1.797zm2.398 2.388l-1.2 1.193 1.8 1.79 1.197-1.2-1.793-1.79zm2.397 2.387l-1.2 1.193 1.8 1.79 1.198-1.193-1.798-1.79zm2.397 2.387l-1.2 1.193 1.8 1.79 1.198-1.193-1.798-1.79zm2.397 2.387l-1.198 1.194 1.797 1.79 1.2-1.19-1.8-1.79zm2.397 2.387l-1.192 1.194 1.798 1.79 1.2-1.193-1.8-1.79z" id="path-1" class="cls-2" fill-rule="evenodd"/></svg>