<svg xmlns="http://www.w3.org/2000/svg" preserveAspectRatio="xMidYMid" width="77" height="56" viewBox="0 0 77 56"><defs><style>.cls-2 { fill: #f88d1a; }</style></defs><path d="M67.576 46.866c-1 1.678-3.328 6.207-1.224 9.07-7.61 0-11.37-3.952-11.458-4.044-2.61.51-5.354.802-8.2.802-8.653 0-16.44-2.536-21.96-6.583 1.03.06 2.07.1 3.123.1 20.356 0 36.857-11.25 36.857-25.133 0-2.475-.533-4.865-1.51-7.124C71.5 17.708 77 24.208 77 31.613c0 6.007-3.63 11.413-9.424 15.253zm-37.262-4.713c-2.845 0-5.586-.292-8.197-.802-.07.1-3.042 4.05-11.46 4.05 3.276-2.755-1.638-8.92-1.638-8.92l1.582.59C4.122 33.2.01 27.48.01 21.07.01 9.43 13.576-.008 30.313-.008S60.62 9.43 60.62 21.07c0 11.643-13.57 21.08-30.306 21.08z" id="path-1" class="cls-2" fill-rule="evenodd"/></svg>