<svg xmlns="http://www.w3.org/2000/svg" preserveAspectRatio="xMidYMid" width="7" height="12" viewBox="0 0 7 12"><path d="M3.637 8.163c-.058-.088-.103-.197-.137-.328-.034-.13-.05-.258-.05-.383 0-.182.023-.344.07-.488.046-.143.115-.278.207-.406.09-.128.205-.257.343-.387.138-.13.298-.27.48-.42.272-.22.51-.44.72-.65.208-.21.382-.43.523-.66.14-.23.247-.47.32-.73.073-.26.11-.54.11-.86 0-.5-.088-.93-.262-1.28-.17-.35-.41-.65-.72-.88-.31-.23-.67-.4-1.09-.5C3.73.07 3.28.02 2.8.02c-.508 0-.998.06-1.47.18S.42.5.016.74v2.35c.39-.344.804-.6 1.242-.77.437-.17.86-.254 1.265-.254.19 0 .36.028.51.086.158.05.288.13.39.23.11.1.19.22.25.353.058.137.087.286.087.45 0 .185-.026.356-.078.51-.053.153-.13.3-.236.445-.102.143-.23.287-.377.43-.15.143-.32.3-.52.464-.19.156-.35.313-.49.472-.15.16-.26.324-.36.5-.1.173-.17.36-.22.56-.05.195-.07.413-.07.653 0 .15.01.31.04.48.03.17.07.32.12.45h2.06zm.117 3.055c.265-.245.398-.555.398-.93 0-.37-.135-.674-.406-.914-.27-.244-.612-.367-1.023-.367-.417 0-.763.123-1.04.367-.276.245-.414.55-.414.914 0 .355.13.662.41.923.27.25.62.38 1.04.38.41 0 .76-.12 1.03-.36z" id="path-1" fill-rule="evenodd"/></svg>