<svg xmlns="http://www.w3.org/2000/svg" preserveAspectRatio="xMidYMid" width="9" height="12" viewBox="0 0 9 12"><defs><style>.cls-2 { fill: #f88d1a; }</style></defs><path d="M8 12H1c-.552 0-1-.448-1-1V7c0-.552.448-1 1-1V3h.05c.245-1.694 1.688-3 3.45-3C6.433 0 8 1.567 8 3.5c0 .17-.013.337-.037.5H6V3h-.1c-.208-.58-.75-1-1.4-1-.65 0-1.192.42-1.4 1H3v3h5c.552 0 1 .448 1 1v4c0 .552-.448 1-1 1zM4.5 8c-.276 0-.5.223-.5.5 0 .276.224 1.5.5 1.5S5 8.775 5 8.5c0-.277-.224-.5-.5-.5z" id="path-1" class="cls-2" fill-rule="evenodd"/></svg>