<svg xmlns="http://www.w3.org/2000/svg" preserveAspectRatio="xMidYMid" width="52" height="37" viewBox="0 0 52 37"><path d="M45.582 31.264c-.675 1.12-2.244 4.14-.826 6.048-5.16 0-7.696-2.664-7.727-2.697-1.77.34-3.62.535-5.53.535-5.85 0-11.1-1.695-14.83-4.397.7.04 1.4.072 2.113.072 13.73 0 24.86-7.502 24.86-16.756 0-1.66-.37-3.25-1.03-4.76 5.6 2.5 9.314 6.84 9.314 11.78 0 4-2.447 7.61-6.355 10.17zm-25.13-3.14c-1.92 0-3.768-.196-5.53-.536-.023.033-2.018 2.697-7.727 2.697 2.21-1.838-1.105-5.946-1.105-5.946l1.07.39C2.793 22.15.015 18.34.015 14.07.015 6.306 9.165.013 20.452.013 31.74.013 40.89 6.307 40.89 14.07c0 7.76-9.15 14.053-20.438 14.053z" id="path-1" fill-rule="evenodd"/></svg>