<svg xmlns="http://www.w3.org/2000/svg" preserveAspectRatio="xMidYMid" width="80" height="80" viewBox="0 0 80 80"><defs><style>.cls-2 { fill: #464646; }</style></defs><path d="M40 80C17.91 80 0 62.09 0 40S17.91 0 40 0s40 17.91 40 40-17.91 40-40 40zm0-78C19.013 2 2 19.013 2 40s17.013 38 38 38 38-17.013 38-38S60.987 2 40 2zm29.575 32.634s-1.667 1.65-4.11 4.063L64.44 37.68l-1.027 1.017 1.028 1.016-18.49 18.284c-1.11 1.1-11.47 1.863-14.295-.93-.12-.118-.224-.266-.33-.41l2.596-2.567c.133.215.285.42.47.607 1.28 1.262 3.35 1.262 4.625 0 1.278-1.263 1.278-3.31 0-4.57-.186-.187-.395-.337-.612-.468L53.6 34.63c.567-.56.567-1.47 0-2.033l-6.393-6.32c.635-.626 1.25-1.232 1.828-1.805L50.568 26l1.028-1.016-1.54-1.524-.632.625 4.74-4.688c.568-.56 1.488-.56 2.056 0l13.355 13.205c.568.56.568 1.47 0 2.032zM52.11 25.492l-1.027 1.015 1.54 1.524 1.028-1.01-1.54-1.524zm2.055 2.03l-1.027 1.017 1.54 1.52 1.028-1.017-1.54-1.524zm2.055 2.033l-1.028 1.016 1.54 1.528 1.03-1.016-1.542-1.523zm2.054 2.03l-1.027 1.017 1.54 1.524 1.028-1.016-1.54-1.524zm2.055 2.033l-1.03 1.016 1.54 1.524 1.025-1.016-1.54-1.524zm2.05 2.032l-1.028 1.016 1.54 1.523 1.03-1.02-1.542-1.524zm-12.42-1.016l-4.11 4.063-1.027-1.016-1.027 1.02 1.027 1.017L26.333 58c-1.114 1.1-11.473 1.862-14.298-.93-2.825-2.797-2.225-13.21-1.113-14.31l18.492-18.284L30.954 26l1.028-1.016-1.54-1.524-.943.932 5.05-4.995c.564-.56 1.484-.56 2.05 0l13.36 13.205c.568.56.568 1.47 0 2.032zM19.397 50.126c-1.276-1.263-3.346-1.263-4.623 0-1.276 1.26-1.276 3.308 0 4.57 1.277 1.263 3.347 1.263 4.623 0 1.277-1.262 1.277-3.31 0-4.57zm13.1-24.634l-1.028 1.015 1.54 1.524 1.027-1.01-1.54-1.524zm2.054 2.03l-1.027 1.017 1.54 1.52 1.03-1.017-1.542-1.524zm2.055 2.033L35.58 30.57l1.54 1.525 1.03-1.016-1.543-1.527zm2.055 2.03l-1.027 1.017 1.54 1.524 1.028-1.016-1.54-1.524zm2.055 2.033l-1.027 1.016 1.54 1.524 1.028-1.016-1.54-1.524zm2.055 2.032l-1.028 1.016 1.54 1.523 1.03-1.02-1.542-1.524z" id="path-1" class="cls-2" fill-rule="evenodd"/></svg>