<svg xmlns="http://www.w3.org/2000/svg" preserveAspectRatio="xMidYMid" width="52" height="40" viewBox="0 0 52 40"><path d="M51.763 6.74c.3.3.3.786 0 1.087l-3.267 3.264-7.623-7.61L44.14.21c.3-.3.79-.3 1.09 0l3.81 3.808-3.266 3.263L48.496 10l3.267-3.263zm-4.9 5.982L39.24 5.107l1.09-1.088 7.622 7.61-1.09 1.09zm-.305.305L23.45 36.11l-9.985 2.626.395.494-3.08-.77-2.31.77-5.39-1.538L0 40l1.54-4.616 6.93 2.308 2.31-2.308 2.433 3.037 2.614-9.92L38.695 5.65l7.623 7.616.24-.24zM15.283 34.48c1.157-.035 2.28 1.02 2.178 2.175-.01.017 5.45-1.088 5.45-1.088l.55-2.72h-2.18l.546-1.63-2.722.543.546-2.72h-1.09v-1.088l-2.18 1.088s-1.106 5.456-1.09 5.44zM38.695 6.74L18.55 26.863l3.81-.544L40.33 8.37l-1.635-1.63z" id="path-1" fill-rule="evenodd"/></svg>