<svg xmlns="http://www.w3.org/2000/svg" preserveAspectRatio="xMidYMid" width="80" height="80" viewBox="0 0 80 80"><path d="M40 80C17.91 80 0 62.09 0 40S17.91 0 40 0s40 17.91 40 40-17.91 40-40 40zm0-78C19.013 2 2 19.013 2 40s17.013 38 38 38 38-17.013 38-38S60.987 2 40 2zm15.998 43.7l2.54 20.3L40 57.312l-18.54 8.686L24.003 45.7l-14-14.93 20.11-3.857L40 9l9.887 17.913 20.11 3.858-14 14.93zm-23.42-5.873c0 .23.23.502.5.502.692 0 2.537-3.36 3.96-3.36.308 0 .654.34.384 1.04l-2.69 6.79c-.27.65-1.577 3.82-1.577 5.67 0 1.46.96 2.12 2.345 2.12 3.883 0 8.38-4.78 8.38-5.9 0-.35-.268-.58-.46-.58-.538 0-2.653 3.28-3.806 3.28-.308 0-.46-.27-.46-.54 0-.62.422-1.58.652-2.16l2.768-7.52c1.384-3.74-.385-4.75-2.038-4.75-2.23 0-4.23 1.12-5.766 2.58-.5.502-2.19 2.12-2.19 2.816zM42.65 27.33c-1.69 0-3.152 1.388-3.152 3.085 0 1.582 1.038 2.624 2.615 2.624 1.73 0 3.19-1.32 3.19-3.09 0-1.58-1.114-2.63-2.653-2.63z" id="path-1" fill-rule="evenodd"/></svg>