<svg xmlns="http://www.w3.org/2000/svg" preserveAspectRatio="xMidYMid" width="35" height="35" viewBox="0 0 35 35"><defs><style>.cls-2 { fill: #464646; }</style></defs><path d="M31 31c0 .552-2.667 2-5 2s-14-1-14-1c-.552 0-1-.448-1-1V13c0-.552 4.167-9.333 7-13 5 0-1.333 12 4 12s11 1 11 1 2 5.333 2 7c0 1.667-4 11-4 11zM8 35H1c-.552 0-1-.448-1-1V13c0-.552.448-1 1-1h7c.552 0 1 .448 1 1v21c0 .552-.448 1-1 1zm-4.5-5c-.828 0-1.5.67-1.5 1.5 0 .828.672 1.5 1.5 1.5S5 32.328 5 31.5c0-.83-.672-1.5-1.5-1.5z" id="path-1" class="cls-2" fill-rule="evenodd"/></svg>