<svg xmlns="http://www.w3.org/2000/svg" xmlns:xlink="http://www.w3.org/1999/xlink" preserveAspectRatio="xMidYMid" width="20.031" height="20" viewBox="0 0 20.031 20">
  <path d="M19.826,9.968 L19.704,10.214 C19.485,10.651 19.433,11.153 19.556,11.627 L19.625,11.893 C19.822,12.655 19.561,13.462 18.955,13.962 L18.743,14.136 C18.367,14.447 18.116,14.884 18.036,15.366 L17.991,15.638 C17.863,16.414 17.297,17.045 16.542,17.254 L16.277,17.327 C15.808,17.457 15.401,17.754 15.133,18.162 L14.982,18.392 C14.550,19.049 13.778,19.395 13.002,19.277 L12.731,19.236 C12.250,19.163 11.758,19.267 11.347,19.531 L11.116,19.679 C10.456,20.103 9.610,20.103 8.950,19.679 L8.719,19.531 C8.308,19.267 7.817,19.163 7.335,19.236 L7.064,19.277 C6.289,19.395 5.516,19.049 5.085,18.392 L4.934,18.162 C4.665,17.754 4.259,17.457 3.789,17.327 L3.525,17.254 C2.769,17.045 2.203,16.414 2.075,15.638 L2.030,15.366 C1.951,14.884 1.699,14.447 1.323,14.136 L1.111,13.962 C0.505,13.462 0.244,12.655 0.441,11.893 L0.511,11.627 C0.633,11.153 0.581,10.651 0.363,10.214 L0.240,9.968 C-0.111,9.264 -0.023,8.420 0.466,7.805 L0.637,7.590 C0.941,7.207 1.097,6.727 1.075,6.239 L1.062,5.964 C1.027,5.178 1.450,4.442 2.145,4.080 L2.389,3.953 C2.821,3.728 3.158,3.353 3.336,2.898 L3.436,2.642 C3.722,1.909 4.406,1.410 5.188,1.363 L5.462,1.347 C5.948,1.318 6.408,1.113 6.755,0.769 L6.950,0.576 C7.508,0.023 8.335,-0.153 9.069,0.124 L9.326,0.220 C9.782,0.393 10.285,0.393 10.741,0.220 L10.997,0.124 C11.731,-0.153 12.558,0.023 13.116,0.576 L13.312,0.769 C13.659,1.113 14.118,1.318 14.604,1.347 L14.878,1.363 C15.660,1.410 16.345,1.909 16.631,2.642 L16.731,2.898 C16.908,3.353 17.245,3.728 17.677,3.953 L17.921,4.080 C18.617,4.442 19.040,5.178 19.004,5.964 L18.992,6.239 C18.970,6.727 19.125,7.207 19.429,7.590 L19.600,7.805 C20.089,8.420 20.177,9.264 19.826,9.968 ZM17.683,8.246 L17.546,8.075 C17.304,7.769 17.179,7.386 17.197,6.995 L17.207,6.776 C17.235,6.148 16.897,5.560 16.341,5.271 L16.147,5.170 C15.801,4.990 15.532,4.690 15.390,4.327 L15.310,4.122 C15.081,3.537 14.535,3.138 13.909,3.101 L13.690,3.088 C13.302,3.064 12.935,2.900 12.657,2.626 L12.501,2.472 C12.055,2.030 11.394,1.889 10.808,2.110 L10.603,2.188 C10.238,2.325 9.836,2.325 9.472,2.188 L9.267,2.110 C8.680,1.889 8.019,2.030 7.573,2.472 L7.417,2.626 C7.140,2.900 6.773,3.064 6.384,3.088 L6.165,3.101 C5.540,3.138 4.993,3.537 4.764,4.122 L4.684,4.327 C4.542,4.690 4.273,4.990 3.928,5.170 L3.733,5.271 C3.177,5.560 2.839,6.148 2.867,6.776 L2.877,6.995 C2.895,7.386 2.771,7.769 2.528,8.075 L2.391,8.246 C2.000,8.738 1.930,9.412 2.210,9.974 L2.308,10.171 C2.483,10.520 2.525,10.921 2.426,11.299 L2.371,11.512 C2.213,12.121 2.422,12.766 2.906,13.165 L3.076,13.304 C3.377,13.552 3.577,13.902 3.641,14.287 L3.677,14.504 C3.779,15.124 4.231,15.628 4.835,15.795 L5.047,15.854 C5.422,15.957 5.747,16.194 5.962,16.521 L6.082,16.704 C6.427,17.229 7.045,17.505 7.664,17.411 L7.881,17.378 C8.266,17.319 8.659,17.403 8.987,17.614 L9.171,17.732 C9.699,18.071 10.375,18.071 10.903,17.732 L11.088,17.614 C11.416,17.403 11.809,17.319 12.194,17.378 L12.410,17.411 C13.030,17.505 13.647,17.229 13.992,16.704 L14.113,16.521 C14.327,16.194 14.652,15.957 15.028,15.854 L15.239,15.795 C15.843,15.628 16.295,15.124 16.397,14.504 L16.433,14.287 C16.497,13.902 16.698,13.552 16.999,13.304 L17.168,13.165 C17.652,12.766 17.861,12.121 17.703,11.512 L17.648,11.299 C17.550,10.921 17.592,10.520 17.766,10.171 L17.864,9.974 C18.145,9.412 18.074,8.738 17.683,8.246 ZM12.292,13.836 C11.761,13.836 11.332,13.668 11.008,13.331 C10.683,12.994 10.520,12.540 10.520,11.970 C10.520,11.348 10.693,10.855 11.039,10.490 C11.385,10.125 11.846,9.943 12.423,9.943 C12.979,9.943 13.411,10.106 13.720,10.433 C14.030,10.759 14.184,11.222 14.184,11.819 C14.184,12.434 14.012,12.924 13.668,13.289 C13.324,13.654 12.866,13.836 12.292,13.836 ZM12.897,11.126 C12.765,10.949 12.591,10.860 12.376,10.860 C11.872,10.860 11.620,11.213 11.620,11.918 C11.620,12.585 11.865,12.919 12.355,12.919 C12.848,12.919 13.095,12.571 13.095,11.876 C13.095,11.553 13.029,11.303 12.897,11.126 ZM6.955,13.732 L11.813,6.258 L13.095,6.258 L8.227,13.732 L6.955,13.732 ZM7.638,10.047 C7.106,10.047 6.678,9.879 6.353,9.541 C6.028,9.204 5.866,8.751 5.866,8.181 C5.866,7.559 6.039,7.066 6.384,6.701 C6.730,6.336 7.191,6.154 7.768,6.154 C8.321,6.154 8.752,6.319 9.063,6.649 C9.374,6.979 9.530,7.443 9.530,8.040 C9.530,8.655 9.358,9.144 9.014,9.505 C8.670,9.866 8.211,10.047 7.638,10.047 ZM7.737,7.071 C7.229,7.071 6.976,7.424 6.976,8.129 C6.976,8.796 7.217,9.130 7.700,9.130 C8.194,9.130 8.441,8.782 8.441,8.087 C8.441,7.410 8.206,7.071 7.737,7.071 Z"/>
</svg>
