<svg xmlns="http://www.w3.org/2000/svg" xmlns:xlink="http://www.w3.org/1999/xlink" preserveAspectRatio="xMidYMid" width="19" height="23" viewBox="0 0 19 23">
  <path d="M-0.000,23.000 L-0.000,3.000 L2.000,3.000 L2.000,4.000 L6.000,4.000 L6.000,3.000 L13.000,3.000 L13.000,4.000 L17.000,4.000 L17.000,3.000 L19.000,3.000 L19.000,23.000 L-0.000,23.000 ZM18.000,7.000 L1.000,7.000 L1.000,22.000 L18.000,22.000 L18.000,7.000 ZM5.000,16.000 L2.000,16.000 L2.000,13.000 L5.000,13.000 L5.000,16.000 ZM5.000,20.000 L2.000,20.000 L2.000,17.000 L5.000,17.000 L5.000,20.000 ZM9.000,12.000 L6.000,12.000 L6.000,9.000 L9.000,9.000 L9.000,12.000 ZM9.000,16.000 L6.000,16.000 L6.000,13.000 L9.000,13.000 L9.000,16.000 ZM9.000,20.000 L6.000,20.000 L6.000,17.000 L9.000,17.000 L9.000,20.000 ZM13.000,12.000 L10.000,12.000 L10.000,9.000 L13.000,9.000 L13.000,12.000 ZM13.000,16.000 L10.000,16.000 L10.000,13.000 L13.000,13.000 L13.000,16.000 ZM13.000,20.000 L10.000,20.000 L10.000,17.000 L13.000,17.000 L13.000,20.000 ZM17.000,12.000 L14.000,12.000 L14.000,9.000 L17.000,9.000 L17.000,12.000 ZM17.000,16.000 L14.000,16.000 L14.000,13.000 L17.000,13.000 L17.000,16.000 ZM14.735,-0.000 L15.510,-0.000 L16.000,3.000 L14.000,3.000 L14.735,-0.000 ZM4.000,-0.000 L5.000,3.000 L3.000,3.000 L4.000,-0.000 Z"/>
</svg>
