<svg xmlns="http://www.w3.org/2000/svg" preserveAspectRatio="xMidYMid" width="20" height="20" viewBox="0 0 20 20"><path d="M17.422 8.733L20.002 10l-2.39 1.78 1.704 1.86-2.88.79.637 2.642-2.702-.525-.35 2.614-2.74-1.74L10 20.01l-1.78-2.39-1.86 1.704-.792-2.88-2.64.636.525-2.702L.84 14.02l1.733-2.748L-.007 10l2.39-1.782-1.7-1.858 2.88-.792-.635-2.64 2.702.524.355-2.614 2.747 1.74L10-.002l1.78 2.388L13.64.683l.79 2.88 2.643-.636-.526 2.702 2.614.35-1.73 2.75zM10 3c-3.866 0-7 3.134-7 7 0 3.865 3.134 7 7 7s7-3.135 7-7c0-3.866-3.134-7-7-7zm0 13c-3.314 0-6-2.687-6-6 0-3.314 2.686-6 6-6s6 2.686 6 6c0 3.313-2.686 6-6 6z" id="path-1" fill-rule="evenodd"/></svg>