<svg xmlns="http://www.w3.org/2000/svg" xmlns:xlink="http://www.w3.org/1999/xlink" preserveAspectRatio="xMidYMid" width="24" height="18" viewBox="0 0 24 18">
  <path d="M15.576,4.988 C15.701,4.984 15.838,4.979 15.994,4.973 C15.995,4.978 16.000,5.000 16.000,5.000 C16.000,5.000 15.824,4.997 15.576,4.988 ZM15.000,5.000 C15.000,5.000 15.015,4.972 15.020,4.961 C15.240,4.973 15.423,4.983 15.576,4.988 C15.223,4.998 15.000,5.000 15.000,5.000 ZM24.000,5.000 L24.000,10.000 L23.000,10.000 L23.000,18.000 L7.000,18.000 L7.000,15.000 L9.000,15.000 L9.000,16.000 L14.000,16.000 L14.000,10.000 L9.000,10.000 L9.000,11.000 L7.000,11.000 L7.000,10.000 L6.000,10.000 L6.000,5.000 L14.000,5.000 L15.000,5.000 L16.000,5.000 L24.000,5.000 ZM16.000,16.000 L21.000,16.000 L21.000,10.000 L16.000,10.000 L16.000,16.000 ZM16.000,9.000 L22.000,9.000 L22.000,7.000 L16.000,7.000 L16.000,9.000 ZM14.000,7.000 L8.000,7.000 L8.000,9.000 L14.000,9.000 L14.000,7.000 ZM10.563,4.153 C9.057,3.459 10.810,-1.612 13.197,0.536 C14.575,1.776 15.284,3.058 15.647,3.932 C15.269,4.497 15.062,4.879 15.020,4.961 C13.808,4.894 11.756,4.703 10.563,4.153 ZM13.782,2.536 C12.721,1.769 11.831,3.537 12.611,3.830 C13.392,4.123 14.953,4.153 14.953,4.153 C14.953,4.153 14.843,3.304 13.782,2.536 ZM18.370,0.842 C20.672,-1.160 22.603,3.450 20.910,4.214 C19.735,4.745 17.347,4.917 15.994,4.973 C15.983,4.915 15.893,4.523 15.647,3.932 C16.192,3.120 17.081,1.964 18.370,0.842 ZM18.935,3.913 C19.687,3.640 18.829,1.991 17.806,2.707 C16.783,3.423 16.677,4.214 16.677,4.214 C16.677,4.214 18.182,4.186 18.935,3.913 ZM8.000,12.000 L8.000,14.000 L5.000,14.000 L5.000,17.000 L3.000,17.000 L3.000,14.000 L-0.000,14.000 L-0.000,12.000 L3.000,12.000 L3.000,9.000 L5.000,9.000 L5.000,12.000 L8.000,12.000 Z"/>
</svg>
