<svg xmlns="http://www.w3.org/2000/svg" preserveAspectRatio="xMidYMid" width="7" height="12" viewBox="0 0 7 12"><defs><style>.cls-2 { fill: #ffa646; }</style></defs><path d="M3.637 8.164c-.058-.09-.103-.198-.137-.328-.034-.13-.05-.258-.05-.383 0-.182.023-.345.07-.488.046-.143.115-.28.207-.407.09-.127.205-.256.343-.386.138-.13.298-.27.48-.422.272-.224.51-.442.72-.652.208-.21.382-.43.523-.66.14-.23.247-.473.32-.73.073-.26.11-.547.11-.864 0-.5-.088-.93-.262-1.285-.17-.36-.41-.65-.72-.88-.31-.23-.67-.4-1.09-.51C3.74.06 3.29.01 2.8.01c-.505 0-.995.06-1.47.18S.42.493.016.73v2.353c.39-.344.804-.6 1.242-.77.437-.17.86-.254 1.265-.254.188 0 .36.03.51.08.156.06.286.13.393.23.107.1.19.21.246.35.06.14.09.29.09.45 0 .18-.027.36-.08.51-.052.15-.13.3-.235.44-.102.14-.23.28-.377.43-.148.14-.32.3-.52.46-.187.15-.35.31-.49.47-.142.16-.26.32-.353.5-.095.17-.165.36-.212.55-.046.2-.07.41-.07.65 0 .15.015.31.044.48.03.17.07.32.12.454h2.05zm.117 3.055c.265-.25.398-.56.398-.93s-.135-.68-.406-.92C3.476 9.12 3.134 9 2.723 9c-.417 0-.763.122-1.04.367-.276.245-.414.55-.414.914 0 .36.13.66.41.92.27.25.62.38 1.04.38.41 0 .76-.12 1.03-.36z" id="path-1" class="cls-2" fill-rule="evenodd"/></svg>