<svg xmlns="http://www.w3.org/2000/svg" preserveAspectRatio="xMidYMid" width="15" height="13" viewBox="0 0 15 13"><defs><style>.cls-2 { fill: #ffa646; }</style></defs><path d="M15 9.793v.414l-.576.256c-.023.12-.054.235-.093.348l.37.51-.2.36-.63-.06c-.08.09-.16.18-.25.26l.07.63-.36.21-.51-.37c-.11.04-.22.07-.34.1l-.25.58h-.42l-.25-.57c-.12-.02-.23-.05-.35-.09l-.51.37-.36-.2.07-.63c-.09-.074-.17-.16-.25-.25l-.63.064-.2-.36.37-.51c-.036-.114-.07-.23-.09-.35l-.58-.27V9.8l.577-.258c.025-.12.057-.24.096-.35l-.38-.51.2-.36.63.06c.08-.09.164-.177.255-.25l-.066-.63.36-.21.51.37c.11-.04.225-.07.344-.09l.26-.576h.417l.255.575c.12.03.235.06.35.1l.51-.37.36.21-.067.63c.09.08.18.16.257.25l.63-.06.204.36-.37.51c.04.11.07.23.09.35l.58.25zM12 9c-.552 0-1 .448-1 1s.448 1 1 1 1-.448 1-1-.448-1-1-1zM8.885 6.352l.617.85-.344.596-1.046-.11c-.13.15-.273.293-.424.424l.11 1.046-.597.344-.84-.617c-.19.065-.38.117-.58.155l-.43.96h-.69l-.42-.96c-.2-.038-.39-.09-.58-.155l-.85.617-.59-.344.11-1.046c-.15-.13-.29-.273-.42-.424l-1.04.11L.5 7.2l.616-.848C1.05 6.164.998 5.97.96 5.772L0 5.344v-.69l.96-.427c.038-.2-.025-.04.04-.228L.497 2.79l.345-.59L2 2c.13-.152.16.02.312-.112L2.202.842 2.8.497s1.116.3 1.24.44L4 1c.064-.012.064-.036.04-.063L4.656 0h.69L6 1c.2.038.164.05.352.115l.85-.618.597.345-.12 1.046c.15.13.29.273.42.424l1.04-.11.34.596-.62.85c.06.187.11.38.15.58l.96.427v.69l-.96.426c-.04.2-.09.4-.16.59zM5 3.447c-.858 0-1.553.695-1.553 1.553 0 .857.695 1.553 1.553 1.553S6.553 5.857 6.553 5c0-.858-.695-1.553-1.553-1.553z" id="path-1" class="cls-2" fill-rule="evenodd"/></svg>