<svg xmlns="http://www.w3.org/2000/svg" preserveAspectRatio="xMidYMid" width="15" height="13" viewBox="0 0 15 13"><defs><style>.cls-2 { fill: #f88d1a; }</style></defs><path d="M15 9.792v.414l-.576.256c-.023.12-.054.236-.093.35l.37.508-.2.36-.63-.068c-.08.09-.16.176-.25.255l.07.627-.36.207-.51-.37c-.11.04-.22.07-.34.1l-.25.58h-.42l-.25-.57c-.12-.02-.23-.05-.35-.09l-.51.37-.36-.2.07-.62c-.09-.08-.17-.16-.25-.25l-.63.07-.2-.36.37-.51c-.03-.11-.07-.23-.09-.35l-.6-.28V9.8l.58-.256c.02-.12.06-.24.1-.35l-.38-.51.2-.36.63.06c.08-.09.16-.177.25-.256l-.07-.62.36-.2.51.37c.11-.04.22-.07.34-.09l.26-.58h.41l.26.574c.12.02.23.055.35.095l.51-.373.36.205-.06.63c.09.08.18.16.26.26l.63-.07.21.36-.37.5c.04.11.07.23.09.35l.57.25zM12 9c-.552 0-1 .448-1 1s.448 1 1 1 1-.448 1-1-.448-1-1-1zM8.885 6.352l.617.85-.344.596-1.046-.11c-.13.15-.273.293-.424.424l.11 1.045-.597.345-.84-.618c-.19.065-.38.118-.58.156l-.43.96h-.69l-.42-.96c-.2-.038-.39-.09-.58-.156l-.85.618-.59-.345.11-1.045c-.15-.13-.29-.273-.42-.425l-1.04.11L.5 7.2l.617-.847c-.067-.19-.12-.383-.157-.58L0 5.343v-.69l.96-.427c.038-.2-.025-.04.04-.23L.497 2.8l.345-.6L2 2c.13-.152.16.018.312-.113L2.202.842 2.8.497s1.116.298 1.24.44L4 1c.064-.013.064-.036.04-.063L4.656 0h.69L6 1c.2.037.164.05.352.115l.85-.618.597.345-.12 1.045c.15.13.29.273.42.425l1.04-.11.34.596-.62.85c.06.187.11.38.15.58l.96.426v.69l-.96.427c-.04.2-.09.4-.16.59zM5 3.447c-.858 0-1.553.695-1.553 1.552 0 .85.695 1.55 1.553 1.55S6.553 5.85 6.553 5 5.858 3.446 5 3.446z" id="path-1" class="cls-2" fill-rule="evenodd"/></svg>