<svg xmlns="http://www.w3.org/2000/svg" xmlns:xlink="http://www.w3.org/1999/xlink" preserveAspectRatio="xMidYMid" width="26" height="18" viewBox="0 0 16 18">
  <defs>
    <style>

      .cls-2 {
        fill: #9b9b9b;
      }
    </style>
  </defs>
  <path d="M14.000,17.999 C14.000,17.999 2.000,17.999 2.000,17.999 C0.895,17.999 -0.000,17.104 -0.000,15.999 C-0.000,15.999 -0.000,2.999 -0.000,2.999 C-0.000,1.895 0.895,0.999 2.000,0.999 C2.000,0.999 2.000,2.999 2.000,2.999 C2.000,2.999 6.000,2.999 6.000,2.999 C6.000,2.999 6.000,0.999 6.000,0.999 C6.000,0.999 10.000,0.999 10.000,0.999 C10.000,0.999 10.000,2.999 10.000,2.999 C10.000,2.999 14.000,2.999 14.000,2.999 C14.000,2.999 14.000,0.999 14.000,0.999 C15.104,0.999 16.000,1.895 16.000,2.999 C16.000,2.999 16.000,15.999 16.000,15.999 C16.000,17.104 15.104,17.999 14.000,17.999 ZM15.000,7.000 C15.000,5.894 14.104,4.999 13.000,4.999 C13.000,4.999 3.000,4.999 3.000,4.999 C1.895,4.999 1.000,5.894 1.000,7.000 C1.000,7.000 1.000,14.999 1.000,14.999 C1.000,16.104 1.895,16.999 3.000,16.999 C3.000,16.999 13.000,16.999 13.000,16.999 C14.104,16.999 15.000,16.104 15.000,14.999 C15.000,14.999 15.000,7.000 15.000,7.000 ZM10.000,12.999 C10.000,12.999 12.000,12.999 12.000,12.999 C12.000,12.999 12.000,14.999 12.000,14.999 C12.000,14.999 10.000,14.999 10.000,14.999 C10.000,14.999 10.000,12.999 10.000,12.999 ZM10.000,9.999 C10.000,9.999 12.000,9.999 12.000,9.999 C12.000,9.999 12.000,11.999 12.000,11.999 C12.000,11.999 10.000,11.999 10.000,11.999 C10.000,11.999 10.000,9.999 10.000,9.999 ZM10.000,7.000 C10.000,7.000 12.000,7.000 12.000,7.000 C12.000,7.000 12.000,8.999 12.000,8.999 C12.000,8.999 10.000,8.999 10.000,8.999 C10.000,8.999 10.000,7.000 10.000,7.000 ZM7.000,12.999 C7.000,12.999 9.000,12.999 9.000,12.999 C9.000,12.999 9.000,14.999 9.000,14.999 C9.000,14.999 7.000,14.999 7.000,14.999 C7.000,14.999 7.000,12.999 7.000,12.999 ZM7.000,9.999 C7.000,9.999 9.000,9.999 9.000,9.999 C9.000,9.999 9.000,11.999 9.000,11.999 C9.000,11.999 7.000,11.999 7.000,11.999 C7.000,11.999 7.000,9.999 7.000,9.999 ZM7.000,7.000 C7.000,7.000 9.000,7.000 9.000,7.000 C9.000,7.000 9.000,8.999 9.000,8.999 C9.000,8.999 7.000,8.999 7.000,8.999 C7.000,8.999 7.000,7.000 7.000,7.000 ZM4.000,12.999 C4.000,12.999 6.000,12.999 6.000,12.999 C6.000,12.999 6.000,14.999 6.000,14.999 C6.000,14.999 4.000,14.999 4.000,14.999 C4.000,14.999 4.000,12.999 4.000,12.999 ZM4.000,9.999 C4.000,9.999 6.000,9.999 6.000,9.999 C6.000,9.999 6.000,11.999 6.000,11.999 C6.000,11.999 4.000,11.999 4.000,11.999 C4.000,11.999 4.000,9.999 4.000,9.999 ZM4.000,7.000 C4.000,7.000 6.000,7.000 6.000,7.000 C6.000,7.000 6.000,8.999 6.000,8.999 C6.000,8.999 4.000,8.999 4.000,8.999 C4.000,8.999 4.000,7.000 4.000,7.000 ZM11.000,-0.001 C11.000,-0.001 13.000,-0.001 13.000,-0.001 C13.000,-0.001 13.000,1.999 13.000,1.999 C13.000,1.999 11.000,1.999 11.000,1.999 C11.000,1.999 11.000,-0.001 11.000,-0.001 ZM3.000,-0.001 C3.000,-0.001 5.000,-0.001 5.000,-0.001 C5.000,-0.001 5.000,1.999 5.000,1.999 C5.000,1.999 3.000,1.999 3.000,1.999 C3.000,1.999 3.000,-0.001 3.000,-0.001 Z" id="path-1" class="cls-2" fill-rule="evenodd"/>
</svg>
