<svg xmlns="http://www.w3.org/2000/svg" xmlns:xlink="http://www.w3.org/1999/xlink" preserveAspectRatio="xMidYMid" width="40" height="18" viewBox="0 0 17 18">
  <path d="M13.023,13.670 C14.234,13.670 15.259,13.124 16.101,12.032 C16.942,10.940 17.363,9.541 17.363,7.837 C17.363,5.510 16.565,3.622 14.968,2.176 C13.371,0.729 11.355,0.006 8.920,0.006 C6.320,0.006 4.184,0.869 2.512,2.595 C0.840,4.321 0.004,6.494 0.004,9.115 C0.004,11.658 0.800,13.715 2.394,15.287 C3.987,16.858 6.087,17.644 8.694,17.644 C10.549,17.644 12.096,17.379 13.335,16.850 C13.335,16.850 13.335,15.518 13.335,15.518 C12.082,16.105 10.571,16.398 8.802,16.398 C6.560,16.398 4.779,15.723 3.457,14.374 C2.136,13.024 1.476,11.249 1.476,9.051 C1.476,6.816 2.170,4.954 3.560,3.465 C4.949,1.975 6.707,1.230 8.834,1.230 C11.040,1.230 12.766,1.853 14.012,3.100 C15.258,4.346 15.881,5.953 15.881,7.923 C15.881,9.255 15.625,10.340 15.113,11.178 C14.601,12.016 13.958,12.435 13.185,12.435 C12.332,12.435 11.906,11.693 11.906,10.211 C11.906,10.139 12.074,8.131 12.411,4.185 C12.411,4.185 11.068,4.185 11.068,4.185 C11.011,4.808 10.975,5.220 10.961,5.420 C10.961,5.420 10.918,5.420 10.918,5.420 C10.803,5.019 10.544,4.686 10.139,4.421 C9.734,4.156 9.274,4.023 8.759,4.023 C7.412,4.023 6.326,4.559 5.499,5.629 C4.671,6.700 4.258,8.045 4.258,9.663 C4.258,10.888 4.557,11.862 5.155,12.585 C5.753,13.308 6.542,13.670 7.523,13.670 C9.056,13.670 10.084,12.818 10.606,11.113 C10.606,11.113 10.660,11.113 10.660,11.113 C10.667,12.818 11.455,13.670 13.023,13.670 C13.023,13.670 13.023,13.670 13.023,13.670 ZM10.682,7.568 C10.682,9.029 10.422,10.202 9.903,11.086 C9.383,11.971 8.680,12.413 7.792,12.413 C7.176,12.413 6.684,12.170 6.315,11.683 C5.946,11.196 5.762,10.530 5.762,9.685 C5.762,8.431 6.036,7.382 6.583,6.537 C7.131,5.692 7.849,5.269 8.737,5.269 C10.033,5.269 10.682,6.036 10.682,7.568 C10.682,7.568 10.682,7.568 10.682,7.568 Z" fill="#c9c9c9" fill-rule="evenodd"/>
</svg>
