<svg xmlns="http://www.w3.org/2000/svg" xmlns:xlink="http://www.w3.org/1999/xlink" preserveAspectRatio="xMidYMid" width="40" height="16" viewBox="0 0 17 16">
  <path d="M11.031,11.000 C10.628,11.000 10.238,10.951 9.859,10.869 C9.859,10.869 9.270,11.458 9.270,11.458 C9.270,11.458 6.489,12.239 6.489,12.239 C6.489,12.239 5.614,15.114 5.614,15.114 C5.614,15.114 2.531,16.000 2.531,16.000 C2.531,16.000 -0.000,13.657 -0.000,13.657 C-0.000,13.657 5.982,7.675 5.982,7.675 C5.694,7.007 5.531,6.273 5.531,5.500 C5.531,2.462 7.994,-0.000 11.031,-0.000 C14.069,-0.000 16.531,2.462 16.531,5.500 C16.531,8.538 14.069,11.000 11.031,11.000 ZM11.531,3.000 C10.427,3.000 9.531,3.895 9.531,5.000 C9.531,6.105 10.427,7.000 11.531,7.000 C12.636,7.000 13.531,6.105 13.531,5.000 C13.531,3.895 12.636,3.000 11.531,3.000 Z" fill="#c9c9c9" fill-rule="evenodd"/>
</svg>
