<svg xmlns="http://www.w3.org/2000/svg" xmlns:xlink="http://www.w3.org/1999/xlink" preserveAspectRatio="xMidYMid" width="40" height="15" viewBox="0 0 17 15">
  <path d="M8.500,15.000 C3.806,15.000 -0.000,14.537 -0.000,11.500 C-0.000,10.444 1.000,8.000 1.000,8.000 C1.000,8.000 2.424,7.712 4.214,7.446 C4.775,9.497 6.470,11.000 8.500,11.000 C10.549,11.000 12.259,9.469 12.803,7.387 C14.538,7.668 16.000,8.000 16.000,8.000 C16.000,8.000 17.000,10.144 17.000,11.500 C17.000,14.537 13.194,15.000 8.500,15.000 ZM8.500,9.000 C6.567,9.000 5.000,5.433 5.000,3.500 C5.000,1.567 6.567,-0.000 8.500,-0.000 C10.433,-0.000 12.000,1.567 12.000,3.500 C12.000,5.433 10.433,9.000 8.500,9.000 Z" fill="#c9c9c9" fill-rule="evenodd"/>
</svg>
