<svg xmlns="http://www.w3.org/2000/svg" xmlns:xlink="http://www.w3.org/1999/xlink" preserveAspectRatio="xMidYMid" width="26" height="15" viewBox="0 0 13 15">
  <defs>
    <style>

      .cls-2 {
        fill: #c9c9c9;
      }
    </style>
  </defs>
  <path d="M11.931,12.264 C12.095,12.543 11.998,12.898 11.715,13.059 C11.715,13.059 10.177,13.932 10.177,13.932 C9.894,14.093 9.533,13.997 9.369,13.719 C9.369,13.719 7.002,10.426 7.002,10.426 C6.961,10.355 6.937,10.280 6.928,10.204 C6.419,10.363 5.887,10.472 5.325,10.472 C2.384,10.472 -0.000,8.128 -0.000,5.236 C-0.000,2.344 2.384,-0.000 5.325,-0.000 C8.266,-0.000 10.650,2.344 10.650,5.236 C10.650,6.584 10.117,7.801 9.266,8.729 C9.386,8.776 9.495,8.853 9.564,8.971 C9.564,8.971 11.931,12.264 11.931,12.264 ZM5.325,1.745 C3.364,1.745 1.775,3.308 1.775,5.236 C1.775,7.164 3.364,8.727 5.325,8.727 C7.286,8.727 8.875,7.164 8.875,5.236 C8.875,3.308 7.286,1.745 5.325,1.745 Z" id="path-1" class="cls-2" fill-rule="evenodd"/>
</svg>
