<svg xmlns="http://www.w3.org/2000/svg" xmlns:xlink="http://www.w3.org/1999/xlink" preserveAspectRatio="xMidYMid" width="13" height="12" viewBox="0 0 13 12">
  <defs>
    <style>

      .cls-2 {
        fill: #d5d4d4;
      }
    </style>
  </defs>
  <path d="M6.294,-0.001 C6.294,-0.001 8.370,3.770 8.370,3.770 C8.370,3.770 12.593,4.583 12.593,4.583 C12.593,4.583 9.653,7.726 9.653,7.726 C9.653,7.726 10.187,11.999 10.187,11.999 C10.187,11.999 6.294,10.170 6.294,10.170 C6.294,10.170 2.402,11.999 2.402,11.999 C2.402,11.999 2.935,7.726 2.935,7.726 C2.935,7.726 -0.004,4.583 -0.004,4.583 C-0.004,4.583 4.218,3.770 4.218,3.770 C4.218,3.770 6.294,-0.001 6.294,-0.001 " id="path-1" class="cls-2" fill-rule="evenodd"/>
</svg>
