<svg xmlns="http://www.w3.org/2000/svg" xmlns:xlink="http://www.w3.org/1999/xlink" preserveAspectRatio="xMidYMid" width="13" height="12" viewBox="0 0 13 12">
  <defs>
    <style>

      .cls-2 {
        fill: #ffb618;
      }
    </style>
  </defs>
  <path d="M6.299,-0.001 C6.299,-0.001 8.375,3.770 8.375,3.770 C8.375,3.770 12.597,4.583 12.597,4.583 C12.597,4.583 9.658,7.726 9.658,7.726 C9.658,7.726 10.192,11.999 10.192,11.999 C10.192,11.999 6.299,10.170 6.299,10.170 C6.299,10.170 2.406,11.999 2.406,11.999 C2.406,11.999 2.940,7.726 2.940,7.726 C2.940,7.726 0.001,4.583 0.001,4.583 C0.001,4.583 4.223,3.770 4.223,3.770 C4.223,3.770 6.299,-0.001 6.299,-0.001 " id="path-1" class="cls-2" fill-rule="evenodd"/>
</svg>
