<svg xmlns="http://www.w3.org/2000/svg" xmlns:xlink="http://www.w3.org/1999/xlink" preserveAspectRatio="xMidYMid" width="28" height="53" viewBox="0 0 28 53">
  <defs>
    <style>

      .cls-2 {
        fill: #c9c9c9;
      }
    </style>
  </defs>
  <path d="M24.000,53.000 C24.000,53.000 25.000,50.000 25.000,50.000 C25.000,50.000 1.000,50.000 1.000,50.000 C1.000,50.000 -0.000,50.000 -0.000,50.000 C-0.000,50.000 -0.000,-0.000 -0.000,-0.000 C-0.000,-0.000 1.000,-0.000 1.000,-0.000 C1.000,-0.000 1.000,49.000 1.000,49.000 C1.000,49.000 25.000,49.000 25.000,49.000 C25.000,49.000 24.000,46.000 24.000,46.000 C24.000,46.000 28.000,49.000 28.000,49.000 C28.000,49.000 28.000,50.000 28.000,50.000 C28.000,50.000 24.000,53.000 24.000,53.000 Z" id="path-1" class="cls-2" fill-rule="evenodd"/>
</svg>
