<svg xmlns="http://www.w3.org/2000/svg" preserveAspectRatio="xMidYMid" width="13" height="22" viewBox="0 0 13 22"><path d="M6.79 15.276c-.106-.166-.192-.37-.255-.615-.064-.24-.095-.48-.095-.71 0-.34.044-.646.132-.914.088-.27.217-.523.388-.762.17-.24.386-.48.644-.724.26-.244.56-.508.9-.79.51-.42.958-.83 1.35-1.224.39-.398.717-.81.98-1.24.264-.43.464-.887.6-1.37.138-.484.206-1.024.206-1.62 0-.937-.164-1.74-.49-2.41-.328-.668-.782-1.217-1.363-1.647C9.207.81 8.525.5 7.744.3 6.962.1 6.118 0 5.21 0c-.95 0-1.867.11-2.755.336-.89.224-1.71.562-2.46 1.01v4.41c.73-.645 1.507-1.126 2.328-1.443.82-.317 1.61-.476 2.373-.476.35 0 .67.054.96.16.287.108.53.255.732.44.2.186.352.408.46.667.107.26.16.54.16.842 0 .352-.048.672-.145.96-.098.288-.244.566-.44.834-.195.268-.432.537-.71.805-.28.27-.603.56-.974.872-.35.293-.66.588-.93.886-.264.298-.484.61-.66.938-.175.33-.307.68-.395 1.05-.088.37-.13.78-.13 1.23 0 .29.026.59.08.9.053.32.13.61.227.86h3.85zm.22 5.728c.5-.46.748-1.04.748-1.744 0-.693-.254-1.264-.76-1.713-.51-.46-1.15-.69-1.92-.69-.782 0-1.43.23-1.95.69-.516.46-.775 1.03-.775 1.713 0 .665.26 1.24.776 1.73.51.468 1.16.702 1.94.702s1.425-.23 1.933-.688z" id="path-1" fill-rule="evenodd"/></svg>